<svg id="bg" xmlns="http://www.w3.org/2000/svg" viewBox="0 0 85 85"><defs><style>.cls-1{fill:#dd3728;}.cls-2{fill:#fff;}.cls-3{fill:#d4cdcb;}.cls-4{fill:#12110f;}</style></defs><title>types of engineering</title><path class="cls-1" d="M38.05,47H12.87a1.46,1.46,0,1,1,0-2.92h22L24.34,31.58a1.46,1.46,0,1,1,2.23-1.88L39.16,44.61A1.46,1.46,0,0,1,38.05,47Z"/><path class="cls-1" d="M64.74,47h-26a1.46,1.46,0,1,1,0-2.92H61.6l-10.12-12H38.7a1.46,1.46,0,0,1,0-2.92H52.16a1.45,1.45,0,0,1,1.11.52L65.86,44.61A1.46,1.46,0,0,1,64.74,47Z"/><path class="cls-1" d="M41,47H12.24a1.46,1.46,0,0,1-1.32-.84,1.48,1.48,0,0,1,.2-1.56L23.71,29.7a1.47,1.47,0,0,1,1.12-.52H41a1.46,1.46,0,0,1,0,2.92H25.51l-10.13,12H41A1.46,1.46,0,1,1,41,47Z"/><path class="cls-1" d="M38.82,47a1.43,1.43,0,0,1-.94-.34,1.46,1.46,0,0,1-.18-2.06L50.29,29.7a1.46,1.46,0,1,1,2.23,1.88L39.93,46.5A1.44,1.44,0,0,1,38.82,47Z"/><path class="cls-1" d="M25.14,46.47A1.47,1.47,0,0,1,23.68,45V31.17a1.46,1.46,0,1,1,2.92,0V45A1.46,1.46,0,0,1,25.14,46.47Z"/><path class="cls-1" d="M51.76,46.47A1.47,1.47,0,0,1,50.3,45V31.17a1.46,1.46,0,1,1,2.92,0V45A1.46,1.46,0,0,1,51.76,46.47Z"/><path class="cls-1" d="M38.44,46.47A1.46,1.46,0,0,1,37,45V31.17a1.46,1.46,0,1,1,2.92,0V45A1.46,1.46,0,0,1,38.44,46.47Z"/><path class="cls-2" d="M33.59,41.73a1.46,1.46,0,0,1-1.12-.51l-8-9.51a1.46,1.46,0,1,1,2.22-1.89l8.06,9.51a1.45,1.45,0,0,1-1.11,2.4Z"/><path class="cls-2" d="M46,41.73a1.44,1.44,0,0,1-1.11-.51l-8.06-9.51a1.46,1.46,0,0,1,2.23-1.89l8,9.51A1.45,1.45,0,0,1,46,41.73Z"/><path class="cls-2" d="M60.25,41.73a1.45,1.45,0,0,1-1.11-.51l-8.06-9.51a1.46,1.46,0,0,1,2.23-1.89l8.06,9.51a1.45,1.45,0,0,1-1.12,2.4Z"/><path class="cls-3" d="M20.17,56.34a1.46,1.46,0,0,1-1.11-.52L11,46.31a1.46,1.46,0,1,1,2.23-1.89l8.06,9.51A1.47,1.47,0,0,1,21.12,56,1.49,1.49,0,0,1,20.17,56.34Z"/><path class="cls-4" d="M46.19,56.6H21a1.46,1.46,0,0,1,0-2.92H43L32.48,41.17a1.46,1.46,0,0,1,2.23-1.89L47.3,54.2a1.46,1.46,0,0,1-1.11,2.4Z"/><path class="cls-4" d="M72.89,56.6h-26a1.46,1.46,0,0,1,0-2.92h22.9l-10.12-12H46.84a1.46,1.46,0,1,1,0-2.92H60.3a1.46,1.46,0,0,1,1.11.51L74,54.2a1.46,1.46,0,0,1-1.11,2.4Z"/><path class="cls-4" d="M49.18,56.6H20.38a1.46,1.46,0,0,1-1.11-2.4L31.85,39.28A1.49,1.49,0,0,1,33,38.77H49.18a1.46,1.46,0,1,1,0,2.92H33.65l-10.12,12H49.18a1.46,1.46,0,0,1,0,2.92Z"/><path class="cls-4" d="M47,56.6a1.46,1.46,0,0,1-1.12-2.4L58.43,39.28a1.46,1.46,0,0,1,2.23,1.89L48.07,56.08A1.45,1.45,0,0,1,47,56.6Z"/><path class="cls-4" d="M33.28,56.05a1.46,1.46,0,0,1-1.46-1.46V40.75a1.47,1.47,0,0,1,2.93,0V54.59A1.46,1.46,0,0,1,33.28,56.05Z"/><path class="cls-4" d="M59.91,56.05a1.46,1.46,0,0,1-1.47-1.46V40.75a1.47,1.47,0,0,1,2.93,0V54.59A1.46,1.46,0,0,1,59.91,56.05Z"/><path class="cls-4" d="M46.58,56.05a1.46,1.46,0,0,1-1.46-1.46V40.75a1.46,1.46,0,0,1,2.92,0V54.59A1.46,1.46,0,0,1,46.58,56.05Z"/></svg>