<svg id="bg" xmlns="http://www.w3.org/2000/svg" viewBox="0 0 85 85"><defs><style>.cls-1{fill:#fff;}.cls-2{fill:#dd3728;}.cls-3{fill:#12110f;}.cls-4{fill:#9ba094;}.cls-5{fill:#d4cdcb;}.cls-6{fill:none;stroke:#9ba094;stroke-miterlimit:10;stroke-width:1.1px;}</style></defs><title>types of engineering</title><rect class="cls-1" x="54.61" y="27.17" width="19.14" height="10.72"/><path class="cls-2" d="M82.56,47.62a10.2,10.2,0,1,1-10.19-10.2A10.19,10.19,0,0,1,82.56,47.62Z"/><rect class="cls-3" x="60.52" y="36.6" width="22.02" height="11.74"/><rect class="cls-4" x="49.88" y="37.73" width="10.64" height="10.61"/><path class="cls-4" d="M49.88,48.34v3.21a6.15,6.15,0,0,1-.84,3.1,6.3,6.3,0,0,0,2.58,3.15H54.3a6.24,6.24,0,0,0,6.22-6.23V48.34Z"/><rect class="cls-3" x="49.37" y="37.71" width="13.07" height="1.43"/><rect class="cls-3" x="49.37" y="42.36" width="13.07" height="1.43"/><rect class="cls-3" x="49.37" y="47.01" width="13.07" height="1.43"/><rect class="cls-3" x="50.23" y="51.65" width="12.21" height="1.43"/><rect class="cls-2" x="52.58" y="56.38" width="11.3" height="1.43"/><path class="cls-2" d="M60.52,48.34v3.23A6.24,6.24,0,0,1,54.3,57.8H71.13a6.24,6.24,0,0,0,6.23-6.23V48.34Z"/><rect class="cls-3" x="48.65" y="36.6" width="1.57" height="11.74"/><path class="cls-3" d="M75,57.43a1.34,1.34,0,1,1-1.34-1.34A1.34,1.34,0,0,1,75,57.43Z"/><path class="cls-3" d="M73.52,56.91h-.08a.57.57,0,0,1-.51-.3l-.6-1.08a.59.59,0,0,1,.52-.87h.67a.59.59,0,0,1,.59.59v1.07A.59.59,0,0,1,73.52,56.91Z"/><path class="cls-3" d="M73.72,57.85h.07a.6.6,0,0,1,.52.31l.59,1.07a.59.59,0,0,1-.51.88h-.67a.59.59,0,0,1-.59-.59V58.44A.59.59,0,0,1,73.72,57.85Z"/><path class="cls-3" d="M73.15,57.48v.08a.58.58,0,0,1-.31.51l-1.07.6a.6.6,0,0,1-.88-.52v-.67a.59.59,0,0,1,.59-.58h1.08A.59.59,0,0,1,73.15,57.48Z"/><path class="cls-3" d="M74.09,57.28v-.07a.59.59,0,0,1,.3-.52l1.08-.59a.59.59,0,0,1,.87.51v.67a.58.58,0,0,1-.59.59H74.68A.58.58,0,0,1,74.09,57.28Z"/><rect class="cls-5" x="55.92" y="29.59" width="9.25" height="1.52"/><path class="cls-2" d="M48.64,48.34v4.17a6.22,6.22,0,0,0,2.74,5.12,6.11,6.11,0,0,0,1.87-.75,6.23,6.23,0,0,1-3-5.33V48.34Z"/><polygon class="cls-2" points="51.31 57.11 51.31 57.6 51.67 57.84 52.86 57.81 52.91 57.13 52.58 56.7 51.31 57.11"/><path class="cls-2" d="M29.07,58.65H15.3A2.71,2.71,0,0,1,12.6,56h0a2.71,2.71,0,0,1,2.7-2.7H29.07a2.7,2.7,0,0,1,2.7,2.7h0A2.7,2.7,0,0,1,29.07,58.65Z"/><path class="cls-4" d="M38.55,52.56H27.7l.44,0H45a6.17,6.17,0,0,1-3.23-.92A6.08,6.08,0,0,1,38.55,52.56Z"/><path class="cls-2" d="M22.26,52.41V49.2h-8.8l6.45,9.45H32.05v0H28.48A6.24,6.24,0,0,1,22.26,52.41Z"/><polygon class="cls-3" points="22.26 37.51 5.49 37.51 13.46 49.2 22.26 49.2 22.26 37.51"/><polygon class="cls-3" points="25.68 34.71 3.61 34.71 12.95 48.45 27.05 48.45 25.68 34.71"/><path class="cls-2" d="M32.9,52.43V49.2h-.85v9.43H28.7C25.48,58.4,32.9,55.71,32.9,52.43Z"/><polygon class="cls-3" points="32.05 49.2 32.9 49.2 32.9 37.46 39.75 37.46 45.77 37.46 45.77 37.44 22.26 37.44 22.26 37.51 32.05 37.51 32.05 49.2"/><rect class="cls-3" x="32.9" y="37.46" width="6.85" height="11.74"/><rect class="cls-3" x="39.75" y="37.46" width="6.02" height="11.74"/><rect class="cls-3" x="22.26" y="37.5" width="9.79" height="11.69"/><path class="cls-2" d="M22.26,49.2v3.21a6.24,6.24,0,0,0,6.22,6.22h3.57V49.2Z"/><path class="cls-2" d="M42.74,57.73a6.21,6.21,0,0,1-3-5.3V49.2H32.9v3.23c0,3.28-7.42,6-4.2,6.2H39.54A6.14,6.14,0,0,0,42.74,57.73Z"/><path class="cls-2" d="M39.75,52.43a6.21,6.21,0,0,0,3,5.3,6.22,6.22,0,0,0,3-5.32V49.2h-6Z"/><path class="cls-4" d="M19.26,38.44a1.52,1.52,0,1,1-1.51-1.51A1.52,1.52,0,0,1,19.26,38.44Z"/><line class="cls-6" x1="17.76" y1="38.95" x2="17.76" y2="43.47"/><polyline class="cls-6" points="19.56 42.32 17.76 44.12 15.96 42.32"/></svg>