<svg id="bg" xmlns="http://www.w3.org/2000/svg" viewBox="0 0 85 85"><defs><style>.cls-1{fill:#12110f;}.cls-2{fill:#9ba094;}.cls-3{fill:#dd3728;}.cls-4{fill:none;stroke:#fff;stroke-miterlimit:10;stroke-width:1.05px;}.cls-5{fill:#fff;}</style></defs><title>types of engineering</title><rect class="cls-1" x="56.87" y="24.32" width="2.13" height="33.41"/><polygon class="cls-2" points="55.1 32.71 21.82 31.39 19.4 27.89 57.1 29.41 55.1 32.71"/><path class="cls-3" d="M40.51,32.83a12,12,0,0,0-16.24,4.89l9.52,4.73L40.58,33"/><path class="cls-4" d="M24.27,37.72a12,12,0,0,1,16.24-4.89"/><polygon class="cls-5" points="66.25 30.23 18.83 28.68 18.83 25.04 66.25 23.93 66.25 30.23"/><rect class="cls-5" x="40.58" y="24.66" width="3.13" height="8.28"/><rect class="cls-1" x="55.78" y="34.88" width="4.31" height="0.84"/><rect class="cls-1" x="55.78" y="37.08" width="4.31" height="0.84"/><rect class="cls-1" x="55.78" y="50.77" width="4.31" height="0.84"/><rect class="cls-2" x="55.78" y="57.35" width="4.31" height="0.84"/><rect class="cls-1" x="51.09" y="53.03" width="6.33" height="9.16" rx="1.89"/><rect class="cls-1" x="58.45" y="53.03" width="6.33" height="9.16" rx="1.89"/><circle class="cls-5" cx="42.42" cy="43.58" r="11.42" transform="translate(-9.74 74.85) rotate(-76.72)"/><path class="cls-1" d="M51.55,43.58a9.14,9.14,0,1,1-9.13-9.14A9.13,9.13,0,0,1,51.55,43.58Z"/><path class="cls-2" d="M45.53,43.58a3.12,3.12,0,1,1-3.11-3.12A3.12,3.12,0,0,1,45.53,43.58Z"/><polygon class="cls-2" points="41.64 52.39 43.19 50.75 43.19 34.77 41.64 36.41 41.64 52.39"/><polygon class="cls-2" points="48.09 50.36 48.03 48.1 36.74 36.8 36.8 39.06 48.09 50.36"/><polygon class="cls-2" points="51.22 44.36 49.58 42.8 33.61 42.8 35.25 44.36 51.22 44.36"/><path class="cls-1" d="M44.16,43.58a1.75,1.75,0,1,1-1.74-1.75A1.75,1.75,0,0,1,44.16,43.58Z"/></svg>