<svg id="bg" xmlns="http://www.w3.org/2000/svg" viewBox="0 0 85 85"><defs><style>.cls-1{fill:#fff;}.cls-2{fill:#12110f;}.cls-3{fill:#dd3728;}.cls-4{fill:#9ba094;}.cls-5{fill:none;stroke:#9ba094;stroke-miterlimit:10;stroke-width:0.63px;}.cls-6{fill:#c62118;}.cls-7{fill:#d4cdcb;}</style></defs><title>types of engineering</title><rect class="cls-1" x="27.17" y="31.43" width="10.87" height="9.47"/><rect class="cls-1" x="23.25" y="36.16" width="18.7" height="14.84"/><polygon class="cls-2" points="32.6 52.33 32.6 52.32 43.78 58.32 48.84 49.12 32.6 37.42 32.6 37.43 32.6 37.42 16.36 49.12 21.43 58.32 32.6 52.32 32.6 52.33"/><polygon class="cls-3" points="30.81 65.17 34.39 65.17 40 65.17 43.78 58.32 32.6 52.32 32.6 52.33 32.6 52.32 21.43 58.32 25.21 65.17 30.81 65.17"/><path class="cls-4" d="M28.75,46.06a.86.86,0,0,1-1.72,0,.86.86,0,0,1,1.72,0Z"/><line class="cls-5" x1="27.9" y1="46.35" x2="27.9" y2="48.92"/><polyline class="cls-5" points="28.92 48.27 27.9 49.29 26.88 48.27"/><polygon class="cls-6" points="32.6 52.32 32.6 65.17 40 65.17 43.78 58.32 32.6 52.32"/><rect class="cls-3" x="27.38" y="25.03" width="33.61" height="3.01"/><rect class="cls-7" x="52.23" y="27.99" width="8.75" height="10.45"/><rect class="cls-2" x="47.26" y="19.62" width="2.93" height="45.56"/><rect class="cls-7" x="37.5" y="51.86" width="20.87" height="9.82"/><rect class="cls-1" x="37.5" y="61.54" width="17.63" height="1.53"/><rect class="cls-1" x="37.5" y="60.53" width="21.72" height="1.53"/><circle class="cls-2" cx="40.51" cy="63.59" r="1.63"/><path class="cls-2" d="M46.07,63.59A1.64,1.64,0,1,1,44.43,62,1.63,1.63,0,0,1,46.07,63.59Z"/><path class="cls-3" d="M63.88,50.71v2.56h2.56A2.56,2.56,0,0,0,63.88,50.71Z"/><rect class="cls-3" x="58.37" y="50.72" width="5.54" height="2.8"/><polygon class="cls-1" points="68.04 62.57 58.34 62.57 58.34 53.27 66.96 53.27 68.04 62.57"/><rect class="cls-4" x="54.64" y="62.07" width="13.99" height="1.58"/><circle class="cls-2" cx="56.95" cy="63.59" r="1.63"/><circle class="cls-2" cx="64.28" cy="63.59" r="1.63"/><rect class="cls-7" x="62.73" y="54.42" width="3.29" height="2.65"/><rect class="cls-7" x="60.71" y="54.42" width="1.01" height="2.65"/></svg>