<?xml version="1.0" encoding="utf-8"?>
<!-- Generator: Adobe Illustrator 18.1.1, SVG Export Plug-In . SVG Version: 6.00 Build 0)  -->
<svg version="1.1" id="Layer_1" xmlns="http://www.w3.org/2000/svg" xmlns:xlink="http://www.w3.org/1999/xlink" x="0px" y="0px"
	 viewBox="0 0 1920 835.3" enable-background="new 0 0 1920 835.3" xml:space="preserve">
<metadata><?xpacket begin="﻿" id="W5M0MpCehiHzreSzNTczkc9d"?>
<x:xmpmeta xmlns:x="adobe:ns:meta/" x:xmptk="Adobe XMP Core 5.6-c014 79.156821, 2014/08/29-03:07:50        ">
   <rdf:RDF xmlns:rdf="http://www.w3.org/1999/02/22-rdf-syntax-ns#">
      <rdf:Description rdf:about=""
            xmlns:dc="http://purl.org/dc/elements/1.1/"
            xmlns:xmp="http://ns.adobe.com/xap/1.0/"
            xmlns:xmpGImg="http://ns.adobe.com/xap/1.0/g/img/"
            xmlns:xmpMM="http://ns.adobe.com/xap/1.0/mm/"
            xmlns:stRef="http://ns.adobe.com/xap/1.0/sType/ResourceRef#"
            xmlns:stEvt="http://ns.adobe.com/xap/1.0/sType/ResourceEvent#"
            xmlns:illustrator="http://ns.adobe.com/illustrator/1.0/"
            xmlns:xmpTPg="http://ns.adobe.com/xap/1.0/t/pg/"
            xmlns:stDim="http://ns.adobe.com/xap/1.0/sType/Dimensions#"
            xmlns:xmpG="http://ns.adobe.com/xap/1.0/g/"
            xmlns:pdf="http://ns.adobe.com/pdf/1.3/">
         <dc:format>image/svg+xml</dc:format>
         <dc:title>
            <rdf:Alt>
               <rdf:li xml:lang="x-default">Print</rdf:li>
            </rdf:Alt>
         </dc:title>
         <xmp:MetadataDate>2018-11-12T13:38:21+02:00</xmp:MetadataDate>
         <xmp:ModifyDate>2018-11-12T13:38:21+02:00</xmp:ModifyDate>
         <xmp:CreateDate>2018-11-12T13:38:21+02:00</xmp:CreateDate>
         <xmp:CreatorTool>Adobe Illustrator CC 2014 (Windows)</xmp:CreatorTool>
         <xmp:Thumbnails>
            <rdf:Alt>
               <rdf:li rdf:parseType="Resource">
                  <xmpGImg:width>256</xmpGImg:width>
                  <xmpGImg:height>112</xmpGImg:height>
                  <xmpGImg:format>JPEG</xmpGImg:format>
                  <xmpGImg:image>/9j/4AAQSkZJRgABAgEASABIAAD/7QAsUGhvdG9zaG9wIDMuMAA4QklNA+0AAAAAABAASAAAAAEA&#xA;AQBIAAAAAQAB/+4ADkFkb2JlAGTAAAAAAf/bAIQABgQEBAUEBgUFBgkGBQYJCwgGBggLDAoKCwoK&#xA;DBAMDAwMDAwQDA4PEA8ODBMTFBQTExwbGxscHx8fHx8fHx8fHwEHBwcNDA0YEBAYGhURFRofHx8f&#xA;Hx8fHx8fHx8fHx8fHx8fHx8fHx8fHx8fHx8fHx8fHx8fHx8fHx8fHx8fHx8f/8AAEQgAcAEAAwER&#xA;AAIRAQMRAf/EAaIAAAAHAQEBAQEAAAAAAAAAAAQFAwIGAQAHCAkKCwEAAgIDAQEBAQEAAAAAAAAA&#xA;AQACAwQFBgcICQoLEAACAQMDAgQCBgcDBAIGAnMBAgMRBAAFIRIxQVEGE2EicYEUMpGhBxWxQiPB&#xA;UtHhMxZi8CRygvElQzRTkqKyY3PCNUQnk6OzNhdUZHTD0uIIJoMJChgZhJRFRqS0VtNVKBry4/PE&#xA;1OT0ZXWFlaW1xdXl9WZ2hpamtsbW5vY3R1dnd4eXp7fH1+f3OEhYaHiImKi4yNjo+Ck5SVlpeYmZ&#xA;qbnJ2en5KjpKWmp6ipqqusra6voRAAICAQIDBQUEBQYECAMDbQEAAhEDBCESMUEFURNhIgZxgZEy&#xA;obHwFMHR4SNCFVJicvEzJDRDghaSUyWiY7LCB3PSNeJEgxdUkwgJChgZJjZFGidkdFU38qOzwygp&#xA;0+PzhJSktMTU5PRldYWVpbXF1eX1RlZmdoaWprbG1ub2R1dnd4eXp7fH1+f3OEhYaHiImKi4yNjo&#xA;+DlJWWl5iZmpucnZ6fkqOkpaanqKmqq6ytrq+v/aAAwDAQACEQMRAD8A9U4q7FXYq7FXYq7FXYq7&#xA;FXYq7FXYq7FXYq7FXYq7FXYq7FXYq7FXYq7FXYq7FXYq7FXYq7FXYq7FXYq7FXYq7FXYq7FXYq7F&#xA;XYq7FXYq7FXYq7FXYq7FXYq7FUBpOt6bqyztYyiQW0rQS/6y9x4qex75VjzRnddGvHljO+HoaR+W&#xA;tjsVdirsVdirsVdirsVdirsVdirsVdirsVdirsVdirsVdirsVdirsVdirsVdirsVdirsVdirsVY9&#xA;581DUbLy5ctp8TPNIpR5loBFHT45CT7bD3zF1k5RxnhcXWTlHGeHn9zzf8sdQ1G18wiO2iae2nXj&#xA;dxpSqpWgkp/kMd/Y5qtBOQntuDzdP2bOQyUNwef63tOb96J2KuxV2KuxV2KuxV2KuxV2KuxV2Kux&#xA;V2KuxV2KuxV2KuxV2KuxV2KuxV2KuxV2KuxV2KuxV2KsU/Mz0P8AC8vr3LQJzXjEgFZn/Yjqe1fi&#xA;PyzC19eHuf2uF2hXhGzX6Xm/5dmD/FVp6ly1rLX9wygFXbvE9ezrUfPNVoq8Qb06fs+vFFmnuedE&#xA;9K7FXYq7FXE0BPh9OKvH7n847aTzNaXKc7exthJBcWcjojyFmI5fvDGoqAhHIgDvmkyauZzxIB4K&#xA;eiw6DH+VnxEeJe3w/BeuW0xmtopmT0zIiuY6q3EsK05KSpp4g0zdA2HniKKphQ7FXYq7FXYq7FXY&#xA;q7FXYq7FXYq7FXYq7FUv8w6hPp+j3N5AFMsQXgrEAElgtBUgVNdqnrmJrs0seIyjVjv5c27BASmA&#xA;eTFfLH5n6ZqOu2/l65Ytql2kkts8ShouMIq6O6mgdaHoKdN67Zj9l6qefGZTq7/Hz5jZu1uAY5Ch&#xA;sQzrNm4bsVQt7qdjZSW0d1KI2u5RBAD+05BIH4ZCeSMavqwlkEavqismzdirsVdirFPzKstdv/Lj&#xA;2Wh2C3t9cNw9RmhT0IyPjdTKy/Efsjj41yjPDijQFs8cYE+vk878h+SfzD0PzJbXd9pHr2DER3Sy&#xA;T2snFSRSRAZGoyEctt+3fMbFpzGV8I+xvyRwEbAX7nt+bBxXYq7FXYq7FUrvPK3lu9iWK50y2kjW&#xA;Y3AUxKB6pNWc0AqWI+L+bvkDjiejYMshyKaZNrdirsVdirsVdirsVdirsVdirsVdirsVdirsVSjz&#xA;TpV1qmktZ20cEjyOpP1glVVRuStEk+Lt0+nMPX6eWbEYRPCT1btPlEJiRFpJ5I8hw6NMupX1vbpq&#xA;0cJs4TbFjDHAHr+7BCcfU4qaU26VOVdnaKWnEgZcXEb/AAerZqtT4tUKAZlmxcV2KvE/zG1nUL3z&#xA;EVlimtYLQcbNJFaNioO8oBAPxsux8BnP63LKWTfauX63nO0M0pZOoA5freqeUtVvNT0K3uL2CSC7&#xA;ACTCRCnMgCki1Aqrgg7ZudNkM4Akbu802QzgDIUU4y9vdirsVdirsVdirsVdirsVdirsVdirsVdi&#xA;rsVdirsVdirsVdirsVdirsVdirsVdirsVdirsVdirwbz56n+KL31boXc3L94yqVVD2iWpNeC0Gc5&#xA;q/7w2beY1396d7/HJ6t+X3P/AArZ1uhdxUPosF4si/77bdt0aozcaL+7G9u80X90N7ZHmW5bsVdi&#xA;rsVdirsVeefmb53uNNkj0nS5zDebSXUycaop3VBU7E9T7U8cxs+Wtg5ODFe5YF/jrzb/ANXWf71/&#xA;rlHiy73J8KPc7/HXmz/q6z/ev9cfFl3r4Ue5Ofy1/NK9n8yNpes3TT2t8Vjs55OqTDZR8pK0+dPf&#xA;J4cx4qLXnwDhsPZ8zXBdirsVdirsVdirsVdirsVdirsVdirsVdirsVdirsVdirsVdir5+84+XfOm&#xA;oeYry40rQrm20/mVgVY93AO8jE1JLn4s1WTTXIkRboaPTV6hEl6x+W0V3F5XhivtOfTb6Nil1Eyl&#xA;RI6gATKK0+NaV965naeAjGqpqlihjNQ+llOXoQOq67pGkrG2o3cdt6pIiDn4mpSvFRUkDkKntlWX&#xA;NDGLkab8GmyZTUBZRkUsU0STQuskUih45EIZWVhUMpGxBGWtBC7FXYql3mPWF0bRLvUynqfVkqqd&#xA;KsxCrX25MK5GcuEWyhHiNPne71Ca8upbq5lMk8zF5HNKlmNT+xmuJt2YFKPqr/N+P/NmBKX6te8Y&#xA;/QQnlIPiP+T4dF65ElkAk6sVIZTRhuCOoORZPpr8r/NVx5k8qRXV0D9ctZDaXMh/3Y8aq3P/AGSu&#xA;K+9c2eGfFF1efHwyZblrS7FXYq7FXYq7FXYq7FXYq7FXYq7FVjTwrIkbOBJLX018eIqafLBxDkml&#xA;4YMAVNQehGFDsVdirsVdirsVdirsVUNQiu5bC5is5RBdyROtvMwqEkKkIxHfi2+KvlzTNf8AMrT3&#xA;Wl+cba41f6lO8KG4nl5xXPqxRtH6pEoKHlyoOwP7NQcPUQhKYs0RGR+y/wBDs9CcggeEGjKPQ878&#xA;vf8AJ9K+U7kXXlbSLjgYzLZW7NEa1RjEtVPLeqnbfL8FcArlTh6m/ElYo2U1y1odirGvzJ/5QnVP&#xA;9SP/AJOplWb6S24PrDyPyh5m0/RY7pbuGSUzlChjEZpxBrX1AfHtmLiyCPNzMuMy5Lk80acPLDaU&#xA;YJPrJSVRJSPhWSUuN/tbDHxBw0jwzxWwPVf96F/1B+s5jlyQlFvcySXUkTU4pypTrsaY0l9D/kD/&#xA;AModef8AbRk/5MQ5naX6fi6/V/V8HpeZLiuxV2KuxV2KuxV2KuxV2KuxV2KpX5h1ZtOtVaIr68hI&#xA;QMD0HUjttUZTny8A25tmOFlgv1u5FKSMArF1oehIoafQM1vEXJoJ35Z1t4ZltZm/ct0JOy9W+8ls&#xA;yNPlo0WvJC92X3N1bWsD3F1MkEEe8k0rBEUE03ZqAZnk044FsbuvzO8h29rNcHWbaQQo0hjjcO7B&#xA;QTRFHVjTYZT+Zx97b+Xydzx38tbv83tZ1OXzlYOuoG5lNtdW17NSGKOZ1mMSAsOKQq4pw3HvUg4k&#xA;J5JTMo8uTl5IY4xEZc+b6KzZOudirsVdirsVec+cfI/nbVfMM95ot7a6dZyonJ3lmaSR1QJVoljV&#xA;Vp2+Nq07dMwM2gjkmZEnd2WDtI48YgIxNXuR3ss8nWGt2GgQWetei19CXDSW8rzq6sxYMWkjhYH4&#xA;qUp9OZODF4cBG7pxNTmGXIZgcN9PgnWXNDsVSrzVo8us6Bd6ZFIsUlyqhZHqVHF1ben+rkMkeIUz&#xA;xy4ZW81/5UnrH/Vxt/8AgX/pmN+WPe5X5odzv+VJ6x/1cbf/AIF/6Y/lj3r+aHcg7z8hdbnlDrqd&#xA;sAFA3WTxPtgOlPekasdyV23/ADjp5ljvJZX1Sy9N+XGnqlt2qKgoP14Pysu9P5uPc9U/Lfydd+VN&#xA;Dn066uI7iSW6e4DxBgAGjjSnxd/3eZOHGYCnGzZBM2GV5a0uxVI/Nfmuz8vW0Es6+pJPKqJEDvwB&#xA;HqP/ALFfxpmPqNQMQBPVxtTqY4gCeqZT6nZQaa2pPKPqaxet6o6FKVBHz7ZacgEeLo3HIBHi6IHy&#xA;r5kt/MGli8iX05FZo5oa1KMOn3rQ5Xp84yxtr02oGWPEE4y9vdirsVdirsVdirxD88NR1q18xW9t&#xA;aObaK4thJ9ZqB0cRUqagBWfk3wk9PoxMuO5W34zsxrQr3zNPomt3ht5LkaNF67u5AdUb1KLKFePd&#xA;PSPOi1HcZQcBJ2Z8SU6NrPmh9btrVrhrmW4uEtzblowCZJVgHHiU4kM9dnNP2vHJHD3LxPVfzK8s&#xA;eYbv8unjvr2N/qUtrciAIEKrFVDHzBbkauNz4ZPLGQxGz0XAR4gpgEP5XufITea3vhHIGZVsPS5k&#xA;sLk2yj1fUA3O/wBjML8n6OK3O/N+vhp7N+VWnQ2fkmxkQlpr/leXTGgrNL9rYdKcQPozY6SNYx5u&#xA;v1UrmfLZl2ZLjuxV2KuxV2KuxV2KuxV2KuxV2KuxV2KuxV2KuxV2KvF/zSa+PmZhdTROojH1eCJm&#xA;YxxVNOdVUBm+0ev6s0PaF+JuXne0uLxNz7l14+tH8ubUPe2zaZ69EQPJ67Gu0JUpx+Bgzfa8MZGf&#xA;gDccN/H3Mpmf5Ybjhv4+5E/lG18NauBBNELcxj61bOWDsorxeMBSCUY0NSNjk+zb4zXLqy7L4uM0&#xA;dur13N2752KuxV2KuxV2KpV5g8raD5hgjh1e1FwsJYxOHkikTmpRwskTI4DqaMK0PfAQCkGl+leX&#xA;NF0u0uLSztgsN27y3fqs87zPIKO0skxd5Cw2PInEBbSzSvy38l6VqEWoWWncLqA1gZ5p5UjPHjWO&#xA;OV3RKLsOKig2GARCTIp1q2k2Gr6dNp1/GZbS4AEsau8RIBDD442RxuOxxlESFFYyINhAf4O8vfoJ&#xA;tB+rv+i2l+sGD15+QkE4uarJ6nqL+9HKganbptjwCq6Lxm76o7SNJsNI06HTrBGis7cERRs7ykBm&#xA;LH45Gdzu3c4xiIigspEmyjMkxdirsVdirsVdirsVdirsVdirsVdirsVdirsVdirsVeIfmbJZJ5ll&#xA;MVu1vWvq3Epf9/IPtMnqGnFdlHHbNBrReQ0Pv3dBrsMp5DwRl5mitum0oeRoGXTJUvhIWe6JuPQC&#xA;Hj+/FW9Ksg4p9/tgkB4QHCeL4/NEsX7oREJcd/0vmjfymeyfXmL27SyBf3F5GZOMTkGqPwPCjrX7&#xA;Q6jLOzxU9x8Wzs/EYT9cSD0O4eyZvHeOxV2KuxV2KuxV2KuxV2KuxV2KuxV2KuxV2KuxV2KuxV2K&#xA;uxV2KuxV2KuxV2KuxV2KuxV2KvKvO35T+ZvM/mCfU5dTtkhNI7SAiQ+nCv2V6dT9o+5zEyYJSN25&#xA;eLURjGqUpvyp86y+WIPLb6xanToJmnUcZeRr0Tp9lW5NTxOPgS4eG9k/mIcXFW6O/L/8sfMnlTW/&#xA;rv6Rt5rOZDFd26hwWXqpFRTkrfx8cliwyibtjmzxmKp6ZmS4rsVdirsVdirsVdirsVdirsVdirsV&#xA;dirsVdirsVdirsVdirsVdirsVdirsVdirsVdirsVdirsVdirsVdirsVdirsVf//Z</xmpGImg:image>
               </rdf:li>
            </rdf:Alt>
         </xmp:Thumbnails>
         <xmpMM:InstanceID>xmp.iid:a94065da-b16b-414d-b54a-4c6b54a123e6</xmpMM:InstanceID>
         <xmpMM:DocumentID>xmp.did:a94065da-b16b-414d-b54a-4c6b54a123e6</xmpMM:DocumentID>
         <xmpMM:OriginalDocumentID>uuid:5D20892493BFDB11914A8590D31508C8</xmpMM:OriginalDocumentID>
         <xmpMM:RenditionClass>proof:pdf</xmpMM:RenditionClass>
         <xmpMM:DerivedFrom rdf:parseType="Resource">
            <stRef:instanceID>uuid:d1c078a0-2746-42b2-b0d1-25aedff8fb1e</stRef:instanceID>
            <stRef:documentID>xmp.did:1b6690ed-28a8-c141-9479-b6a9cf6be651</stRef:documentID>
            <stRef:originalDocumentID>uuid:5D20892493BFDB11914A8590D31508C8</stRef:originalDocumentID>
            <stRef:renditionClass>proof:pdf</stRef:renditionClass>
         </xmpMM:DerivedFrom>
         <xmpMM:History>
            <rdf:Seq>
               <rdf:li rdf:parseType="Resource">
                  <stEvt:action>saved</stEvt:action>
                  <stEvt:instanceID>xmp.iid:a94065da-b16b-414d-b54a-4c6b54a123e6</stEvt:instanceID>
                  <stEvt:when>2018-11-12T13:38:21+02:00</stEvt:when>
                  <stEvt:softwareAgent>Adobe Illustrator CC 2014 (Windows)</stEvt:softwareAgent>
                  <stEvt:changed>/</stEvt:changed>
               </rdf:li>
            </rdf:Seq>
         </xmpMM:History>
         <illustrator:StartupProfile>Print</illustrator:StartupProfile>
         <xmpTPg:HasVisibleOverprint>False</xmpTPg:HasVisibleOverprint>
         <xmpTPg:HasVisibleTransparency>False</xmpTPg:HasVisibleTransparency>
         <xmpTPg:NPages>1</xmpTPg:NPages>
         <xmpTPg:MaxPageSize rdf:parseType="Resource">
            <stDim:w>1920.000000</stDim:w>
            <stDim:h>835.337872</stDim:h>
            <stDim:unit>Pixels</stDim:unit>
         </xmpTPg:MaxPageSize>
         <xmpTPg:PlateNames>
            <rdf:Seq>
               <rdf:li>Cyan</rdf:li>
               <rdf:li>Magenta</rdf:li>
               <rdf:li>Yellow</rdf:li>
               <rdf:li>Black</rdf:li>
            </rdf:Seq>
         </xmpTPg:PlateNames>
         <xmpTPg:SwatchGroups>
            <rdf:Seq>
               <rdf:li rdf:parseType="Resource">
                  <xmpG:groupName>Default Swatch Group</xmpG:groupName>
                  <xmpG:groupType>0</xmpG:groupType>
                  <xmpG:Colorants>
                     <rdf:Seq>
                        <rdf:li rdf:parseType="Resource">
                           <xmpG:swatchName>White</xmpG:swatchName>
                           <xmpG:mode>CMYK</xmpG:mode>
                           <xmpG:type>PROCESS</xmpG:type>
                           <xmpG:cyan>0.000000</xmpG:cyan>
                           <xmpG:magenta>0.000000</xmpG:magenta>
                           <xmpG:yellow>0.000000</xmpG:yellow>
                           <xmpG:black>0.000000</xmpG:black>
                        </rdf:li>
                        <rdf:li rdf:parseType="Resource">
                           <xmpG:swatchName>Black</xmpG:swatchName>
                           <xmpG:mode>CMYK</xmpG:mode>
                           <xmpG:type>PROCESS</xmpG:type>
                           <xmpG:cyan>0.000000</xmpG:cyan>
                           <xmpG:magenta>0.000000</xmpG:magenta>
                           <xmpG:yellow>0.000000</xmpG:yellow>
                           <xmpG:black>100.000000</xmpG:black>
                        </rdf:li>
                        <rdf:li rdf:parseType="Resource">
                           <xmpG:swatchName>CMYK Red</xmpG:swatchName>
                           <xmpG:mode>CMYK</xmpG:mode>
                           <xmpG:type>PROCESS</xmpG:type>
                           <xmpG:cyan>0.000000</xmpG:cyan>
                           <xmpG:magenta>100.000000</xmpG:magenta>
                           <xmpG:yellow>100.000000</xmpG:yellow>
                           <xmpG:black>0.000000</xmpG:black>
                        </rdf:li>
                        <rdf:li rdf:parseType="Resource">
                           <xmpG:swatchName>CMYK Yellow</xmpG:swatchName>
                           <xmpG:mode>CMYK</xmpG:mode>
                           <xmpG:type>PROCESS</xmpG:type>
                           <xmpG:cyan>0.000000</xmpG:cyan>
                           <xmpG:magenta>0.000000</xmpG:magenta>
                           <xmpG:yellow>100.000000</xmpG:yellow>
                           <xmpG:black>0.000000</xmpG:black>
                        </rdf:li>
                        <rdf:li rdf:parseType="Resource">
                           <xmpG:swatchName>CMYK Green</xmpG:swatchName>
                           <xmpG:mode>CMYK</xmpG:mode>
                           <xmpG:type>PROCESS</xmpG:type>
                           <xmpG:cyan>100.000000</xmpG:cyan>
                           <xmpG:magenta>0.000000</xmpG:magenta>
                           <xmpG:yellow>100.000000</xmpG:yellow>
                           <xmpG:black>0.000000</xmpG:black>
                        </rdf:li>
                        <rdf:li rdf:parseType="Resource">
                           <xmpG:swatchName>CMYK Cyan</xmpG:swatchName>
                           <xmpG:mode>CMYK</xmpG:mode>
                           <xmpG:type>PROCESS</xmpG:type>
                           <xmpG:cyan>100.000000</xmpG:cyan>
                           <xmpG:magenta>0.000000</xmpG:magenta>
                           <xmpG:yellow>0.000000</xmpG:yellow>
                           <xmpG:black>0.000000</xmpG:black>
                        </rdf:li>
                        <rdf:li rdf:parseType="Resource">
                           <xmpG:swatchName>CMYK Blue</xmpG:swatchName>
                           <xmpG:mode>CMYK</xmpG:mode>
                           <xmpG:type>PROCESS</xmpG:type>
                           <xmpG:cyan>100.000000</xmpG:cyan>
                           <xmpG:magenta>100.000000</xmpG:magenta>
                           <xmpG:yellow>0.000000</xmpG:yellow>
                           <xmpG:black>0.000000</xmpG:black>
                        </rdf:li>
                        <rdf:li rdf:parseType="Resource">
                           <xmpG:swatchName>CMYK Magenta</xmpG:swatchName>
                           <xmpG:mode>CMYK</xmpG:mode>
                           <xmpG:type>PROCESS</xmpG:type>
                           <xmpG:cyan>0.000000</xmpG:cyan>
                           <xmpG:magenta>100.000000</xmpG:magenta>
                           <xmpG:yellow>0.000000</xmpG:yellow>
                           <xmpG:black>0.000000</xmpG:black>
                        </rdf:li>
                        <rdf:li rdf:parseType="Resource">
                           <xmpG:swatchName>C=15 M=100 Y=90 K=10</xmpG:swatchName>
                           <xmpG:mode>CMYK</xmpG:mode>
                           <xmpG:type>PROCESS</xmpG:type>
                           <xmpG:cyan>15.000000</xmpG:cyan>
                           <xmpG:magenta>100.000000</xmpG:magenta>
                           <xmpG:yellow>90.000000</xmpG:yellow>
                           <xmpG:black>10.000000</xmpG:black>
                        </rdf:li>
                        <rdf:li rdf:parseType="Resource">
                           <xmpG:swatchName>C=0 M=90 Y=85 K=0</xmpG:swatchName>
                           <xmpG:mode>CMYK</xmpG:mode>
                           <xmpG:type>PROCESS</xmpG:type>
                           <xmpG:cyan>0.000000</xmpG:cyan>
                           <xmpG:magenta>90.000000</xmpG:magenta>
                           <xmpG:yellow>85.000000</xmpG:yellow>
                           <xmpG:black>0.000000</xmpG:black>
                        </rdf:li>
                        <rdf:li rdf:parseType="Resource">
                           <xmpG:swatchName>C=0 M=80 Y=95 K=0</xmpG:swatchName>
                           <xmpG:mode>CMYK</xmpG:mode>
                           <xmpG:type>PROCESS</xmpG:type>
                           <xmpG:cyan>0.000000</xmpG:cyan>
                           <xmpG:magenta>80.000000</xmpG:magenta>
                           <xmpG:yellow>95.000000</xmpG:yellow>
                           <xmpG:black>0.000000</xmpG:black>
                        </rdf:li>
                        <rdf:li rdf:parseType="Resource">
                           <xmpG:swatchName>C=0 M=50 Y=100 K=0</xmpG:swatchName>
                           <xmpG:mode>CMYK</xmpG:mode>
                           <xmpG:type>PROCESS</xmpG:type>
                           <xmpG:cyan>0.000000</xmpG:cyan>
                           <xmpG:magenta>50.000000</xmpG:magenta>
                           <xmpG:yellow>100.000000</xmpG:yellow>
                           <xmpG:black>0.000000</xmpG:black>
                        </rdf:li>
                        <rdf:li rdf:parseType="Resource">
                           <xmpG:swatchName>C=0 M=35 Y=85 K=0</xmpG:swatchName>
                           <xmpG:mode>CMYK</xmpG:mode>
                           <xmpG:type>PROCESS</xmpG:type>
                           <xmpG:cyan>0.000000</xmpG:cyan>
                           <xmpG:magenta>35.000000</xmpG:magenta>
                           <xmpG:yellow>85.000000</xmpG:yellow>
                           <xmpG:black>0.000000</xmpG:black>
                        </rdf:li>
                        <rdf:li rdf:parseType="Resource">
                           <xmpG:swatchName>C=5 M=0 Y=90 K=0</xmpG:swatchName>
                           <xmpG:mode>CMYK</xmpG:mode>
                           <xmpG:type>PROCESS</xmpG:type>
                           <xmpG:cyan>5.000000</xmpG:cyan>
                           <xmpG:magenta>0.000000</xmpG:magenta>
                           <xmpG:yellow>90.000000</xmpG:yellow>
                           <xmpG:black>0.000000</xmpG:black>
                        </rdf:li>
                        <rdf:li rdf:parseType="Resource">
                           <xmpG:swatchName>C=20 M=0 Y=100 K=0</xmpG:swatchName>
                           <xmpG:mode>CMYK</xmpG:mode>
                           <xmpG:type>PROCESS</xmpG:type>
                           <xmpG:cyan>20.000000</xmpG:cyan>
                           <xmpG:magenta>0.000000</xmpG:magenta>
                           <xmpG:yellow>100.000000</xmpG:yellow>
                           <xmpG:black>0.000000</xmpG:black>
                        </rdf:li>
                        <rdf:li rdf:parseType="Resource">
                           <xmpG:swatchName>C=50 M=0 Y=100 K=0</xmpG:swatchName>
                           <xmpG:mode>CMYK</xmpG:mode>
                           <xmpG:type>PROCESS</xmpG:type>
                           <xmpG:cyan>50.000000</xmpG:cyan>
                           <xmpG:magenta>0.000000</xmpG:magenta>
                           <xmpG:yellow>100.000000</xmpG:yellow>
                           <xmpG:black>0.000000</xmpG:black>
                        </rdf:li>
                        <rdf:li rdf:parseType="Resource">
                           <xmpG:swatchName>C=75 M=0 Y=100 K=0</xmpG:swatchName>
                           <xmpG:mode>CMYK</xmpG:mode>
                           <xmpG:type>PROCESS</xmpG:type>
                           <xmpG:cyan>75.000000</xmpG:cyan>
                           <xmpG:magenta>0.000000</xmpG:magenta>
                           <xmpG:yellow>100.000000</xmpG:yellow>
                           <xmpG:black>0.000000</xmpG:black>
                        </rdf:li>
                        <rdf:li rdf:parseType="Resource">
                           <xmpG:swatchName>C=85 M=10 Y=100 K=10</xmpG:swatchName>
                           <xmpG:mode>CMYK</xmpG:mode>
                           <xmpG:type>PROCESS</xmpG:type>
                           <xmpG:cyan>85.000000</xmpG:cyan>
                           <xmpG:magenta>10.000000</xmpG:magenta>
                           <xmpG:yellow>100.000000</xmpG:yellow>
                           <xmpG:black>10.000000</xmpG:black>
                        </rdf:li>
                        <rdf:li rdf:parseType="Resource">
                           <xmpG:swatchName>C=90 M=30 Y=95 K=30</xmpG:swatchName>
                           <xmpG:mode>CMYK</xmpG:mode>
                           <xmpG:type>PROCESS</xmpG:type>
                           <xmpG:cyan>90.000000</xmpG:cyan>
                           <xmpG:magenta>30.000000</xmpG:magenta>
                           <xmpG:yellow>95.000000</xmpG:yellow>
                           <xmpG:black>30.000000</xmpG:black>
                        </rdf:li>
                        <rdf:li rdf:parseType="Resource">
                           <xmpG:swatchName>C=75 M=0 Y=75 K=0</xmpG:swatchName>
                           <xmpG:mode>CMYK</xmpG:mode>
                           <xmpG:type>PROCESS</xmpG:type>
                           <xmpG:cyan>75.000000</xmpG:cyan>
                           <xmpG:magenta>0.000000</xmpG:magenta>
                           <xmpG:yellow>75.000000</xmpG:yellow>
                           <xmpG:black>0.000000</xmpG:black>
                        </rdf:li>
                        <rdf:li rdf:parseType="Resource">
                           <xmpG:swatchName>C=80 M=10 Y=45 K=0</xmpG:swatchName>
                           <xmpG:mode>CMYK</xmpG:mode>
                           <xmpG:type>PROCESS</xmpG:type>
                           <xmpG:cyan>80.000000</xmpG:cyan>
                           <xmpG:magenta>10.000000</xmpG:magenta>
                           <xmpG:yellow>45.000000</xmpG:yellow>
                           <xmpG:black>0.000000</xmpG:black>
                        </rdf:li>
                        <rdf:li rdf:parseType="Resource">
                           <xmpG:swatchName>C=70 M=15 Y=0 K=0</xmpG:swatchName>
                           <xmpG:mode>CMYK</xmpG:mode>
                           <xmpG:type>PROCESS</xmpG:type>
                           <xmpG:cyan>70.000000</xmpG:cyan>
                           <xmpG:magenta>15.000000</xmpG:magenta>
                           <xmpG:yellow>0.000000</xmpG:yellow>
                           <xmpG:black>0.000000</xmpG:black>
                        </rdf:li>
                        <rdf:li rdf:parseType="Resource">
                           <xmpG:swatchName>C=85 M=50 Y=0 K=0</xmpG:swatchName>
                           <xmpG:mode>CMYK</xmpG:mode>
                           <xmpG:type>PROCESS</xmpG:type>
                           <xmpG:cyan>85.000000</xmpG:cyan>
                           <xmpG:magenta>50.000000</xmpG:magenta>
                           <xmpG:yellow>0.000000</xmpG:yellow>
                           <xmpG:black>0.000000</xmpG:black>
                        </rdf:li>
                        <rdf:li rdf:parseType="Resource">
                           <xmpG:swatchName>C=100 M=95 Y=5 K=0</xmpG:swatchName>
                           <xmpG:mode>CMYK</xmpG:mode>
                           <xmpG:type>PROCESS</xmpG:type>
                           <xmpG:cyan>100.000000</xmpG:cyan>
                           <xmpG:magenta>95.000000</xmpG:magenta>
                           <xmpG:yellow>5.000000</xmpG:yellow>
                           <xmpG:black>0.000000</xmpG:black>
                        </rdf:li>
                        <rdf:li rdf:parseType="Resource">
                           <xmpG:swatchName>C=100 M=100 Y=25 K=25</xmpG:swatchName>
                           <xmpG:mode>CMYK</xmpG:mode>
                           <xmpG:type>PROCESS</xmpG:type>
                           <xmpG:cyan>100.000000</xmpG:cyan>
                           <xmpG:magenta>100.000000</xmpG:magenta>
                           <xmpG:yellow>25.000000</xmpG:yellow>
                           <xmpG:black>25.000000</xmpG:black>
                        </rdf:li>
                        <rdf:li rdf:parseType="Resource">
                           <xmpG:swatchName>C=75 M=100 Y=0 K=0</xmpG:swatchName>
                           <xmpG:mode>CMYK</xmpG:mode>
                           <xmpG:type>PROCESS</xmpG:type>
                           <xmpG:cyan>75.000000</xmpG:cyan>
                           <xmpG:magenta>100.000000</xmpG:magenta>
                           <xmpG:yellow>0.000000</xmpG:yellow>
                           <xmpG:black>0.000000</xmpG:black>
                        </rdf:li>
                        <rdf:li rdf:parseType="Resource">
                           <xmpG:swatchName>C=50 M=100 Y=0 K=0</xmpG:swatchName>
                           <xmpG:mode>CMYK</xmpG:mode>
                           <xmpG:type>PROCESS</xmpG:type>
                           <xmpG:cyan>50.000000</xmpG:cyan>
                           <xmpG:magenta>100.000000</xmpG:magenta>
                           <xmpG:yellow>0.000000</xmpG:yellow>
                           <xmpG:black>0.000000</xmpG:black>
                        </rdf:li>
                        <rdf:li rdf:parseType="Resource">
                           <xmpG:swatchName>C=35 M=100 Y=35 K=10</xmpG:swatchName>
                           <xmpG:mode>CMYK</xmpG:mode>
                           <xmpG:type>PROCESS</xmpG:type>
                           <xmpG:cyan>35.000000</xmpG:cyan>
                           <xmpG:magenta>100.000000</xmpG:magenta>
                           <xmpG:yellow>35.000000</xmpG:yellow>
                           <xmpG:black>10.000000</xmpG:black>
                        </rdf:li>
                        <rdf:li rdf:parseType="Resource">
                           <xmpG:swatchName>C=10 M=100 Y=50 K=0</xmpG:swatchName>
                           <xmpG:mode>CMYK</xmpG:mode>
                           <xmpG:type>PROCESS</xmpG:type>
                           <xmpG:cyan>10.000000</xmpG:cyan>
                           <xmpG:magenta>100.000000</xmpG:magenta>
                           <xmpG:yellow>50.000000</xmpG:yellow>
                           <xmpG:black>0.000000</xmpG:black>
                        </rdf:li>
                        <rdf:li rdf:parseType="Resource">
                           <xmpG:swatchName>C=0 M=95 Y=20 K=0</xmpG:swatchName>
                           <xmpG:mode>CMYK</xmpG:mode>
                           <xmpG:type>PROCESS</xmpG:type>
                           <xmpG:cyan>0.000000</xmpG:cyan>
                           <xmpG:magenta>95.000000</xmpG:magenta>
                           <xmpG:yellow>20.000000</xmpG:yellow>
                           <xmpG:black>0.000000</xmpG:black>
                        </rdf:li>
                        <rdf:li rdf:parseType="Resource">
                           <xmpG:swatchName>C=25 M=25 Y=40 K=0</xmpG:swatchName>
                           <xmpG:mode>CMYK</xmpG:mode>
                           <xmpG:type>PROCESS</xmpG:type>
                           <xmpG:cyan>25.000000</xmpG:cyan>
                           <xmpG:magenta>25.000000</xmpG:magenta>
                           <xmpG:yellow>40.000000</xmpG:yellow>
                           <xmpG:black>0.000000</xmpG:black>
                        </rdf:li>
                        <rdf:li rdf:parseType="Resource">
                           <xmpG:swatchName>C=40 M=45 Y=50 K=5</xmpG:swatchName>
                           <xmpG:mode>CMYK</xmpG:mode>
                           <xmpG:type>PROCESS</xmpG:type>
                           <xmpG:cyan>40.000000</xmpG:cyan>
                           <xmpG:magenta>45.000000</xmpG:magenta>
                           <xmpG:yellow>50.000000</xmpG:yellow>
                           <xmpG:black>5.000000</xmpG:black>
                        </rdf:li>
                        <rdf:li rdf:parseType="Resource">
                           <xmpG:swatchName>C=50 M=50 Y=60 K=25</xmpG:swatchName>
                           <xmpG:mode>CMYK</xmpG:mode>
                           <xmpG:type>PROCESS</xmpG:type>
                           <xmpG:cyan>50.000000</xmpG:cyan>
                           <xmpG:magenta>50.000000</xmpG:magenta>
                           <xmpG:yellow>60.000000</xmpG:yellow>
                           <xmpG:black>25.000000</xmpG:black>
                        </rdf:li>
                        <rdf:li rdf:parseType="Resource">
                           <xmpG:swatchName>C=55 M=60 Y=65 K=40</xmpG:swatchName>
                           <xmpG:mode>CMYK</xmpG:mode>
                           <xmpG:type>PROCESS</xmpG:type>
                           <xmpG:cyan>55.000000</xmpG:cyan>
                           <xmpG:magenta>60.000000</xmpG:magenta>
                           <xmpG:yellow>65.000000</xmpG:yellow>
                           <xmpG:black>40.000000</xmpG:black>
                        </rdf:li>
                        <rdf:li rdf:parseType="Resource">
                           <xmpG:swatchName>C=25 M=40 Y=65 K=0</xmpG:swatchName>
                           <xmpG:mode>CMYK</xmpG:mode>
                           <xmpG:type>PROCESS</xmpG:type>
                           <xmpG:cyan>25.000000</xmpG:cyan>
                           <xmpG:magenta>40.000000</xmpG:magenta>
                           <xmpG:yellow>65.000000</xmpG:yellow>
                           <xmpG:black>0.000000</xmpG:black>
                        </rdf:li>
                        <rdf:li rdf:parseType="Resource">
                           <xmpG:swatchName>C=30 M=50 Y=75 K=10</xmpG:swatchName>
                           <xmpG:mode>CMYK</xmpG:mode>
                           <xmpG:type>PROCESS</xmpG:type>
                           <xmpG:cyan>30.000000</xmpG:cyan>
                           <xmpG:magenta>50.000000</xmpG:magenta>
                           <xmpG:yellow>75.000000</xmpG:yellow>
                           <xmpG:black>10.000000</xmpG:black>
                        </rdf:li>
                        <rdf:li rdf:parseType="Resource">
                           <xmpG:swatchName>C=35 M=60 Y=80 K=25</xmpG:swatchName>
                           <xmpG:mode>CMYK</xmpG:mode>
                           <xmpG:type>PROCESS</xmpG:type>
                           <xmpG:cyan>35.000000</xmpG:cyan>
                           <xmpG:magenta>60.000000</xmpG:magenta>
                           <xmpG:yellow>80.000000</xmpG:yellow>
                           <xmpG:black>25.000000</xmpG:black>
                        </rdf:li>
                        <rdf:li rdf:parseType="Resource">
                           <xmpG:swatchName>C=40 M=65 Y=90 K=35</xmpG:swatchName>
                           <xmpG:mode>CMYK</xmpG:mode>
                           <xmpG:type>PROCESS</xmpG:type>
                           <xmpG:cyan>40.000000</xmpG:cyan>
                           <xmpG:magenta>65.000000</xmpG:magenta>
                           <xmpG:yellow>90.000000</xmpG:yellow>
                           <xmpG:black>35.000000</xmpG:black>
                        </rdf:li>
                        <rdf:li rdf:parseType="Resource">
                           <xmpG:swatchName>C=40 M=70 Y=100 K=50</xmpG:swatchName>
                           <xmpG:mode>CMYK</xmpG:mode>
                           <xmpG:type>PROCESS</xmpG:type>
                           <xmpG:cyan>40.000000</xmpG:cyan>
                           <xmpG:magenta>70.000000</xmpG:magenta>
                           <xmpG:yellow>100.000000</xmpG:yellow>
                           <xmpG:black>50.000000</xmpG:black>
                        </rdf:li>
                        <rdf:li rdf:parseType="Resource">
                           <xmpG:swatchName>C=50 M=70 Y=80 K=70</xmpG:swatchName>
                           <xmpG:mode>CMYK</xmpG:mode>
                           <xmpG:type>PROCESS</xmpG:type>
                           <xmpG:cyan>50.000000</xmpG:cyan>
                           <xmpG:magenta>70.000000</xmpG:magenta>
                           <xmpG:yellow>80.000000</xmpG:yellow>
                           <xmpG:black>70.000000</xmpG:black>
                        </rdf:li>
                     </rdf:Seq>
                  </xmpG:Colorants>
               </rdf:li>
               <rdf:li rdf:parseType="Resource">
                  <xmpG:groupName>Grays</xmpG:groupName>
                  <xmpG:groupType>1</xmpG:groupType>
                  <xmpG:Colorants>
                     <rdf:Seq>
                        <rdf:li rdf:parseType="Resource">
                           <xmpG:swatchName>C=0 M=0 Y=0 K=100</xmpG:swatchName>
                           <xmpG:mode>CMYK</xmpG:mode>
                           <xmpG:type>PROCESS</xmpG:type>
                           <xmpG:cyan>0.000000</xmpG:cyan>
                           <xmpG:magenta>0.000000</xmpG:magenta>
                           <xmpG:yellow>0.000000</xmpG:yellow>
                           <xmpG:black>100.000000</xmpG:black>
                        </rdf:li>
                        <rdf:li rdf:parseType="Resource">
                           <xmpG:swatchName>C=0 M=0 Y=0 K=90</xmpG:swatchName>
                           <xmpG:mode>CMYK</xmpG:mode>
                           <xmpG:type>PROCESS</xmpG:type>
                           <xmpG:cyan>0.000000</xmpG:cyan>
                           <xmpG:magenta>0.000000</xmpG:magenta>
                           <xmpG:yellow>0.000000</xmpG:yellow>
                           <xmpG:black>89.999400</xmpG:black>
                        </rdf:li>
                        <rdf:li rdf:parseType="Resource">
                           <xmpG:swatchName>C=0 M=0 Y=0 K=80</xmpG:swatchName>
                           <xmpG:mode>CMYK</xmpG:mode>
                           <xmpG:type>PROCESS</xmpG:type>
                           <xmpG:cyan>0.000000</xmpG:cyan>
                           <xmpG:magenta>0.000000</xmpG:magenta>
                           <xmpG:yellow>0.000000</xmpG:yellow>
                           <xmpG:black>79.998800</xmpG:black>
                        </rdf:li>
                        <rdf:li rdf:parseType="Resource">
                           <xmpG:swatchName>C=0 M=0 Y=0 K=70</xmpG:swatchName>
                           <xmpG:mode>CMYK</xmpG:mode>
                           <xmpG:type>PROCESS</xmpG:type>
                           <xmpG:cyan>0.000000</xmpG:cyan>
                           <xmpG:magenta>0.000000</xmpG:magenta>
                           <xmpG:yellow>0.000000</xmpG:yellow>
                           <xmpG:black>69.999700</xmpG:black>
                        </rdf:li>
                        <rdf:li rdf:parseType="Resource">
                           <xmpG:swatchName>C=0 M=0 Y=0 K=60</xmpG:swatchName>
                           <xmpG:mode>CMYK</xmpG:mode>
                           <xmpG:type>PROCESS</xmpG:type>
                           <xmpG:cyan>0.000000</xmpG:cyan>
                           <xmpG:magenta>0.000000</xmpG:magenta>
                           <xmpG:yellow>0.000000</xmpG:yellow>
                           <xmpG:black>59.999100</xmpG:black>
                        </rdf:li>
                        <rdf:li rdf:parseType="Resource">
                           <xmpG:swatchName>C=0 M=0 Y=0 K=50</xmpG:swatchName>
                           <xmpG:mode>CMYK</xmpG:mode>
                           <xmpG:type>PROCESS</xmpG:type>
                           <xmpG:cyan>0.000000</xmpG:cyan>
                           <xmpG:magenta>0.000000</xmpG:magenta>
                           <xmpG:yellow>0.000000</xmpG:yellow>
                           <xmpG:black>50.000000</xmpG:black>
                        </rdf:li>
                        <rdf:li rdf:parseType="Resource">
                           <xmpG:swatchName>C=0 M=0 Y=0 K=40</xmpG:swatchName>
                           <xmpG:mode>CMYK</xmpG:mode>
                           <xmpG:type>PROCESS</xmpG:type>
                           <xmpG:cyan>0.000000</xmpG:cyan>
                           <xmpG:magenta>0.000000</xmpG:magenta>
                           <xmpG:yellow>0.000000</xmpG:yellow>
                           <xmpG:black>39.999400</xmpG:black>
                        </rdf:li>
                        <rdf:li rdf:parseType="Resource">
                           <xmpG:swatchName>C=0 M=0 Y=0 K=30</xmpG:swatchName>
                           <xmpG:mode>CMYK</xmpG:mode>
                           <xmpG:type>PROCESS</xmpG:type>
                           <xmpG:cyan>0.000000</xmpG:cyan>
                           <xmpG:magenta>0.000000</xmpG:magenta>
                           <xmpG:yellow>0.000000</xmpG:yellow>
                           <xmpG:black>29.998800</xmpG:black>
                        </rdf:li>
                        <rdf:li rdf:parseType="Resource">
                           <xmpG:swatchName>C=0 M=0 Y=0 K=20</xmpG:swatchName>
                           <xmpG:mode>CMYK</xmpG:mode>
                           <xmpG:type>PROCESS</xmpG:type>
                           <xmpG:cyan>0.000000</xmpG:cyan>
                           <xmpG:magenta>0.000000</xmpG:magenta>
                           <xmpG:yellow>0.000000</xmpG:yellow>
                           <xmpG:black>19.999700</xmpG:black>
                        </rdf:li>
                        <rdf:li rdf:parseType="Resource">
                           <xmpG:swatchName>C=0 M=0 Y=0 K=10</xmpG:swatchName>
                           <xmpG:mode>CMYK</xmpG:mode>
                           <xmpG:type>PROCESS</xmpG:type>
                           <xmpG:cyan>0.000000</xmpG:cyan>
                           <xmpG:magenta>0.000000</xmpG:magenta>
                           <xmpG:yellow>0.000000</xmpG:yellow>
                           <xmpG:black>9.999100</xmpG:black>
                        </rdf:li>
                        <rdf:li rdf:parseType="Resource">
                           <xmpG:swatchName>C=0 M=0 Y=0 K=5</xmpG:swatchName>
                           <xmpG:mode>CMYK</xmpG:mode>
                           <xmpG:type>PROCESS</xmpG:type>
                           <xmpG:cyan>0.000000</xmpG:cyan>
                           <xmpG:magenta>0.000000</xmpG:magenta>
                           <xmpG:yellow>0.000000</xmpG:yellow>
                           <xmpG:black>4.998800</xmpG:black>
                        </rdf:li>
                     </rdf:Seq>
                  </xmpG:Colorants>
               </rdf:li>
               <rdf:li rdf:parseType="Resource">
                  <xmpG:groupName>Brights</xmpG:groupName>
                  <xmpG:groupType>1</xmpG:groupType>
                  <xmpG:Colorants>
                     <rdf:Seq>
                        <rdf:li rdf:parseType="Resource">
                           <xmpG:swatchName>C=0 M=100 Y=100 K=0</xmpG:swatchName>
                           <xmpG:mode>CMYK</xmpG:mode>
                           <xmpG:type>PROCESS</xmpG:type>
                           <xmpG:cyan>0.000000</xmpG:cyan>
                           <xmpG:magenta>100.000000</xmpG:magenta>
                           <xmpG:yellow>100.000000</xmpG:yellow>
                           <xmpG:black>0.000000</xmpG:black>
                        </rdf:li>
                        <rdf:li rdf:parseType="Resource">
                           <xmpG:swatchName>C=0 M=75 Y=100 K=0</xmpG:swatchName>
                           <xmpG:mode>CMYK</xmpG:mode>
                           <xmpG:type>PROCESS</xmpG:type>
                           <xmpG:cyan>0.000000</xmpG:cyan>
                           <xmpG:magenta>75.000000</xmpG:magenta>
                           <xmpG:yellow>100.000000</xmpG:yellow>
                           <xmpG:black>0.000000</xmpG:black>
                        </rdf:li>
                        <rdf:li rdf:parseType="Resource">
                           <xmpG:swatchName>C=0 M=10 Y=95 K=0</xmpG:swatchName>
                           <xmpG:mode>CMYK</xmpG:mode>
                           <xmpG:type>PROCESS</xmpG:type>
                           <xmpG:cyan>0.000000</xmpG:cyan>
                           <xmpG:magenta>10.000000</xmpG:magenta>
                           <xmpG:yellow>95.000000</xmpG:yellow>
                           <xmpG:black>0.000000</xmpG:black>
                        </rdf:li>
                        <rdf:li rdf:parseType="Resource">
                           <xmpG:swatchName>C=85 M=10 Y=100 K=0</xmpG:swatchName>
                           <xmpG:mode>CMYK</xmpG:mode>
                           <xmpG:type>PROCESS</xmpG:type>
                           <xmpG:cyan>85.000000</xmpG:cyan>
                           <xmpG:magenta>10.000000</xmpG:magenta>
                           <xmpG:yellow>100.000000</xmpG:yellow>
                           <xmpG:black>0.000000</xmpG:black>
                        </rdf:li>
                        <rdf:li rdf:parseType="Resource">
                           <xmpG:swatchName>C=100 M=90 Y=0 K=0</xmpG:swatchName>
                           <xmpG:mode>CMYK</xmpG:mode>
                           <xmpG:type>PROCESS</xmpG:type>
                           <xmpG:cyan>100.000000</xmpG:cyan>
                           <xmpG:magenta>90.000000</xmpG:magenta>
                           <xmpG:yellow>0.000000</xmpG:yellow>
                           <xmpG:black>0.000000</xmpG:black>
                        </rdf:li>
                        <rdf:li rdf:parseType="Resource">
                           <xmpG:swatchName>C=60 M=90 Y=0 K=0</xmpG:swatchName>
                           <xmpG:mode>CMYK</xmpG:mode>
                           <xmpG:type>PROCESS</xmpG:type>
                           <xmpG:cyan>60.000000</xmpG:cyan>
                           <xmpG:magenta>90.000000</xmpG:magenta>
                           <xmpG:yellow>0.003100</xmpG:yellow>
                           <xmpG:black>0.003100</xmpG:black>
                        </rdf:li>
                     </rdf:Seq>
                  </xmpG:Colorants>
               </rdf:li>
            </rdf:Seq>
         </xmpTPg:SwatchGroups>
         <pdf:Producer>Adobe PDF library 10.01</pdf:Producer>
      </rdf:Description>
   </rdf:RDF>
</x:xmpmeta>
                                                                                                    
                                                                                                    
                                                                                                    
                                                                                                    
                                                                                                    
                                                                                                    
                                                                                                    
                                                                                                    
                                                                                                    
                                                                                                    
                                                                                                    
                                                                                                    
                                                                                                    
                                                                                                    
                                                                                                    
                                                                                                    
                                                                                                    
                                                                                                    
                                                                                                    
                                                                                                    
                           
<?xpacket end="w"?>
	</metadata>
<g>
	<defs>
		<rect id="SVGID_1_" x="0" y="0" width="1920" height="835.3"/>
	</defs>
	<clipPath id="SVGID_2_">
		<use xlink:href="#SVGID_1_"  overflow="visible"/>
	</clipPath>
	<g clip-path="url(#SVGID_2_)">
		<g>
			<polygon fill="#945937" points="1373.8,246.9 1369,252.7 1324,219.3 1328.8,213.5 			"/>
			<g>
				<polygon fill="#8A4E32" points="1329.1,246.6 1326.8,240.7 1381.3,216.2 1383.6,222.1 				"/>
				<circle fill="#A97A35" cx="1382.5" cy="219.3" r="3.4"/>
			</g>
			<g>
				<polygon fill="#8A4E32" points="1378.9,244.7 1323.5,234.6 1325.3,224.4 1380.7,234.4 				"/>
				
					<ellipse transform="matrix(0.9847 0.1742 -0.1742 0.9847 60.1931 -227.1266)" fill="#B46A32" cx="1323.9" cy="229.3" rx="5.2" ry="5.3"/>
			</g>
			<g>
				<path fill="#F06825" d="M1369.2,223.6c1.9-5.2-4-21.4-4-21.4c-0.1,2.3-1.7,6.2-1.7,6.2c-0.5-17.8-10.3-24.4-10.3-24.4
					c2.6,3.9,0.4,17.6,0.4,17.6c-2.3-7.3-6.2-9.1-6.2-9.1c1.6,1.9-0.4,9.3-4,16.9c-3.5,7.5-3.4,8.9-3.4,8.9c0.1,1.3,0.1,3.6,0.1,4.9
					c0,0-0.2,8.7,12.6,8.2C1363.1,231.1,1367.2,228.8,1369.2,223.6z"/>
			</g>
		</g>
		<g>
			<path d="M445.9,280.8c-1.8,1.1-3.4,2.8-4.4,4.9l-1.5,3.3l6-0.1L445.9,280.8z"/>
			<path d="M463.1,288.6c-0.6-3.6-2.9-6.8-6.4-8.5l0,0c-0.3-0.2-0.7-0.3-1-0.4l0.1,9L463.1,288.6z"/>
			<path d="M444.2,308.3l-0.7,0.2l2.8,0l0-2c-0.1,0-0.2,0-0.3,0C445.6,307.3,445,308,444.2,308.3z"/>
			<path d="M446.2,299.6l0-1l-0.2,0C446,299,446.1,299.3,446.2,299.6z"/>
			<polygon points="456.1,306.6 460.6,298.7 460.8,298.5 456,298.5 			"/>
			
				<rect x="446.1" y="288.8" transform="matrix(-0.9999 1.328373e-002 -1.328373e-002 -0.9999 905.8411 581.3518)" width="9.8" height="9.8"/>
			<polygon points="446.4,318.3 449.2,318.3 455,308.4 446.3,308.5 			"/>
			<path d="M446.4,318.7l0-0.4l-0.1,0C446.4,318.4,446.4,318.5,446.4,318.7z"/>
			<path fill="#0A0A0A" d="M463.1,288.6l-7.3,0.1l0.1,9.8l4.8-0.1l1.5-3.1C463.3,293.2,463.5,290.8,463.1,288.6z"/>
			<path fill="#0A0A0A" d="M455.8,288.7l-0.1-9c-3.3-1.2-6.9-0.7-9.8,1l0.1,8.1L455.8,288.7z"/>
			<path fill="#0A0A0A" d="M446,298.7l0.2,0l-0.1-9.8l-6,0.1l-0.1,0.2C441.9,290.1,444.7,292.7,446,298.7z"/>
			<path fill="#0A0A0A" d="M446.1,298.7l0,1c0.3,1.8,0.5,3.9,0.5,6.3c0,0,0.1,0.5-0.4,0.6l0,2l8.7-0.1l1.1-1.8l-0.1-8L446.1,298.7z"
				/>
			<path fill="#0A0A0A" d="M439.5,309.9c3.2,1.5,5.6,4.3,6.6,7.7c0.1,0.2,0.2,0.5,0.2,0.8l0.1,0l-0.1-9.8l-2.8,0L439.5,309.9z"/>
			<path fill="#0A0A0A" d="M446.4,318.7c0.3,1.3,0.4,2.7,0.1,4.3l2.7-4.7l-2.8,0L446.4,318.7z"/>
			<path fill="#D83927" d="M435.4,288.4c-0.4,0.1-0.7,0.4-0.7,0.8c0,0.2,0.1,0.5,0.2,0.6c0.3-0.1,0.7-0.2,1-0.3
				c0.2-0.1,0.5-0.2,0.7-0.2c8.1-0.7,9.2,11.7,9.3,16.5c0,0.3,0,0.5-0.1,0.8c0.1,0,0.2,0,0.3,0c0.5-0.1,0.4-0.6,0.4-0.6
				c0-2.4-0.2-4.5-0.5-6.3c-0.1-0.3-0.1-0.7-0.2-1c-1.3-6-4-8.5-6.1-9.6c-1.3-0.7-2.4-0.8-2.4-0.8l-1.4-0.2
				C435.9,288.2,435.7,288.3,435.4,288.4L435.4,288.4z"/>
			<path fill="#EF3F24" d="M444.2,308.3c0.8-0.3,1.5-1,1.7-1.7c0.1-0.3,0.1-0.5,0.1-0.8c-0.1-4.8-1.2-17.2-9.3-16.5
				c-0.3,0-0.5,0.1-0.7,0.2c-0.3,0.1-0.7,0.2-1,0.3c-4.2,1.2-7.7,4.1-9.1,7.9c-0.1,0.3-0.2,0.7-0.3,1c-0.1,0.2-0.1,0.4-0.1,0.6
				l3-3.5l0,0c0.2-0.2,0.4-0.4,0.6-0.6c0,0,0.1,0,0.1-0.1c1.5-1.8,3.7-3.2,6.4-3.9l1,6.6c0,0,0,0,0.1,0l1.6,8.3l0.3,1.7l0.1,0.3
				c-0.7,0.2-1.5,0.2-2.3,0.3c-1.1,0.2-2.2,0.2-3.2,0.1c-0.7-0.1-1.4-0.2-1.9-0.5c-1.1-0.4-2-1.1-2.7-2c-0.6-0.9-1.1-1.9-1.3-3.2
				l-1.6,1.2c0.1,0.4,0.2,0.7,0.4,1.1c0.1,0.3,0.3,0.7,0.5,1c0.3,0.4,0.6,0.9,0.9,1.2c1.1,1.2,2.6,2.1,4.4,2.5
				c1.3,0.3,2.7,0.4,4.3,0.3c0.3,0,0.5,0,0.8-0.1c0.6-0.1,1.2-0.2,1.7-0.3c0.2,0,0.3-0.1,0.5-0.1c0.1,0.1,0.2,0.1,0.3,0.2l4-1.3
				L444.2,308.3z"/>
			<path d="M428.8,334.2c-1.2,0.4-2.6,0.7-4.1,0.8C426.2,334.9,427.6,334.6,428.8,334.2L428.8,334.2L428.8,334.2z"/>
			<path d="M412.2,332.4c-0.1-0.1-0.3-0.1-0.4-0.2C411.9,332.2,412.1,332.3,412.2,332.4z"/>
			<path d="M424.6,334c-1.5-0.1-2.8-1-3.5-2.3c0,0-0.1,0-0.1,0l-0.1,2c-1.4-0.1-2.6-0.9-3.3-2l-0.7,0l0.1,2.5c1.9,0.5,4.1,1,6.6,0.9
				c0.4,0,0.8,0,1.3-0.1l-0.1-2.2L424.6,334z"/>
			<path d="M411.7,332C411.7,332,411.7,332,411.7,332C411.7,332,411.7,332,411.7,332C411.8,331.9,411.8,332,411.7,332z"/>
			<path d="M413.6,330.9L413.6,330.9c-1,0.5-1.6,0.9-1.8,1l2-0.1C413.7,331.6,413.6,331.2,413.6,330.9z"/>
			<path d="M411.6,332C411.6,332,411.6,332,411.6,332C411.6,332,411.6,332,411.6,332z"/>
			<polygon points="416.8,331.4 416.4,331.8 416.8,331.8 			"/>
			<path fill="#0A0A0A" d="M417.6,331.7c-0.1-0.1-0.2-0.3-0.2-0.5c-0.1,0-0.2,0-0.3-0.1l-0.2,0.2l0,0.4L417.6,331.7z"/>
			<path fill="#0A0A0A" d="M427.1,334.2l0-2.7c-0.1,0-0.3,0-0.4,0c-0.6,0.1-1.2,0.1-1.8,0.2l-0.1,1.2l0.1,2.2v0l0,0
				c1.5-0.1,2.8-0.5,4.1-0.8L427.1,334.2z"/>
			<path fill="#0A0A0A" d="M416.4,331.8l-1.8,1.5c-0.4-0.4-0.7-0.9-0.8-1.5l-2,0.1h0c0,0,0,0,0,0c0,0-0.1,0.1-0.1,0.1c0,0,0,0,0,0
				c0,0,0,0,0,0s0,0,0,0c0,0,0,0,0,0c0,0,0,0,0,0c0,0,0,0,0,0c0,0,0.1,0,0.1,0.1c0,0,0,0,0,0c0.1,0.1,0.2,0.1,0.4,0.2c0,0,0,0,0,0
				c0.1,0,0.1,0.1,0.2,0.1c0,0,0,0,0,0c0.1,0,0.2,0.1,0.2,0.1c0,0,0,0,0,0c0.2,0.1,0.4,0.2,0.7,0.3c0,0,0,0,0,0
				c0.1,0,0.2,0.1,0.3,0.1c0,0,0,0,0.1,0c0.1,0.1,0.3,0.1,0.4,0.2c0,0,0,0,0,0c0.3,0.1,0.6,0.2,0.9,0.4c0,0,0.1,0,0.1,0
				c0.1,0.1,0.3,0.1,0.4,0.1c0,0,0.1,0,0.1,0c0.2,0.1,0.3,0.1,0.5,0.2c0,0,0,0,0,0c0.2,0.1,0.4,0.1,0.6,0.2l0,0v0l-0.1-2.5
				L416.4,331.8z"/>
			<path fill="#3E2A16" d="M409.7,299.4l0.1-3.2l0.1-2.3l0-0.6l-5.7,9.9c-0.1,0.1-0.2,0.2-0.3,0.3c-0.7,0.7-1,1.7-0.6,2.4
				c0.1-0.2,0.2-0.3,0.4-0.5c0.1-0.1,0.2-0.2,0.3-0.2c0,0.3,0,0.7,0.2,1c0.1,0.2,0.2,0.3,0.3,0.5c0.4,0.6,1.1,1,1.8,0.9
				c-0.1-0.2-0.2-0.3-0.3-0.6c-0.1-0.2-0.1-0.4-0.2-0.6c-0.1-0.6,0.1-1.1,0.4-1.5c0.1,0.1,0.3,0.2,0.4,0.3c0.1,0.1,0.2,0.2,0.2,0.3
				c0.3-0.4,0.4-0.8,0.4-1.2c0,0,0.1,0,0.1,0c0,0-0.1-0.1-0.1-0.1c0-0.1-0.1-0.3-0.1-0.4l2.7-3.1l0-0.6L409.7,299.4z"/>
			<path fill="#EDB21F" d="M432.5,295.9c0.6,0.8,0.5,1.9,0,2.7c-0.1,0.2-0.2,0.3-0.3,0.4l0,0l-4.9,3.8c0.2,1.3,0.6,2.4,1.3,3.2
				c0.7,0.9,1.6,1.6,2.7,2c0.4-0.1,0.9-0.4,1.2-0.6c0.4-0.3,0.7-0.7,1-1.1c0.7,1.2,1.9,1.9,3.4,1.9c0.6,0,1.2-0.2,1.8-0.4l-0.3-1.7
				l-1.6-8.3c0,0,0,0-0.1,0l-1-6.6c-2.8,0.7-4.9,2.1-6.4,3.9C430.3,294.5,431.7,294.8,432.5,295.9z"/>
			<path fill="#3E2A16" d="M434,266.2c-0.7,0.1-1.3,0.4-1.9,0.9l-0.2,2.2c0,0.1,0.1,0.1,0.1,0.2c0.1-0.1,0.2-0.3,0.4-0.4
				c1.5-1.3,3.9-1.2,5.2,0.4l-1.7,1.5l0,0l-0.1,5.4l1.2-1.1l1.1-0.9c1.2-1.1,1.7-2.6,1.6-4.1c-0.1-0.9-0.5-1.8-1.1-2.6
				C437.4,266.4,435.6,265.8,434,266.2z"/>
			<path fill="#3E2A16" d="M412.1,269.3L412.1,269.3l-1.5-1.7c1.5-1.3,3.9-1.2,5.2,0.4c0.1,0.1,0.2,0.3,0.3,0.4
				c0.4-0.5,0.9-1,1.4-1.4l-0.7-0.8c-0.1-0.1-0.3-0.3-0.4-0.4c-0.7-0.6-1.6-1-2.4-1.1c-1.3-0.2-2.7,0.2-3.8,1.1h0
				c-1.5,1.3-2,3.3-1.4,5.1c0.2,0.6,0.5,1.1,0.9,1.6l0.9,1l0.9,1L412.1,269.3z"/>
			
				<ellipse transform="matrix(-0.9976 -6.875513e-002 6.875513e-002 -0.9976 839.5432 584.0071)" fill="#032F33" cx="429.8" cy="277.6" rx="0.8" ry="0.2"/>
			<circle fill="#032F33" cx="428.3" cy="275.3" r="1.3"/>
			
				<ellipse transform="matrix(-6.878060e-002 0.9976 -0.9976 -6.878060e-002 717.2371 -117.1619)" fill="#032F33" cx="413.3" cy="276.2" rx="0.2" ry="0.8"/>
			<circle fill="#032F33" cx="415.1" cy="274.2" r="1.3"/>
			<path fill="#EDB21F" d="M441.8,327.2c-0.9,1.2-2.3,1.9-3.9,1.9c-0.8,0-1.5-0.2-2.1-0.5c-0.5-0.2-1-0.6-1.4-1
				c-0.2,0.2-0.4,0.4-0.7,0.5c-0.8,0.6-1.8,0.9-2.9,0.9c-1.4,0-2.7-0.6-3.6-1.6c-0.1,0.1-0.2,0.2-0.4,0.3c-0.5,0.5-1.2,0.8-1.9,1
				c0,0-0.1,0-0.1,0c0,0.1,0,0.1,0.1,0.2c0.5,1.2,1.2,2,2.1,2.4c0,0,0.1,0,0.1,0c0,0-0.1,0-0.1,0l0,2.7l1.7,0l0,0l0.5-1h3.4h0.6
				l0.3,0.2c4.1,0.1,7.9-1.7,10.3-4.7C443,328.4,442.3,327.8,441.8,327.2z"/>
			<path fill="#3E2A16" d="M409.9,332.2l-3.1-0.2c-0.2,0-0.3,0-0.5-0.1H406l-3.2,2.3l0,0c-0.2,0.2-0.4,0.4-0.4,0.6
				c0,0.9,2,1.5,4.4,1.5c0.4,0,0.8,0,1.1-0.1l0.2-1.5l0.3-1.6l0.6,1.5l0.5,1.2c1-0.3,1.7-0.7,1.7-1.2c0-0.1,0-0.1,0-0.2l0,0
				l-0.8-1.7l0,0C410.2,332.8,410,332.5,409.9,332.2z M404.6,336.2c0,0-0.8-0.1-1.6-0.5l1-0.8l1.6-1.4l-0.6,1.7L404.6,336.2z"/>
			<path fill="#0A0A0A" d="M404,334.8l-1,0.8c0.8,0.4,1.6,0.5,1.6,0.5l0.4-1l0.6-1.7L404,334.8z"/>
			<path fill="#0A0A0A" d="M408.4,333.3l-0.3,1.6l-0.2,1.5l0,0c0,0,0.8,0,1.6-0.2l0,0l-0.5-1.2L408.4,333.3z"/>
			<path fill="#F0D3A5" d="M412.7,308.7c0.1,0.1,0.2,0.2,0.4,0.3c0.8,0.7,1.9,1.1,3.1,1.1c1.4,0,2.6-0.6,3.5-1.5
				c0.9,0.9,2.1,1.5,3.5,1.5c0.8,0,1.5-0.2,2.1-0.5c0.5-0.3,1-0.6,1.3-1c0.8,0.8,1.8,1.3,3,1.5c0.2,0,0.3,0,0.5,0
				c0.6,0,1.2-0.1,1.8-0.4c-1.8-0.4-3.3-1.3-4.4-2.5c-0.3-0.4-0.7-0.8-0.9-1.2c-0.6,1.3-1.9,2.1-3.4,2.1c-0.6,0-1.2-0.2-1.8-0.4
				c-0.5,0.4-1.2,0.6-1.7,0.4c0.2-0.1,0.3-0.3,0.4-0.5c0.1-0.1,0.1-0.2,0.2-0.3c-0.3,0.1-0.7,0.1-1,0c-0.1,0-0.3-0.1-0.4-0.1
				c0,0,0,0-0.1,0.1c-0.7,0.6-1.6,0.9-2.5,0.9c-1.5,0-2.8-0.9-3.5-2.1c-0.2,0.5-0.6,0.9-0.9,1.2c-0.7,0.6-1.6,0.9-2.5,0.9
				c-0.2,0-0.4,0-0.6-0.1L408,310c0.1,0,0.1,0,0.2,0c0.3,0.1,0.7,0.1,1.1,0.1C410.6,310.2,411.8,309.6,412.7,308.7z"/>
			<path fill="#EDB21F" d="M411.8,307.3c0.4-0.3,0.7-0.7,0.9-1.2c0.6,1.3,1.9,2.1,3.5,2.1c1,0,1.8-0.4,2.5-0.9c0,0,0,0,0.1-0.1
				c0,0-0.1,0-0.1,0c-0.5-0.2-0.9-0.6-1.1-1.1c-0.1-0.2-0.1-0.3-0.1-0.5c0.2,0.1,0.4,0.2,0.6,0.2c0,0,0.1,0,0.1,0c0.2,0,0.3,0,0.5,0
				c0.5,0,0.9-0.2,1.2-0.4c0.1-0.1,0.1-0.1,0.2-0.2c0-0.1-0.1-0.1-0.1-0.1c-0.1-0.1-0.1-0.1-0.2-0.2c-0.1-0.1-0.2-0.1-0.3-0.2
				c0,0,0,0,0,0c0,0,0.1-0.1,0.1-0.1c0.2-0.1,0.3-0.2,0.5-0.3c0.2-0.1,0.3-0.1,0.5-0.1c0,0,0-0.1,0-0.1c0,0,0.1,0.1,0.1,0.1
				c0.1,0,0.3,0,0.4,0l4.3-5.1c0-0.2,0.1-0.4,0.1-0.6c0.1-0.3,0.2-0.7,0.3-1c1.4-3.8,4.9-6.6,9.1-7.9c-0.2-0.2-0.2-0.4-0.2-0.6
				c0-0.4,0.3-0.7,0.7-0.8l0,0c0.2-0.1,0.5-0.2,0.7-0.3c0.7-0.4,1.4-0.8,2-1.3l-2.5-2.9l0-0.8c1-0.4,2-1,2.9-1.7l-2.3-2.7
				c0.5-1,0.8-2.1,0.9-3.3l-1.2,1.1l0.1-5.4l0,0l1.7-1.5c-1.3-1.5-3.7-1.7-5.2-0.4c-0.1,0.1-0.3,0.2-0.4,0.4c0-0.1-0.1-0.1-0.1-0.2
				l0.2-2.2c0.6-0.4,1.2-0.7,1.9-0.9c1.6-0.3,3.4,0.2,4.5,1.5c0.7,0.8,1,1.7,1.1,2.6l4.5,3.3c2.4-3.3,1.6-7.8-1.7-10.2
				c-2-1.4-4.4-1.7-6.5-1c0,0.1,0.1,0.2,0.1,0.4c0,0.9-1.4,1.8-3.7,2.4c-0.1,0-0.1,0-0.2,0c-2,0.5-4.7,0.8-7.6,0.8
				c-3.1,0-6-0.4-8.1-1c-1.3-0.4-2.3-0.8-2.9-1.4c-0.3-0.3-0.5-0.6-0.5-0.9c0-0.1,0-0.2,0.1-0.3c-2.2-0.8-4.7-0.5-6.7,1
				c-3.3,2.4-4,6.9-1.7,10.2l3.8-2.7c-0.6-1.8-0.1-3.8,1.4-5.1h0c1.1-0.9,2.5-1.3,3.8-1.1c0.9,0.1,1.7,0.5,2.4,1.1
				c0.1,0.1,0.3,0.3,0.4,0.4l0.7,0.8c-0.5,0.4-1,0.9-1.4,1.4c-0.1-0.1-0.2-0.3-0.3-0.4c-1.3-1.5-3.7-1.7-5.2-0.4l1.5,1.7l0,0
				l-0.6,5.1l-0.9-1l-0.1,0c-0.1,1.2,0.1,2.4,0.4,3.4l-2.7,2.3c0.8,0.9,1.6,1.6,2.6,2.1l-0.1,0.9l-2.8,2.5c0.7,0.8,1.5,1.4,2.3,1.9
				c0,0,0,0,0,0c0.5,0,0.8,0.4,0.8,0.9c0,0.5-0.4,0.8-0.9,0.8c0,0,0,0-0.1,0l-0.1,5.1l0,0.6l-0.1,2.3l-0.1,3.2l0,0.7l0,0.6l-0.3,5.3
				l-0.1,0.3l-0.6,1.8c0.2,0,0.4,0.1,0.6,0.1C410.2,308.2,411.1,307.9,411.8,307.3z M429.8,277.3c0.4,0,0.8,0.2,0.8,0.3
				c0,0.1-0.4,0.2-0.8,0.2c-0.4,0-0.8-0.2-0.8-0.3C429,277.4,429.4,277.3,429.8,277.3z M428.4,274.1c0.7,0,1.2,0.7,1.2,1.4
				c0,0.7-0.7,1.2-1.4,1.2c-0.7,0-1.2-0.7-1.2-1.4S427.7,274,428.4,274.1z M421,282.4L421,282.4L421,282.4
				C421,282.5,421,282.5,421,282.4L421,282.4L421,282.4l-0.1,1.2c-0.1,0.9-0.5,1.7-1.2,2.1c-0.1,0-0.1,0.1-0.2,0.1l-0.2,1.3l-0.7,0
				l-0.1,0l0,0l0.1-0.8l-0.1,0l0,0l-0.1,0.8l-0.3,0l-0.6,0l0-1.3c-0.1,0-0.1-0.1-0.2-0.1c-0.6-0.5-0.9-1.3-0.9-2.2l0.1-1.1l0,0l0,0
				l0,0l0,0l0,0c0.1-1.4,1.2-2.5,2.4-2.4C420.2,279.8,421.1,281,421,282.4z M415.2,272.9c0.7,0,1.3,0.7,1.2,1.4
				c0,0.7-0.7,1.3-1.4,1.2c-0.7,0-1.3-0.7-1.2-1.4C413.8,273.4,414.5,272.8,415.2,272.9z M413.3,275.9c0.4,0,0.8,0.2,0.8,0.3
				c0,0.1-0.4,0.2-0.8,0.2s-0.8-0.2-0.8-0.3C412.5,276,412.9,275.9,413.3,275.9z"/>
			<path fill="#EDB21F" d="M425.7,304.1l-2.9,2.2l-0.7,0.6c-0.1,0.1-0.1,0.2-0.2,0.4c-0.2,0.2-0.3,0.4-0.5,0.6
				c0.5,0.3,1.1,0.4,1.8,0.4c1.5,0,2.8-0.9,3.4-2.1c-0.2-0.3-0.4-0.6-0.5-1C425.9,304.8,425.8,304.5,425.7,304.1z"/>
			<path fill="#F0D3A5" d="M433.4,306.3c-0.3,0.4-0.6,0.8-1,1.1c-0.4,0.3-0.8,0.5-1.2,0.6c0.6,0.2,1.2,0.4,1.9,0.5
				c1,0.1,2,0.1,3.2-0.1c0.8-0.1,1.6-0.2,2.3-0.3l-0.1-0.3c-0.5,0.3-1.1,0.4-1.8,0.4C435.3,308.2,434.1,307.5,433.4,306.3z"/>
			<path fill="#F0D3A5" d="M436.2,310.2c0.2,0,0.4,0,0.6,0c0.7,0,1.3-0.1,1.9-0.4c-0.5,0.1-1.1,0.2-1.7,0.3
				C436.7,310.1,436.4,310.2,436.2,310.2z"/>
			<path fill="#F0D3A5" d="M442.4,326c-0.4-0.3-0.7-0.8-1-1.3c-0.7,1.3-2,2.2-3.6,2.2c-1.5,0-2.8-0.8-3.5-2c-0.3,0.5-0.6,0.9-1,1.2
				c-0.7,0.5-1.5,0.9-2.5,0.9c-1,0-1.9-0.4-2.6-1c-0.4-0.3-0.7-0.8-1-1.3c-0.6,1.1-1.6,1.9-2.9,2.2c0.1,0.7,0.3,1.4,0.6,2
				c0,0,0.1,0,0.1,0c0.7-0.2,1.3-0.6,1.9-1c0.1-0.1,0.2-0.2,0.4-0.3c0.9,1,2.2,1.6,3.6,1.6c1.1,0,2-0.3,2.9-0.9
				c0.2-0.2,0.5-0.3,0.7-0.5c0.4,0.4,0.9,0.7,1.4,1c0.7,0.3,1.4,0.5,2.1,0.5c1.6,0,3-0.8,3.9-1.9c0.5,0.7,1.3,1.2,2.1,1.6
				c0.1,0,0.1,0,0.2,0.1c0.4-0.5,0.8-1.1,1.1-1.8c0,0,0,0,0,0C444.1,327,443.2,326.6,442.4,326z"/>
			<path fill="#F0D3A5" d="M420,324.8c-0.2,0.5-0.6,0.9-1,1.3c-0.7,0.6-1.6,1-2.6,1c-1.6,0-3-0.9-3.6-2.2c-0.2,0.5-0.6,0.9-1,1.3
				c-0.7,0.6-1.6,1-2.6,1c-1.2,0-2.2-0.5-2.9-1.3c-0.3-0.3-0.5-0.7-0.7-1.1c-0.4,0.8-0.9,1.4-1.6,1.8l-0.1,2.1
				c0.6-0.3,1.2-0.7,1.6-1.3c0.9,1.1,2.3,1.8,3.8,1.8c0.2,0,0.3,0,0.5,0c1.2-0.1,2.3-0.7,3.2-1.5c0.4,0.4,0.9,0.8,1.4,1
				c0.7,0.3,1.4,0.5,2.2,0.5c1.4,0,2.7-0.6,3.6-1.6c0.2,0.2,0.4,0.4,0.7,0.6c0.1,0.1,0.2,0.1,0.3,0.2c0.8,0.5,1.7,0.8,2.7,0.8
				c0,0,0,0,0.1,0c-0.3-0.6-0.5-1.3-0.6-2.1C421.7,326.8,420.5,325.9,420,324.8z"/>
			<path fill="#EDB21F" d="M446.4,318.7c0-0.1-0.1-0.2-0.1-0.3c-0.1-0.3-0.1-0.5-0.2-0.8c-1-3.4-3.4-6.2-6.6-7.7
				c-0.1-0.1-0.2-0.1-0.3-0.2c-0.2,0-0.3,0.1-0.5,0.1c-0.6,0.3-1.2,0.4-1.9,0.4c-0.2,0-0.4,0-0.6,0c-1.6,0.1-3,0-4.3-0.3
				c-0.6,0.2-1.2,0.4-1.8,0.4c-0.2,0-0.3,0-0.5,0c-1.2-0.1-2.2-0.7-3-1.5c-0.4,0.4-0.8,0.7-1.3,1c-0.6,0.3-1.4,0.5-2.1,0.5
				c-1.4,0-2.6-0.6-3.5-1.5c-0.9,0.9-2.1,1.5-3.5,1.5c-1.2,0-2.3-0.4-3.1-1.1c-0.1-0.1-0.2-0.2-0.4-0.3c-0.9,0.9-2.1,1.5-3.5,1.5
				c-0.4,0-0.7,0-1.1-0.1l-2.8,7.9c0,0,0,0,0,0l-0.5,1.6L404,322l-0.4,6.4c-0.1,1.7,1.1,3.2,2.7,3.6c0.2,0,0.3,0.1,0.5,0.1l3.1,0.2
				c0.1,0.3,0.3,0.5,0.5,0.8l0,0l1.3-1.1c0,0,0,0,0.1,0c0,0,0,0,0,0c0,0,0,0,0,0h0c0.3-0.2,0.9-0.6,1.7-1l0.1,0c0,0.3,0.1,0.7,0.2,1
				c0.2,0.5,0.4,1,0.8,1.5l1.8-1.5l0.4-0.4l0.2-0.2c0.1,0,0.2,0,0.3,0.1c0.1,0.2,0.2,0.3,0.2,0.5c0.7,1.1,1.9,1.9,3.3,2l0.1-2
				c0,0,0.1,0,0.1,0c0.7,1.3,1.9,2.2,3.5,2.3l0.1-1.2l0.1-1.2c0.6,0,1.2-0.1,1.8-0.2c-0.1,0-0.1,0-0.2,0c-0.6,0-1.1-0.3-1.6-0.7
				c-0.5-0.4-0.9-1-1.2-1.7c0,0,0,0-0.1,0c-1,0-1.9-0.3-2.7-0.8c-0.1-0.1-0.2-0.1-0.3-0.2c-0.2-0.2-0.5-0.4-0.7-0.6
				c-0.9,1-2.2,1.6-3.6,1.6c-0.8,0-1.6-0.2-2.2-0.5c-0.5-0.3-1-0.6-1.4-1c-0.8,0.9-1.9,1.4-3.2,1.5c-0.2,0-0.3,0-0.5,0
				c-1.5,0-2.9-0.7-3.8-1.8c-0.4,0.5-1,0.9-1.6,1.3l0.1-2.1c0.7-0.4,1.3-1,1.6-1.8c0.2,0.4,0.4,0.8,0.7,1.1c0.7,0.8,1.8,1.3,2.9,1.3
				c1,0,1.9-0.4,2.6-1c0.4-0.3,0.7-0.8,1-1.3c0.7,1.3,2,2.2,3.6,2.2c1,0,1.9-0.4,2.6-1c0.4-0.3,0.7-0.8,1-1.3c0.6,1.2,1.7,2,3.1,2.2
				c-0.1-0.6-0.2-1.3-0.2-2c0-0.5,0-0.9,0-1.4c0-0.3,0.1-0.6,0.1-0.9l1.3,0.1c0,0.3-0.1,0.6-0.1,0.9c0,0.5,0,0.9,0,1.3
				c0,0.7,0.1,1.3,0.2,1.9c1.3-0.2,2.3-1.1,2.9-2.2c0.2,0.5,0.6,0.9,1,1.3c0.7,0.6,1.6,1,2.6,1c0.9,0,1.8-0.3,2.5-0.9
				c0.4-0.3,0.8-0.7,1-1.2c0.7,1.2,2,2,3.5,2c1.6,0,3-0.9,3.6-2.2c0.2,0.5,0.6,0.9,1,1.3c0.7,0.6,1.6,1,2.6,1c0,0,0,0,0,0
				c0.3-0.6,0.6-1.3,0.9-2.1c0.1-0.3,0.2-0.5,0.2-0.8c0.1-0.4,0.2-0.8,0.3-1.2C446.8,321.4,446.7,320,446.4,318.7z"/>
			<path fill="#3E2A16" d="M427.1,331.5C427.1,331.5,427.1,331.5,427.1,331.5c-0.9-0.4-1.6-1.2-2.2-2.4c0-0.1-0.1-0.1-0.1-0.2
				c-0.2-0.6-0.4-1.2-0.6-2c-0.1-0.6-0.2-1.3-0.2-1.9c0-0.4,0-0.9,0-1.3c0-0.3,0.1-0.6,0.1-0.9l-1.3-0.1c0,0.3-0.1,0.6-0.1,0.9
				c0,0.5,0,0.9,0,1.4c0,0.7,0.1,1.4,0.2,2c0.1,0.8,0.4,1.5,0.6,2.1c0.3,0.7,0.7,1.3,1.2,1.7c0.5,0.4,1,0.7,1.6,0.7
				c0.1,0,0.1,0,0.2,0C426.8,331.6,426.9,331.5,427.1,331.5C427.1,331.5,427.1,331.5,427.1,331.5z"/>
			<path fill="#3E2A16" d="M432.7,333.2h-3.4l-0.5,1l0,0L428,336l0,0c0,0.1,0,0.1,0,0.2c0,0.5,0.7,0.9,1.7,1.2l0.5-1.2l0.6-1.5
				l0.3,1.6l0.2,1.5c0.4,0,0.7,0.1,1.1,0.1c2.4,0,4.4-0.7,4.4-1.5c0-0.2-0.1-0.4-0.4-0.6l0,0l-2.9-2.1l-0.3-0.2H432.7z M435.2,336.1
				l1,0.8c-0.8,0.4-1.6,0.5-1.6,0.5l-0.4-1l-0.6-1.7L435.2,336.1z"/>
			<path fill="#0A0A0A" d="M434.7,337.5c0,0,0.8-0.1,1.6-0.5l-1-0.8l-1.6-1.4l0.6,1.7L434.7,337.5z"/>
			<path fill="#0A0A0A" d="M430.8,334.6l-0.6,1.5l-0.5,1.2l0,0c0.8,0.3,1.6,0.2,1.6,0.2l0,0l-0.2-1.5L430.8,334.6z"/>
			<path fill="#FFFFFF" d="M418.6,286.2L418.6,286.2L418.6,286.2l-0.1,0.8l0,0l0.1,0l0.7,0l0.2-1.3c-0.3,0.2-0.6,0.2-1,0.2
				L418.6,286.2z"/>
			<path fill="#FFFFFF" d="M418.4,286c-0.4,0-0.7-0.2-1-0.4l0,1.3l0.6,0l0.3,0l0.1-0.8l0,0L418.4,286z"/>
			<path fill="#F0D3A5" d="M418.6,285.2l-0.1,0.9c0.4,0,0.7-0.1,1-0.2c0.1,0,0.1-0.1,0.2-0.1c0.6-0.4,1.1-1.2,1.2-2.1l0.1-1.1l0,0
				l0,0L418.6,285.2z"/>
			<path fill="#F0D3A5" d="M418.5,285.2l-2-3l0,0l0,0l-0.1,1.1c-0.1,0.9,0.3,1.7,0.9,2.2c0.1,0,0.1,0.1,0.2,0.1
				c0.3,0.2,0.6,0.3,1,0.4L418.5,285.2z"/>
			<path fill="#032F33" d="M416.5,282.1L416.5,282.1L416.5,282.1L416.5,282.1L416.5,282.1L416.5,282.1l2,3l-0.1,0.8l0,0.1l0,0l0,0
				l0.1,0l0,0l0,0l0-0.1l0.1-0.9l2.4-2.7l0,0l0,0c0,0,0,0,0,0l0,0l0,0c0.1-1.4-0.8-2.6-2.1-2.7C417.7,279.6,416.6,280.7,416.5,282.1
				z"/>
			<path fill="#3E2A16" d="M421.9,307.3c0.1-0.1,0.1-0.2,0.2-0.4l0.7-0.6l2.9-2.2l1.6-1.2l4.9-3.8l0,0c0.1-0.1,0.2-0.3,0.3-0.4
				c0.5-0.8,0.5-1.9,0-2.7c-0.7-1.1-2.2-1.4-3.3-0.8c0,0-0.1,0-0.1,0.1c-0.2,0.2-0.4,0.4-0.6,0.6l0,0l-3,3.5l-4.3,5.1
				c-0.1,0-0.3,0-0.4,0c0,0-0.1-0.1-0.1-0.1c0,0,0,0.1,0,0.1c-0.2,0-0.3,0.1-0.5,0.1c-0.2,0.1-0.4,0.2-0.5,0.3c0,0-0.1,0.1-0.1,0.1
				c0,0,0,0,0,0c0.1,0,0.2,0.1,0.3,0.2c0.1,0.1,0.2,0.1,0.2,0.2c0,0,0.1,0.1,0.1,0.1c-0.1,0.1-0.1,0.1-0.2,0.2
				c-0.3,0.2-0.8,0.4-1.2,0.4c-0.2,0-0.3,0-0.5,0c0,0-0.1,0-0.1,0c-0.2,0-0.4-0.1-0.6-0.2c0,0.2,0,0.3,0.1,0.5
				c0.2,0.5,0.6,0.9,1.1,1.1c0,0,0.1,0,0.1,0c0.1,0.1,0.3,0.1,0.4,0.1c0.4,0.1,0.7,0.1,1,0c-0.1,0.1-0.1,0.2-0.2,0.3
				c-0.1,0.2-0.3,0.3-0.4,0.5c0.6,0.2,1.2,0,1.7-0.4C421.6,307.7,421.7,307.5,421.9,307.3z"/>
			<path fill="#FDF9CE" d="M413.8,263.6c0.5,0.5,1.5,1,2.9,1.4c2.1,0.6,4.9,1,8.1,1c2.9,0,5.5-0.3,7.6-0.8c0.1,0,0.1,0,0.2,0
				c2.2-0.6,3.7-1.4,3.7-2.4c0-0.1,0-0.2-0.1-0.4c-0.3-0.7-1.2-1.3-2.7-1.8c0,0,0,0.1,0,0.1c0.1,0.4,0.1,0.7,0.1,1.1h0
				c0,1.2-3.9,2.2-8.7,2.2c-4.8,0-8.7-1-8.7-2.2h0c0-0.4,0-0.7,0.1-1.1c0,0,0-0.1,0-0.1c-1.5,0.5-2.5,1.1-2.7,1.8
				c0,0.1-0.1,0.2-0.1,0.3C413.3,263,413.5,263.3,413.8,263.6z"/>
			<path fill="#FDFBE1" d="M424.7,262.6c4.5,0,8.2-0.9,8.7-2c0,0,0-0.1,0-0.1c-0.6-3.6-3.9-6.4-8-6.6c0-0.3-0.3-0.6-0.6-0.6
				c-0.3,0-0.6,0.2-0.6,0.6c-4.1,0.3-7.4,3-8,6.6c0,0,0,0.1,0,0.1C416.5,261.8,420.2,262.6,424.7,262.6z"/>
			<path fill="#EF3F24" d="M424.7,262.6c-4.5,0-8.2-0.9-8.7-2c-0.1,0.4-0.1,0.7-0.1,1.1h0c0,1.2,3.9,2.2,8.7,2.2
				c4.8,0,8.7-1,8.7-2.2h0c0-0.4,0-0.7-0.1-1.1C432.8,261.8,429.1,262.6,424.7,262.6z"/>
		</g>
		<g>
			<polygon fill="#896044" points="643.2,399.2 603.3,468.3 683,468.3 			"/>
			<polygon fill="#52B848" points="643.2,282.7 603.3,351.8 683,351.8 			"/>
			<polygon fill="#52B848" points="643.2,321.5 603.3,390.6 683,390.6 			"/>
			<polygon fill="#52B848" points="643.2,360.4 603.3,429.4 683,429.4 			"/>
		</g>
		<g>
			<polygon fill="#896044" points="974.1,214.6 934.3,283.7 1014,283.7 			"/>
			<polygon fill="#52B848" points="974.1,98.1 934.3,167.1 1014,167.1 			"/>
			<polygon fill="#52B848" points="974.1,136.9 934.3,206 1014,206 			"/>
			<polygon fill="#52B848" points="974.1,175.8 934.3,244.8 1014,244.8 			"/>
		</g>
		<g>
			<polygon fill="#896044" points="1548.5,683.4 1508.6,752.5 1588.4,752.5 			"/>
			<polygon fill="#52B848" points="1548.5,566.9 1508.6,635.9 1588.4,635.9 			"/>
			<polygon fill="#52B848" points="1548.5,605.7 1508.6,674.8 1588.4,674.8 			"/>
			<polygon fill="#52B848" points="1548.5,644.6 1508.6,713.6 1588.4,713.6 			"/>
		</g>
		<g>
			<polygon fill="#896044" points="1627.1,683.4 1587.2,752.5 1666.9,752.5 			"/>
			<polygon fill="#52B848" points="1627.1,566.9 1587.2,635.9 1666.9,635.9 			"/>
			<polygon fill="#52B848" points="1627.1,605.7 1587.2,674.8 1666.9,674.8 			"/>
			<polygon fill="#52B848" points="1627.1,644.6 1587.2,713.6 1666.9,713.6 			"/>
		</g>
		<g>
			<g>
				<g>
					<rect x="1067.1" y="464.2" fill="#9E7A61" width="155.6" height="109"/>
					<g>
						<polygon fill="#896044" points="1282.5,371.7 1282.4,371.7 1222.7,464.3 1342.2,464.3 						"/>
					</g>
					<rect x="1222.7" y="464.3" fill="#896044" width="119.4" height="109"/>
					<polygon fill="#AA8972" points="1222.7,464.3 1067.1,464.3 1126.8,371.7 1282.4,371.7 					"/>
					<g>
						<defs>
							<polygon id="SVGID_3_" points="1222.7,464.3 1067.1,464.3 1126.8,371.7 1282.4,371.7 							"/>
						</defs>
						<clipPath id="SVGID_4_">
							<use xlink:href="#SVGID_3_"  overflow="visible"/>
						</clipPath>
						<g clip-path="url(#SVGID_4_)">
							<rect x="1033.7" y="380.5" fill="#9E7A61" width="264.5" height="7.5"/>
							<rect x="1033.7" y="398.3" fill="#9E7A61" width="264.5" height="7.5"/>
							<rect x="1033.7" y="416" fill="#9E7A61" width="264.5" height="7.5"/>
							<rect x="1033.7" y="433.8" fill="#9E7A61" width="264.5" height="7.5"/>
							<rect x="1033.7" y="451.5" fill="#9E7A61" width="264.5" height="7.5"/>
						</g>
					</g>
				</g>
				<rect x="1268.5" y="501.6" fill="#6F4830" width="27.4" height="71.6"/>
			</g>
			<g>
				<g>
					<g>
						<rect x="1156.2" y="483.2" fill="#E7E7E7" width="14.3" height="14.3"/>
						<rect x="1173.4" y="483.2" fill="#E7E7E7" width="14.3" height="14.3"/>
					</g>
					<g>
						<rect x="1156.2" y="500.6" fill="#E7E7E7" width="14.3" height="14.3"/>
						<rect x="1173.4" y="500.6" fill="#E7E7E7" width="14.3" height="14.3"/>
					</g>
				</g>
				<g>
					<g>
						<rect x="1109.6" y="483.2" fill="#E7E7E7" width="14.3" height="14.3"/>
						<rect x="1126.7" y="483.2" fill="#E7E7E7" width="14.3" height="14.3"/>
					</g>
					<g>
						<rect x="1109.6" y="500.6" fill="#E7E7E7" width="14.3" height="14.3"/>
						<rect x="1126.7" y="500.6" fill="#E7E7E7" width="14.3" height="14.3"/>
					</g>
				</g>
			</g>
		</g>
		<g>
			<path fill="none" d="M843.4,568.8L843.4,568.8L843.4,568.8C843.4,568.7,843.4,568.8,843.4,568.8z"/>
			<rect x="784.2" y="502.5" width="7.7" height="7.7"/>
			<rect x="791.9" y="494.8" width="7.7" height="7.7"/>
			<polygon points="791.9,517.9 784.2,517.9 784.2,522.1 786.4,525.6 791.9,525.6 			"/>
			<polygon points="791,533.3 791.9,534.9 791.9,533.3 			"/>
			<path d="M799.6,541h-4l2.5,4.2c0.4-1.2,0.9-2.3,1.5-3.4V541z"/>
			<rect x="791.9" y="525.6" width="7.7" height="7.7"/>
			<rect x="791.9" y="510.2" width="7.7" height="7.7"/>
			<polygon points="807.3,533.3 807.6,533.3 809.2,525.6 807.3,525.6 			"/>
			<rect x="799.6" y="517.9" width="7.7" height="7.7"/>
			<path d="M799.6,533.3v7.7h0.5c1.7-2.6,4.2-4.7,7.1-6l0.1-0.6v-1H799.6z"/>
			<path d="M791.9,494.8v-5.9c-2.5-0.2-5.2,0.3-7.6,1.5h0c0,0,0,0-0.1,0v4.4H791.9z"/>
			<path d="M784.2,510.2h-6.8c0,0,0,0,0,0.1l1.3,2.7l2.9,4.9h2.5V510.2z"/>
			<path d="M776,502.5c-0.2,1.8,0,3.7,0.5,5.5v-5.5H776z"/>
			<path d="M784.2,502.5v-7.7h-5.3c-1.1,1.4-1.9,3.1-2.4,4.8v2.9H784.2z"/>
			<polygon points="799.6,510.2 807.3,510.2 807.3,503.6 806.8,502.5 799.6,502.5 			"/>
			<polygon points="810.3,517.9 810.5,516.8 810.5,516.8 810.5,510.2 807.3,510.2 807.3,517.9 			"/>
			<path d="M802.8,494.8c-0.9-1.2-2-2.2-3.1-3.1v3.1H802.8z"/>
			<path fill="#0A0A0A" d="M799.6,502.5h7.2l-2.6-5.3c-0.4-0.9-0.9-1.7-1.5-2.4h-3.1V502.5z"/>
			<polygon fill="#0A0A0A" points="810.5,510.2 810.5,510 807.3,503.6 807.3,510.2 			"/>
			<rect x="799.6" y="510.2" fill="#0A0A0A" width="7.7" height="7.7"/>
			<polygon fill="#0A0A0A" points="809.8,520.7 810.2,520.7 810.3,520.6 810,520 810.3,517.9 807.3,517.9 807.3,525.6 809.2,525.6 
				809.7,523.5 809.5,523.2 			"/>
			<polygon fill="#0A0A0A" points="791.9,525.6 786.4,525.6 791,533.3 791.9,533.3 			"/>
			<rect x="799.6" y="525.6" fill="#0A0A0A" width="7.7" height="7.7"/>
			<polygon fill="#0A0A0A" points="807.3,534.3 807.6,533.3 807.3,533.3 			"/>
			<polygon fill="#0A0A0A" points="799.6,533.3 791.9,533.3 791.9,534.9 795.6,541 799.6,541 			"/>
			<path fill="#0A0A0A" d="M784.2,490.4c-2.2,1.1-4,2.6-5.3,4.4h5.3V490.4z"/>
			<path fill="#0A0A0A" d="M776.6,499.6c-0.3,1-0.5,1.9-0.5,2.9h0.5V499.6z"/>
			<path fill="#0A0A0A" d="M784.2,502.5h-7.7v5.5c0.2,0.8,0.5,1.5,0.9,2.2h6.8V502.5z"/>
			<polygon fill="#0A0A0A" points="781.7,517.9 784.2,522.1 784.2,517.9 			"/>
			<path fill="#0A0A0A" d="M799.6,494.8v-3.1c-2.3-1.6-4.9-2.6-7.7-2.8v5.9H799.6z"/>
			<rect x="784.2" y="494.8" fill="#0A0A0A" width="7.7" height="7.7"/>
			<rect x="791.9" y="502.5" fill="#0A0A0A" width="7.7" height="7.7"/>
			<rect x="784.2" y="510.2" fill="#0A0A0A" width="7.7" height="7.7"/>
			<rect x="791.9" y="517.9" fill="#0A0A0A" width="7.7" height="7.7"/>
			<path fill="#0A0A0A" d="M799.6,541.8c0.2-0.3,0.3-0.5,0.5-0.8h-0.5V541.8z"/>
			<path fill="#3E2A16" d="M815.8,477.6l-1.6-1.6c1.1-1.1,3-1.1,4.2,0c0.4,0.4,0.6,0.8,0.7,1.3h3l-3.7-3.7c-0.2-0.2-0.3-0.3-0.5-0.4
				c-1.5-1-3.5-0.9-4.8,0.4c-1.5,1.5-1.5,3.9,0,5.3l1,1h1.7L815.8,477.6z"/>
			<path fill="#3E2A16" d="M833.1,477.3h3c0.1-0.5,0.4-0.9,0.7-1.3c1.1-1.1,3-1.1,4.2,0l-1.6,1.6l0.1,2.3h1.7l1-1
				c1.5-1.5,1.5-3.9,0-5.3c-1.3-1.3-3.3-1.4-4.8-0.4c-0.2,0.1-0.4,0.3-0.5,0.4L833.1,477.3z"/>
			<path fill="#F26A35" d="M831,511.2l-0.4-0.5l-1.3,1.9l0.1,0.7l0.5,3.5l0.2,1.2l0.5,3.2l0.3-0.5h0.9l3.1,5l2.3-3.7l0.8-1.2h0.6
				h0.3l0.4,0.6l-1.1-4.5l-0.9-3.5l-0.5-2.2l0,0c-0.1-0.4-0.2-0.7-0.2-1.1c0-1.7,1.4-3.2,3.2-3.2c1.6,0,2.9,1.2,3.1,2.7l0.1,0
				l0.6,7.4l0.5,5.7l1.1-1.8h0.6l-0.1-0.7l0.1-0.1l-0.5-3.1h0v-11.7c0-2.5-2-4.5-4.5-4.5h-0.2l0,0c0,0,0,0-0.1,0h-0.1
				c-0.2,0-0.5-0.1-0.6-0.3l1.1,2.4L831,511.2z"/>
			<path fill="#F26A35" d="M810.5,516.8L810.5,516.8l-0.2,1.1L810,520l0.3,0.5l0,0.1h0.1l0.9,1.5l0.5-5.4l0.6-7.4l0.1,0
				c0.2-1.5,1.5-2.7,3.1-2.7c1.7,0,3.2,1.4,3.2,3.2c0,0.4-0.1,0.8-0.2,1.1l0,0l-0.5,2.2l-0.9,3.5l-0.6,2.4l-0.6,2.6l0.7-1.1h0.9
				l3.1,5l2.3-3.7l0.8-1.2h0.9l0.2,0.4l0.6-4.3l0.5-3.5l0.1-0.8l-1.3-1.9l-0.4,0.5l-9.7-8.2l1.4-3l11.6,6.9h0.1l11.5-7.2l0.1,0.2
				c0.6-0.3,1.1-0.6,1.6-1c0,0,0.1-0.1,0.1-0.1c0.1,0,0.2,0,0.3,0c2.9,0,5.3-2.4,5.3-5.3h-2.3c0-0.2,0.1-0.4,0.1-0.6
				c1.3-1,2.1-2.5,2.1-4.2h-2.2c0-0.2-0.1-0.3-0.1-0.5c1.4-1,2.3-2.5,2.3-4.3H842c-0.1-0.1-0.1-0.1-0.2-0.2c1-1,1.6-2.3,1.6-3.8
				h-2.2h-1.7l-0.1-2.3l1.6-1.6c-1.1-1.1-3-1.1-4.2,0c-0.4,0.4-0.6,0.8-0.7,1.3h-3l3.7-3.7c0.2-0.2,0.3-0.3,0.5-0.4
				c-0.4-0.7-1-1.3-1.5-1.9c0.8-0.9,1.2-2.1,1.2-3.4h-8.7c-0.3,0-0.5,0-0.8,0c-0.3,0-0.6,0-0.8,0h-0.3c0,0,0,0,0,0
				c-3.6,0.3-6.8,2.3-8.7,5.3c0.2,0.1,0.4,0.3,0.5,0.4l3.7,3.7h-3c-0.1-0.5-0.4-0.9-0.7-1.3c-1.1-1.1-3-1.1-4.2,0l1.6,1.6l-0.1,2.3
				H814h-2.2c0,1.5,0.6,2.8,1.6,3.8c-0.1,0.1-0.1,0.1-0.2,0.2h-4.6c0,1.8,0.9,3.4,2.3,4.3c0,0.2-0.1,0.3-0.1,0.5h-2.2
				c0,1.7,0.8,3.3,2.1,4.2c0,0.2,0.1,0.4,0.1,0.6h-2.3c0,2.9,2.4,5.3,5.3,5.3c0.1,0,0.2,0,0.3,0c0,0,0.1,0.1,0.1,0.1
				c0.5,0.4,1.1,0.8,1.7,1c-0.2,0.3-0.5,0.5-0.9,0.6h-0.1c0,0,0,0-0.1,0l0,0c-2.5,0-4.5,2-4.5,4.5v4.9v0.2V516.8z M837.4,488
				c0.5,0,1,0.1,1,0.3c0,0.1-0.4,0.3-1,0.3s-1-0.1-1-0.3C836.4,488.1,836.9,488,837.4,488z M835.5,484.3c0.8,0,1.4,0.6,1.4,1.4
				c0,0.8-0.6,1.4-1.4,1.4c-0.8,0-1.4-0.6-1.4-1.4C834.1,484.9,834.7,484.3,835.5,484.3z M824.8,488.7L824.8,488.7L824.8,488.7
				c0.4-1.3,1.5-2.1,2.8-2.1c1.3,0,2.5,0.9,2.8,2.1c2,0.2,3.6,1.9,3.6,3.9c0,2.1-1.7,3.9-3.8,3.9l-0.6,7.5h-1.9v-7.5h-0.2v7.5h-1.9
				l-0.6-7.5c-2.1-0.1-3.8-1.8-3.8-3.9C821.1,490.6,822.7,488.8,824.8,488.7z M819.8,484.3c0.8,0,1.4,0.6,1.4,1.4
				c0,0.8-0.6,1.4-1.4,1.4c-0.8,0-1.4-0.6-1.4-1.4C818.4,484.9,819,484.3,819.8,484.3z M817.8,488c0.5,0,1,0.1,1,0.3
				c0,0.1-0.4,0.3-1,0.3c-0.5,0-1-0.1-1-0.3C816.8,488.1,817.3,488,817.8,488z"/>
			<ellipse fill="#032F33" cx="817.8" cy="488.2" rx="1" ry="0.3"/>
			<ellipse fill="#032F33" cx="837.4" cy="488.2" rx="1" ry="0.3"/>
			<circle fill="#032F33" cx="819.8" cy="485.7" r="1.4"/>
			<circle fill="#032F33" cx="835.5" cy="485.7" r="1.4"/>
			<path fill="#FFFFFF" d="M824.9,496.6l0.6,7.5h1.9v-7.5H825C825,496.6,825,496.6,824.9,496.6z"/>
			<path fill="#FFFFFF" d="M827.7,496.6v7.5h1.9l0.6-7.5c0,0-0.1,0-0.1,0H827.7z"/>
			<path fill="#F0D3A5" d="M824.9,496.6c0,0,0.1,0,0.1,0h2.5h0.2h2.5c0,0,0.1,0,0.1,0c2.1-0.1,3.8-1.8,3.8-3.9
				c0-2.1-1.6-3.8-3.6-3.9c0,0,0,0-0.1,0l-2.4,4.2v3.6h-0.7V493l-2.5-4.3c-2,0.2-3.6,1.9-3.6,3.9
				C821.1,494.8,822.8,496.5,824.9,496.6z"/>
			<path fill="#032F33" d="M827.2,496.6h0.7v-3.6l2.4-4.2c0,0,0,0,0.1,0c-0.4-1.2-1.5-2.1-2.8-2.1c-1.3,0-2.4,0.9-2.8,2.1h-0.1
				l0,0.1l2.5,4.3V496.6z"/>
			<path fill="#3E2A16" d="M857.7,572.9L857.7,572.9l-6.3-4.6h-2.2c-0.9,0.3-1.8,0.5-2.8,0.5l-3-0.1l0,0.1c0,0,0,0,0,0s0,0-0.1,0
				l-2.2,4.9l0,0c0,0.1-0.1,0.3-0.1,0.4c0,1,1.3,1.8,3.4,2.4l0.9-2.5l1.2-3l0.5,3.2l0.5,2.9c0.7,0.1,1.4,0.1,2.2,0.1
				c4.8,0,8.7-1.4,8.7-3C858.4,573.7,858.2,573.3,857.7,572.9z M854.2,576.7l-0.8-2l-1.3-3.4l3.1,2.7l1.9,1.6
				C855.7,576.5,854.2,576.7,854.2,576.7z"/>
			<path fill="#0A0A0A" d="M852.1,571.3l1.3,3.4l0.8,2c0,0,1.5-0.3,3-1.1l-1.9-1.6L852.1,571.3z"/>
			<path fill="#0A0A0A" d="M846.6,571.1l-1.2,3l-0.9,2.5l0,0.1c1.6,0.5,3.1,0.5,3.1,0.5l0,0l-0.5-2.9L846.6,571.1z"/>
			<path fill="#3E2A16" d="M812.9,569.4c-0.1,0-0.1-0.1-0.2-0.1c0,0,0,0-0.1,0v0c-0.5-0.3-0.8-0.5-0.8-0.5s0,0,0.1-0.1l-2.5,0.1
				c-1,0-2-0.1-2.8-0.5h-1.9l-6.3,4.6l0,0c-0.5,0.4-0.7,0.8-0.7,1.2c0,1.7,3.9,3,8.7,3c0.8,0,1.5,0,2.2-0.1l0.5-2.9l0.5-3.2l1.2,3
				l0.9,2.5c2-0.6,3.4-1.4,3.4-2.4c0-0.1,0-0.3-0.1-0.4l0,0l-1.9-4.3c0,0,0,0,0,0C813,569.5,812.9,569.5,812.9,569.4z M802,576.7
				c0,0-1.5-0.3-3-1.1l1.9-1.6l3.1-2.7l-1.3,3.4L802,576.7z"/>
			<path fill="#0A0A0A" d="M800.8,574l-1.9,1.6c1.5,0.8,3,1.1,3,1.1l0.8-2l1.3-3.4L800.8,574z"/>
			<path fill="#0A0A0A" d="M809.6,571.1l-0.5,3.2l-0.5,2.9l0,0c0,0,1.6,0,3.1-0.5l0-0.1l-0.9-2.5L809.6,571.1z"/>
			<path fill="#F26A35" d="M812,568.7c0.1,0,0.1-0.1,0.3-0.2h0c0,0,0,0,0,0c0,0,0.1-0.1,0.1-0.1c0,0,0.1,0,0.1-0.1
				c0,0,0.1-0.1,0.1-0.1c0,0,0,0,0,0v0c0.3-0.2,0.6-0.4,1-0.6c1-0.5,2.3-1.2,3.9-1.9c-0.1,0-0.2,0-0.2-0.1c2.1-0.6,3.7-3.7,3.7-7.5
				c0-0.3,0-0.6,0-0.9h1.4c0,0.3,0,0.6,0,0.9c0,0.6,0,1.1-0.1,1.7c-0.4,3.4-2.2,5.9-4.3,5.9c-0.1,0-0.2,0-0.3,0v2
				c0.9,0,1.8-0.2,2.6-0.7c1-0.5,1.7-1.4,2.2-2.4v3c2.1,0,3.9-1.2,4.8-3v3c0.2,0,0.5,0,0.7-0.1c1.8-0.2,3.3-1.4,4.1-3v3
				c1.4,0,2.7-0.6,3.6-1.5c0.2-0.2,0.4-0.4,0.5-0.6c-2.1-0.6-3.7-3.7-3.7-7.5c0-0.3,0-0.6,0-0.9h1.4c0,0.3,0,0.6,0,0.9
				c0,3.8,1.6,6.9,3.7,7.5c0,0-0.1,0-0.1,0c0.2,0.1,0.5,0.2,0.7,0.3c0,0,0,0,0.1,0c0.2,0.1,0.3,0.1,0.5,0.2c0,0,0.1,0,0.1,0.1
				c0.1,0.1,0.3,0.1,0.4,0.2c0.1,0,0.1,0,0.2,0.1c0.1,0.1,0.2,0.1,0.4,0.2c0.1,0,0.1,0.1,0.2,0.1c0.1,0.1,0.2,0.1,0.3,0.2
				c0.1,0,0.1,0.1,0.2,0.1c0.1,0,0.2,0.1,0.3,0.1c0.1,0,0.1,0.1,0.2,0.1c0.1,0,0.2,0.1,0.2,0.1c0.1,0,0.1,0.1,0.2,0.1
				c0.1,0,0.1,0.1,0.2,0.1c0.1,0,0.1,0.1,0.2,0.1c0.1,0,0.1,0.1,0.2,0.1c0,0,0.1,0.1,0.1,0.1c0,0,0,0,0.1,0c0,0,0.1,0,0.1,0.1
				c0,0,0.1,0,0.1,0.1c0.1,0,0.1,0.1,0.2,0.1c0,0,0.1,0,0.1,0.1c0,0,0.1,0.1,0.1,0.1c0,0,0.1,0,0.1,0.1c0,0,0.1,0.1,0.1,0.1
				c0,0,0,0,0,0h0c0.1,0.1,0.2,0.1,0.2,0.2l0.1,0l3,0.1c1,0,2-0.1,2.8-0.5c3.3-1.2,5.5-4.8,4.7-8.5l-3.9-18.5l-4.6,7.4l-3.6-5.7
				l-1.7,2.8l-1.8,2.9l-3.6-5.7l-3.6,5.7l0,0l-3.5-5.6l-3.6,5.7l-3.6-5.7l-3.6,5.7l-1.2-1.9l-2.4-3.8l-3.6,5.7l-3.7-5.8l0.6-3
				l3.1,4.9l2.3-3.7l0.8-1.2h0.9l3.1,5l2.3-3.7l0.8-1.2h0.9l3.1,5l2.3-3.7l0.8-1.2h0.3h0.6l3.1,5l2.3-3.7l0.8-1.2h0.9l3.1,5l2.3-3.7
				l0.8-1.2h0.9l3.1,5l3.1-5h1.2l-0.3-1.4l0.1-0.2l-0.4-2.2h-0.3l-3-14.2l0.2,1.3l-1.8,2.9l0.2,2c0.1,0.2,0.2,0.3,0.3,0.5
				c0.6,1.3,0.2,2.8-0.7,3.5c0-0.3-0.1-0.6-0.2-0.9c-0.1-0.2-0.2-0.3-0.2-0.5c-0.2,0.4-0.5,0.9-0.8,1.2c-0.2,0.2-0.4,0.4-0.6,0.5
				c-1,0.6-2.1,0.6-2.9,0.2c0.3-0.1,0.5-0.3,0.7-0.5c0.2-0.2,0.4-0.5,0.6-0.7c0.4-0.7,0.6-1.5,0.4-2.2c-0.2,0-0.5,0.1-0.7,0.2
				c-0.2,0.1-0.4,0.2-0.5,0.3c-0.1-0.7,0-1.3,0.3-1.8c0,0-0.1-0.1-0.1-0.1c0.1,0,0.1-0.1,0.2-0.1c0.1-0.1,0.2-0.3,0.3-0.4l-2-3.2
				l-0.4,0.6l-3.2,5.1l-1.3-2.1l-2.2-3.6l-0.3,0.5l0.7,4.6c0,0.2,0.1,0.4,0.1,0.6c0,0.3,0,0.5-0.1,0.8l-2.6,5.5l-1.2,2.6
				c0,0-0.1,0-0.1,0c-0.1,0-0.1,0-0.1,0l-1.2-2.6l-2.5-5.3c-0.1-0.3-0.1-0.6-0.1-0.9c0-0.3,0-0.6,0.1-0.9l0.6-4.5l-0.2-0.4l-2.3,3.7
				l-1.3,2l-2.8-4.5l-0.8-1.2l-2.1,3.3c0.1,0.1,0.1,0.2,0.2,0.3c0.1,0,0.1,0.1,0.2,0.1c0,0-0.1,0-0.1,0.1c0.3,0.5,0.4,1.2,0.3,1.8
				c-0.2-0.1-0.3-0.2-0.5-0.3c-0.2-0.1-0.4-0.1-0.7-0.2c-0.1,0.7,0,1.5,0.4,2.2c0.2,0.2,0.3,0.5,0.6,0.7c0.2,0.2,0.5,0.4,0.7,0.5
				c-0.8,0.5-1.9,0.4-2.9-0.2c-0.2-0.1-0.4-0.3-0.6-0.5c-0.4-0.4-0.7-0.8-0.8-1.2c-0.1,0.1-0.2,0.3-0.2,0.5
				c-0.1,0.3-0.2,0.6-0.2,0.9c-0.9-0.7-1.2-2.2-0.7-3.5c0.1-0.2,0.2-0.4,0.3-0.5l0.2-2.2l-1.4-2.2l-0.5,2.1l-1.6,7.7l-0.2,1
				l-0.1,0.6c-2.9,1.3-5.3,3.4-7.1,6c-0.2,0.2-0.3,0.5-0.5,0.8c-0.6,1.1-1.1,2.2-1.5,3.4c-0.5,1.7-0.8,3.4-0.8,5.2
				c0,3.3,1,6.4,2.6,9c0.3-1.5,1.4-2.7,2.8-3.1l-0.7,3.5c-0.8,3.8,1.4,7.3,4.7,8.5c0.9,0.3,1.8,0.5,2.8,0.5L812,568.7z"/>
			<polygon fill="#F0D3A5" points="845.4,544.8 842.3,539.8 841.4,539.8 840.6,541 838.3,544.8 835.1,539.8 834.2,539.8 833.5,541 
				831.1,544.8 828,539.8 827.5,539.8 827.1,539.8 826.4,541 824,544.8 820.9,539.8 820,539.8 819.2,541 816.9,544.8 813.8,539.8 
				812.9,539.8 812.1,541 809.8,544.8 806.7,539.8 806.1,542.8 809.8,548.7 813.3,543 815.7,546.8 816.9,548.7 820.5,543 824,548.7 
				827.6,543 831.1,548.6 831.1,548.7 834.7,543 838.3,548.7 840.1,545.8 841.8,543 845.4,548.7 850,541.3 850.1,541.1 849.8,539.8 
				849.7,539.8 848.5,539.8 			"/>
			<path d="M843.4,568.8C843.4,568.8,843.4,568.7,843.4,568.8c-0.2-0.1-0.2-0.2-0.3-0.2h-7.3v3.9C840,571.1,843,569.1,843.4,568.8
				C843.4,568.8,843.5,568.8,843.4,568.8C843.5,568.8,843.4,568.8,843.4,568.8z"/>
			<path d="M813,569.5c0,0,0.1,0.1,0.1,0.1C813.1,569.6,813.1,569.5,813,569.5C813,569.5,813,569.5,813,569.5z"/>
			<path d="M832.1,567.8v-3c-0.7,1.6-2.3,2.7-4.1,3v0.8h7.7v-2.2C834.8,567.3,833.5,567.8,832.1,567.8z"/>
			<path d="M838.3,566.1c-0.2-0.1-0.5-0.2-0.7-0.3l0,0C837.9,565.9,838.1,566,838.3,566.1z"/>
			<path d="M842.2,568C842.2,568,842.2,568,842.2,568c0,0,0,0,0.1,0.1C842.3,568,842.2,568,842.2,568z"/>
			<path d="M820.4,568.5v4.1c2.2,0.6,4.7,1.1,7.3,1.1c0.1,0,0.3,0,0.4,0v-5.2H820.4z"/>
			<path d="M817.8,567.8v-2c-0.1,0-0.1,0-0.2,0c-1.6,0.6-2.9,1.3-3.9,1.9c-0.4,0.2-0.7,0.4-1,0.6v0.3h7.7v-1.4
				C819.6,567.6,818.7,567.8,817.8,567.8z"/>
			<path d="M812,568.7c-0.1,0-0.1,0.1-0.1,0.1s0.3,0.2,0.8,0.5v-0.8h-0.4C812.1,568.6,812,568.7,812,568.7z"/>
			<path fill="#0A0A0A" d="M843.1,568.5c0,0-0.1-0.1-0.1-0.1c0,0-0.1,0-0.1-0.1c0,0-0.1-0.1-0.1-0.1c0,0-0.1,0-0.1-0.1
				c-0.1,0-0.1-0.1-0.2-0.1c0,0-0.1,0-0.1-0.1c-0.1,0-0.1-0.1-0.2-0.1c0,0-0.1-0.1-0.1-0.1c-0.1,0-0.1-0.1-0.2-0.1
				c-0.1,0-0.1-0.1-0.2-0.1c-0.1,0-0.1-0.1-0.2-0.1c-0.1,0-0.1-0.1-0.2-0.1c-0.1,0-0.2-0.1-0.2-0.1c-0.1,0-0.1-0.1-0.2-0.1
				c-0.1,0-0.2-0.1-0.3-0.1c-0.1,0-0.1-0.1-0.2-0.1c-0.1,0-0.2-0.1-0.3-0.2c-0.1,0-0.1-0.1-0.2-0.1c-0.1-0.1-0.2-0.1-0.4-0.2
				c-0.1,0-0.1,0-0.2-0.1c-0.1-0.1-0.3-0.1-0.4-0.2c0,0-0.1,0-0.1-0.1c-0.2-0.1-0.3-0.1-0.5-0.2c0,0,0,0-0.1,0
				c-0.2-0.1-0.5-0.2-0.7-0.3c-0.2,0-0.4,0.1-0.6,0.1c-0.2,0-0.5,0-0.7-0.1c-0.2,0.2-0.3,0.4-0.5,0.6v2.2L843.1,568.5L843.1,568.5
				C843.1,568.5,843.1,568.5,843.1,568.5z"/>
			<path fill="#0A0A0A" d="M828.1,568.5v5.2v0c0.1,0,0.1,0,0.2,0c0.2,0,0.5,0,0.7,0c0.1,0,0.2,0,0.2,0c0.3,0,0.6,0,0.9-0.1
				c0,0,0.1,0,0.1,0c0.3,0,0.5-0.1,0.8-0.1c0.1,0,0.2,0,0.3,0c0.2,0,0.4-0.1,0.7-0.1c0.1,0,0.2,0,0.2,0c0.6-0.1,1.2-0.2,1.7-0.4
				c0.1,0,0.1,0,0.2-0.1c0.2-0.1,0.4-0.1,0.6-0.2c0.1,0,0.1,0,0.2-0.1c0.2-0.1,0.5-0.1,0.7-0.2c0,0,0.1,0,0.1,0v0v-3.9H828.1z"/>
			<path fill="#0A0A0A" d="M812.7,568.3C812.7,568.3,812.7,568.3,812.7,568.3c-0.1,0.1-0.1,0.1-0.2,0.1c0,0-0.1,0-0.1,0.1
				c0,0-0.1,0.1-0.1,0.1c0,0,0,0,0,0h0h0.4V568.3L812.7,568.3z"/>
			<path fill="#0A0A0A" d="M827.4,567.8v-3c-0.8,1.8-2.7,3-4.8,3v-3c-0.5,1-1.3,1.8-2.2,2.4v1.4h7.7v-0.8
				C827.8,567.8,827.6,567.8,827.4,567.8z"/>
			<path fill="#0A0A0A" d="M812.7,568.5v0.8v0c0,0,0,0,0.1,0c0,0,0.1,0.1,0.2,0.1c0,0,0.1,0,0.1,0.1c0.1,0,0.1,0.1,0.2,0.1
				c0,0,0.1,0.1,0.1,0.1c0.1,0,0.1,0.1,0.2,0.1c0,0,0.1,0.1,0.2,0.1c0.1,0,0.1,0.1,0.2,0.1c0.1,0,0.1,0.1,0.2,0.1
				c0.1,0,0.2,0.1,0.2,0.1c0.1,0,0.1,0.1,0.2,0.1c0.1,0,0.2,0.1,0.2,0.1c0.1,0,0.1,0.1,0.2,0.1c0.1,0,0.2,0.1,0.3,0.1
				c0.1,0,0.1,0.1,0.2,0.1c0.1,0,0.2,0.1,0.3,0.1c0.1,0,0.1,0.1,0.2,0.1c0.1,0,0.2,0.1,0.3,0.1c0.1,0,0.1,0.1,0.2,0.1
				c0.1,0,0.2,0.1,0.3,0.1c0.1,0,0.1,0.1,0.2,0.1c0.1,0,0.2,0.1,0.4,0.1c0.1,0,0.1,0.1,0.2,0.1c0.1,0,0.2,0.1,0.4,0.1
				c0.1,0,0.1,0.1,0.2,0.1c0.1,0,0.3,0.1,0.4,0.1c0.1,0,0.1,0.1,0.2,0.1c0.1,0,0.3,0.1,0.4,0.1c0.1,0,0.2,0.1,0.2,0.1
				c0.1,0,0.3,0.1,0.4,0.1c0.1,0,0.2,0.1,0.2,0.1c0.1,0,0.3,0.1,0.4,0.1c0,0,0.1,0,0.1,0v0v-4.1H812.7z"/>
			<polygon fill="#F0D3A5" points="810.4,520.7 810.2,520.7 809.8,520.7 809.5,523.2 809.7,523.5 811,525.7 811.3,522.2 			"/>
			<path fill="#F0D3A5" d="M824.6,520.7h-0.9l-0.8,1.2l-2.3,3.7l-3.1-5h-0.9l-0.7,1.1l0,0.2l-1.2,4.9c0.1,0.1,0.2,0.2,0.3,0.3
				l2.1-3.3l0.8,1.2l2.8,4.5l1.3-2l2.3-3.7l0.2,0.4l0.5-3.2L824.6,520.7z"/>
			<polygon fill="#F0D3A5" points="843.9,522.5 844.2,525.9 846.1,523 845.8,521.6 845.7,520.7 845.6,520.7 845,520.7 			"/>
			<path fill="#F0D3A5" d="M839.2,521.3l-0.4-0.6h-0.3h-0.6l-0.8,1.2l-2.3,3.7l-3.1-5h-0.9l-0.3,0.5l0.3,1.9l0.2,1.3l0.3-0.5
				l2.2,3.6l1.3,2.1l3.2-5.1l0.4-0.6l2,3.2c0.1-0.1,0.1-0.1,0.2-0.2L839.2,521.3z"/>
			<path fill="#3E2A16" d="M818.1,565.9c2.1,0,3.9-2.5,4.3-5.9c0.1-0.5,0.1-1.1,0.1-1.7c0-0.3,0-0.6,0-0.9h-1.4c0,0.3,0,0.6,0,0.9
				c0,3.8-1.6,6.9-3.7,7.5c0.1,0,0.2,0,0.2,0.1c0.1,0,0.1,0,0.2,0C817.9,565.9,818,565.9,818.1,565.9z"/>
			<path fill="#3E2A16" d="M837.6,565.8L837.6,565.8C837.7,565.8,837.7,565.8,837.6,565.8c-2-0.6-3.6-3.7-3.6-7.5c0-0.3,0-0.6,0-0.9
				h-1.4c0,0.3,0,0.6,0,0.9c0,3.8,1.6,6.9,3.7,7.5c0.2,0.1,0.5,0.1,0.7,0.1C837.2,565.9,837.4,565.8,837.6,565.8z"/>
			<path fill="#3E2A16" d="M815.9,522l0-0.2l0.6-2.6l0.6-2.4l0.9-3.5l0.5-2.2l0,0c0.1-0.4,0.2-0.7,0.2-1.1c0-1.7-1.4-3.2-3.2-3.2
				c-1.6,0-2.9,1.2-3.1,2.7l-0.1,0l-0.6,7.4l-0.5,5.4l-0.3,3.4l-0.2,2.2c-0.1,0.2-0.2,0.3-0.3,0.5c-0.6,1.3-0.2,2.8,0.7,3.5
				c0-0.3,0.1-0.6,0.2-0.9c0.1-0.2,0.2-0.3,0.2-0.5c0.2,0.4,0.5,0.9,0.8,1.2c0.2,0.2,0.4,0.4,0.6,0.5c1,0.6,2.1,0.6,2.9,0.2
				c-0.3-0.1-0.5-0.3-0.7-0.5c-0.2-0.2-0.4-0.5-0.6-0.7c-0.4-0.7-0.6-1.5-0.4-2.2c0.2,0,0.5,0.1,0.7,0.2c0.2,0.1,0.4,0.2,0.5,0.3
				c0.1-0.7,0-1.3-0.3-1.8c0,0,0.1-0.1,0.1-0.1c-0.1,0-0.1-0.1-0.2-0.1c-0.1-0.1-0.1-0.2-0.2-0.3c-0.1-0.1-0.2-0.2-0.3-0.3
				L815.9,522z"/>
			<path fill="#3E2A16" d="M843.5,516.8l-0.6-7.4l-0.1,0c-0.2-1.5-1.5-2.7-3.1-2.7c-1.7,0-3.2,1.4-3.2,3.2c0,0.4,0.1,0.8,0.2,1.1
				l0,0l0.5,2.2l0.9,3.5l1.1,4.5l1.3,5.6c-0.1,0.1-0.1,0.1-0.2,0.2c-0.1,0.1-0.2,0.2-0.3,0.4c-0.1,0-0.1,0.1-0.2,0.1
				c0,0,0.1,0,0.1,0.1c-0.3,0.5-0.4,1.2-0.3,1.8c0.2-0.1,0.3-0.2,0.5-0.3c0.2-0.1,0.4-0.1,0.7-0.2c0.1,0.7,0,1.5-0.4,2.2
				c-0.2,0.2-0.3,0.5-0.6,0.7c-0.2,0.2-0.5,0.4-0.7,0.5c0.8,0.5,1.9,0.4,2.9-0.2c0.2-0.1,0.4-0.3,0.6-0.5c0.4-0.4,0.7-0.8,0.8-1.2
				c0.1,0.1,0.2,0.3,0.2,0.5c0.1,0.3,0.2,0.6,0.2,0.9c0.9-0.7,1.2-2.2,0.7-3.5c-0.1-0.2-0.2-0.4-0.3-0.5l-0.2-2l-0.3-3.4
				L843.5,516.8z"/>
			<polygon fill="#2B3C90" points="827.7,507 827.7,507 827.7,507 			"/>
			<path fill="#2B3C90" d="M830.5,521.2L830,518l-0.2-1.2l-0.5-3.5l-0.1-0.7l1.3-1.9l-2.9-3.7l-2.9,3.7l1.3,1.9l-0.1,0.8l-0.5,3.5
				l-0.6,4.3l-0.5,3.2l-0.6,4.5c-0.1,0.3-0.1,0.6-0.1,0.9c0,0.3,0,0.6,0.1,0.9l2.5,5.3l1.2,2.6c0,0,0.1,0,0.1,0c0.1,0,0.1,0,0.1,0
				l1.2-2.6l2.6-5.5c0.1-0.2,0.1-0.5,0.1-0.8c0-0.2,0-0.4-0.1-0.6l-0.7-4.6l-0.2-1.3L830.5,521.2z"/>
			<polygon fill="#F2F2F2" points="827.7,507 816,500 814.6,503 824.4,511.2 824.8,510.6 827.7,507 			"/>
			<polygon fill="#F2F2F2" points="827.7,507 827.7,507 830.6,510.6 831,511.2 840.6,502.7 839.4,500.3 839.3,499.9 839.2,499.8 			
				"/>
		</g>
		<g>
			<g>
				<polygon fill-rule="evenodd" clip-rule="evenodd" fill="#D2BF99" points="281.4,623.6 298,586.9 281.4,598.4 278.4,557.5 
					265,595.6 266.7,547.1 255.8,567.6 252.9,538.1 237.7,562.7 218.7,529.1 221.4,576.5 182.8,539.8 182.8,575.7 159.8,564 
					163.9,597 149.5,586.9 163.1,628.2 				"/>
				<polygon fill-rule="evenodd" clip-rule="evenodd" fill="#D2BF99" points="268.8,621.5 288.4,572.5 268.8,596.3 266.1,555.4 
					254.3,593.5 255.8,545 246.2,565.4 243.6,536 230.2,560.5 213.4,526.9 212.7,560.3 194.5,537.9 181.7,573.6 173.3,555.8 
					165,594.8 152.2,584.8 164.3,626.1 				"/>
			</g>
			<g>
				<g>
					<rect x="141.7" y="604.3" fill-rule="evenodd" clip-rule="evenodd" fill="#A6976B" width="163.1" height="13.4"/>
					<rect x="141.7" y="631" fill-rule="evenodd" clip-rule="evenodd" fill="#A6976B" width="163.1" height="13.4"/>
					<rect x="141.7" y="631" fill-rule="evenodd" clip-rule="evenodd" fill="#C4B690" width="163.1" height="4.1"/>
					<rect x="141.7" y="617.7" fill-rule="evenodd" clip-rule="evenodd" fill="#A6976B" width="185.1" height="13.4"/>
					<rect x="141.7" y="617.7" fill-rule="evenodd" clip-rule="evenodd" fill="#C4B690" width="185.1" height="4.1"/>
					<g>
						<path fill="#4F4335" stroke="#4F4335" stroke-width="1.8197" stroke-miterlimit="22.9256" d="M178.1,614.4
							c8.3,0,15.8,3.4,21.2,8.8c5.4,5.4,8.8,12.9,8.8,21.2c0,8.3-3.4,15.8-8.8,21.2c-5.4,5.4-12.9,8.8-21.2,8.8
							c-8.3,0-15.8-3.4-21.2-8.8c-5.4-5.4-8.8-12.9-8.8-21.2c0-8.3,3.4-15.8,8.8-21.2C162.3,617.7,169.8,614.4,178.1,614.4
							L178.1,614.4z M151.1,645.9c0.3,6.3,2.9,12.1,6.8,16.5l16.5-16.5L151.1,645.9L151.1,645.9z M181.7,645.9l16.5,16.5
							c4-4.4,6.5-10.2,6.9-16.5L181.7,645.9L181.7,645.9z M205,642.9c-0.3-6.3-2.9-12.1-6.8-16.5l-16.5,16.5L205,642.9L205,642.9z
							 M174.5,642.9l-16.5-16.5c-4,4.4-6.5,10.2-6.9,16.5L174.5,642.9L174.5,642.9z M176.6,617.4c-6.3,0.3-12.1,2.9-16.5,6.8
							l16.5,16.5L176.6,617.4L176.6,617.4z M160,664.5c4.4,4,10.2,6.5,16.5,6.9l0-23.4L160,664.5L160,664.5z M179.5,671.4
							c6.3-0.3,12.1-2.9,16.5-6.8L179.5,648L179.5,671.4L179.5,671.4z M179.5,617.4l0,23.4l16.5-16.5
							C191.6,620.3,185.9,617.8,179.5,617.4z"/>
						<path fill-rule="evenodd" clip-rule="evenodd" fill="#FFFFFF" d="M178.1,648.8c-2.4,0-4.4-2-4.4-4.4c0-2.4,2-4.4,4.4-4.4
							c2.4,0,4.4,2,4.4,4.4C182.5,646.8,180.5,648.8,178.1,648.8z"/>
					</g>
					<g>
						<path fill="#4F4335" stroke="#4F4335" stroke-width="1.8197" stroke-miterlimit="22.9256" d="M261.9,614.4
							c8.3,0,15.8,3.4,21.2,8.8c5.4,5.4,8.8,12.9,8.8,21.2c0,8.3-3.4,15.8-8.8,21.2c-5.4,5.4-12.9,8.8-21.2,8.8
							c-8.3,0-15.8-3.4-21.2-8.8c-5.4-5.4-8.8-12.9-8.8-21.2c0-8.3,3.4-15.8,8.8-21.2C246.1,617.8,253.6,614.4,261.9,614.4
							L261.9,614.4z M234.9,645.9c0.3,6.3,2.9,12.1,6.8,16.5l16.5-16.5L234.9,645.9L234.9,645.9z M265.5,645.9l16.5,16.5
							c4-4.4,6.5-10.2,6.9-16.5L265.5,645.9L265.5,645.9z M288.9,642.9c-0.3-6.3-2.9-12.1-6.8-16.5l-16.5,16.5L288.9,642.9
							L288.9,642.9z M258.3,642.9l-16.5-16.5c-4,4.4-6.5,10.2-6.9,16.5L258.3,642.9L258.3,642.9z M260.4,617.4
							c-6.3,0.3-12.1,2.9-16.5,6.8l16.5,16.5L260.4,617.4L260.4,617.4z M243.9,664.5c4.4,4,10.2,6.5,16.5,6.9l0-23.4L243.9,664.5
							L243.9,664.5z M263.4,671.4c6.3-0.3,12.1-2.9,16.5-6.8L263.4,648L263.4,671.4L263.4,671.4z M263.4,617.4l0,23.4l16.5-16.5
							C275.5,620.3,269.8,617.8,263.4,617.4z"/>
						<path fill-rule="evenodd" clip-rule="evenodd" fill="#FFFFFF" d="M261.9,648.8c-2.4,0-4.4-2-4.4-4.4c0-2.4,2-4.4,4.4-4.4
							c2.4,0,4.4,2,4.4,4.4C266.3,646.8,264.3,648.8,261.9,648.8z"/>
					</g>
					<rect x="141.7" y="604.3" fill-rule="evenodd" clip-rule="evenodd" fill="#C4B690" width="163.1" height="4.1"/>
				</g>
				<polygon fill-rule="evenodd" clip-rule="evenodd" fill="#70441B" points="373.8,674.4 366.5,674.4 361.1,615.6 379.3,615.6 
					371.4,648.1 				"/>
				<polygon fill-rule="evenodd" clip-rule="evenodd" fill="#70441B" points="412.8,674.4 405.5,674.4 412.5,615.6 419.8,615.7 				
					"/>
				<path fill-rule="evenodd" clip-rule="evenodd" fill="#2C1B11" d="M355,597.8c-16.7,0-12.4,14.3-12.4,35.3l11.2,0L355,597.8z"/>
				<path fill-rule="evenodd" clip-rule="evenodd" fill="#8F5624" d="M415.7,591.9l-53.6,0c-7.1,0-12.9,5.8-12.9,12.9l0,16.3l0,7.9
					l0,45.4l7.3,0l0-25.5l4.6-19.9l56.4,0c1.1,0.1,2.1,0.1,3.2,0l0,0v0c8.7-0.9,16.4-9.3,18.1-18.9l5.7-31.2l13.5-0.6l6.3,2.3
					c8.3,3,17.2-9.1,5.6-15.4l-24-12.9c-11.4-6.1-17,3-19.9,11.9L415.7,591.9z"/>
				<path fill-rule="evenodd" clip-rule="evenodd" fill="#3D2314" d="M444.1,559.3c8.3-0.5,11.8-10.9,5.4-16.3L444.1,559.3z"/>
				<path fill-rule="evenodd" clip-rule="evenodd" fill="#8F5624" d="M444.5,579l13.5-0.6l6.3,2.3c8.3,3,17.2-9.1,5.6-15.4l-24-12.9
					c-1.8-1-3.6-1.5-5.4-1.6c-1,2.5-1.8,5.4-2.2,8.5C438.4,559.3,431,579.6,444.5,579z"/>
				<path fill-rule="evenodd" clip-rule="evenodd" fill="#2C1B11" d="M442.6,550.7l13,2.3c-7.8,3.8-20.7,3.1-23.5,11.3l-12.2,35.3
					l-4.2-7.7l10.4-27.8C429.2,555.7,432.5,548.9,442.6,550.7z"/>
				<path fill-rule="evenodd" clip-rule="evenodd" fill="#8F5624" d="M439.4,558.5c8.3-0.5,11.8-10.9,5.4-16.3L439.4,558.5z"/>
				<path fill-rule="evenodd" clip-rule="evenodd" fill="#70441B" d="M463.5,580.4l0.8,0.3c8.3,3,17.2-9.1,5.6-15.4l-1.7-0.9
					L463.5,580.4z"/>
				<ellipse fill-rule="evenodd" clip-rule="evenodd" fill="#2C1B11" cx="472.3" cy="573.8" rx="1" ry="1.8"/>
				<circle fill-rule="evenodd" clip-rule="evenodd" fill="#2C1B11" cx="449.8" cy="564.4" r="2.4"/>
				<polygon fill-rule="evenodd" clip-rule="evenodd" fill="#8F5624" points="430.3,674.4 423,674.4 420,615.7 427.3,615.7 				"/>
				<polygon fill-rule="evenodd" clip-rule="evenodd" fill="#2C1B11" points="377.5,674.4 366.5,674.4 366,669.6 373.3,669.6 				
					"/>
				<polygon fill-rule="evenodd" clip-rule="evenodd" fill="#452B18" points="360.2,674.4 349.2,674.4 349.2,669.6 356.5,669.6 				
					"/>
				<polygon fill-rule="evenodd" clip-rule="evenodd" fill="#2C1B11" points="416.6,674.4 405.5,674.4 406.1,669.6 413.4,669.6 				
					"/>
				<polygon fill-rule="evenodd" clip-rule="evenodd" fill="#452B18" points="434,674.4 423,674.4 422.8,669.6 430.1,669.6 				"/>
				<path fill-rule="evenodd" clip-rule="evenodd" fill="none" stroke="#A6976B" stroke-width="2.2745" stroke-miterlimit="10" d="
					M424.1,607.3c-16.4,14.7-74.9,19.7-97.2,17.9"/>
				
					<line fill-rule="evenodd" clip-rule="evenodd" fill="none" stroke="#A6976B" stroke-width="2.2745" stroke-miterlimit="10" x1="415.7" y1="591.9" x2="432.5" y2="622.6"/>
				<path fill-rule="evenodd" clip-rule="evenodd" fill="#C4B690" d="M424,611.6c-2.3,0-4.1-1.9-4.1-4.1c0-2.3,1.9-4.1,4.1-4.1
					c2.3,0,4.1,1.9,4.1,4.1C428.1,609.7,426.3,611.6,424,611.6z"/>
			</g>
		</g>
	</g>
</g>
</svg>
