<?xml version="1.0" encoding="UTF-8"?>
<svg enable-background="new 70.4 164.1 355.4 545" version="1.1" viewBox="70.4 164.1 355.4 545" xml:space="preserve" xmlns="http://www.w3.org/2000/svg">
<metadata>
<x:xmpmeta x:xmptk="Adobe XMP Core 5.6-c014 79.156821, 2014/08/29-03:07:50        " xmlns:x="adobe:ns:meta/">
   <rdf:RDF xmlns:rdf="http://www.w3.org/1999/02/22-rdf-syntax-ns#">
      <rdf:Description rdf:about="" xmlns:dc="http://purl.org/dc/elements/1.1/" xmlns:illustrator="http://ns.adobe.com/illustrator/1.0/" xmlns:pdf="http://ns.adobe.com/pdf/1.3/" xmlns:stDim="http://ns.adobe.com/xap/1.0/sType/Dimensions#" xmlns:stEvt="http://ns.adobe.com/xap/1.0/sType/ResourceEvent#" xmlns:stRef="http://ns.adobe.com/xap/1.0/sType/ResourceRef#" xmlns:xmp="http://ns.adobe.com/xap/1.0/" xmlns:xmpG="http://ns.adobe.com/xap/1.0/g/" xmlns:xmpGImg="http://ns.adobe.com/xap/1.0/g/img/" xmlns:xmpMM="http://ns.adobe.com/xap/1.0/mm/" xmlns:xmpTPg="http://ns.adobe.com/xap/1.0/t/pg/">
         <dc:format>image/svg+xml</dc:format>
         <dc:title>
            <rdf:Alt>
               <rdf:li xml:lang="x-default">Print</rdf:li>
            </rdf:Alt>
         </dc:title>
         <xmp:MetadataDate>2018-11-21T22:41:12+02:00</xmp:MetadataDate>
         <xmp:ModifyDate>2018-11-21T22:41:12+02:00</xmp:ModifyDate>
         <xmp:CreateDate>2018-11-21T22:41:12+02:00</xmp:CreateDate>
         <xmp:CreatorTool>Adobe Illustrator CC 2014 (Windows)</xmp:CreatorTool>
         <xmp:Thumbnails>
            <rdf:Alt>
               <rdf:li rdf:parseType="Resource">
                  <xmpGImg:width>256</xmpGImg:width>
                  <xmpGImg:height>152</xmpGImg:height>
                  <xmpGImg:format>JPEG</xmpGImg:format>
                  <xmpGImg:image>/9j/4AAQSkZJRgABAgEASABIAAD/7QAsUGhvdG9zaG9wIDMuMAA4QklNA+0AAAAAABAASAAAAAEA
AQBIAAAAAQAB/+4ADkFkb2JlAGTAAAAAAf/bAIQABgQEBAUEBgUFBgkGBQYJCwgGBggLDAoKCwoK
DBAMDAwMDAwQDA4PEA8ODBMTFBQTExwbGxscHx8fHx8fHx8fHwEHBwcNDA0YEBAYGhURFRofHx8f
Hx8fHx8fHx8fHx8fHx8fHx8fHx8fHx8fHx8fHx8fHx8fHx8fHx8fHx8fHx8f/8AAEQgAmAEAAwER
AAIRAQMRAf/EAaIAAAAHAQEBAQEAAAAAAAAAAAQFAwIGAQAHCAkKCwEAAgIDAQEBAQEAAAAAAAAA
AQACAwQFBgcICQoLEAACAQMDAgQCBgcDBAIGAnMBAgMRBAAFIRIxQVEGE2EicYEUMpGhBxWxQiPB
UtHhMxZi8CRygvElQzRTkqKyY3PCNUQnk6OzNhdUZHTD0uIIJoMJChgZhJRFRqS0VtNVKBry4/PE
1OT0ZXWFlaW1xdXl9WZ2hpamtsbW5vY3R1dnd4eXp7fH1+f3OEhYaHiImKi4yNjo+Ck5SVlpeYmZ
qbnJ2en5KjpKWmp6ipqqusra6voRAAICAQIDBQUEBQYECAMDbQEAAhEDBCESMUEFURNhIgZxgZEy
obHwFMHR4SNCFVJicvEzJDRDghaSUyWiY7LCB3PSNeJEgxdUkwgJChgZJjZFGidkdFU38qOzwygp
0+PzhJSktMTU5PRldYWVpbXF1eX1RlZmdoaWprbG1ub2R1dnd4eXp7fH1+f3OEhYaHiImKi4yNjo
+DlJWWl5iZmpucnZ6fkqOkpaanqKmqq6ytrq+v/aAAwDAQACEQMRAD8A9U4q7FXYq7FXYq7FXYq7
FXYq7FXYq7FXYq7FXYq7FXYq7FXYq7FXYq7FXYq7FXYq7FXYq7FXYq7FXYq7FXYq7FXYq7FXYq7F
XYq7FXYq7FXYq7FXYq7FXYq7FXYq7FXYq7FXYq7FXYq7FXYq7FXYq7FXYq7FXYq7FXYq7FXYq7FX
Yq7FXYq7FXYq7FXYq7FWua8+FfiIrT2xVYXb6yE/YKE09wRiq9mVVLMaAbk4q2CCARuDuDirsVdi
rsVdirsVdirsVdirsVdirsVdirsVdirsVdirsVdirsVdirsVdirsVdirsVdirsVdiqjT/TQfCP8A
42xVUKD1A/cAj7yD/DFVtwKwSD/JP6sVXQ/3Kf6o/Viq7FXYq7FXYq7FXYq7FXYq7FXYq7FXYq7F
XYq7FXYq7FXYq7FXYq7FXYq7FXYq7FXYq7FXYq6grWm/SuKuxVxAIodweoxVwAAoOmKuxV2KuxV2
KuxV2KuxV2KuxV2KuxV2KuxV2KuxV2KuxV2KuxV2KuxV2KuxV2KuxV2KuxVI9V86+WtKu3s767MV
zGAzRCOVtmFRuqlenvmLl1uLGeGR39xc/T9mZ80eKEbj7x+tK7j82vIluYxPqBiMziOLnHIOTt0U
VG5OQh2hildWa35FsydkZ4VxcI4jQ9Q3Pcq/8rP8nf8ALW//ACJk/wCach/KeDv+wtn8har+aPmF
K5/NryJaqjXGoGFXdY0LxutXY0Cio6nJw7QxS+mz8C15eyc+MAz4Y2a3kOaun5m+TWNDeso8TDLT
8FORHaeDv+wsz2Hqv5v2j9bINN1Ky1KyjvbKT1bWavpycWWvFip2YKeo8MzMeSM48UeRddmwyxTM
JipBE5NqdirsVdirsVdirsVdirsVdirsVdirsVdirsVdirsVdirsVdirsVdiqA13X9G0DSrjVtZv
I7HTrVeU9zMaKATQDxJJ2AG5OwxV85+av+c2dHtb17fy15el1CBGK/Xb2YWwam1VhRJW4nqOTA07
eCqI8qf85o6Jd3McPmbQZdNgkIH12zl+sqle7xMsT8R34lj7Yq+htE1vSNc0u31XSLuO9066Xnb3
MJ5IwBIP0gihB3BxV5Z+bRP+IIw1sIz6K8LkE/vU8COlVaozm+1v7zl05972ns8P3J3vfl3f2vP5
dJi1G7t0miS44upt4nUGk1aKwY/PMHFllEVHYy2+Hc7TUYITIlkAMYbjbkR1Sr849A826JNor6Td
yvb3ri2KQDg31xmqiE1+IONlHsc3vZmmxVLjAJ8+54vtrtXUSlE4yYR8j18/1Mq1/wAkSWmj6e2p
tFezAR+s5QcUulSpZAeo5BqZqsoOKRljJET93c9Fo88dXAQzAGcaPlY6oCMMqKJG5sB8TAUr9GYR
IvZ3cQQNzZfQXlBmbyzp5a2FpWIcLdSTxSp4Gp3qy0Y/POu0f91HatnzvtEfv578W/P704zJcJ2K
uxV2KuxV2KuxV2KuxV2KuxV2KuxV2KuxV2KuxV2KuxV2KuxV2Kvh7/nKP81rzzF58ufLls4bQfL0
ht0hqwWS8T4Z5WCsKlWrGtegBpTkcVeNKYGAY26Enc7yd/8AZYqsa7CkqII6DYfb/wCasVe6f84s
fmnN5d84w+Wb6XhoXmBhGkZZikV81BC68i3H1P7tqdarX7OKvoj80PLnmC6v4720We9sCorbxln9
GQChIjFdmABqB880XammySlxC5R7u74PVdha3DCBhKoz7+Vj3vOEea3uFcVjmhcEVFCrKfA+BGaX
cF6YgSjXMF6RpNjL5y061uY2S1fT7+KWaN6sG9Icvhp48tq5vtAPEiT8Hh+1dN4ExG7HNjHnTW3u
buXTFTjFZTujPWpd4yU5DwHXNVqsnqMe4vSdlaMQiMhO8oj4Xuk+m6Nq2pSBdPtJbhqgFo1JVT/l
N9lfpOU48M5n0gl2GbU48Q9cgHvfl+yvLHRrS1vZ2ubuNP38zsXYuxLEcmqSFrQe2ddp4SjACRsv
nmsyxyZZSgOGPQJhlzjOxV2KuxV2KuxV2KuxV2KuxV2KuxV2KuxV2KuxV2KuxV2KuxV2KuxV+Yvm
NZ5/MOqTXZP1qW7ne43/AN2NIxfrXv74qlZmZDxAFF2GKr/RVxyJNW3OKuivJ7aZJIGMcsLBopFJ
DKymqsCOhBxV9yWP5tX/AJj/ACp8v61Zy/V9Q1FWg1N4jRkntgFlC/y82o48FOavtTUSxwAjtbve
wtJDNkJmLERyTzSrPyt5v0SKMHhqNtGEll5Azhx1Zj/uxWbffx7HK8WLDqcYHKYHx/a258+o0WYn
njkf833eRH4tV8uNdeSPrVtf2txfW93Kn1SazRZFLUK0ZWZSrHbbBpxLS2JAyBO1MtXKGv4ZQlGE
og2JGv0bhQ0ryAk17Pq+umiyyvOLLkNgzFv3zjb5gff2xw9m3Izye+v1p1PbRjAYsPQAcX/EhKdf
89fV9ehfy/MY7axURSRo1IJeJ6ekPhpTav3dsxtVrqyA49gPkfg5uh7L4sJGbeUt/wCkPj+h7DG4
eNXAoGAanzFc6EGw8dIUaXYUOxV2KuxV2KuxV2KuxV2KuxV2KuxV2KuxV2KuxV2KuxV2KuxV2Kux
V8Cf85JeTZvKX5p6mViP6O1pm1Oxk6KROxMyd/sS8hTwp44q8u9EP8Vact6fPFWjNw+HjXjtWvhi
rfoh/irTlvT54q9G/LvXdQt/JXmawjmZYIJLWSBKn4ZLgtFKy06Fo41r8hmu1sQZwvz+52/Z0zHD
lI51H72bfknLrseu3MmlPIGijViidORbYt2pQEGvXMbUidx8P67+xyezpYwJjKf3Vde/p8efJ6R+
a35p+a7SHSraxifS7iGRbi/kFfjeNgY0A7wtSrVrXp236bsaIy8QyxqYHLp7x+NnR9oY4YyDilxQ
Pz+I/Fpn5r8/arrmira28f1EvADcIjci0xSpUHb4Fbp4985LXdoCc+CP93fzD1vZ/Y5wwM5b5a2/
o7fe+f8AyNeXMfmm2/eN/pBdJwSfjqrH4v8AZb5frIA4j5Ot7LykaiO/Pm+8bX/eaH/UX9WbiHIO
jyfUfeqZJg7FXYq7FXYq7FXYq7FXYq7FXYq7FXYq7FXYq7FXYq7FXYq7FXYq7FXlX/ORv5Wp588h
ym1j5a7ovK80xlFXcAfvrcePqouw/mVcVfBvqWqfAXkqux+Adv8AZ4q19Xtn+L1XHLenpj/mvFW/
UtE+EvJ8O32F7f7PFWaeTrf0/KWvXKF2iuJ7OMMV4gMnqORWprswzB1O+SI8j+h2Wl2wTPfKI+8v
ff8AnHayii8uahdFKT3NzQSU+1FGoCgH2ctl2nkNx1cXPEgA9Cyzzdpkeqa/oVhNaGe3uHliump8
JiYDmtexCgt7dRmXCZibHMOKRaU+ZPLFxoVwsYJls3FLecjw/Zb/ACh+Oclr9Mccyf4ZHb9T6D2V
r458YH8cRuP0vEI7Z9L/ADCS3ZWXjegKtKHjMfh2P+S4zYGXFgv+j+h5+EeDVgDlx/pfc2mTetpt
pNTj6kMb8TsRyUGmbfEbiD5Olzx4ZyHcSicm1OxV2KuxV2KuxV2KuxV2KuxV2KuxV2KuxV2KuxV2
KuxV2KuxV2KuxV2KvhX/AJyg/KtvKXn2TVtPi4aF5hL3VvQfDFc1rcQ+3xHmvTZqD7OKvHhKiAKa
1XY4qsaFnPIEUbcYq9S0aRrf8n4LNkH+maybxJO9Irdrcj5VXNdkyXmMe4Ozjp+HBHJ/OkfsfQv5
VyWH+EtI0u0kC3Fvbx3Pq9Q5nb1Z0PT7Jfid+vyzC/MEZTWxDmHScOETkLjL7O4/j3dXomj6jo1+
Z2sJVlktn9KdQasjdRUHsw3B75u8U+OAkOR/Rs6XNhOOZjLmK+0Wjbyytby3a3uo1lhalUYVFRuD
jkxxnHhkLC4c0scuKJovmv8AOq1h0v8ANrTb0lD6q2lzOtQf7qUoCw9441zAOMxBiXKjISIIfT3k
rVf0p5ct7ojixaRWStePGRqD/gaZfocnHiBXtLT+DmMfd9yeZluA7FXYq7FXYq7FXYq7FXYq7FXY
q7FXYq7FXYq7FXYq7FXYq7FXYq7FXYqwz83vy8tvPvkW/wBCfit9T6xpc7f7ru4gTGSd6K26N/kk
4q/O690m4tbye1uWWC5t5HinhcSB0dGKsrDjsQRiq1RAoCm4QEbHaTt/scVe5Wfkf695L0S1WcwT
W1uZQrKeJe5pK3IGhFCTnNy1gjmmeYJ+57MdlnLpsYBoxj/ut2aaGl1ptlbRKywzwJ6fKAkL04kr
UAjkD0zAy5LmZB22DBWIQkBt8kjn8x615O83prdg5aC7VRc27H93KsYCsje9KFT2Od37PShqNJ4R
+rGT9u4P3j4PE+0eGWLU+J0mPu2r7vm+jdD1m01nTYb+1qElUFompzjYgEo9CRUVzFjOMr4TdGvk
4OXBPGQJiiRfzed/mT+Tt55280Q37XVvp9hDbmIyorSXMklCVLAhUCK1NuXSvc7Qnj4iiGSg9C/L
fTrrSLW/0i4q628yywTdnjkTiCP+Re4zE0GKWLige+/m7PtXPDPwZI9Y0R3Ef2sxzYOodirsVdir
sVdirsVdirsVdirsVdirsVdirsVdirsVdirsVdirsVdirsVdir5B/wCcuPyw/RfmCDzrp0apYaw3
o6mBRVjvFHwuSSB++Qf8EpPfFWN/ld+XNpaW0Ou6pCs2o3FJbKJqMsKHdGA3BdvtA9tu9c57tHXG
UjCJ2HPzew7G7LjGIy5B6juPIfretwaDqMuqtpgULcJXmWrxAAryJAOx2ptmsGImXD1dxPW444vE
/hdZaDqN3fy2MahZoOXqlzRV4mnUA9T0xjikTS5dbjhATPI8kGfJ9xrzND6fx6e4mYPUHmh/u/m1
CMzez9VlwGXB1iQfx3hw+044MkYeJy4gR+O7vT/yfLrVnLcXtmvO1gA+twMSPUA3ITY/Go3H9uV6
LLPGeIcuo70dqww5AIT2kfpPd7/J6Zp2oWuoWcd3avzhkFQehB7gjsRnT4ssckRKPJ4rUYJ4pmEx
RCMgmeGQOvyI8RljSnUUiyRq69GFcVXYq7FXYq7FXYq7FXYq7FXYq7FXYq7FXYq7FXYq7FXYq7FX
Yq7FXYq7FXYqxr8ytH0fWPIus6fq9uLmxltyWiNR+8Qh4mBHQrIqnKdRk4McpdwcnR4hkzRieRIe
GDalNqdKZxr6TTLrjzTD+hhdQ0XWZ1FvK4+0Fj3L/Ty29/lmWc44bH1Ojh2cfG4T/dD1D49Px+lv
UPNUKafFc2IWPUrsobsgbr6O2/z6D2wzzirH1FGHs0nIYz3xxvh+P4+bepea7eCO2l0xVWa5YXF6
o9qKY226nj/HvjPOBXD15rp+zZSMhk5R9Mf1/j9Deoea7S0ubUaao+rs31m8C9WMvVT/AJQBqfen
hjPOARw/FGDs2U4y8T6vpj8OvuV/8ZWum6rb21iqnSVH+kBBsTKeRZf9Sv6xl+HXeFMAfR1aZdky
zYjKf970+Hf7/wBrLofMmgzSJFHfQtJI4jRA25ZjxAp883kdZiPKQeel2dqIizA97LreL0oUjO5A
3+Z3zJcJUxV2KuxV2KuxV2KuxV2KuxV2KuxV2KuxV2KuxV2KuxV2KuxV2KuxV2KuxVKPN9tJc+WN
TijFXNu7KBvXiOVPppmNrI8WKQHc5vZ0xHUQJ/nB8/ZyD6M7ArsVdirsVdiq6KR4pEkQ0dCGU+BB
qMING2MgCKL6Rs7lLq0guU+xPGsi/J1DD9edtCXEAe98xyQMJGJ6GlXJMHYq7FXYq7FXYq7FXYq7
FXYq7FXYq7FXYq7FXYq7FXYq7FXYq7FXYq7FXEAggioPUYq8Z/MvTLXSr2w06ziEdrHC8ynuXllb
lU96BVHyzme0sQxyjGI2r7y9v2JnlmjKcjcrr5AMNzWO8QGv3YtNFvbitGSFwm9DzYcUA+bEZdp4
8UwPNxdbk4MMj5H9itpsUsWnWsUrFpY4Y1kZt2LKoBJr3rkcpBkSOVtmniRjiJc6F/JAXE0kPmqz
DuRb3NrLHGtTxMqOr9OleFcuiAcJ7xL7HFnIx1MbPplAge8G/uTjMV2DsVe9+RpZJfKWltJ9oQhB
X+VCVX/hQM67QknDG+5887ViBqZ13p7mW692KuxV2KuxV2KuxV2KuxV2KuxV2KuxV2KuxV2KuxV2
KuxV2KuxV2KuxV2KvK/z18zeS9J023/Sl0w1pTWytLdVkmZG+1zUsgWPb7RPyr0zX9oaaOWP9Icn
bdk6+Wnmdrgef7Hil1+Yfl9LUyWjSXd0QBFZpHIHZm2C1K0+6vtXNLDs7IZUaAelydt4YxJFk9zz
+4/NHVJbq6XUrSAyQPysrQmVEt5Ig/IzKUDSsppsaUods20ey4xAAPv7z+p0E+3JzJMog/zR0Hmf
5yrb/nHOZdLiCCSOzirfEu4e5kWBl3PCirzPPucgeyY+rfny8t26PtBMcG20Rvv9Rqvhvuhbj80r
68sblJ44Tetcm5tJg0oW2jjiUKsY4hiaoxJ5dzt2yyHZkYyBB2qj5tGXtueSBBj6uKwf5vuZF5I/
MvVb+CZ9VtjPY2vH6zq1vHII4ubBUEo48aknYKa+xzG1XZQAuB+Dm6Ht+V8OUX5j9IZXF+YfkyO8
t1ubi4ktHYCeS2hLMi+NJTD+FflmFi7PmT6tg7HP23ijH0eqXyfUvlvUtC1HQ7O60K4judKaNVtZ
YjVeKjjQ13DClCDuD1zpsYAiAOQeJyzlKRlLmUyybB2KuxV2KuxV2KuxV2KuxV2KuxV2KuxV2Kux
V2KuxV2KuxV2KuxV2KuxVCauuptpN6ulPHHqbQSCxkmBMazlD6RcD9kPSuApD4g8x/l/+cD69e3n
mHQtTuLkvWS8WN7pJGJpy9aESJToFAO3TMecCB5t8JWfJDaN+Vf5maprCW1p5b1BUmjBW4ngkt4F
Ksa1mmCJ0NftYPDJj5rxjifWuqfk55Q806FYxectMt77Xo7SKG+1a3rDO8wiCSMJo+DsK1oG29sy
RyaC88l/5wu/LoXJmtdX1aBCCBEz28gHIEGh9FT0O1cKE68u/wDOJf5T6TKJryO91lxX4b2fjHuK
fYt1gqPZicVd+e/5a65qHkzS9K8k6bBHpWmTST3Oj2ipCWPDjG8SDircQXqPtGopXKssSRs2Y5AH
d8zW/kHz8E9Ofy1q0czOwMUljcKd22AHDfYjplWSFHZthOxu9j/5xt8o/nBovmh3vbG50vywQ5v4
74GITfARFwheknqBqfHxAoCCegNsY72GqUtqL6dy1rdirsVdirsVdirsVdirsVdirsVdirsVdir/
AP/Z</xmpGImg:image>
               </rdf:li>
            </rdf:Alt>
         </xmp:Thumbnails>
         <xmpMM:InstanceID>xmp.iid:23a6596a-3219-bd42-8593-0d48d1123bd9</xmpMM:InstanceID>
         <xmpMM:DocumentID>xmp.did:23a6596a-3219-bd42-8593-0d48d1123bd9</xmpMM:DocumentID>
         <xmpMM:OriginalDocumentID>uuid:5D20892493BFDB11914A8590D31508C8</xmpMM:OriginalDocumentID>
         <xmpMM:RenditionClass>proof:pdf</xmpMM:RenditionClass>
         <xmpMM:DerivedFrom rdf:parseType="Resource">
            <stRef:instanceID>uuid:d1c078a0-2746-42b2-b0d1-25aedff8fb1e</stRef:instanceID>
            <stRef:documentID>xmp.did:1b6690ed-28a8-c141-9479-b6a9cf6be651</stRef:documentID>
            <stRef:originalDocumentID>uuid:5D20892493BFDB11914A8590D31508C8</stRef:originalDocumentID>
            <stRef:renditionClass>proof:pdf</stRef:renditionClass>
         </xmpMM:DerivedFrom>
         <xmpMM:History>
            <rdf:Seq>
               <rdf:li rdf:parseType="Resource">
                  <stEvt:action>saved</stEvt:action>
                  <stEvt:instanceID>xmp.iid:23a6596a-3219-bd42-8593-0d48d1123bd9</stEvt:instanceID>
                  <stEvt:when>2018-11-21T22:41:12+02:00</stEvt:when>
                  <stEvt:softwareAgent>Adobe Illustrator CC 2014 (Windows)</stEvt:softwareAgent>
                  <stEvt:changed>/</stEvt:changed>
               </rdf:li>
            </rdf:Seq>
         </xmpMM:History>
         <illustrator:StartupProfile>Print</illustrator:StartupProfile>
         <xmpTPg:HasVisibleOverprint>False</xmpTPg:HasVisibleOverprint>
         <xmpTPg:HasVisibleTransparency>False</xmpTPg:HasVisibleTransparency>
         <xmpTPg:NPages>1</xmpTPg:NPages>
         <xmpTPg:MaxPageSize rdf:parseType="Resource">
            <stDim:w>355.421261</stDim:w>
            <stDim:h>545.019213</stDim:h>
            <stDim:unit>Pixels</stDim:unit>
         </xmpTPg:MaxPageSize>
         <xmpTPg:PlateNames>
            <rdf:Seq>
               <rdf:li>Cyan</rdf:li>
               <rdf:li>Magenta</rdf:li>
               <rdf:li>Yellow</rdf:li>
               <rdf:li>Black</rdf:li>
            </rdf:Seq>
         </xmpTPg:PlateNames>
         <xmpTPg:SwatchGroups>
            <rdf:Seq>
               <rdf:li rdf:parseType="Resource">
                  <xmpG:groupName>Default Swatch Group</xmpG:groupName>
                  <xmpG:groupType>0</xmpG:groupType>
               </rdf:li>
            </rdf:Seq>
         </xmpTPg:SwatchGroups>
         <pdf:Producer>Adobe PDF library 10.01</pdf:Producer>
      </rdf:Description>
   </rdf:RDF>
</x:xmpmeta>
	</metadata>
	<rect x="-163.5" y="110.8" width="1061.1" height="465.7" display="none" fill="#A8AAAD"/>
			<path d="m361.1 669.9l0.1-0.3h-0.5c0.2 0 0.3 0.2 0.4 0.3z" fill="none"/>
			<rect x="106.1" y="361.1" width="33.2" height="35.9"/>
			<rect x="139.3" y="325.2" width="33.2" height="35.9"/>
			<polygon points="139.3 432.9 106.1 432.9 106.1 452.5 115.2 468.8 139.3 468.8"/>
			<polygon points="135.1 504.6 139.3 512.1 139.3 504.6"/>
			<path d="m172.5 540.5h-17.4l10.8 19.3c1.7-5.6 3.9-10.8 6.6-15.8v-3.5z"/>
			<rect x="139.3" y="468.8" width="33.2" height="35.9"/>
			<rect x="139.3" y="397" width="33.2" height="35.9"/>
			<polygon points="205.6 504.6 206.6 504.6 213.7 468.8 205.6 468.8"/>
			<rect x="172.5" y="432.9" width="33.2" height="35.9"/>
			<path d="m172.5 504.6v35.9h2c7.5-12.2 18.1-22 30.6-28.1l0.6-2.9v-4.9h-33.2z"/>
			<path d="m139.3 325.2v-27.6c-11-0.9-22.3 1.2-32.9 6.8-0.1 0.1-0.2 0.1-0.3 0.2v20.7l33.2-0.1z"/>
			<path d="M106.1,397H76.7c0.1,0.1,0.1,0.2,0.1,0.3l5.7,12.8l12.7,22.8h10.9V397z"/>
			<path d="m70.6 361.1c-0.7 8.4 0.1 17 2.4 25.4v-25.4h-2.4z"/>
			<path d="m106.1 361.1v-35.9h-23c-4.6 6.7-8.1 14.2-10.2 22.2v13.7h33.2z"/>
			<polygon points="172.5 397 205.6 397 205.6 366 203.4 361.1 172.5 361.1"/>
			<polygon points="218.3 432.9 219 427.6 219.2 427.6 219.2 397 205.6 397 205.6 432.9"/>
			<path d="M186,325.2c-3.9-5.6-8.5-10.4-13.5-14.4v14.4H186z"/>
			<path d="m172.5 361.1h31l-11.2-24.7c-1.8-4-3.9-7.7-6.3-11.2h-13.5v35.9z" fill="#0A0A0A"/>
			<polygon points="219.2 397 219.2 396 205.6 366 205.6 397" fill="#0A0A0A"/>
			<rect x="172.5" y="397" width="33.2" height="35.9" fill="#0A0A0A"/>
			<polygon points="216.4 445.8 218.1 445.8 218.3 445.2 216.9 442.7 218.3 432.9 205.6 432.9 205.6 468.8 213.7 468.8 215.6 458.8 214.8 457.3" fill="#0A0A0A"/>
			<polygon points="139.3 468.8 115.2 468.8 135.1 504.6 139.3 504.6" fill="#0A0A0A"/>
			<rect x="172.5" y="468.8" width="33.2" height="35.9" fill="#0A0A0A"/>
			<polygon points="205.6 509.4 206.6 504.6 205.6 504.6" fill="#0A0A0A"/>
			<polygon points="172.5 504.6 139.3 504.6 139.3 512.1 155.1 540.5 172.5 540.5" fill="#0A0A0A"/>
			<path d="m106.1 304.6c-9.3 5-17.1 12.2-23 20.7h23v-20.7z" fill="#0A0A0A"/>
			<path d="m72.9 347.5c-1.2 4.5-2 9.1-2.4 13.7h2.4v-13.7z" fill="#0A0A0A"/>
			<path d="M106.1,361.1H72.9v25.4c0.9,3.5,2.2,7,3.7,10.4h29.5V361.1z" fill="#0A0A0A"/>
			<polygon points="95.3 432.9 106.1 452.5 106.1 432.9" fill="#0A0A0A"/>
			<path d="m172.5 325.2v-14.4c-9.7-7.6-21.2-12.2-33.2-13.2v27.6h33.2z" fill="#0A0A0A"/>
			<rect x="106.1" y="325.2" width="33.2" height="35.9" fill="#0A0A0A"/>
			<rect x="139.3" y="361.1" width="33.2" height="35.9" fill="#0A0A0A"/>
			<rect x="106.1" y="397" width="33.2" height="35.9" fill="#0A0A0A"/>
			<rect x="139.3" y="432.9" width="33.2" height="35.9" fill="#0A0A0A"/>
			<path d="m172.5 544c0.7-1.2 1.3-2.4 2-3.5h-2v3.5z" fill="#0A0A0A"/>
			<path d="m241.9 245l-6.8-7.4c4.9-5.4 12.9-5.4 17.9 0 1.6 1.7 2.7 3.8 3.2 5.9h12.8l-16-17.4c-0.7-0.8-1.5-1.4-2.3-2-6.3-4.7-15-4-20.6 2-6.3 6.8-6.3 18 0 24.8l4.3 4.7h7.2l0.3-10.6z" fill="#3E2A16"/>
			<path d="m316.8 243.7h12.8c0.6-2.2 1.7-4.2 3.2-5.9 4.9-5.4 12.9-5.4 17.9 0l-6.8 7.4 0.3 10.7h7.2l4.3-4.7c6.3-6.8 6.3-18 0-24.8-5.6-6-14.3-6.7-20.6-2-0.8 0.6-1.5 1.3-2.3 2l-16 17.3z" fill="#3E2A16"/>
			<path d="m307.5 401.4l-1.8-2.5-5.6 9 0.4 3.4 2.2 16.4 0.8 5.8 1.9 14.8 1.4-2.4h3.9l13.3 23.1 10.1-17.4 3.3-5.7h3.8l1.7 2.9-4.8-21.1-3.6-16.4-2.3-10.4 0.1-0.1c-0.6-1.7-0.9-3.4-0.9-5.3 0-8.1 6.1-14.7 13.6-14.7 6.8 0 12.4 5.4 13.4 12.5l0.2-0.1 2.7 34.4 2 26.4 4.8-8.2h2.5l-0.6-3.2 0.2-0.4-2.3-14.6h-0.1v-54.5c0-11.7-8.8-21.2-19.6-21.2h-1-0.3-0.3c-1.1-0.1-2-0.5-2.7-1.2l4.9 11.4-41.3 39.3z" fill="#F26A35"/>
			<path d="m219.2 427.6h-0.2l-0.8 5.3-1.9 13h2.2l4.1 7.1 1.9-25.3 2.7-34.4 0.2 0.1c1-7.1 6.6-12.5 13.4-12.5 7.5 0 13.6 6.6 13.6 14.7 0 1.9-0.3 3.7-0.9 5.3l0.1 0.1-2.3 10.4-3.6 16.4-2.5 11.2-2.7 12.2 2.9-5.1h3.9l13.4 23.2 10.1-17.4 3.3-5.7h3.9l1.1 1.8 2.7-20 2.2-16.4 0.5-3.7-5.4-8.7-1.8 2.5-42-38 6-13.8 50.1 32.3h0.3l49.5-33.6 0.4 0.9c2.4-1.3 4.8-2.9 6.9-4.6 0.2-0.2 0.4-0.3 0.6-0.5 0.4 0.1 0.9 0.1 1.3 0.1 12.5 0 22.8-11 22.8-24.6h-9.7c0.2-0.9 0.4-1.8 0.5-2.8 5.6-4.5 9.2-11.7 9.2-19.8h-9.3c-0.1-0.8-0.3-1.5-0.4-2.3 5.9-4.4 9.7-11.8 9.7-20.2h-20.2c-0.3-0.3-0.6-0.7-0.9-1 4.2-4.5 6.9-10.7 6.9-17.6h-16.8l-0.3-10.7 6.8-7.4c-4.9-5.4-12.9-5.4-17.9 0-1.6 1.7-2.7 3.8-3.2 5.9h-12.8l16-17.4c0.7-0.8 1.5-1.4 2.3-2-1.9-3.2-4.1-6.2-6.6-8.8 3.3-4.3 5.3-9.8 5.3-15.8h-37.2c-1.2-0.1-2.4-0.2-3.5-0.2-1.2 0-2.4 0.1-3.5 0.2h-1.2v0.1c-15.7 1.6-29.3 11-37.5 24.5 0.8 0.6 1.5 1.3 2.3 2l16 17.4h-12.8c-0.6-2.2-1.7-4.2-3.2-5.9-4.9-5.4-12.9-5.4-17.9 0l6.8 7.4-0.3 10.7h-16.8c0 6.9 2.6 13.1 6.9 17.6-0.3 0.3-0.6 0.7-0.9 1h-19.8c0 8.3 3.9 15.8 9.7 20.2-0.2 0.8-0.3 1.5-0.4 2.3h-9.3c0 8.1 3.6 15.3 9.2 19.8 0.2 0.9 0.3 1.8 0.5 2.8h-9.7c0 13.6 10.2 24.6 22.8 24.6 0.4 0 0.9 0 1.3-0.1 0.2 0.2 0.4 0.3 0.6 0.5 2.2 1.9 4.6 3.5 7.2 4.9-0.7 1.5-2 2.5-3.7 2.6h-0.3-0.3c-10.8 0.1-19.5 9.5-19.5 21.2v54.4h-0.1zm115.9-134.4c2.3 0 4.3 0.6 4.3 1.3s-1.9 1.3-4.3 1.3-4.3-0.6-4.3-1.3c0.1-0.7 2-1.3 4.3-1.3zm-8.4-17.1c3.3 0 6 2.9 6 6.5s-2.7 6.5-6 6.5-6-2.9-6-6.5c0.1-3.6 2.7-6.5 6-6.5zm-46.1 20.6l-0.2-0.3h0.3c1.7-5.6 6.5-9.6 12.2-9.6 5.8 0 10.7 4.2 12.3 9.9 8.7 0.7 15.7 8.7 15.7 18.3 0 9.9-7.4 18.1-16.5 18.3l-2.8 34.8h-8.3v-34.7h-0.8v34.6h-8.3l-2.8-34.8c-9.1-0.3-16.5-8.4-16.5-18.3 0-9.6 7-17.5 15.7-18.2zm-21.5-20.6c3.3 0 6 2.9 6 6.5s-2.7 6.5-6 6.5-6-2.9-6-6.5 2.7-6.5 6-6.5zm-8.4 17.1c2.3 0 4.3 0.6 4.3 1.3s-1.9 1.3-4.3 1.3c-2.3 0-4.3-0.6-4.3-1.3 0.1-0.7 2-1.3 4.3-1.3z" fill="#F26A35"/>
			<ellipse cx="250.7" cy="294.5" rx="4.3" ry="1.3" fill="#032F33"/>
			<ellipse cx="335.1" cy="294.5" rx="4.3" ry="1.3" fill="#032F33"/>
			<ellipse cx="259.1" cy="282.6" rx="6" ry="6.5" fill="#032F33"/>
			<ellipse cx="326.7" cy="282.6" rx="6" ry="6.5" fill="#032F33"/>
			<path d="m281.5 333.3l2.8 34.8h8.3v-34.7h-10.6c-0.2 0-0.4 0-0.5-0.1z" fill="#fff"/>
			<path d="m293.3 333.4v34.7h8.3l2.8-34.8h-0.4l-10.7 0.1z" fill="#fff"/>
			<path d="m281.5 333.3h0.4 22.1 0.4c9.1-0.3 16.5-8.4 16.5-18.3 0-9.6-7-17.6-15.7-18.3h-0.3l-10.5 19.7v17h-3.2v-16.8l-10.6-19.8c-8.7 0.7-15.7 8.7-15.7 18.3 0 9.8 7.4 18 16.6 18.2z" fill="#F0D3A5"/>
			<path d="m291.2 333.4h3.2v-17l10.5-19.7h0.3c-1.5-5.7-6.5-9.9-12.3-9.9-5.7 0-10.6 4-12.2 9.6h-0.3l0.2 0.3 10.6 19.8v16.9z" fill="#032F33"/>
			<path d="m422.6 689.3l-27.1-21.4h-9.4c-3.8 1.5-7.9 2.3-12.2 2.2l-12.8-0.4-0.1 0.3c0.1 0.1 0.2 0.1 0.2 0.1s-0.1 0.1-0.3 0.2l-9.6 23h0.1c-0.2 0.6-0.3 1.2-0.3 1.8 0 4.5 5.7 8.6 14.5 11.2l4-11.4 5-14.1 2.3 14.7 2.1 13.3c3 0.3 6.2 0.5 9.5 0.5 20.6 0 37.3-6.3 37.3-14.1 0-2.3-1.1-4.2-3.2-5.9zm-15.3 17.6l-3.3-9.5-5.4-15.7 13.5 12.5 8.2 7.6c-6.4 3.9-13 5.1-13 5.1z" fill="#3E2A16"/>
			<path d="m398.6 681.8l5.4 15.7 3.3 9.5s6.6-1.3 13.1-5l-8.2-7.6-13.6-12.6z" fill="#0A0A0A"/>
			<path d="m374.6 680.6l-5 14.1-4 11.4-0.2 0.4c6.9 2.4 13.5 2.3 13.5 2.3v-0.2l-2.1-13.3-2.2-14.7z" fill="#0A0A0A"/>
			<path d="m229.6 673c-0.2-0.2-0.4-0.3-0.7-0.4-0.1-0.1-0.2-0.1-0.3-0.2-2.2-1.5-3.4-2.4-3.4-2.4s0.2-0.1 0.4-0.3l-10.9 0.4c-4.3 0.2-8.5-0.6-12.2-2.2h-8.3l-27.1 21.4 0.1 0.1c-2 1.8-3.2 3.6-3.2 5.7 0 7.8 16.7 14.1 37.3 14.1 3.3 0 6.4-0.2 9.5-0.5l2.1-13.3 2.3-14.7 5 14.1 4 11.4c8.8-2.6 14.5-6.6 14.5-11.2 0-0.6-0.1-1.2-0.3-1.8h0.1l-8.2-19.8-0.1-0.1c-0.3-0.1-0.5-0.2-0.6-0.3zm-47.1 33.9s-6.6-1.3-13.1-5l8.2-7.6 13.5-12.5-5.4 15.7-3.2 9.4z" fill="#3E2A16"/>
			<path d="m177.6 694.3l-8.2 7.6c6.5 3.8 13.1 5 13.1 5l3.3-9.5 5.4-15.7-13.6 12.6z" fill="#0A0A0A"/>
			<path d="m215.1 680.6l-2.3 14.7-2.1 13.3v0.2s6.7 0.1 13.5-2.3l-0.2-0.4-4-11.4-4.9-14.1z" fill="#0A0A0A"/>
			<path d="m225.6 669.6c0.3-0.2 0.7-0.4 1.1-0.8 0.1-0.1 0.2-0.1 0.2-0.2 0.2-0.1 0.3-0.2 0.6-0.4 0.1-0.1 0.2-0.2 0.3-0.2 0.2-0.1 0.4-0.3 0.7-0.4 0.1-0.1 0.1-0.1 0.2-0.1 1.2-0.8 2.7-1.7 4.4-2.8 4.2-2.5 10-5.7 16.9-8.6-0.3-0.1-0.7-0.2-1-0.3 9.1-2.7 16-17.2 16-34.8 0-1.4-0.1-2.9-0.2-4.3h6.2c0.1 1.4 0.2 2.8 0.2 4.3 0 2.7-0.2 5.3-0.5 7.7-1.9 15.8-9.5 27.5-18.6 27.5-0.4 0-0.8-0.1-1.2-0.1v9.3c4 0 7.7-1.1 11-3.1 4.1-2.5 7.5-6.4 9.6-11v14.1c9.1 0 16.9-5.7 20.6-14.1v14.1c1.1 0 2-0.1 3.1-0.3 7.7-1.2 14.3-6.5 17.5-13.8v14.1c6.1 0 11.6-2.6 15.7-6.8 0.8-0.9 1.6-1.8 2.3-2.8-9.1-2.7-16.1-17.2-16.1-34.8 0-1.4 0.1-2.9 0.2-4.3h6.2c-0.1 1.4-0.2 2.8-0.2 4.3 0 17.5 7 32 16 34.8-0.1 0.1-0.3 0.1-0.4 0.1 1.1 0.4 2 0.9 3 1.3 0.1 0.1 0.2 0.1 0.3 0.1 0.7 0.3 1.4 0.7 2.1 1l0.6 0.3c0.6 0.3 1.2 0.6 1.8 0.8 0.2 0.1 0.4 0.2 0.7 0.3 0.5 0.3 1 0.5 1.5 0.8 0.2 0.1 0.5 0.3 0.7 0.4 0.4 0.2 0.9 0.5 1.3 0.7 0.3 0.1 0.5 0.3 0.7 0.4 0.4 0.2 0.8 0.4 1.2 0.7 0.2 0.1 0.5 0.3 0.7 0.4 0.4 0.2 0.7 0.4 1.1 0.6 0.2 0.1 0.4 0.3 0.7 0.4 0.3 0.2 0.7 0.4 0.9 0.6 0.2 0.1 0.4 0.3 0.7 0.4 0.3 0.2 0.6 0.3 0.8 0.5 0.2 0.1 0.4 0.3 0.6 0.4 0.1 0.1 0.2 0.1 0.3 0.2 0.2 0.1 0.3 0.2 0.4 0.3 0.2 0.1 0.3 0.2 0.5 0.3 0.2 0.2 0.4 0.3 0.7 0.4 0.2 0.1 0.3 0.2 0.4 0.3 0.2 0.2 0.4 0.3 0.6 0.4 0.1 0.1 0.3 0.2 0.4 0.3 0.2 0.1 0.4 0.2 0.6 0.4 0.1 0.1 0.1 0.1 0.2 0.1 0.4 0.3 0.8 0.6 1 0.7h0.5l12.8 0.4c4.3 0.2 8.5-0.6 12.2-2.2 14.4-5.7 23.7-22.3 20.3-39.8l-17-86.3-20 34.5-15.3-26.5-7.5 12.9-7.8 13.7-15.3-26.5-15.3 26.5-0.5-0.1-15.2-26.3-15.3 26.5-15.3-26.5-15.3 26.5-5.2-9-10.2-17.6-15.3 26.5-15.7-27.1 2.5-13.9 13.3 23 10.1-17.4 3.3-5.7h3.9l13.4 23.2 10.1-17.4 3.3-5.7h3.9l13.4 23.2 10.1-17.4 3.3-5.7h3.9l13.4 23.2 10.1-17.4 3.3-5.7h3.9l13.4 23.2 10.1-17.4 3.3-5.7h3.9l13.4 23.2 13.4-23.2h5.2l-16.6-84.6 1 6.3-7.8 13.6 0.7 9.1c0.4 0.8 0.8 1.6 1.2 2.5 2.4 6.2 1.1 13-2.9 16.4-0.2-1.4-0.5-2.7-1.1-4.1-0.3-0.8-0.7-1.5-1.1-2.2-0.8 2-2 4-3.6 5.7-0.9 0.9-1.8 1.7-2.8 2.3-4.1 2.7-8.9 2.9-12.4 0.7 1.1-0.7 2.2-1.5 3.2-2.5s1.8-2.1 2.5-3.3c1.9-3.2 2.5-6.9 1.9-10.1-1 0.1-2 0.3-2.9 0.7-0.8 0.3-1.5 0.8-2.2 1.4-0.4-3.1 0.1-6.1 1.2-8.6-0.2-0.1-0.3-0.2-0.4-0.3 0.3-0.2 0.6-0.3 0.9-0.5 0.3-0.7 0.8-1.2 1.2-1.8l-8.6-14.9-1.5 2.7-13.8 23.8-5.5-9.9-9.6-16.6-1.3 2.3 2.9 21.6c0.2 0.9 0.3 1.8 0.3 2.8 0 1.2-0.1 2.4-0.3 3.5l-11.3 25.8-5.3 12c-0.1 0.1-0.3 0.2-0.5 0.2s-0.4-0.1-0.5-0.2l-5.3-12-11-24.8c-0.3-1.4-0.5-2.9-0.5-4.3 0-1.3 0.1-2.7 0.4-4l2.8-21-1.1-1.8-9.8 17-5.5 9.5-12.1-20.9-3.3-5.6-8.9 15.4c0.3 0.4 0.6 0.8 0.8 1.2 0.3 0.2 0.6 0.3 0.9 0.5-0.2 0.1-0.3 0.2-0.4 0.3 1.2 2.5 1.6 5.5 1.2 8.6-0.7-0.6-1.4-1.1-2.2-1.4-0.9-0.4-1.9-0.7-2.9-0.7-0.6 3.3 0.1 6.9 1.9 10.1 0.7 1.2 1.5 2.3 2.5 3.3s2 1.9 3.2 2.5c-3.5 2.3-8.3 2-12.4-0.7-0.9-0.6-1.9-1.4-2.8-2.3-1.7-1.7-2.9-3.7-3.6-5.7-0.4 0.7-0.7 1.4-1.1 2.2-0.5 1.3-0.8 2.7-1.1 4.1-4-3.4-5.3-10.1-2.9-16.4 0.3-0.9 0.7-1.7 1.2-2.5l0.8-10.3-6.7-11.6-8.2 47.3-0.9 4.9-0.6 2.9c-12.4 6.1-23 15.9-30.5 28.1-0.7 1.2-1.4 2.3-2 3.5-2.7 5-4.9 10.2-6.6 15.8-2.3 7.7-3.6 15.9-3.6 24.4 0 15.5 4.1 29.9 11.2 42.1 1.1-7 5.9-12.5 12-14.5l-3.2 16.2c-3.4 17.5 5.9 34.1 20.3 39.8 3.8 1.5 7.9 2.3 12.2 2.2l10-1z" fill="#F26A35"/>
			<polygon points="369.4 558 356.1 534.9 352.2 534.9 348.9 540.6 338.8 558 325.4 534.9 321.5 534.9 318.2 540.6 308.2 558 294.7 534.9 292.3 534.9 290.9 534.9 287.5 540.6 277.5 558 264.1 534.9 260.2 534.9 256.9 540.6 246.8 558 233.4 534.9 229.6 534.9 226.3 540.6 216.1 558 202.9 535 200.4 548.9 216.1 576.2 231.5 549.7 241.7 567.2 246.8 576.2 262.2 549.7 277.5 576.2 292.8 549.7 308 576 308.2 576.2 323.5 549.7 338.8 576.2 346.6 562.7 354.1 549.7 369.4 576.2 389.4 541.7 388.1 534.9 382.9 534.9" fill="#F0D3A5"/>
			<path d="m361.1 669.9c-0.1-0.1-0.2-0.2-0.4-0.3-0.3-0.2-0.6-0.4-1-0.7h-31.6v18.1c18.3-6.4 30.9-15.4 32.9-16.8 0.2-0.1 0.3-0.2 0.3-0.2s-0.1-0.1-0.2-0.1z"/>
			<path d="m230.1 673.3c0.2 0.1 0.4 0.3 0.7 0.4-0.2-0.1-0.5-0.3-0.7-0.4z"/>
			<path d="m312.4 665.6v-14.1c-3.2 7.4-9.7 12.7-17.5 13.8v3.5h33.2v-10.1c-4.1 4.3-9.6 6.9-15.7 6.9z"/>
			<path d="m339.1 657.3c-1-0.4-2-0.9-3-1.3 1.1 0.4 2.1 0.9 3 1.3z"/>
			<path d="m355.8 666.3c-0.1-0.1-0.2-0.1-0.3-0.2 0.3 0.2 0.5 0.3 0.8 0.5-0.1-0.1-0.3-0.2-0.5-0.3z"/>
			<path d="m261.8 668.8v19.3c9.4 3 20.1 5.1 31.4 5.1 0.6 0 1.2 0 1.7-0.1v-24.3h-33.1z"/>
			<path d="m250.8 665.6v-9.3c-0.3-0.1-0.6-0.1-0.9-0.1-6.9 2.9-12.7 6.1-16.9 8.6-1.7 1.1-3.2 2-4.4 2.8v1.3h33.2v-6.4c-3.3 1.9-7 3.1-11 3.1z"/>
			<path d="m225.6 669.6c-0.3 0.2-0.4 0.3-0.4 0.3s1.2 0.9 3.4 2.4v-3.5h-1.9c-0.4 0.3-0.8 0.6-1.1 0.8z"/>
			<path d="m359.5 668.7c-0.2-0.1-0.3-0.2-0.6-0.4-0.1-0.1-0.3-0.2-0.4-0.3-0.2-0.1-0.4-0.3-0.6-0.4s-0.3-0.2-0.4-0.3c-0.2-0.2-0.4-0.3-0.7-0.4-0.2-0.1-0.3-0.2-0.6-0.3-0.2-0.2-0.5-0.3-0.8-0.5-0.2-0.1-0.4-0.2-0.6-0.4-0.3-0.2-0.6-0.3-0.8-0.5-0.2-0.1-0.4-0.3-0.7-0.4l-0.9-0.6c-0.2-0.1-0.4-0.3-0.7-0.4-0.3-0.2-0.7-0.4-1.1-0.6-0.2-0.1-0.5-0.3-0.7-0.4-0.4-0.2-0.8-0.4-1.2-0.7-0.2-0.1-0.5-0.3-0.7-0.4-0.4-0.2-0.9-0.4-1.3-0.7-0.2-0.1-0.5-0.3-0.7-0.4-0.5-0.3-1-0.5-1.5-0.8-0.2-0.1-0.4-0.2-0.7-0.3-0.6-0.3-1.2-0.6-1.8-0.8l-0.6-0.3c-0.7-0.3-1.4-0.7-2.1-1-0.1-0.1-0.2-0.1-0.3-0.1-1-0.4-2-0.9-3-1.3-0.9 0.2-1.8 0.4-2.7 0.4-1.1 0-2-0.2-3-0.5-0.7 1-1.5 1.9-2.3 2.8v10.1h31.6s0-0.1-0.1-0.1z" fill="#0A0A0A"/>
			<path d="m294.9 668.8v24.3c0.2 0 0.4 0 0.7-0.1 1.1 0 2-0.1 3-0.1 0.3 0 0.7-0.1 1.1-0.1 1.3-0.1 2.7-0.2 4-0.4 0.2 0 0.4-0.1 0.6-0.1 1.1-0.1 2.2-0.3 3.3-0.4 0.4-0.1 0.8-0.1 1.2-0.2 0.9-0.2 1.9-0.3 2.8-0.5 0.3-0.1 0.7-0.1 1.1-0.2 2.5-0.5 5-1.1 7.5-1.8 0.3-0.1 0.6-0.2 0.9-0.2 0.9-0.3 1.9-0.6 2.8-0.8 0.3-0.1 0.6-0.2 0.9-0.3 1-0.3 2-0.7 3-1 0.1-0.1 0.2-0.1 0.3-0.1v-18.1h-33.2z" fill="#0A0A0A"/>
			<path d="m228.6 667.5c-0.1 0.1-0.1 0.1-0.2 0.1-0.2 0.2-0.4 0.3-0.7 0.4-0.1 0.1-0.2 0.2-0.3 0.2-0.2 0.1-0.4 0.3-0.6 0.4-0.1 0.1-0.2 0.1-0.2 0.2h1.9l0.1-1.3z" fill="#0A0A0A"/>
			<path d="m291.9 665.6v-14.1c-3.6 8.3-11.4 14.1-20.6 14.1v-14.1c-2 4.6-5.4 8.5-9.6 11v6.4h33.2v-3.5c-0.9 0-2 0.2-3 0.2z" fill="#0A0A0A"/>
			<path d="m228.6 668.8v3.5c0.1 0.1 0.2 0.1 0.3 0.2 0.2 0.2 0.4 0.3 0.7 0.4 0.2 0.1 0.3 0.2 0.5 0.3 0.2 0.2 0.4 0.3 0.7 0.4 0.2 0.1 0.4 0.3 0.6 0.4 0.3 0.2 0.5 0.3 0.8 0.5 0.2 0.1 0.4 0.3 0.7 0.4 0.3 0.2 0.6 0.3 0.9 0.6 0.2 0.1 0.4 0.3 0.7 0.4 0.3 0.2 0.7 0.4 1 0.6 0.2 0.1 0.5 0.3 0.7 0.4 0.3 0.2 0.7 0.4 1.1 0.6 0.3 0.2 0.5 0.3 0.8 0.4l1.2 0.6c0.3 0.2 0.6 0.3 0.8 0.4 0.4 0.2 0.8 0.4 1.3 0.7 0.3 0.1 0.6 0.3 0.8 0.4 0.4 0.2 0.9 0.4 1.3 0.7 0.3 0.1 0.6 0.3 0.8 0.4 0.5 0.2 0.9 0.4 1.4 0.7 0.3 0.1 0.6 0.3 0.9 0.4 0.5 0.2 1 0.4 1.5 0.7 0.3 0.1 0.6 0.3 0.9 0.4 0.5 0.2 1.1 0.4 1.6 0.7 0.3 0.1 0.6 0.3 0.9 0.4 0.6 0.2 1.1 0.4 1.7 0.7 0.3 0.1 0.7 0.3 1 0.4 0.6 0.2 1.2 0.4 1.7 0.7 0.3 0.1 0.7 0.2 1 0.4l1.8 0.6c0.3 0.1 0.7 0.2 1.1 0.4l1.8 0.6c0.1 0.1 0.3 0.1 0.4 0.1v-19.3h-33v-0.2z" fill="#0A0A0A"/>
			<polygon points="218.6 445.8 218.1 445.8 216.4 445.8 214.8 457.3 215.6 458.8 221.5 469 222.7 452.9" fill="#F0D3A5"/>
			<path d="m280 445.8h-3.9l-3.3 5.7-10.1 17.5-13.4-23.2h-3.9l-2.9 5.1-0.2 0.9-5.1 22.8c0.5 0.4 0.9 0.9 1.3 1.4l8.9-15.4 3.3 5.6 12.1 20.9 5.5-9.5 9.8-17 1.1 1.8 1.9-14.8-1.1-1.8z" fill="#F0D3A5"/>
			<polygon points="363.3 454.1 364.6 470.1 372.4 456.5 371.4 450.2 370.7 445.8 370.5 445.8 368.1 445.8" fill="#F0D3A5"/>
			<path d="m343 448.8l-1.7-2.9h-3.8l-3.3 5.7-10.2 17.4-13.4-23.2h-3.9l-1.4 2.4 1.2 8.8 0.8 6 1.3-2.3 9.6 16.6 5.7 9.9 13.8-23.8 1.5-2.7 8.6 14.9c0.3-0.3 0.6-0.6 0.8-0.9l-5.6-25.9z" fill="#F0D3A5"/>
			<path d="m252 656.4c9.1 0 16.7-11.8 18.6-27.5 0.3-2.5 0.5-5.1 0.5-7.7 0-1.4-0.1-2.9-0.2-4.3h-6.2c0.1 1.4 0.2 2.8 0.2 4.3 0 17.5-6.9 32-16 34.8 0.3 0.1 0.7 0.2 1 0.3s0.6 0.1 0.9 0.1c0.4-0.1 0.8 0 1.2 0z" fill="#3E2A16"/>
			<path d="m336.1 656c0.1-0.1 0.3-0.1 0.4-0.1-9.1-2.7-16-17.2-16-34.8 0-1.4 0.1-2.9 0.2-4.3h-6.2c-0.1 1.4-0.2 2.8-0.2 4.3 0 17.6 7 32.1 16.1 34.8 1 0.3 2 0.5 3 0.5s1.8-0.1 2.7-0.4z" fill="#3E2A16"/>
			<path d="m242.3 451.9l0.2-0.9 2.7-12.2 2.5-11.2 3.6-16.4 2.3-10.4-0.1-0.1c0.6-1.7 0.9-3.4 0.9-5.3 0-8.1-6.1-14.7-13.6-14.7-6.8 0-12.4 5.4-13.4 12.5l-0.2-0.1-2.7 34.4-1.9 25.3-1.2 16.1-0.8 10.3c-0.4 0.8-0.8 1.6-1.2 2.5-2.4 6.2-1.1 13 2.9 16.4 0.2-1.4 0.5-2.7 1.1-4.1 0.3-0.8 0.7-1.5 1.1-2.2 0.8 2 2 4 3.6 5.7 0.9 0.9 1.8 1.7 2.8 2.3 4.1 2.7 8.9 2.9 12.4 0.7-1.1-0.7-2.2-1.5-3.2-2.5s-1.8-2.1-2.5-3.3c-1.9-3.2-2.5-6.9-1.9-10.1 1 0.1 2 0.3 2.9 0.7 0.8 0.3 1.5 0.8 2.2 1.4 0.4-3.1-0.1-6.1-1.2-8.6 0.2-0.1 0.3-0.2 0.4-0.3-0.3-0.2-0.6-0.3-0.9-0.5-0.2-0.4-0.5-0.8-0.8-1.2-0.4-0.6-0.8-1-1.3-1.4l5.3-22.8z" fill="#3E2A16"/>
			<polygon points="293.4 381.8 293.1 381.8 293.3 381.9" fill="#2B3C90"/>
			<path d="m305.4 448.2l-1.9-14.8-0.8-5.8-2.2-16.4-0.4-3.4 5.6-9-12.4-17-12.4 17 5.4 8.7-0.5 3.7-2.2 16.4-2.7 20-1.9 14.8-2.8 21c-0.3 1.3-0.4 2.7-0.4 4 0 1.4 0.2 2.9 0.5 4.3l10.9 24.8 5.3 12c0.1 0.1 0.3 0.2 0.5 0.2s0.4-0.1 0.5-0.2l5.3-12 11.3-25.8c0.3-1.2 0.4-2.3 0.3-3.5 0-0.9-0.1-1.9-0.3-2.8l-2.9-21.6-0.8-6-1-8.6z" fill="#2B3C90"/>
			<polygon points="293.1 381.8 243.1 349.6 237.1 363.4 279.1 401.4 280.9 398.9 293.3 381.9" fill="#F2F2F2"/>
			<polygon points="293.4 381.8 293.3 381.9 305.7 398.9 307.5 401.4 348.8 362 344 350.7 343.3 349.1 342.9 348.2" fill="#F2F2F2"/>
			<g fill="#fff">
				<path d="M210.5,264.7c0-49,36.8-100.6,82.1-100.6s82.1,51.5,82.1,100.6H210.5z"/>
				<path d="m380.6 271.7h-176c-2.9 0-5.4-2.6-5.4-5.8s2.4-5.8 5.4-5.8h176.1c2.9 0 5.4 2.6 5.4 5.8-0.1 3.2-2.5 5.8-5.5 5.8z"/>
			</g>
				<polygon points="402.1 534.4 369.1 570.6 256.2 449.9 289.1 413.7" fill="#E7E7E7"/>
				<path d="m295.4 428.2c0.2 2 0.2 4 0.1 6-2.9 27.4-43.4 27.6-46.5 0.3-0.2-2-0.2-4-0.1-6 2.8-27.4 43.3-27.7 46.5-0.3z" fill="#6C6F71"/>
				<path d="m407.6 548.1c0.2 2 0.2 4 0.1 6-2.9 27.4-43.4 27.6-46.5 0.3-0.2-2-0.2-4-0.1-6 2.9-27.5 43.4-27.7 46.5-0.3z" fill="#E7E7E7"/>
				<path d="m255.4 413.4c6.6-7.3 17.5-7.4 24.2-0.2s6.8 18.9 0.2 26.2l-24.4-26z" fill="#D0D2D3"/>
				<path d="m255.6 413.2c-9.2 10.1-9.1 26.4 0.2 36.3s24.4 9.9 33.6-0.2l-33.8-36.1z" fill="#D0D2D3"/>
			<path d="m361.3 427.6l-2.7-34.4-0.2 0.1c-1-7.1-6.6-12.5-13.4-12.5-7.5 0-13.6 6.6-13.6 14.7 0 1.9 0.3 3.7 0.9 5.3l-0.1 0.1 2.3 10.4 3.6 16.4 4.8 21.1 5.8 25.9c-0.3 0.3-0.6 0.6-0.8 0.9-0.4 0.6-0.9 1.1-1.2 1.8-0.3 0.2-0.6 0.3-0.9 0.5 0.2 0.1 0.3 0.2 0.4 0.3-1.2 2.5-1.6 5.5-1.2 8.6 0.7-0.6 1.4-1.1 2.2-1.4 0.9-0.4 1.9-0.7 2.9-0.7 0.6 3.3-0.1 6.9-1.9 10.1-0.7 1.2-1.5 2.3-2.5 3.3s-2 1.8-3.2 2.5c3.5 2.3 8.3 2 12.4-0.7 0.9-0.6 1.9-1.4 2.8-2.3 1.7-1.7 2.9-3.7 3.6-5.7 0.4 0.7 0.7 1.4 1.1 2.2 0.5 1.3 0.8 2.7 1.1 4.1 4-3.4 5.3-10.1 2.9-16.4-0.3-0.9-0.7-1.7-1.2-2.5l-0.7-9.1-1.2-16.1-2-26.5z" fill="#3E2A16"/>
	<path d="m251.3 196.7h-6.4c-2.9 0-5.3-2.4-5.3-5.3v-10.3c0-2.9 2.4-5.3 5.3-5.3h6.4c2.9 0 5.3 2.4 5.3 5.3v10.3c0 2.9-2.4 5.3-5.3 5.3z" fill="#fff"/>
	<path d="m340 196.7h-8c-3.2 0-5.7-2.5-5.7-5.7v-9.6c0-3.2 2.5-5.7 5.7-5.7h8c3.2 0 5.7 2.5 5.7 5.7v9.6c0 3.1-2.6 5.7-5.7 5.7z" fill="#fff"/>
	<path d="m294.2 179.3h-5.7c-2.9 0-5.2-2.5-5.2-5.6v-9.7c-0.2-6.2-1.7-5.6 5.2-5.6h5.7c2.9 0 5.2 2.5 5.2 5.6v9.7c0 3.1-2.3 5.6-5.2 5.6z" fill="#fff"/>
	<rect x="2.8" y="82.9" width="612" height="503.7" fill="none"/>
		<path d="m288 161.2c0.1-1.5-1.2-2.8-2.7-2.8h-1c-1.5 0-2.7 1.2-2.5 2.8l2.8 35.8c0.1 1.5 0.7 2.8 1.3 2.8s1.1-1.2 1.1-2.8l1-35.8z" fill="#E7E7E7"/>
		<path d="m336.8 178.5c0.1-1.5-1.2-2.8-2.7-2.8h-2.6c-1.5 0-2.7 1.2-2.5 2.8l2.9 39.1c0.1 1.5 1 2.8 2 2.8s1.9-1.2 1.9-2.8l1-39.1z" fill="#E7E7E7"/>
		<path d="m248 178.5c-0.1-1.5 1.2-2.8 2.7-2.8h2.6c1.5 0 2.7 1.2 2.5 2.8l-2.9 39.1c-0.1 1.5-1 2.8-2 2.8-1.1 0-1.9-1.2-1.9-2.8l-1-39.1z" fill="#E7E7E7"/>
</svg>
