<?xml version="1.0" encoding="utf-8"?>
<!-- Generator: Adobe Illustrator 18.1.1, SVG Export Plug-In . SVG Version: 6.00 Build 0)  -->
<svg version="1.1" id="Layer_1" xmlns="http://www.w3.org/2000/svg" xmlns:xlink="http://www.w3.org/1999/xlink" x="0px" y="0px"
	 viewBox="0 0 1525.2 654.4" enable-background="new 0 0 1525.2 654.4" xml:space="preserve">
<metadata><?xpacket begin="﻿" id="W5M0MpCehiHzreSzNTczkc9d"?>
<x:xmpmeta xmlns:x="adobe:ns:meta/" x:xmptk="Adobe XMP Core 5.6-c014 79.156821, 2014/08/29-03:07:50        ">
   <rdf:RDF xmlns:rdf="http://www.w3.org/1999/02/22-rdf-syntax-ns#">
      <rdf:Description rdf:about=""
            xmlns:dc="http://purl.org/dc/elements/1.1/"
            xmlns:xmp="http://ns.adobe.com/xap/1.0/"
            xmlns:xmpGImg="http://ns.adobe.com/xap/1.0/g/img/"
            xmlns:xmpMM="http://ns.adobe.com/xap/1.0/mm/"
            xmlns:stRef="http://ns.adobe.com/xap/1.0/sType/ResourceRef#"
            xmlns:stEvt="http://ns.adobe.com/xap/1.0/sType/ResourceEvent#"
            xmlns:illustrator="http://ns.adobe.com/illustrator/1.0/"
            xmlns:xmpTPg="http://ns.adobe.com/xap/1.0/t/pg/"
            xmlns:stDim="http://ns.adobe.com/xap/1.0/sType/Dimensions#"
            xmlns:xmpG="http://ns.adobe.com/xap/1.0/g/"
            xmlns:pdf="http://ns.adobe.com/pdf/1.3/">
         <dc:format>image/svg+xml</dc:format>
         <dc:title>
            <rdf:Alt>
               <rdf:li xml:lang="x-default">Print</rdf:li>
            </rdf:Alt>
         </dc:title>
         <xmp:MetadataDate>2018-11-08T16:34:55+02:00</xmp:MetadataDate>
         <xmp:ModifyDate>2018-11-08T16:34:55+02:00</xmp:ModifyDate>
         <xmp:CreateDate>2018-11-08T16:34:55+02:00</xmp:CreateDate>
         <xmp:CreatorTool>Adobe Illustrator CC 2014 (Windows)</xmp:CreatorTool>
         <xmp:Thumbnails>
            <rdf:Alt>
               <rdf:li rdf:parseType="Resource">
                  <xmpGImg:width>256</xmpGImg:width>
                  <xmpGImg:height>112</xmpGImg:height>
                  <xmpGImg:format>JPEG</xmpGImg:format>
                  <xmpGImg:image>/9j/4AAQSkZJRgABAgEASABIAAD/7QAsUGhvdG9zaG9wIDMuMAA4QklNA+0AAAAAABAASAAAAAEA&#xA;AQBIAAAAAQAB/+4ADkFkb2JlAGTAAAAAAf/bAIQABgQEBAUEBgUFBgkGBQYJCwgGBggLDAoKCwoK&#xA;DBAMDAwMDAwQDA4PEA8ODBMTFBQTExwbGxscHx8fHx8fHx8fHwEHBwcNDA0YEBAYGhURFRofHx8f&#xA;Hx8fHx8fHx8fHx8fHx8fHx8fHx8fHx8fHx8fHx8fHx8fHx8fHx8fHx8fHx8f/8AAEQgAcAEAAwER&#xA;AAIRAQMRAf/EAaIAAAAHAQEBAQEAAAAAAAAAAAQFAwIGAQAHCAkKCwEAAgIDAQEBAQEAAAAAAAAA&#xA;AQACAwQFBgcICQoLEAACAQMDAgQCBgcDBAIGAnMBAgMRBAAFIRIxQVEGE2EicYEUMpGhBxWxQiPB&#xA;UtHhMxZi8CRygvElQzRTkqKyY3PCNUQnk6OzNhdUZHTD0uIIJoMJChgZhJRFRqS0VtNVKBry4/PE&#xA;1OT0ZXWFlaW1xdXl9WZ2hpamtsbW5vY3R1dnd4eXp7fH1+f3OEhYaHiImKi4yNjo+Ck5SVlpeYmZ&#xA;qbnJ2en5KjpKWmp6ipqqusra6voRAAICAQIDBQUEBQYECAMDbQEAAhEDBCESMUEFURNhIgZxgZEy&#xA;obHwFMHR4SNCFVJicvEzJDRDghaSUyWiY7LCB3PSNeJEgxdUkwgJChgZJjZFGidkdFU38qOzwygp&#xA;0+PzhJSktMTU5PRldYWVpbXF1eX1RlZmdoaWprbG1ub2R1dnd4eXp7fH1+f3OEhYaHiImKi4yNjo&#xA;+DlJWWl5iZmpucnZ6fkqOkpaanqKmqq6ytrq+v/aAAwDAQACEQMRAD8A9U4q7FXYq7FXYq7FXYq7&#xA;FXYq7FXYq7FXYq7FXYq7FXYq7FXYq7FXYq7FXYq7FXYq7FXYq7FXYq7FXYq7FXYq7FXYq7FXYq7F&#xA;XYq7FXYq7FXYq7FXYq7FXYq7FXYq7FXYq7FXYq7FXYq7FXYqpi5tzctbCRfrCoJGir8XAkgNTwqM&#xA;jxi+G92XBLh4q2VMkxdirsVdirsVdirsVdirsVdirsVdirsVdirsVdirsVdirsVdirsVdirsVdir&#xA;sVdirsVdirsVdiqT+b9butE8vXmpWtsbu4gWscIVmFSftMF34r1OVZpmMbAttw4xOQBNPGdN/NI/&#xA;4sfXv3fqXamNrOSX0o1UqFVXkZaUQqpJpvTNDinl/MmZGxv5dP0PUZ8WH8mMYPqFH49f0ve4DMYI&#xA;zOqrOVBlVCWUPT4gpIBIr7Z0Qut3kz5L8KHYq7FXYq7FXYq7FXYq7FXYqkXm3zDPoltBNGiFJpBE&#xA;zuC3FmICfCpFak067Zq+1NdPTxBiOK7+wX9wLl6TBHITxH8ckL5f8+aLqN8mkXF5bxa86tIunK9Z&#xA;DGoJDU3oWVS3GteO+XdnamWfCMkhV8mGpxDHMxDJ8znHdirsVdirsVdirsVdirsVdirsVdirsVdi&#xA;rsVdirsVWTwQXEEkFxGs0EqlJYpFDIysKFWU7EEdsSLSDSW6h5V8uaibQ3mnQS/USDaAqAEA/ZAW&#xA;lU/yT8PtkJY4nmOTOOWQujzTXJtbsVdirsVdirsVdirsVdirsVdirz382ZIhDbq1/NbN6M59KFkr&#xA;xqhMioykmSg4qe1emc52/wAR8OIhx+q/Lu3+bs+zqHESa2Sb8uPy9tW82J5x9QTWlvaiHS5eYlaS&#xA;VlaKSQy1YvxjqK13Lt4Zl9iCYwkTjwHiO36kdp5hOUQKPDGvtPN63m4da7FXYq7FXYq7FXYq7FXY&#xA;q7FXYq7FXYq7FXYq7FXYq7FXYq7FXYq7FXYq7FXYq7FXYq7FXYq7FWuK8g1ByAIDdwDSo/DFVsMM&#xA;MESxQxrFEmyxoAqj5AbYqvxV2KuxV2KuxV2KuxV2KuxV2KuxV2KuxV2KuxV2KuxV2KuxV2KuxV2K&#xA;uxV2KuxV2KuxV2KuxV2KuxV2KuxV2KuxV2KuxV2KuxV2KuxV2KuxV2KuxV2KuxV2KuxV2KuxV2Ku&#xA;xV2KuxV2KuxV2KuxV2KuxV2KuxV2KuxV2KuxV2KuxV2KuxVJrHzj5Zv9QXT7PUI5rt6+nGvKj8QW&#xA;PBiOLfCCdj0yiGpxykYA+oOVk0WWGMZJRqBTnL3FdirsVdirsVdirsVdirsVdirsVdirsVdirsVd&#xA;irsVdirsVdirsVdirsVdirsVdirsVdirsVdir5//ADo/MP8AMfyr+ZFilncCDQHhSW1gonCfiCJ1&#xA;epqx5bH+UUI8cVRHkLVPK8nmjQJ7SHUEvr2V0kMzfukMsM0yVNTUusRpRRUeFN9Vi0whwS8z+rn8&#xA;Xf6jVynGY6SA6nbrsOl18HvGbV0DsVdirsVdirsVdirsVdirsVdirsVdirsVdirsVdiqWa1rEFjC&#xA;8YkC3bIWiWlezEE17VWmU5coiPNnCFsZPmi9aa1nfeS3LhwNldXp28cw/wAwbB7m/wAIbproXmV5&#xA;2aK8I5DcOB4lEUfSzE5fh1F7FrnjrkyQEEVHTMtpdiqG1TUrTS9Mu9SvG4WljDJc3LgV4xwoXc09&#xA;lXElIFvGfKH/ADkP9d1eaTzJarpWjTxK1p6YaZoG5GnqsoBbklK0XY9qb5gx1o4iDyc2WjPCCOb2&#xA;5HR0V0YMjAMrKagg7ggjM5wW8VdirsVdirsVYV+bWg6JqPlVr7VFiB0eRby2mnkESKwPBlLkr9tW&#xA;IC13amY+rM/ClwfU5ehGM5o+J9N/2fa8d8v+bvJltrttNbWNvbS2s0Lm5eVkjTh8KNyZgi1R2C16&#xA;rXtmoENQBGweGJ237zv9z0EsumlxATFkH+EDkD+svpZHV1DoQyMAVYGoIPQg5v3lG8VdirsVdirs&#xA;VdirsVdirsVdirsVdirsVdirsVdirx7zL+YekNf1vJjC3+6onB5qrbgEKvStaE5q8kjM25cQIhZD&#xA;rVtPEs0AaWJxVJEDMpHiCBQ5SytBjzzoEV39WN0qzg8WWrDcH7JalAajpXrkhE81t6d5b812d/bM&#xA;LhltpYyFCylYw3KtAitQ0Xpmww5gRu404VyeY+c/zz8wWnmbUdJ0e1ghg0y4a0eSZTK8siAFmoCo&#xA;VamgG/jXsMbVauUJUHN02ljONlivmT8yPN3mrRbnQNWkt7PTr8IlxMsZjbirq9KksaErRqDpmN+d&#xA;medNx0kBuOb0n8qvIPl+68iQSa1pVtdTXc0k3KeFTIFSTii8iOXH91WlaEH3zL0mCJx2RzcbVZ5c&#xA;fpOz1HM9wXYq7FXYq7FXYqpXVpa3du9vdwx3FvJTnDKodGoaiqsCDuMVU7jS9MubNbK4tIZrNAoS&#xA;2kjR4gFFFAQgqKDptiqJACgACgGwA6AYq7FXYq7FXYq7FXYq7FXYq7FXYq7FXYq7FXYq7FXYq+Yt&#xA;c8q3Fvrd5YwzStqUd1LHKhRbWjSzuNPkMkskiyqyAN8KIFX4S+YnhAbORxMk8r/l/PqHlDW7/Sbp&#xA;pLb05Doyi1eF5ZVtQXCq8kpFJ6x8g7AuGI9x+XB3tHiVsxJdD0oTh1vXXQ9mmumgokcHMRSKbH12&#xA;nNLll5ATcqciEI6nwwniL2n8vPIVvaeXLCXWoBNqDxRSGOZCjw0FQjCv2qU5V75OGniNy1yyHowX&#xA;zx5W0aP8x4YYA0FtdahpZvYFkcq/12SVJRRmPENwUcV29sxM2MHL5bObhnWLz3TP83fKflyyh0y1&#xA;0vT7aynnW/upJI1CsY7KxlmIqN6cqfTTJarBEDYd/wBgRps0idz3faXq+iNE+i2DwqFia2hMagAA&#xA;KYxQUG3TM7H9I9zgz+oo3JsXYq7FXYq7FXYq7FXYq7FXYq7FXYq7FXYq7FXYq7FXYq7FXYq7FXYq&#xA;7FXYq7FUBqXl7QNUkSTU9Ntb6SMcY3uYI5io60BdWpgICbRscccUaxxqEjQBURQAoUCgAA6AYUIB&#xA;vLXl1tQ/STaVZtqIYOL028Rm5jo3qcedR41wUE2UxwoS2+8s+XL+5N1faVZ3dyeFZ57eKST92ap8&#xA;TKT8J+z4YOEJ4irX+i6PqLxvqFhb3jwrIkLXESSlFnXhKqlwaCRPhYDqNjiRagkIi3t7e2gjt7aJ&#xA;IbeFQkUMahERFFAqqKAADoBhQqYq7FXYq7FXYq7FXYq7FXYq7FXYq7FXYq7FXYq7FXYq7FXYq7FX&#xA;Yq7FXYq7FXYq7FXYq7FXYq7FXYq7FXYq7FXYq7FXYq7FXYq7FXYq7FXYq7FXYq7FXYq7FXYq7FXY&#xA;q7FXYq7FXYq7FXYq/wD/2Q==</xmpGImg:image>
               </rdf:li>
            </rdf:Alt>
         </xmp:Thumbnails>
         <xmpMM:InstanceID>xmp.iid:b558c82c-49a7-b04a-b2d1-32892065d98c</xmpMM:InstanceID>
         <xmpMM:DocumentID>xmp.did:b558c82c-49a7-b04a-b2d1-32892065d98c</xmpMM:DocumentID>
         <xmpMM:OriginalDocumentID>uuid:5D20892493BFDB11914A8590D31508C8</xmpMM:OriginalDocumentID>
         <xmpMM:RenditionClass>proof:pdf</xmpMM:RenditionClass>
         <xmpMM:DerivedFrom rdf:parseType="Resource">
            <stRef:instanceID>uuid:d1c078a0-2746-42b2-b0d1-25aedff8fb1e</stRef:instanceID>
            <stRef:documentID>xmp.did:1b6690ed-28a8-c141-9479-b6a9cf6be651</stRef:documentID>
            <stRef:originalDocumentID>uuid:5D20892493BFDB11914A8590D31508C8</stRef:originalDocumentID>
            <stRef:renditionClass>proof:pdf</stRef:renditionClass>
         </xmpMM:DerivedFrom>
         <xmpMM:History>
            <rdf:Seq>
               <rdf:li rdf:parseType="Resource">
                  <stEvt:action>saved</stEvt:action>
                  <stEvt:instanceID>xmp.iid:b558c82c-49a7-b04a-b2d1-32892065d98c</stEvt:instanceID>
                  <stEvt:when>2018-11-08T16:34:55+02:00</stEvt:when>
                  <stEvt:softwareAgent>Adobe Illustrator CC 2014 (Windows)</stEvt:softwareAgent>
                  <stEvt:changed>/</stEvt:changed>
               </rdf:li>
            </rdf:Seq>
         </xmpMM:History>
         <illustrator:StartupProfile>Print</illustrator:StartupProfile>
         <xmpTPg:HasVisibleOverprint>False</xmpTPg:HasVisibleOverprint>
         <xmpTPg:HasVisibleTransparency>False</xmpTPg:HasVisibleTransparency>
         <xmpTPg:NPages>1</xmpTPg:NPages>
         <xmpTPg:MaxPageSize rdf:parseType="Resource">
            <stDim:w>1525.181870</stDim:w>
            <stDim:h>654.393688</stDim:h>
            <stDim:unit>Pixels</stDim:unit>
         </xmpTPg:MaxPageSize>
         <xmpTPg:PlateNames>
            <rdf:Seq>
               <rdf:li>Cyan</rdf:li>
               <rdf:li>Magenta</rdf:li>
               <rdf:li>Yellow</rdf:li>
               <rdf:li>Black</rdf:li>
            </rdf:Seq>
         </xmpTPg:PlateNames>
         <xmpTPg:SwatchGroups>
            <rdf:Seq>
               <rdf:li rdf:parseType="Resource">
                  <xmpG:groupName>Default Swatch Group</xmpG:groupName>
                  <xmpG:groupType>0</xmpG:groupType>
                  <xmpG:Colorants>
                     <rdf:Seq>
                        <rdf:li rdf:parseType="Resource">
                           <xmpG:swatchName>White</xmpG:swatchName>
                           <xmpG:mode>CMYK</xmpG:mode>
                           <xmpG:type>PROCESS</xmpG:type>
                           <xmpG:cyan>0.000000</xmpG:cyan>
                           <xmpG:magenta>0.000000</xmpG:magenta>
                           <xmpG:yellow>0.000000</xmpG:yellow>
                           <xmpG:black>0.000000</xmpG:black>
                        </rdf:li>
                        <rdf:li rdf:parseType="Resource">
                           <xmpG:swatchName>Black</xmpG:swatchName>
                           <xmpG:mode>CMYK</xmpG:mode>
                           <xmpG:type>PROCESS</xmpG:type>
                           <xmpG:cyan>0.000000</xmpG:cyan>
                           <xmpG:magenta>0.000000</xmpG:magenta>
                           <xmpG:yellow>0.000000</xmpG:yellow>
                           <xmpG:black>100.000000</xmpG:black>
                        </rdf:li>
                        <rdf:li rdf:parseType="Resource">
                           <xmpG:swatchName>CMYK Red</xmpG:swatchName>
                           <xmpG:mode>CMYK</xmpG:mode>
                           <xmpG:type>PROCESS</xmpG:type>
                           <xmpG:cyan>0.000000</xmpG:cyan>
                           <xmpG:magenta>100.000000</xmpG:magenta>
                           <xmpG:yellow>100.000000</xmpG:yellow>
                           <xmpG:black>0.000000</xmpG:black>
                        </rdf:li>
                        <rdf:li rdf:parseType="Resource">
                           <xmpG:swatchName>CMYK Yellow</xmpG:swatchName>
                           <xmpG:mode>CMYK</xmpG:mode>
                           <xmpG:type>PROCESS</xmpG:type>
                           <xmpG:cyan>0.000000</xmpG:cyan>
                           <xmpG:magenta>0.000000</xmpG:magenta>
                           <xmpG:yellow>100.000000</xmpG:yellow>
                           <xmpG:black>0.000000</xmpG:black>
                        </rdf:li>
                        <rdf:li rdf:parseType="Resource">
                           <xmpG:swatchName>CMYK Green</xmpG:swatchName>
                           <xmpG:mode>CMYK</xmpG:mode>
                           <xmpG:type>PROCESS</xmpG:type>
                           <xmpG:cyan>100.000000</xmpG:cyan>
                           <xmpG:magenta>0.000000</xmpG:magenta>
                           <xmpG:yellow>100.000000</xmpG:yellow>
                           <xmpG:black>0.000000</xmpG:black>
                        </rdf:li>
                        <rdf:li rdf:parseType="Resource">
                           <xmpG:swatchName>CMYK Cyan</xmpG:swatchName>
                           <xmpG:mode>CMYK</xmpG:mode>
                           <xmpG:type>PROCESS</xmpG:type>
                           <xmpG:cyan>100.000000</xmpG:cyan>
                           <xmpG:magenta>0.000000</xmpG:magenta>
                           <xmpG:yellow>0.000000</xmpG:yellow>
                           <xmpG:black>0.000000</xmpG:black>
                        </rdf:li>
                        <rdf:li rdf:parseType="Resource">
                           <xmpG:swatchName>CMYK Blue</xmpG:swatchName>
                           <xmpG:mode>CMYK</xmpG:mode>
                           <xmpG:type>PROCESS</xmpG:type>
                           <xmpG:cyan>100.000000</xmpG:cyan>
                           <xmpG:magenta>100.000000</xmpG:magenta>
                           <xmpG:yellow>0.000000</xmpG:yellow>
                           <xmpG:black>0.000000</xmpG:black>
                        </rdf:li>
                        <rdf:li rdf:parseType="Resource">
                           <xmpG:swatchName>CMYK Magenta</xmpG:swatchName>
                           <xmpG:mode>CMYK</xmpG:mode>
                           <xmpG:type>PROCESS</xmpG:type>
                           <xmpG:cyan>0.000000</xmpG:cyan>
                           <xmpG:magenta>100.000000</xmpG:magenta>
                           <xmpG:yellow>0.000000</xmpG:yellow>
                           <xmpG:black>0.000000</xmpG:black>
                        </rdf:li>
                        <rdf:li rdf:parseType="Resource">
                           <xmpG:swatchName>C=15 M=100 Y=90 K=10</xmpG:swatchName>
                           <xmpG:mode>CMYK</xmpG:mode>
                           <xmpG:type>PROCESS</xmpG:type>
                           <xmpG:cyan>15.000000</xmpG:cyan>
                           <xmpG:magenta>100.000000</xmpG:magenta>
                           <xmpG:yellow>90.000000</xmpG:yellow>
                           <xmpG:black>10.000000</xmpG:black>
                        </rdf:li>
                        <rdf:li rdf:parseType="Resource">
                           <xmpG:swatchName>C=0 M=90 Y=85 K=0</xmpG:swatchName>
                           <xmpG:mode>CMYK</xmpG:mode>
                           <xmpG:type>PROCESS</xmpG:type>
                           <xmpG:cyan>0.000000</xmpG:cyan>
                           <xmpG:magenta>90.000000</xmpG:magenta>
                           <xmpG:yellow>85.000000</xmpG:yellow>
                           <xmpG:black>0.000000</xmpG:black>
                        </rdf:li>
                        <rdf:li rdf:parseType="Resource">
                           <xmpG:swatchName>C=0 M=80 Y=95 K=0</xmpG:swatchName>
                           <xmpG:mode>CMYK</xmpG:mode>
                           <xmpG:type>PROCESS</xmpG:type>
                           <xmpG:cyan>0.000000</xmpG:cyan>
                           <xmpG:magenta>80.000000</xmpG:magenta>
                           <xmpG:yellow>95.000000</xmpG:yellow>
                           <xmpG:black>0.000000</xmpG:black>
                        </rdf:li>
                        <rdf:li rdf:parseType="Resource">
                           <xmpG:swatchName>C=0 M=50 Y=100 K=0</xmpG:swatchName>
                           <xmpG:mode>CMYK</xmpG:mode>
                           <xmpG:type>PROCESS</xmpG:type>
                           <xmpG:cyan>0.000000</xmpG:cyan>
                           <xmpG:magenta>50.000000</xmpG:magenta>
                           <xmpG:yellow>100.000000</xmpG:yellow>
                           <xmpG:black>0.000000</xmpG:black>
                        </rdf:li>
                        <rdf:li rdf:parseType="Resource">
                           <xmpG:swatchName>C=0 M=35 Y=85 K=0</xmpG:swatchName>
                           <xmpG:mode>CMYK</xmpG:mode>
                           <xmpG:type>PROCESS</xmpG:type>
                           <xmpG:cyan>0.000000</xmpG:cyan>
                           <xmpG:magenta>35.000000</xmpG:magenta>
                           <xmpG:yellow>85.000000</xmpG:yellow>
                           <xmpG:black>0.000000</xmpG:black>
                        </rdf:li>
                        <rdf:li rdf:parseType="Resource">
                           <xmpG:swatchName>C=5 M=0 Y=90 K=0</xmpG:swatchName>
                           <xmpG:mode>CMYK</xmpG:mode>
                           <xmpG:type>PROCESS</xmpG:type>
                           <xmpG:cyan>5.000000</xmpG:cyan>
                           <xmpG:magenta>0.000000</xmpG:magenta>
                           <xmpG:yellow>90.000000</xmpG:yellow>
                           <xmpG:black>0.000000</xmpG:black>
                        </rdf:li>
                        <rdf:li rdf:parseType="Resource">
                           <xmpG:swatchName>C=20 M=0 Y=100 K=0</xmpG:swatchName>
                           <xmpG:mode>CMYK</xmpG:mode>
                           <xmpG:type>PROCESS</xmpG:type>
                           <xmpG:cyan>20.000000</xmpG:cyan>
                           <xmpG:magenta>0.000000</xmpG:magenta>
                           <xmpG:yellow>100.000000</xmpG:yellow>
                           <xmpG:black>0.000000</xmpG:black>
                        </rdf:li>
                        <rdf:li rdf:parseType="Resource">
                           <xmpG:swatchName>C=50 M=0 Y=100 K=0</xmpG:swatchName>
                           <xmpG:mode>CMYK</xmpG:mode>
                           <xmpG:type>PROCESS</xmpG:type>
                           <xmpG:cyan>50.000000</xmpG:cyan>
                           <xmpG:magenta>0.000000</xmpG:magenta>
                           <xmpG:yellow>100.000000</xmpG:yellow>
                           <xmpG:black>0.000000</xmpG:black>
                        </rdf:li>
                        <rdf:li rdf:parseType="Resource">
                           <xmpG:swatchName>C=75 M=0 Y=100 K=0</xmpG:swatchName>
                           <xmpG:mode>CMYK</xmpG:mode>
                           <xmpG:type>PROCESS</xmpG:type>
                           <xmpG:cyan>75.000000</xmpG:cyan>
                           <xmpG:magenta>0.000000</xmpG:magenta>
                           <xmpG:yellow>100.000000</xmpG:yellow>
                           <xmpG:black>0.000000</xmpG:black>
                        </rdf:li>
                        <rdf:li rdf:parseType="Resource">
                           <xmpG:swatchName>C=85 M=10 Y=100 K=10</xmpG:swatchName>
                           <xmpG:mode>CMYK</xmpG:mode>
                           <xmpG:type>PROCESS</xmpG:type>
                           <xmpG:cyan>85.000000</xmpG:cyan>
                           <xmpG:magenta>10.000000</xmpG:magenta>
                           <xmpG:yellow>100.000000</xmpG:yellow>
                           <xmpG:black>10.000000</xmpG:black>
                        </rdf:li>
                        <rdf:li rdf:parseType="Resource">
                           <xmpG:swatchName>C=90 M=30 Y=95 K=30</xmpG:swatchName>
                           <xmpG:mode>CMYK</xmpG:mode>
                           <xmpG:type>PROCESS</xmpG:type>
                           <xmpG:cyan>90.000000</xmpG:cyan>
                           <xmpG:magenta>30.000000</xmpG:magenta>
                           <xmpG:yellow>95.000000</xmpG:yellow>
                           <xmpG:black>30.000000</xmpG:black>
                        </rdf:li>
                        <rdf:li rdf:parseType="Resource">
                           <xmpG:swatchName>C=75 M=0 Y=75 K=0</xmpG:swatchName>
                           <xmpG:mode>CMYK</xmpG:mode>
                           <xmpG:type>PROCESS</xmpG:type>
                           <xmpG:cyan>75.000000</xmpG:cyan>
                           <xmpG:magenta>0.000000</xmpG:magenta>
                           <xmpG:yellow>75.000000</xmpG:yellow>
                           <xmpG:black>0.000000</xmpG:black>
                        </rdf:li>
                        <rdf:li rdf:parseType="Resource">
                           <xmpG:swatchName>C=80 M=10 Y=45 K=0</xmpG:swatchName>
                           <xmpG:mode>CMYK</xmpG:mode>
                           <xmpG:type>PROCESS</xmpG:type>
                           <xmpG:cyan>80.000000</xmpG:cyan>
                           <xmpG:magenta>10.000000</xmpG:magenta>
                           <xmpG:yellow>45.000000</xmpG:yellow>
                           <xmpG:black>0.000000</xmpG:black>
                        </rdf:li>
                        <rdf:li rdf:parseType="Resource">
                           <xmpG:swatchName>C=70 M=15 Y=0 K=0</xmpG:swatchName>
                           <xmpG:mode>CMYK</xmpG:mode>
                           <xmpG:type>PROCESS</xmpG:type>
                           <xmpG:cyan>70.000000</xmpG:cyan>
                           <xmpG:magenta>15.000000</xmpG:magenta>
                           <xmpG:yellow>0.000000</xmpG:yellow>
                           <xmpG:black>0.000000</xmpG:black>
                        </rdf:li>
                        <rdf:li rdf:parseType="Resource">
                           <xmpG:swatchName>C=85 M=50 Y=0 K=0</xmpG:swatchName>
                           <xmpG:mode>CMYK</xmpG:mode>
                           <xmpG:type>PROCESS</xmpG:type>
                           <xmpG:cyan>85.000000</xmpG:cyan>
                           <xmpG:magenta>50.000000</xmpG:magenta>
                           <xmpG:yellow>0.000000</xmpG:yellow>
                           <xmpG:black>0.000000</xmpG:black>
                        </rdf:li>
                        <rdf:li rdf:parseType="Resource">
                           <xmpG:swatchName>C=100 M=95 Y=5 K=0</xmpG:swatchName>
                           <xmpG:mode>CMYK</xmpG:mode>
                           <xmpG:type>PROCESS</xmpG:type>
                           <xmpG:cyan>100.000000</xmpG:cyan>
                           <xmpG:magenta>95.000000</xmpG:magenta>
                           <xmpG:yellow>5.000000</xmpG:yellow>
                           <xmpG:black>0.000000</xmpG:black>
                        </rdf:li>
                        <rdf:li rdf:parseType="Resource">
                           <xmpG:swatchName>C=100 M=100 Y=25 K=25</xmpG:swatchName>
                           <xmpG:mode>CMYK</xmpG:mode>
                           <xmpG:type>PROCESS</xmpG:type>
                           <xmpG:cyan>100.000000</xmpG:cyan>
                           <xmpG:magenta>100.000000</xmpG:magenta>
                           <xmpG:yellow>25.000000</xmpG:yellow>
                           <xmpG:black>25.000000</xmpG:black>
                        </rdf:li>
                        <rdf:li rdf:parseType="Resource">
                           <xmpG:swatchName>C=75 M=100 Y=0 K=0</xmpG:swatchName>
                           <xmpG:mode>CMYK</xmpG:mode>
                           <xmpG:type>PROCESS</xmpG:type>
                           <xmpG:cyan>75.000000</xmpG:cyan>
                           <xmpG:magenta>100.000000</xmpG:magenta>
                           <xmpG:yellow>0.000000</xmpG:yellow>
                           <xmpG:black>0.000000</xmpG:black>
                        </rdf:li>
                        <rdf:li rdf:parseType="Resource">
                           <xmpG:swatchName>C=50 M=100 Y=0 K=0</xmpG:swatchName>
                           <xmpG:mode>CMYK</xmpG:mode>
                           <xmpG:type>PROCESS</xmpG:type>
                           <xmpG:cyan>50.000000</xmpG:cyan>
                           <xmpG:magenta>100.000000</xmpG:magenta>
                           <xmpG:yellow>0.000000</xmpG:yellow>
                           <xmpG:black>0.000000</xmpG:black>
                        </rdf:li>
                        <rdf:li rdf:parseType="Resource">
                           <xmpG:swatchName>C=35 M=100 Y=35 K=10</xmpG:swatchName>
                           <xmpG:mode>CMYK</xmpG:mode>
                           <xmpG:type>PROCESS</xmpG:type>
                           <xmpG:cyan>35.000000</xmpG:cyan>
                           <xmpG:magenta>100.000000</xmpG:magenta>
                           <xmpG:yellow>35.000000</xmpG:yellow>
                           <xmpG:black>10.000000</xmpG:black>
                        </rdf:li>
                        <rdf:li rdf:parseType="Resource">
                           <xmpG:swatchName>C=10 M=100 Y=50 K=0</xmpG:swatchName>
                           <xmpG:mode>CMYK</xmpG:mode>
                           <xmpG:type>PROCESS</xmpG:type>
                           <xmpG:cyan>10.000000</xmpG:cyan>
                           <xmpG:magenta>100.000000</xmpG:magenta>
                           <xmpG:yellow>50.000000</xmpG:yellow>
                           <xmpG:black>0.000000</xmpG:black>
                        </rdf:li>
                        <rdf:li rdf:parseType="Resource">
                           <xmpG:swatchName>C=0 M=95 Y=20 K=0</xmpG:swatchName>
                           <xmpG:mode>CMYK</xmpG:mode>
                           <xmpG:type>PROCESS</xmpG:type>
                           <xmpG:cyan>0.000000</xmpG:cyan>
                           <xmpG:magenta>95.000000</xmpG:magenta>
                           <xmpG:yellow>20.000000</xmpG:yellow>
                           <xmpG:black>0.000000</xmpG:black>
                        </rdf:li>
                        <rdf:li rdf:parseType="Resource">
                           <xmpG:swatchName>C=25 M=25 Y=40 K=0</xmpG:swatchName>
                           <xmpG:mode>CMYK</xmpG:mode>
                           <xmpG:type>PROCESS</xmpG:type>
                           <xmpG:cyan>25.000000</xmpG:cyan>
                           <xmpG:magenta>25.000000</xmpG:magenta>
                           <xmpG:yellow>40.000000</xmpG:yellow>
                           <xmpG:black>0.000000</xmpG:black>
                        </rdf:li>
                        <rdf:li rdf:parseType="Resource">
                           <xmpG:swatchName>C=40 M=45 Y=50 K=5</xmpG:swatchName>
                           <xmpG:mode>CMYK</xmpG:mode>
                           <xmpG:type>PROCESS</xmpG:type>
                           <xmpG:cyan>40.000000</xmpG:cyan>
                           <xmpG:magenta>45.000000</xmpG:magenta>
                           <xmpG:yellow>50.000000</xmpG:yellow>
                           <xmpG:black>5.000000</xmpG:black>
                        </rdf:li>
                        <rdf:li rdf:parseType="Resource">
                           <xmpG:swatchName>C=50 M=50 Y=60 K=25</xmpG:swatchName>
                           <xmpG:mode>CMYK</xmpG:mode>
                           <xmpG:type>PROCESS</xmpG:type>
                           <xmpG:cyan>50.000000</xmpG:cyan>
                           <xmpG:magenta>50.000000</xmpG:magenta>
                           <xmpG:yellow>60.000000</xmpG:yellow>
                           <xmpG:black>25.000000</xmpG:black>
                        </rdf:li>
                        <rdf:li rdf:parseType="Resource">
                           <xmpG:swatchName>C=55 M=60 Y=65 K=40</xmpG:swatchName>
                           <xmpG:mode>CMYK</xmpG:mode>
                           <xmpG:type>PROCESS</xmpG:type>
                           <xmpG:cyan>55.000000</xmpG:cyan>
                           <xmpG:magenta>60.000000</xmpG:magenta>
                           <xmpG:yellow>65.000000</xmpG:yellow>
                           <xmpG:black>40.000000</xmpG:black>
                        </rdf:li>
                        <rdf:li rdf:parseType="Resource">
                           <xmpG:swatchName>C=25 M=40 Y=65 K=0</xmpG:swatchName>
                           <xmpG:mode>CMYK</xmpG:mode>
                           <xmpG:type>PROCESS</xmpG:type>
                           <xmpG:cyan>25.000000</xmpG:cyan>
                           <xmpG:magenta>40.000000</xmpG:magenta>
                           <xmpG:yellow>65.000000</xmpG:yellow>
                           <xmpG:black>0.000000</xmpG:black>
                        </rdf:li>
                        <rdf:li rdf:parseType="Resource">
                           <xmpG:swatchName>C=30 M=50 Y=75 K=10</xmpG:swatchName>
                           <xmpG:mode>CMYK</xmpG:mode>
                           <xmpG:type>PROCESS</xmpG:type>
                           <xmpG:cyan>30.000000</xmpG:cyan>
                           <xmpG:magenta>50.000000</xmpG:magenta>
                           <xmpG:yellow>75.000000</xmpG:yellow>
                           <xmpG:black>10.000000</xmpG:black>
                        </rdf:li>
                        <rdf:li rdf:parseType="Resource">
                           <xmpG:swatchName>C=35 M=60 Y=80 K=25</xmpG:swatchName>
                           <xmpG:mode>CMYK</xmpG:mode>
                           <xmpG:type>PROCESS</xmpG:type>
                           <xmpG:cyan>35.000000</xmpG:cyan>
                           <xmpG:magenta>60.000000</xmpG:magenta>
                           <xmpG:yellow>80.000000</xmpG:yellow>
                           <xmpG:black>25.000000</xmpG:black>
                        </rdf:li>
                        <rdf:li rdf:parseType="Resource">
                           <xmpG:swatchName>C=40 M=65 Y=90 K=35</xmpG:swatchName>
                           <xmpG:mode>CMYK</xmpG:mode>
                           <xmpG:type>PROCESS</xmpG:type>
                           <xmpG:cyan>40.000000</xmpG:cyan>
                           <xmpG:magenta>65.000000</xmpG:magenta>
                           <xmpG:yellow>90.000000</xmpG:yellow>
                           <xmpG:black>35.000000</xmpG:black>
                        </rdf:li>
                        <rdf:li rdf:parseType="Resource">
                           <xmpG:swatchName>C=40 M=70 Y=100 K=50</xmpG:swatchName>
                           <xmpG:mode>CMYK</xmpG:mode>
                           <xmpG:type>PROCESS</xmpG:type>
                           <xmpG:cyan>40.000000</xmpG:cyan>
                           <xmpG:magenta>70.000000</xmpG:magenta>
                           <xmpG:yellow>100.000000</xmpG:yellow>
                           <xmpG:black>50.000000</xmpG:black>
                        </rdf:li>
                        <rdf:li rdf:parseType="Resource">
                           <xmpG:swatchName>C=50 M=70 Y=80 K=70</xmpG:swatchName>
                           <xmpG:mode>CMYK</xmpG:mode>
                           <xmpG:type>PROCESS</xmpG:type>
                           <xmpG:cyan>50.000000</xmpG:cyan>
                           <xmpG:magenta>70.000000</xmpG:magenta>
                           <xmpG:yellow>80.000000</xmpG:yellow>
                           <xmpG:black>70.000000</xmpG:black>
                        </rdf:li>
                     </rdf:Seq>
                  </xmpG:Colorants>
               </rdf:li>
               <rdf:li rdf:parseType="Resource">
                  <xmpG:groupName>Grays</xmpG:groupName>
                  <xmpG:groupType>1</xmpG:groupType>
                  <xmpG:Colorants>
                     <rdf:Seq>
                        <rdf:li rdf:parseType="Resource">
                           <xmpG:swatchName>C=0 M=0 Y=0 K=100</xmpG:swatchName>
                           <xmpG:mode>CMYK</xmpG:mode>
                           <xmpG:type>PROCESS</xmpG:type>
                           <xmpG:cyan>0.000000</xmpG:cyan>
                           <xmpG:magenta>0.000000</xmpG:magenta>
                           <xmpG:yellow>0.000000</xmpG:yellow>
                           <xmpG:black>100.000000</xmpG:black>
                        </rdf:li>
                        <rdf:li rdf:parseType="Resource">
                           <xmpG:swatchName>C=0 M=0 Y=0 K=90</xmpG:swatchName>
                           <xmpG:mode>CMYK</xmpG:mode>
                           <xmpG:type>PROCESS</xmpG:type>
                           <xmpG:cyan>0.000000</xmpG:cyan>
                           <xmpG:magenta>0.000000</xmpG:magenta>
                           <xmpG:yellow>0.000000</xmpG:yellow>
                           <xmpG:black>89.999400</xmpG:black>
                        </rdf:li>
                        <rdf:li rdf:parseType="Resource">
                           <xmpG:swatchName>C=0 M=0 Y=0 K=80</xmpG:swatchName>
                           <xmpG:mode>CMYK</xmpG:mode>
                           <xmpG:type>PROCESS</xmpG:type>
                           <xmpG:cyan>0.000000</xmpG:cyan>
                           <xmpG:magenta>0.000000</xmpG:magenta>
                           <xmpG:yellow>0.000000</xmpG:yellow>
                           <xmpG:black>79.998800</xmpG:black>
                        </rdf:li>
                        <rdf:li rdf:parseType="Resource">
                           <xmpG:swatchName>C=0 M=0 Y=0 K=70</xmpG:swatchName>
                           <xmpG:mode>CMYK</xmpG:mode>
                           <xmpG:type>PROCESS</xmpG:type>
                           <xmpG:cyan>0.000000</xmpG:cyan>
                           <xmpG:magenta>0.000000</xmpG:magenta>
                           <xmpG:yellow>0.000000</xmpG:yellow>
                           <xmpG:black>69.999700</xmpG:black>
                        </rdf:li>
                        <rdf:li rdf:parseType="Resource">
                           <xmpG:swatchName>C=0 M=0 Y=0 K=60</xmpG:swatchName>
                           <xmpG:mode>CMYK</xmpG:mode>
                           <xmpG:type>PROCESS</xmpG:type>
                           <xmpG:cyan>0.000000</xmpG:cyan>
                           <xmpG:magenta>0.000000</xmpG:magenta>
                           <xmpG:yellow>0.000000</xmpG:yellow>
                           <xmpG:black>59.999100</xmpG:black>
                        </rdf:li>
                        <rdf:li rdf:parseType="Resource">
                           <xmpG:swatchName>C=0 M=0 Y=0 K=50</xmpG:swatchName>
                           <xmpG:mode>CMYK</xmpG:mode>
                           <xmpG:type>PROCESS</xmpG:type>
                           <xmpG:cyan>0.000000</xmpG:cyan>
                           <xmpG:magenta>0.000000</xmpG:magenta>
                           <xmpG:yellow>0.000000</xmpG:yellow>
                           <xmpG:black>50.000000</xmpG:black>
                        </rdf:li>
                        <rdf:li rdf:parseType="Resource">
                           <xmpG:swatchName>C=0 M=0 Y=0 K=40</xmpG:swatchName>
                           <xmpG:mode>CMYK</xmpG:mode>
                           <xmpG:type>PROCESS</xmpG:type>
                           <xmpG:cyan>0.000000</xmpG:cyan>
                           <xmpG:magenta>0.000000</xmpG:magenta>
                           <xmpG:yellow>0.000000</xmpG:yellow>
                           <xmpG:black>39.999400</xmpG:black>
                        </rdf:li>
                        <rdf:li rdf:parseType="Resource">
                           <xmpG:swatchName>C=0 M=0 Y=0 K=30</xmpG:swatchName>
                           <xmpG:mode>CMYK</xmpG:mode>
                           <xmpG:type>PROCESS</xmpG:type>
                           <xmpG:cyan>0.000000</xmpG:cyan>
                           <xmpG:magenta>0.000000</xmpG:magenta>
                           <xmpG:yellow>0.000000</xmpG:yellow>
                           <xmpG:black>29.998800</xmpG:black>
                        </rdf:li>
                        <rdf:li rdf:parseType="Resource">
                           <xmpG:swatchName>C=0 M=0 Y=0 K=20</xmpG:swatchName>
                           <xmpG:mode>CMYK</xmpG:mode>
                           <xmpG:type>PROCESS</xmpG:type>
                           <xmpG:cyan>0.000000</xmpG:cyan>
                           <xmpG:magenta>0.000000</xmpG:magenta>
                           <xmpG:yellow>0.000000</xmpG:yellow>
                           <xmpG:black>19.999700</xmpG:black>
                        </rdf:li>
                        <rdf:li rdf:parseType="Resource">
                           <xmpG:swatchName>C=0 M=0 Y=0 K=10</xmpG:swatchName>
                           <xmpG:mode>CMYK</xmpG:mode>
                           <xmpG:type>PROCESS</xmpG:type>
                           <xmpG:cyan>0.000000</xmpG:cyan>
                           <xmpG:magenta>0.000000</xmpG:magenta>
                           <xmpG:yellow>0.000000</xmpG:yellow>
                           <xmpG:black>9.999100</xmpG:black>
                        </rdf:li>
                        <rdf:li rdf:parseType="Resource">
                           <xmpG:swatchName>C=0 M=0 Y=0 K=5</xmpG:swatchName>
                           <xmpG:mode>CMYK</xmpG:mode>
                           <xmpG:type>PROCESS</xmpG:type>
                           <xmpG:cyan>0.000000</xmpG:cyan>
                           <xmpG:magenta>0.000000</xmpG:magenta>
                           <xmpG:yellow>0.000000</xmpG:yellow>
                           <xmpG:black>4.998800</xmpG:black>
                        </rdf:li>
                     </rdf:Seq>
                  </xmpG:Colorants>
               </rdf:li>
               <rdf:li rdf:parseType="Resource">
                  <xmpG:groupName>Brights</xmpG:groupName>
                  <xmpG:groupType>1</xmpG:groupType>
                  <xmpG:Colorants>
                     <rdf:Seq>
                        <rdf:li rdf:parseType="Resource">
                           <xmpG:swatchName>C=0 M=100 Y=100 K=0</xmpG:swatchName>
                           <xmpG:mode>CMYK</xmpG:mode>
                           <xmpG:type>PROCESS</xmpG:type>
                           <xmpG:cyan>0.000000</xmpG:cyan>
                           <xmpG:magenta>100.000000</xmpG:magenta>
                           <xmpG:yellow>100.000000</xmpG:yellow>
                           <xmpG:black>0.000000</xmpG:black>
                        </rdf:li>
                        <rdf:li rdf:parseType="Resource">
                           <xmpG:swatchName>C=0 M=75 Y=100 K=0</xmpG:swatchName>
                           <xmpG:mode>CMYK</xmpG:mode>
                           <xmpG:type>PROCESS</xmpG:type>
                           <xmpG:cyan>0.000000</xmpG:cyan>
                           <xmpG:magenta>75.000000</xmpG:magenta>
                           <xmpG:yellow>100.000000</xmpG:yellow>
                           <xmpG:black>0.000000</xmpG:black>
                        </rdf:li>
                        <rdf:li rdf:parseType="Resource">
                           <xmpG:swatchName>C=0 M=10 Y=95 K=0</xmpG:swatchName>
                           <xmpG:mode>CMYK</xmpG:mode>
                           <xmpG:type>PROCESS</xmpG:type>
                           <xmpG:cyan>0.000000</xmpG:cyan>
                           <xmpG:magenta>10.000000</xmpG:magenta>
                           <xmpG:yellow>95.000000</xmpG:yellow>
                           <xmpG:black>0.000000</xmpG:black>
                        </rdf:li>
                        <rdf:li rdf:parseType="Resource">
                           <xmpG:swatchName>C=85 M=10 Y=100 K=0</xmpG:swatchName>
                           <xmpG:mode>CMYK</xmpG:mode>
                           <xmpG:type>PROCESS</xmpG:type>
                           <xmpG:cyan>85.000000</xmpG:cyan>
                           <xmpG:magenta>10.000000</xmpG:magenta>
                           <xmpG:yellow>100.000000</xmpG:yellow>
                           <xmpG:black>0.000000</xmpG:black>
                        </rdf:li>
                        <rdf:li rdf:parseType="Resource">
                           <xmpG:swatchName>C=100 M=90 Y=0 K=0</xmpG:swatchName>
                           <xmpG:mode>CMYK</xmpG:mode>
                           <xmpG:type>PROCESS</xmpG:type>
                           <xmpG:cyan>100.000000</xmpG:cyan>
                           <xmpG:magenta>90.000000</xmpG:magenta>
                           <xmpG:yellow>0.000000</xmpG:yellow>
                           <xmpG:black>0.000000</xmpG:black>
                        </rdf:li>
                        <rdf:li rdf:parseType="Resource">
                           <xmpG:swatchName>C=60 M=90 Y=0 K=0</xmpG:swatchName>
                           <xmpG:mode>CMYK</xmpG:mode>
                           <xmpG:type>PROCESS</xmpG:type>
                           <xmpG:cyan>60.000000</xmpG:cyan>
                           <xmpG:magenta>90.000000</xmpG:magenta>
                           <xmpG:yellow>0.003100</xmpG:yellow>
                           <xmpG:black>0.003100</xmpG:black>
                        </rdf:li>
                     </rdf:Seq>
                  </xmpG:Colorants>
               </rdf:li>
            </rdf:Seq>
         </xmpTPg:SwatchGroups>
         <pdf:Producer>Adobe PDF library 10.01</pdf:Producer>
      </rdf:Description>
   </rdf:RDF>
</x:xmpmeta>
                                                                                                    
                                                                                                    
                                                                                                    
                                                                                                    
                                                                                                    
                                                                                                    
                                                                                                    
                                                                                                    
                                                                                                    
                                                                                                    
                                                                                                    
                                                                                                    
                                                                                                    
                                                                                                    
                                                                                                    
                                                                                                    
                                                                                                    
                                                                                                    
                                                                                                    
                                                                                                    
                           
<?xpacket end="w"?>
	</metadata>
<g>
	<g>
		<polygon fill="#945937" points="1232.1,148.8 1227.3,154.6 1182.3,121.2 1187.1,115.4 		"/>
		<g>
			<polygon fill="#8A4E32" points="1187.4,148.5 1185,142.6 1239.6,118.1 1241.9,124.1 			"/>
			<circle fill="#A97A35" cx="1240.8" cy="121.2" r="3.4"/>
		</g>
		<g>
			<polygon fill="#8A4E32" points="1237.2,146.6 1181.7,136.6 1183.5,126.3 1239,136.4 			"/>
			
				<ellipse transform="matrix(0.9847 0.1742 -0.1742 0.9847 40.9402 -203.9342)" fill="#B46A32" cx="1182.2" cy="131.2" rx="5.2" ry="5.3"/>
		</g>
		<g>
			<path fill="#F06825" d="M1227.4,125.5c1.9-5.2-4-21.4-4-21.4c-0.1,2.3-1.7,6.2-1.7,6.2c-0.5-17.8-10.3-24.4-10.3-24.4
				c2.6,3.9,0.4,17.6,0.4,17.6c-2.3-7.3-6.2-9.1-6.2-9.1c1.6,1.9-0.4,9.3-4,16.9c-3.5,7.5-3.4,8.9-3.4,8.9c0.1,1.3,0.1,3.6,0.1,4.9
				c0,0-0.2,8.7,12.6,8.2C1221.3,133.1,1225.5,130.7,1227.4,125.5z"/>
		</g>
	</g>
	<g>
		<path d="M304.2,182.7c-1.8,1.1-3.4,2.8-4.4,4.9l-1.5,3.3l6-0.1L304.2,182.7z"/>
		<path d="M321.4,190.5c-0.6-3.6-2.9-6.8-6.4-8.5l0,0c-0.3-0.2-0.7-0.3-1-0.4l0.1,9L321.4,190.5z"/>
		<path d="M302.5,210.2l-0.7,0.2l2.8,0l0-2c-0.1,0-0.2,0-0.3,0C303.9,209.3,303.2,210,302.5,210.2z"/>
		<path d="M304.4,201.5l0-1l-0.2,0C304.3,200.9,304.4,201.2,304.4,201.5z"/>
		<polygon points="314.3,208.5 318.9,200.7 319,200.4 314.2,200.5 		"/>
		
			<rect x="304.3" y="190.7" transform="matrix(-0.9999 1.328373e-002 -1.328373e-002 -0.9999 621.0668 387.088)" width="9.8" height="9.8"/>
		<polygon points="304.7,220.2 307.5,220.2 313.3,210.3 304.5,210.4 		"/>
		<path d="M304.7,220.6l0-0.4l-0.1,0C304.6,220.4,304.6,220.5,304.7,220.6z"/>
		<path fill="#0A0A0A" d="M321.4,190.5l-7.3,0.1l0.1,9.8l4.8-0.1l1.5-3.1C321.5,195.1,321.8,192.8,321.4,190.5z"/>
		<path fill="#0A0A0A" d="M314.1,190.6l-0.1-9c-3.3-1.2-6.9-0.7-9.8,1l0.1,8.1L314.1,190.6z"/>
		<path fill="#0A0A0A" d="M304.2,200.6l0.2,0l-0.1-9.8l-6,0.1l-0.1,0.2C300.2,192.1,303,194.6,304.2,200.6z"/>
		<path fill="#0A0A0A" d="M304.4,200.6l0,1c0.3,1.8,0.5,3.9,0.5,6.3c0,0,0.1,0.5-0.4,0.6l0,2l8.7-0.1l1.1-1.8l-0.1-8L304.4,200.6z"
			/>
		<path fill="#0A0A0A" d="M297.8,211.8c3.2,1.5,5.6,4.3,6.6,7.7c0.1,0.2,0.2,0.5,0.2,0.8l0.1,0l-0.1-9.8l-2.8,0L297.8,211.8z"/>
		<path fill="#0A0A0A" d="M304.7,220.6c0.3,1.3,0.4,2.7,0.1,4.3l2.7-4.7l-2.8,0L304.7,220.6z"/>
		<path fill="#D83927" d="M293.7,190.3c-0.4,0.1-0.7,0.4-0.7,0.8c0,0.2,0.1,0.5,0.2,0.6c0.3-0.1,0.7-0.2,1-0.3
			c0.2-0.1,0.5-0.2,0.7-0.2c8.1-0.7,9.2,11.7,9.3,16.5c0,0.3,0,0.5-0.1,0.8c0.1,0,0.2,0,0.3,0c0.5-0.1,0.4-0.6,0.4-0.6
			c0-2.4-0.2-4.5-0.5-6.3c-0.1-0.3-0.1-0.7-0.2-1c-1.3-6-4-8.5-6.1-9.6c-1.3-0.7-2.4-0.8-2.4-0.8l-1.4-0.2
			C294.1,190.1,293.9,190.2,293.7,190.3L293.7,190.3z"/>
		<path fill="#EF3F24" d="M302.5,210.2c0.8-0.3,1.5-1,1.7-1.7c0.1-0.3,0.1-0.5,0.1-0.8c-0.1-4.8-1.2-17.2-9.3-16.5
			c-0.3,0-0.5,0.1-0.7,0.2c-0.3,0.1-0.7,0.2-1,0.3c-4.2,1.2-7.7,4.1-9.1,7.9c-0.1,0.3-0.2,0.7-0.3,1c-0.1,0.2-0.1,0.4-0.1,0.6l3-3.5
			l0,0c0.2-0.2,0.4-0.4,0.6-0.6c0,0,0.1,0,0.1-0.1c1.5-1.8,3.7-3.2,6.4-3.9l1,6.6c0,0,0,0,0.1,0l1.6,8.3l0.3,1.7l0.1,0.3
			c-0.7,0.2-1.5,0.2-2.3,0.3c-1.1,0.2-2.2,0.2-3.2,0.1c-0.7-0.1-1.4-0.2-1.9-0.5c-1.1-0.4-2-1.1-2.7-2c-0.6-0.9-1.1-1.9-1.3-3.2
			l-1.6,1.2c0.1,0.4,0.2,0.7,0.4,1.1c0.1,0.3,0.3,0.7,0.5,1c0.3,0.4,0.6,0.9,0.9,1.2c1.1,1.2,2.6,2.1,4.4,2.5
			c1.3,0.3,2.7,0.4,4.3,0.3c0.3,0,0.5,0,0.8-0.1c0.6-0.1,1.2-0.2,1.7-0.3c0.2,0,0.3-0.1,0.5-0.1c0.1,0.1,0.2,0.1,0.3,0.2l4-1.3
			L302.5,210.2z"/>
		<path d="M287.1,236.1c-1.2,0.4-2.6,0.7-4.1,0.8C284.5,236.8,285.8,236.5,287.1,236.1L287.1,236.1L287.1,236.1z"/>
		<path d="M270.5,234.3c-0.1-0.1-0.3-0.1-0.4-0.2C270.2,234.2,270.3,234.2,270.5,234.3z"/>
		<path d="M282.9,236c-1.5-0.1-2.8-1-3.5-2.3c0,0-0.1,0-0.1,0l-0.1,2c-1.4-0.1-2.6-0.9-3.3-2l-0.7,0l0.1,2.5c1.9,0.5,4.1,1,6.6,0.9
			c0.4,0,0.8,0,1.3-0.1l-0.1-2.2L282.9,236z"/>
		<path d="M270,233.9C270,233.9,270,233.9,270,233.9C270,233.9,270,233.9,270,233.9C270,233.9,270,233.9,270,233.9z"/>
		<path d="M271.9,232.8L271.9,232.8c-1,0.5-1.6,0.9-1.8,1l2-0.1C272,233.5,271.9,233.1,271.9,232.8z"/>
		<path d="M269.9,234C269.9,234,269.9,234,269.9,234C269.9,234,269.9,234,269.9,234z"/>
		<polygon points="275.1,233.3 274.7,233.7 275.1,233.7 		"/>
		<path fill="#0A0A0A" d="M275.8,233.7c-0.1-0.1-0.2-0.3-0.2-0.5c-0.1,0-0.2,0-0.3-0.1l-0.2,0.2l0,0.4L275.8,233.7z"/>
		<path fill="#0A0A0A" d="M285.3,236.2l0-2.7c-0.1,0-0.3,0-0.4,0c-0.6,0.1-1.2,0.1-1.8,0.2l-0.1,1.2l0.1,2.2v0l0,0
			c1.5-0.1,2.8-0.5,4.1-0.8L285.3,236.2z"/>
		<path fill="#0A0A0A" d="M274.7,233.7l-1.8,1.5c-0.4-0.4-0.7-0.9-0.8-1.5l-2,0.1h0c0,0,0,0,0,0c0,0-0.1,0.1-0.1,0.1c0,0,0,0,0,0
			c0,0,0,0,0,0s0,0,0,0c0,0,0,0,0,0c0,0,0,0,0,0c0,0,0,0,0,0c0,0,0.1,0,0.1,0.1c0,0,0,0,0,0c0.1,0.1,0.2,0.1,0.4,0.2c0,0,0,0,0,0
			c0.1,0,0.1,0.1,0.2,0.1c0,0,0,0,0,0c0.1,0,0.2,0.1,0.2,0.1c0,0,0,0,0,0c0.2,0.1,0.4,0.2,0.7,0.3c0,0,0,0,0,0
			c0.1,0,0.2,0.1,0.3,0.1c0,0,0,0,0.1,0c0.1,0.1,0.3,0.1,0.4,0.2c0,0,0,0,0,0c0.3,0.1,0.6,0.2,0.9,0.4c0,0,0.1,0,0.1,0
			c0.1,0.1,0.3,0.1,0.4,0.1c0,0,0.1,0,0.1,0c0.2,0.1,0.3,0.1,0.5,0.2c0,0,0,0,0,0c0.2,0.1,0.4,0.1,0.6,0.2l0,0v0l-0.1-2.5
			L274.7,233.7z"/>
		<path fill="#3E2A16" d="M267.9,201.3l0.1-3.2l0.1-2.3l0-0.6l-5.7,9.9c-0.1,0.1-0.2,0.2-0.3,0.3c-0.7,0.7-1,1.7-0.6,2.4
			c0.1-0.2,0.2-0.3,0.4-0.5c0.1-0.1,0.2-0.2,0.3-0.2c0,0.3,0,0.7,0.2,1c0.1,0.2,0.2,0.3,0.3,0.5c0.4,0.6,1.1,1,1.8,0.9
			c-0.1-0.2-0.2-0.3-0.3-0.6c-0.1-0.2-0.1-0.4-0.2-0.6c-0.1-0.6,0.1-1.1,0.4-1.5c0.1,0.1,0.3,0.2,0.4,0.3c0.1,0.1,0.2,0.2,0.2,0.3
			c0.3-0.4,0.4-0.8,0.4-1.2c0,0,0.1,0,0.1,0c0,0-0.1-0.1-0.1-0.1c0-0.1-0.1-0.3-0.1-0.4l2.7-3.1l0-0.6L267.9,201.3z"/>
		<path fill="#EDB21F" d="M290.7,197.8c0.6,0.8,0.5,1.9,0,2.7c-0.1,0.2-0.2,0.3-0.3,0.4l0,0l-4.9,3.8c0.2,1.3,0.6,2.4,1.3,3.2
			c0.7,0.9,1.6,1.6,2.7,2c0.4-0.1,0.9-0.4,1.2-0.6c0.4-0.3,0.7-0.7,1-1.1c0.7,1.2,1.9,1.9,3.4,1.9c0.6,0,1.2-0.2,1.8-0.4l-0.3-1.7
			l-1.6-8.3c0,0,0,0-0.1,0l-1-6.6c-2.8,0.7-4.9,2.1-6.4,3.9C288.5,196.4,290,196.7,290.7,197.8z"/>
		<path fill="#3E2A16" d="M292.2,168.1c-0.7,0.1-1.3,0.4-1.9,0.9l-0.2,2.2c0,0.1,0.1,0.1,0.1,0.2c0.1-0.1,0.2-0.3,0.4-0.4
			c1.5-1.3,3.9-1.2,5.2,0.4l-1.7,1.5l0,0l-0.1,5.4l1.2-1.1l1.1-0.9c1.2-1.1,1.7-2.6,1.6-4.1c-0.1-0.9-0.5-1.8-1.1-2.6
			C295.6,168.3,293.8,167.8,292.2,168.1z"/>
		<path fill="#3E2A16" d="M270.3,171.3L270.3,171.3l-1.5-1.7c1.5-1.3,3.9-1.2,5.2,0.4c0.1,0.1,0.2,0.3,0.3,0.4
			c0.4-0.5,0.9-1,1.4-1.4l-0.7-0.8c-0.1-0.1-0.3-0.3-0.4-0.4c-0.7-0.6-1.6-1-2.4-1.1c-1.3-0.2-2.7,0.2-3.8,1.1h0
			c-1.5,1.3-2,3.3-1.4,5.1c0.2,0.6,0.5,1.1,0.9,1.6l0.9,1l0.9,1L270.3,171.3z"/>
		
			<ellipse transform="matrix(-0.9976 -6.875513e-002 6.875513e-002 -0.9976 563.138 378.3384)" fill="#032F33" cx="288.1" cy="179.5" rx="0.8" ry="0.2"/>
		<circle fill="#032F33" cx="286.6" cy="177.3" r="1.3"/>
		
			<ellipse transform="matrix(-6.878060e-002 0.9976 -0.9976 -6.878060e-002 467.9006 -80.5791)" fill="#032F33" cx="271.6" cy="178.1" rx="0.2" ry="0.8"/>
		<circle fill="#032F33" cx="273.3" cy="176.1" r="1.3"/>
		<path fill="#EDB21F" d="M300,229.1c-0.9,1.2-2.3,1.9-3.9,1.9c-0.8,0-1.5-0.2-2.1-0.5c-0.5-0.2-1-0.6-1.4-1
			c-0.2,0.2-0.4,0.4-0.7,0.5c-0.8,0.6-1.8,0.9-2.9,0.9c-1.4,0-2.7-0.6-3.6-1.6c-0.1,0.1-0.2,0.2-0.4,0.3c-0.5,0.5-1.2,0.8-1.9,1
			c0,0-0.1,0-0.1,0c0,0.1,0,0.1,0.1,0.2c0.5,1.2,1.2,2,2.1,2.4c0,0,0.1,0,0.1,0c0,0-0.1,0-0.1,0l0,2.7l1.7,0l0,0l0.5-1h3.4h0.6
			l0.3,0.2c4.1,0.1,7.9-1.7,10.3-4.7C301.3,230.3,300.6,229.8,300,229.1z"/>
		<path fill="#3E2A16" d="M268.1,234.1l-3.1-0.2c-0.2,0-0.3,0-0.5-0.1h-0.3l-3.2,2.3l0,0c-0.2,0.2-0.4,0.4-0.4,0.6
			c0,0.9,2,1.5,4.4,1.5c0.4,0,0.8,0,1.1-0.1l0.2-1.5l0.3-1.6l0.6,1.5l0.5,1.2c1-0.3,1.7-0.7,1.7-1.2c0-0.1,0-0.1,0-0.2l0,0l-0.8-1.7
			l0,0C268.5,234.7,268.3,234.4,268.1,234.1z M262.8,238.1c0,0-0.8-0.1-1.6-0.5l1-0.8l1.6-1.4l-0.6,1.7L262.8,238.1z"/>
		<path fill="#0A0A0A" d="M262.3,236.7l-1,0.8c0.8,0.4,1.6,0.5,1.6,0.5l0.4-1l0.6-1.7L262.3,236.7z"/>
		<path fill="#0A0A0A" d="M266.7,235.2l-0.3,1.6l-0.2,1.5l0,0c0,0,0.8,0,1.6-0.2l0,0l-0.5-1.2L266.7,235.2z"/>
		<path fill="#F0D3A5" d="M271,210.6c0.1,0.1,0.2,0.2,0.4,0.3c0.8,0.7,1.9,1.1,3.1,1.1c1.4,0,2.6-0.6,3.5-1.5
			c0.9,0.9,2.1,1.5,3.5,1.5c0.8,0,1.5-0.2,2.1-0.5c0.5-0.3,1-0.6,1.3-1c0.8,0.8,1.8,1.3,3,1.5c0.2,0,0.3,0,0.5,0
			c0.6,0,1.2-0.1,1.8-0.4c-1.8-0.4-3.3-1.3-4.4-2.5c-0.3-0.4-0.7-0.8-0.9-1.2c-0.6,1.3-1.9,2.1-3.4,2.1c-0.6,0-1.2-0.2-1.8-0.4
			c-0.5,0.4-1.2,0.6-1.7,0.4c0.2-0.1,0.3-0.3,0.4-0.5c0.1-0.1,0.1-0.2,0.2-0.3c-0.3,0.1-0.7,0.1-1,0c-0.1,0-0.3-0.1-0.4-0.1
			c0,0,0,0-0.1,0.1c-0.7,0.6-1.6,0.9-2.5,0.9c-1.5,0-2.8-0.9-3.5-2.1c-0.2,0.5-0.6,0.9-0.9,1.2c-0.7,0.6-1.6,0.9-2.5,0.9
			c-0.2,0-0.4,0-0.6-0.1l-0.6,1.9c0.1,0,0.1,0,0.2,0c0.3,0.1,0.7,0.1,1.1,0.1C268.9,212.1,270.1,211.6,271,210.6z"/>
		<path fill="#EDB21F" d="M270,209.2c0.4-0.3,0.7-0.7,0.9-1.2c0.6,1.3,1.9,2.1,3.5,2.1c1,0,1.8-0.4,2.5-0.9c0,0,0,0,0.1-0.1
			c0,0-0.1,0-0.1,0c-0.5-0.2-0.9-0.6-1.1-1.1c-0.1-0.2-0.1-0.3-0.1-0.5c0.2,0.1,0.4,0.2,0.6,0.2c0,0,0.1,0,0.1,0c0.2,0,0.3,0,0.5,0
			c0.5,0,0.9-0.2,1.2-0.4c0.1-0.1,0.1-0.1,0.2-0.2c0-0.1-0.1-0.1-0.1-0.1c-0.1-0.1-0.1-0.1-0.2-0.2c-0.1-0.1-0.2-0.1-0.3-0.2
			c0,0,0,0,0,0c0,0,0.1-0.1,0.1-0.1c0.2-0.1,0.3-0.2,0.5-0.3c0.2-0.1,0.3-0.1,0.5-0.1c0,0,0-0.1,0-0.1c0,0,0.1,0.1,0.1,0.1
			c0.1,0,0.3,0,0.4,0l4.3-5.1c0-0.2,0.1-0.4,0.1-0.6c0.1-0.3,0.2-0.7,0.3-1c1.4-3.8,4.9-6.6,9.1-7.9c-0.2-0.2-0.2-0.4-0.2-0.6
			c0-0.4,0.3-0.7,0.7-0.8l0,0c0.2-0.1,0.5-0.2,0.7-0.3c0.7-0.4,1.4-0.8,2-1.3l-2.5-2.9l0-0.8c1-0.4,2-1,2.9-1.7l-2.3-2.7
			c0.5-1,0.8-2.1,0.9-3.3l-1.2,1.1l0.1-5.4l0,0l1.7-1.5c-1.3-1.5-3.7-1.7-5.2-0.4c-0.1,0.1-0.3,0.2-0.4,0.4c0-0.1-0.1-0.1-0.1-0.2
			l0.2-2.2c0.6-0.4,1.2-0.7,1.9-0.9c1.6-0.3,3.4,0.2,4.5,1.5c0.7,0.8,1,1.7,1.1,2.6l4.5,3.3c2.4-3.3,1.6-7.8-1.7-10.2
			c-2-1.4-4.4-1.7-6.5-1c0,0.1,0.1,0.2,0.1,0.4c0,0.9-1.4,1.8-3.7,2.4c-0.1,0-0.1,0-0.2,0c-2,0.5-4.7,0.8-7.6,0.8
			c-3.1,0-6-0.4-8.1-1c-1.3-0.4-2.3-0.8-2.9-1.4c-0.3-0.3-0.5-0.6-0.5-0.9c0-0.1,0-0.2,0.1-0.3c-2.2-0.8-4.7-0.5-6.7,1
			c-3.3,2.4-4,6.9-1.7,10.2l3.8-2.7c-0.6-1.8-0.1-3.8,1.4-5.1h0c1.1-0.9,2.5-1.3,3.8-1.1c0.9,0.1,1.7,0.5,2.4,1.1
			c0.1,0.1,0.3,0.3,0.4,0.4l0.7,0.8c-0.5,0.4-1,0.9-1.4,1.4c-0.1-0.1-0.2-0.3-0.3-0.4c-1.3-1.5-3.7-1.7-5.2-0.4l1.5,1.7l0,0
			l-0.6,5.1l-0.9-1l-0.1,0c-0.1,1.2,0.1,2.4,0.4,3.4l-2.7,2.3c0.8,0.9,1.6,1.6,2.6,2.1l-0.1,0.9l-2.8,2.5c0.7,0.8,1.5,1.4,2.3,1.9
			c0,0,0,0,0,0c0.5,0,0.8,0.4,0.8,0.9c0,0.5-0.4,0.8-0.9,0.8c0,0,0,0-0.1,0l-0.1,5.1l0,0.6l-0.1,2.3l-0.1,3.2l0,0.7l0,0.6l-0.3,5.3
			l-0.1,0.3l-0.6,1.8c0.2,0,0.4,0.1,0.6,0.1C268.5,210.2,269.4,209.8,270,209.2z M288.1,179.3c0.4,0,0.8,0.2,0.8,0.3
			c0,0.1-0.4,0.2-0.8,0.2c-0.4,0-0.8-0.2-0.8-0.3C287.3,179.3,287.6,179.2,288.1,179.3z M286.7,176c0.7,0,1.2,0.7,1.2,1.4
			c0,0.7-0.7,1.2-1.4,1.2c-0.7,0-1.2-0.7-1.2-1.4C285.3,176.5,286,175.9,286.7,176z M279.3,184.4L279.3,184.4L279.3,184.4
			C279.3,184.4,279.3,184.4,279.3,184.4L279.3,184.4L279.3,184.4l-0.1,1.2c-0.1,0.9-0.5,1.7-1.2,2.1c-0.1,0-0.1,0.1-0.2,0.1
			l-0.2,1.3l-0.7,0l-0.1,0l0,0l0.1-0.8l-0.1,0l0,0l-0.1,0.8l-0.3,0l-0.6,0l0-1.3c-0.1,0-0.1-0.1-0.2-0.1c-0.6-0.5-0.9-1.3-0.9-2.2
			l0.1-1.1l0,0l0,0l0,0l0,0l0,0c0.1-1.4,1.2-2.5,2.4-2.4C278.4,181.7,279.4,182.9,279.3,184.4z M273.4,174.8c0.7,0,1.3,0.7,1.2,1.4
			c0,0.7-0.7,1.3-1.4,1.2c-0.7,0-1.3-0.7-1.2-1.4C272.1,175.3,272.7,174.7,273.4,174.8z M271.6,177.9c0.4,0,0.8,0.2,0.8,0.3
			c0,0.1-0.4,0.2-0.8,0.2s-0.8-0.2-0.8-0.3C270.8,177.9,271.1,177.8,271.6,177.9z"/>
		<path fill="#EDB21F" d="M283.9,206l-2.9,2.2l-0.7,0.6c-0.1,0.1-0.1,0.2-0.2,0.4c-0.2,0.2-0.3,0.4-0.5,0.6c0.5,0.3,1.1,0.4,1.8,0.4
			c1.5,0,2.8-0.9,3.4-2.1c-0.2-0.3-0.4-0.6-0.5-1C284.2,206.7,284,206.4,283.9,206z"/>
		<path fill="#F0D3A5" d="M291.7,208.2c-0.3,0.4-0.6,0.8-1,1.1c-0.4,0.3-0.8,0.5-1.2,0.6c0.6,0.2,1.2,0.4,1.9,0.5
			c1,0.1,2,0.1,3.2-0.1c0.8-0.1,1.6-0.2,2.3-0.3l-0.1-0.3c-0.5,0.3-1.1,0.4-1.8,0.4C293.6,210.2,292.3,209.4,291.7,208.2z"/>
		<path fill="#F0D3A5" d="M294.4,212.1c0.2,0,0.4,0,0.6,0c0.7,0,1.3-0.1,1.9-0.4c-0.5,0.1-1.1,0.2-1.7,0.3
			C294.9,212,294.7,212.1,294.4,212.1z"/>
		<path fill="#F0D3A5" d="M300.7,228c-0.4-0.3-0.7-0.8-1-1.3c-0.7,1.3-2,2.2-3.6,2.2c-1.5,0-2.8-0.8-3.5-2c-0.3,0.5-0.6,0.9-1,1.2
			c-0.7,0.5-1.5,0.9-2.5,0.9c-1,0-1.9-0.4-2.6-1c-0.4-0.3-0.7-0.8-1-1.3c-0.6,1.1-1.6,1.9-2.9,2.2c0.1,0.7,0.3,1.4,0.6,2
			c0,0,0.1,0,0.1,0c0.7-0.2,1.3-0.6,1.9-1c0.1-0.1,0.2-0.2,0.4-0.3c0.9,1,2.2,1.6,3.6,1.6c1.1,0,2-0.3,2.9-0.9
			c0.2-0.2,0.5-0.3,0.7-0.5c0.4,0.4,0.9,0.7,1.4,1c0.7,0.3,1.4,0.5,2.1,0.5c1.6,0,3-0.8,3.9-1.9c0.5,0.7,1.3,1.2,2.1,1.6
			c0.1,0,0.1,0,0.2,0.1c0.4-0.5,0.8-1.1,1.1-1.8c0,0,0,0,0,0C302.3,228.9,301.4,228.6,300.7,228z"/>
		<path fill="#F0D3A5" d="M278.2,226.7c-0.2,0.5-0.6,0.9-1,1.3c-0.7,0.6-1.6,1-2.6,1c-1.6,0-3-0.9-3.6-2.2c-0.2,0.5-0.6,0.9-1,1.3
			c-0.7,0.6-1.6,1-2.6,1c-1.2,0-2.2-0.5-2.9-1.3c-0.3-0.3-0.5-0.7-0.7-1.1c-0.4,0.8-0.9,1.4-1.6,1.8l-0.1,2.1
			c0.6-0.3,1.2-0.7,1.6-1.3c0.9,1.1,2.3,1.8,3.8,1.8c0.2,0,0.3,0,0.5,0c1.2-0.1,2.3-0.7,3.2-1.5c0.4,0.4,0.9,0.8,1.4,1
			c0.7,0.3,1.4,0.5,2.2,0.5c1.4,0,2.7-0.6,3.6-1.6c0.2,0.2,0.4,0.4,0.7,0.6c0.1,0.1,0.2,0.1,0.3,0.2c0.8,0.5,1.7,0.8,2.7,0.8
			c0,0,0,0,0.1,0c-0.3-0.6-0.5-1.3-0.6-2.1C279.9,228.7,278.8,227.9,278.2,226.7z"/>
		<path fill="#EDB21F" d="M304.7,220.6c0-0.1-0.1-0.2-0.1-0.3c-0.1-0.3-0.1-0.5-0.2-0.8c-1-3.4-3.4-6.2-6.6-7.7
			c-0.1-0.1-0.2-0.1-0.3-0.2c-0.2,0-0.3,0.1-0.5,0.1c-0.6,0.3-1.2,0.4-1.9,0.4c-0.2,0-0.4,0-0.6,0c-1.6,0.1-3,0-4.3-0.3
			c-0.6,0.2-1.2,0.4-1.8,0.4c-0.2,0-0.3,0-0.5,0c-1.2-0.1-2.2-0.7-3-1.5c-0.4,0.4-0.8,0.7-1.3,1c-0.6,0.3-1.4,0.5-2.1,0.5
			c-1.4,0-2.6-0.6-3.5-1.5c-0.9,0.9-2.1,1.5-3.5,1.5c-1.2,0-2.3-0.4-3.1-1.1c-0.1-0.1-0.2-0.2-0.4-0.3c-0.9,0.9-2.1,1.5-3.5,1.5
			c-0.4,0-0.7,0-1.1-0.1l-2.8,7.9c0,0,0,0,0,0l-0.5,1.6l-0.8,2.4l-0.4,6.4c-0.1,1.7,1.1,3.2,2.7,3.6c0.2,0,0.3,0.1,0.5,0.1l3.1,0.2
			c0.1,0.3,0.3,0.5,0.5,0.8l0,0l1.3-1.1c0,0,0,0,0.1,0c0,0,0,0,0,0c0,0,0,0,0,0h0c0.3-0.2,0.9-0.6,1.7-1l0.1,0c0,0.3,0.1,0.7,0.2,1
			c0.2,0.5,0.4,1,0.8,1.5l1.8-1.5l0.4-0.4l0.2-0.2c0.1,0,0.2,0,0.3,0.1c0.1,0.2,0.2,0.3,0.2,0.5c0.7,1.1,1.9,1.9,3.3,2l0.1-2
			c0,0,0.1,0,0.1,0c0.7,1.3,1.9,2.2,3.5,2.3l0.1-1.2l0.1-1.2c0.6,0,1.2-0.1,1.8-0.2c-0.1,0-0.1,0-0.2,0c-0.6,0-1.1-0.3-1.6-0.7
			c-0.5-0.4-0.9-1-1.2-1.7c0,0,0,0-0.1,0c-1,0-1.9-0.3-2.7-0.8c-0.1-0.1-0.2-0.1-0.3-0.2c-0.2-0.2-0.5-0.4-0.7-0.6
			c-0.9,1-2.2,1.6-3.6,1.6c-0.8,0-1.6-0.2-2.2-0.5c-0.5-0.3-1-0.6-1.4-1c-0.8,0.9-1.9,1.4-3.2,1.5c-0.2,0-0.3,0-0.5,0
			c-1.5,0-2.9-0.7-3.8-1.8c-0.4,0.5-1,0.9-1.6,1.3l0.1-2.1c0.7-0.4,1.3-1,1.6-1.8c0.2,0.4,0.4,0.8,0.7,1.1c0.7,0.8,1.8,1.3,2.9,1.3
			c1,0,1.9-0.4,2.6-1c0.4-0.3,0.7-0.8,1-1.3c0.7,1.3,2,2.2,3.6,2.2c1,0,1.9-0.4,2.6-1c0.4-0.3,0.7-0.8,1-1.3c0.6,1.2,1.7,2,3.1,2.2
			c-0.1-0.6-0.2-1.3-0.2-2c0-0.5,0-0.9,0-1.4c0-0.3,0.1-0.6,0.1-0.9l1.3,0.1c0,0.3-0.1,0.6-0.1,0.9c0,0.5,0,0.9,0,1.3
			c0,0.7,0.1,1.3,0.2,1.9c1.3-0.2,2.3-1.1,2.9-2.2c0.2,0.5,0.6,0.9,1,1.3c0.7,0.6,1.6,1,2.6,1c0.9,0,1.8-0.3,2.5-0.9
			c0.4-0.3,0.8-0.7,1-1.2c0.7,1.2,2,2,3.5,2c1.6,0,3-0.9,3.6-2.2c0.2,0.5,0.6,0.9,1,1.3c0.7,0.6,1.6,1,2.6,1c0,0,0,0,0,0
			c0.3-0.6,0.6-1.3,0.9-2.1c0.1-0.3,0.2-0.5,0.2-0.8c0.1-0.4,0.2-0.8,0.3-1.2C305,223.3,305,221.9,304.7,220.6z"/>
		<path fill="#3E2A16" d="M285.4,233.4C285.3,233.4,285.3,233.4,285.4,233.4c-0.9-0.4-1.6-1.2-2.2-2.4c0-0.1-0.1-0.1-0.1-0.2
			c-0.2-0.6-0.4-1.2-0.6-2c-0.1-0.6-0.2-1.3-0.2-1.9c0-0.4,0-0.9,0-1.3c0-0.3,0.1-0.6,0.1-0.9l-1.3-0.1c0,0.3-0.1,0.6-0.1,0.9
			c0,0.5,0,0.9,0,1.4c0,0.7,0.1,1.4,0.2,2c0.1,0.8,0.4,1.5,0.6,2.1c0.3,0.7,0.7,1.3,1.2,1.7c0.5,0.4,1,0.7,1.6,0.7
			c0.1,0,0.1,0,0.2,0C285,233.5,285.2,233.5,285.4,233.4C285.3,233.4,285.3,233.4,285.4,233.4z"/>
		<path fill="#3E2A16" d="M290.9,235.1h-3.4l-0.5,1l0,0l-0.8,1.7l0,0c0,0.1,0,0.1,0,0.2c0,0.5,0.7,0.9,1.7,1.2l0.5-1.2l0.6-1.5
			l0.3,1.6l0.2,1.5c0.4,0,0.7,0.1,1.1,0.1c2.4,0,4.4-0.7,4.4-1.5c0-0.2-0.1-0.4-0.4-0.6l0,0l-2.9-2.1l-0.3-0.2H290.9z M293.5,238
			l1,0.8c-0.8,0.4-1.6,0.5-1.6,0.5l-0.4-1l-0.6-1.7L293.5,238z"/>
		<path fill="#0A0A0A" d="M292.9,239.4c0,0,0.8-0.1,1.6-0.5l-1-0.8l-1.6-1.4l0.6,1.7L292.9,239.4z"/>
		<path fill="#0A0A0A" d="M289.1,236.5l-0.6,1.5l-0.5,1.2l0,0c0.8,0.3,1.6,0.2,1.6,0.2l0,0l-0.2-1.5L289.1,236.5z"/>
		<path fill="#FFFFFF" d="M276.8,188.1L276.8,188.1L276.8,188.1l-0.1,0.8l0,0l0.1,0l0.7,0l0.2-1.3c-0.3,0.2-0.6,0.2-1,0.2
			L276.8,188.1z"/>
		<path fill="#FFFFFF" d="M276.7,187.9c-0.4,0-0.7-0.2-1-0.4l0,1.3l0.6,0l0.3,0l0.1-0.8l0,0L276.7,187.9z"/>
		<path fill="#F0D3A5" d="M276.9,187.1l-0.1,0.9c0.4,0,0.7-0.1,1-0.2c0.1,0,0.1-0.1,0.2-0.1c0.6-0.4,1.1-1.2,1.2-2.1l0.1-1.1l0,0
			l0,0L276.9,187.1z"/>
		<path fill="#F0D3A5" d="M276.7,187.1l-2-3l0,0l0,0l-0.1,1.1c-0.1,0.9,0.3,1.7,0.9,2.2c0.1,0,0.1,0.1,0.2,0.1
			c0.3,0.2,0.6,0.3,1,0.4L276.7,187.1z"/>
		<path fill="#032F33" d="M274.8,184.1L274.8,184.1L274.8,184.1L274.8,184.1L274.8,184.1L274.8,184.1l2,3l-0.1,0.8l0,0.1l0,0l0,0
			l0.1,0l0,0l0,0l0-0.1l0.1-0.9l2.4-2.7l0,0l0,0c0,0,0,0,0,0l0,0l0,0c0.1-1.4-0.8-2.6-2.1-2.7C276,181.6,274.9,182.6,274.8,184.1z"
			/>
		<path fill="#3E2A16" d="M280.1,209.2c0.1-0.1,0.1-0.2,0.2-0.4l0.7-0.6l2.9-2.2l1.6-1.2l4.9-3.8l0,0c0.1-0.1,0.2-0.3,0.3-0.4
			c0.5-0.8,0.5-1.9,0-2.7c-0.7-1.1-2.2-1.4-3.3-0.8c0,0-0.1,0-0.1,0.1c-0.2,0.2-0.4,0.4-0.6,0.6l0,0l-3,3.5l-4.3,5.1
			c-0.1,0-0.3,0-0.4,0c0,0-0.1-0.1-0.1-0.1c0,0,0,0.1,0,0.1c-0.2,0-0.3,0.1-0.5,0.1c-0.2,0.1-0.4,0.2-0.5,0.3c0,0-0.1,0.1-0.1,0.1
			c0,0,0,0,0,0c0.1,0,0.2,0.1,0.3,0.2c0.1,0.1,0.2,0.1,0.2,0.2c0,0,0.1,0.1,0.1,0.1c-0.1,0.1-0.1,0.1-0.2,0.2
			c-0.3,0.2-0.8,0.4-1.2,0.4c-0.2,0-0.3,0-0.5,0c0,0-0.1,0-0.1,0c-0.2,0-0.4-0.1-0.6-0.2c0,0.2,0,0.3,0.1,0.5
			c0.2,0.5,0.6,0.9,1.1,1.1c0,0,0.1,0,0.1,0c0.1,0.1,0.3,0.1,0.4,0.1c0.4,0.1,0.7,0.1,1,0c-0.1,0.1-0.1,0.2-0.2,0.3
			c-0.1,0.2-0.3,0.3-0.4,0.5c0.6,0.2,1.2,0,1.7-0.4C279.8,209.6,280,209.4,280.1,209.2z"/>
		<path fill="#FDF9CE" d="M272,165.5c0.5,0.5,1.5,1,2.9,1.4c2.1,0.6,4.9,1,8.1,1c2.9,0,5.5-0.3,7.6-0.8c0.1,0,0.1,0,0.2,0
			c2.2-0.6,3.7-1.4,3.7-2.4c0-0.1,0-0.2-0.1-0.4c-0.3-0.7-1.2-1.3-2.7-1.8c0,0,0,0.1,0,0.1c0.1,0.4,0.1,0.7,0.1,1.1h0
			c0,1.2-3.9,2.2-8.7,2.2c-4.8,0-8.7-1-8.7-2.2h0c0-0.4,0-0.7,0.1-1.1c0,0,0-0.1,0-0.1c-1.5,0.5-2.5,1.1-2.7,1.8
			c0,0.1-0.1,0.2-0.1,0.3C271.5,164.9,271.7,165.2,272,165.5z"/>
		<path fill="#FDFBE1" d="M282.9,164.5c4.5,0,8.2-0.9,8.7-2c0,0,0-0.1,0-0.1c-0.6-3.6-3.9-6.4-8-6.6c0-0.3-0.3-0.6-0.6-0.6
			c-0.3,0-0.6,0.2-0.6,0.6c-4.1,0.3-7.4,3-8,6.6c0,0,0,0.1,0,0.1C274.8,163.7,278.5,164.5,282.9,164.5z"/>
		<path fill="#EF3F24" d="M282.9,164.5c-4.5,0-8.2-0.9-8.7-2c-0.1,0.4-0.1,0.7-0.1,1.1h0c0,1.2,3.9,2.2,8.7,2.2c4.8,0,8.7-1,8.7-2.2
			h0c0-0.4,0-0.7-0.1-1.1C291.1,163.7,287.4,164.5,282.9,164.5z"/>
	</g>
	<g display="none">
		<polygon display="inline" fill="#896044" points="501.4,301.2 461.6,370.2 541.3,370.2 		"/>
		<polygon display="inline" fill="#52B848" points="501.4,184.6 461.6,253.7 541.3,253.7 		"/>
		<polygon display="inline" fill="#52B848" points="501.4,223.5 461.6,292.5 541.3,292.5 		"/>
		<polygon display="inline" fill="#52B848" points="501.4,262.3 461.6,331.4 541.3,331.4 		"/>
	</g>
	<g display="none">
		<polygon display="inline" fill="#896044" points="832.4,116.5 792.5,185.6 872.3,185.6 		"/>
		<polygon display="inline" fill="#52B848" points="832.4,0 792.5,69 872.3,69 		"/>
		<polygon display="inline" fill="#52B848" points="832.4,38.8 792.5,107.9 872.3,107.9 		"/>
		<polygon display="inline" fill="#52B848" points="832.4,77.7 792.5,146.7 872.3,146.7 		"/>
	</g>
	<g display="none">
		<polygon display="inline" fill="#896044" points="1406.8,585.3 1366.9,654.4 1446.6,654.4 		"/>
		<polygon display="inline" fill="#52B848" points="1406.8,468.8 1366.9,537.9 1446.6,537.9 		"/>
		<polygon display="inline" fill="#52B848" points="1406.8,507.7 1366.9,576.7 1446.6,576.7 		"/>
		<polygon display="inline" fill="#52B848" points="1406.8,546.5 1366.9,615.6 1446.6,615.6 		"/>
	</g>
	<g display="none">
		<polygon display="inline" fill="#896044" points="1485.3,585.3 1445.5,654.4 1525.2,654.4 		"/>
		<polygon display="inline" fill="#52B848" points="1485.3,468.8 1445.5,537.9 1525.2,537.9 		"/>
		<polygon display="inline" fill="#52B848" points="1485.3,507.7 1445.5,576.7 1525.2,576.7 		"/>
		<polygon display="inline" fill="#52B848" points="1485.3,546.5 1445.5,615.6 1525.2,615.6 		"/>
	</g>
	<g display="none">
		<g display="inline">
			<g>
				<rect x="925.4" y="366.1" fill="#9E7A61" width="155.6" height="109"/>
				<g>
					<polygon fill="#896044" points="1140.8,273.7 1140.7,273.7 1081,366.2 1200.5,366.2 					"/>
				</g>
				<rect x="1080.9" y="366.2" fill="#896044" width="119.4" height="109"/>
				<polygon fill="#AA8972" points="1081,366.2 925.4,366.2 985.1,273.7 1140.7,273.7 				"/>
				<g>
					<defs>
						<polygon id="SVGID_3_" points="1081,366.2 925.4,366.2 985.1,273.7 1140.7,273.7 						"/>
					</defs>
					<clipPath id="SVGID_1_">
						<use xlink:href="#SVGID_3_"  overflow="visible"/>
					</clipPath>
					<g clip-path="url(#SVGID_1_)">
						<rect x="892" y="282.5" fill="#9E7A61" width="264.5" height="7.5"/>
						<rect x="892" y="300.2" fill="#9E7A61" width="264.5" height="7.5"/>
						<rect x="892" y="318" fill="#9E7A61" width="264.5" height="7.5"/>
						<rect x="892" y="335.7" fill="#9E7A61" width="264.5" height="7.5"/>
						<rect x="892" y="353.4" fill="#9E7A61" width="264.5" height="7.5"/>
					</g>
				</g>
			</g>
			<rect x="1126.8" y="403.5" fill="#6F4830" width="27.4" height="71.6"/>
		</g>
		<g display="inline">
			<g>
				<g>
					<rect x="1014.5" y="385.1" fill="#E7E7E7" width="14.3" height="14.3"/>
					<rect x="1031.6" y="385.1" fill="#E7E7E7" width="14.3" height="14.3"/>
				</g>
				<g>
					<rect x="1014.5" y="402.5" fill="#E7E7E7" width="14.3" height="14.3"/>
					<rect x="1031.6" y="402.5" fill="#E7E7E7" width="14.3" height="14.3"/>
				</g>
			</g>
			<g>
				<g>
					<rect x="967.8" y="385.1" fill="#E7E7E7" width="14.3" height="14.3"/>
					<rect x="985" y="385.1" fill="#E7E7E7" width="14.3" height="14.3"/>
				</g>
				<g>
					<rect x="967.8" y="402.5" fill="#E7E7E7" width="14.3" height="14.3"/>
					<rect x="985" y="402.5" fill="#E7E7E7" width="14.3" height="14.3"/>
				</g>
			</g>
		</g>
	</g>
	<g>
		<path fill="none" d="M701.7,470.7L701.7,470.7L701.7,470.7C701.6,470.7,701.7,470.7,701.7,470.7z"/>
		<rect x="642.5" y="404.4" width="7.7" height="7.7"/>
		<rect x="650.2" y="396.7" width="7.7" height="7.7"/>
		<polygon points="650.2,419.8 642.5,419.8 642.5,424 644.6,427.5 650.2,427.5 		"/>
		<polygon points="649.2,435.2 650.2,436.8 650.2,435.2 		"/>
		<path d="M657.9,442.9h-4l2.5,4.2c0.4-1.2,0.9-2.3,1.5-3.4V442.9z"/>
		<rect x="650.2" y="427.5" width="7.7" height="7.7"/>
		<rect x="650.2" y="412.1" width="7.7" height="7.7"/>
		<polygon points="665.6,435.2 665.8,435.2 667.5,427.5 665.6,427.5 		"/>
		<rect x="657.9" y="419.8" width="7.7" height="7.7"/>
		<path d="M657.9,435.2v7.7h0.5c1.7-2.6,4.2-4.7,7.1-6l0.1-0.6v-1H657.9z"/>
		<path d="M650.2,396.7v-5.9c-2.5-0.2-5.2,0.3-7.6,1.5l0,0c0,0,0,0-0.1,0v4.4H650.2z"/>
		<path d="M642.5,412.1h-6.8c0,0,0,0,0,0.1l1.3,2.7l2.9,4.9h2.5V412.1z"/>
		<path d="M634.3,404.4c-0.2,1.8,0,3.7,0.5,5.5v-5.5H634.3z"/>
		<path d="M642.5,404.4v-7.7h-5.3c-1.1,1.4-1.9,3.1-2.4,4.8v2.9H642.5z"/>
		<polygon points="657.9,412.1 665.6,412.1 665.6,405.5 665.1,404.4 657.9,404.4 		"/>
		<polygon points="668.5,419.8 668.7,418.7 668.7,418.7 668.7,412.1 665.6,412.1 665.6,419.8 		"/>
		<path d="M661,396.7c-0.9-1.2-2-2.2-3.1-3.1v3.1H661z"/>
		<path fill="#0A0A0A" d="M657.9,404.4h7.2l-2.6-5.3c-0.4-0.9-0.9-1.7-1.5-2.4h-3.1V404.4z"/>
		<polygon fill="#0A0A0A" points="668.7,412.1 668.7,411.9 665.6,405.5 665.6,412.1 		"/>
		<rect x="657.9" y="412.1" fill="#0A0A0A" width="7.7" height="7.7"/>
		<polygon fill="#0A0A0A" points="668.1,422.6 668.5,422.6 668.5,422.5 668.2,422 668.5,419.8 665.6,419.8 665.6,427.5 667.5,427.5 
			667.9,425.4 667.7,425.1 		"/>
		<polygon fill="#0A0A0A" points="650.2,427.5 644.6,427.5 649.2,435.2 650.2,435.2 		"/>
		<rect x="657.9" y="427.5" fill="#0A0A0A" width="7.7" height="7.7"/>
		<polygon fill="#0A0A0A" points="665.6,436.3 665.8,435.2 665.6,435.2 		"/>
		<polygon fill="#0A0A0A" points="657.9,435.2 650.2,435.2 650.2,436.8 653.9,442.9 657.9,442.9 		"/>
		<path fill="#0A0A0A" d="M642.5,392.3c-2.2,1.1-4,2.6-5.3,4.4h5.3V392.3z"/>
		<path fill="#0A0A0A" d="M634.8,401.5c-0.3,1-0.5,1.9-0.5,2.9h0.5V401.5z"/>
		<path fill="#0A0A0A" d="M642.5,404.4h-7.7v5.5c0.2,0.8,0.5,1.5,0.9,2.2h6.8V404.4z"/>
		<polygon fill="#0A0A0A" points="640,419.8 642.5,424 642.5,419.8 		"/>
		<path fill="#0A0A0A" d="M657.9,396.7v-3.1c-2.3-1.6-4.9-2.6-7.7-2.8v5.9H657.9z"/>
		<rect x="642.5" y="396.7" fill="#0A0A0A" width="7.7" height="7.7"/>
		<rect x="650.2" y="404.4" fill="#0A0A0A" width="7.7" height="7.7"/>
		<rect x="642.5" y="412.1" fill="#0A0A0A" width="7.7" height="7.7"/>
		<rect x="650.2" y="419.8" fill="#0A0A0A" width="7.7" height="7.7"/>
		<path fill="#0A0A0A" d="M657.9,443.7c0.2-0.3,0.3-0.5,0.5-0.8h-0.5V443.7z"/>
		<path fill="#3E2A16" d="M674,379.5l-1.6-1.6c1.1-1.1,3-1.1,4.2,0c0.4,0.4,0.6,0.8,0.7,1.3h3l-3.7-3.7c-0.2-0.2-0.3-0.3-0.5-0.4
			c-1.5-1-3.5-0.9-4.8,0.4c-1.5,1.5-1.5,3.9,0,5.3l1,1h1.7L674,379.5z"/>
		<path fill="#3E2A16" d="M691.4,379.2h3c0.1-0.5,0.4-0.9,0.7-1.3c1.1-1.1,3-1.1,4.2,0l-1.6,1.6l0.1,2.3h1.7l1-1
			c1.5-1.5,1.5-3.9,0-5.3c-1.3-1.3-3.3-1.4-4.8-0.4c-0.2,0.1-0.4,0.3-0.5,0.4L691.4,379.2z"/>
		<path fill="#F26A35" d="M689.2,413.1l-0.4-0.5l-1.3,1.9l0.1,0.7l0.5,3.5l0.2,1.2l0.5,3.2l0.3-0.5h0.9l3.1,5l2.3-3.7l0.8-1.2h0.6
			h0.3l0.4,0.6l-1.1-4.5l-0.9-3.5L695,413l0,0c-0.1-0.4-0.2-0.7-0.2-1.1c0-1.7,1.4-3.2,3.2-3.2c1.6,0,2.9,1.2,3.1,2.7l0.1,0l0.6,7.4
			l0.5,5.7l1.1-1.8h0.6l-0.1-0.7l0.1-0.1l-0.5-3.1h0V407c0-2.5-2-4.5-4.5-4.5h-0.2l0,0c0,0,0,0-0.1,0h-0.1c-0.2,0-0.5-0.1-0.6-0.3
			l1.1,2.4L689.2,413.1z"/>
		<path fill="#F26A35" d="M668.7,418.7L668.7,418.7l-0.2,1.1l-0.3,2.1l0.3,0.5l0,0.1h0.1l0.9,1.5l0.5-5.4l0.6-7.4l0.1,0
			c0.2-1.5,1.5-2.7,3.1-2.7c1.7,0,3.2,1.4,3.2,3.2c0,0.4-0.1,0.8-0.2,1.1l0,0l-0.5,2.2l-0.9,3.5l-0.6,2.4l-0.6,2.6l0.7-1.1h0.9
			l3.1,5l2.3-3.7l0.8-1.2h0.9l0.2,0.4l0.6-4.3l0.5-3.5l0.1-0.8l-1.3-1.9l-0.4,0.5l-9.7-8.2l1.4-3l11.6,6.9h0.1l11.5-7.2l0.1,0.2
			c0.6-0.3,1.1-0.6,1.6-1c0,0,0.1-0.1,0.1-0.1c0.1,0,0.2,0,0.3,0c2.9,0,5.3-2.4,5.3-5.3h-2.3c0-0.2,0.1-0.4,0.1-0.6
			c1.3-1,2.1-2.5,2.1-4.2h-2.2c0-0.2-0.1-0.3-0.1-0.5c1.4-1,2.3-2.5,2.3-4.3h-4.6c-0.1-0.1-0.1-0.1-0.2-0.2c1-1,1.6-2.3,1.6-3.8
			h-2.2h-1.7l-0.1-2.3l1.6-1.6c-1.1-1.1-3-1.1-4.2,0c-0.4,0.4-0.6,0.8-0.7,1.3h-3l3.7-3.7c0.2-0.2,0.3-0.3,0.5-0.4
			c-0.4-0.7-1-1.3-1.5-1.9c0.8-0.9,1.2-2.1,1.2-3.4h-8.7c-0.3,0-0.5,0-0.8,0s-0.6,0-0.8,0h-0.3c0,0,0,0,0,0
			c-3.6,0.3-6.8,2.3-8.7,5.3c0.2,0.1,0.4,0.3,0.5,0.4l3.7,3.7h-3c-0.1-0.5-0.4-0.9-0.7-1.3c-1.1-1.1-3-1.1-4.2,0l1.6,1.6l-0.1,2.3
			h-1.7h-2.2c0,1.5,0.6,2.8,1.6,3.8c-0.1,0.1-0.1,0.1-0.2,0.2h-4.6c0,1.8,0.9,3.4,2.3,4.3c0,0.2-0.1,0.3-0.1,0.5h-2.2
			c0,1.7,0.8,3.3,2.1,4.2c0,0.2,0.1,0.4,0.1,0.6h-2.3c0,2.9,2.4,5.3,5.3,5.3c0.1,0,0.2,0,0.3,0c0,0,0.1,0.1,0.1,0.1
			c0.5,0.4,1.1,0.8,1.7,1c-0.2,0.3-0.5,0.5-0.9,0.6h-0.1c0,0,0,0-0.1,0l0,0c-2.5,0-4.5,2-4.5,4.5v4.9v0.2V418.7z M695.7,389.9
			c0.5,0,1,0.1,1,0.3c0,0.1-0.4,0.3-1,0.3c-0.5,0-1-0.1-1-0.3C694.7,390,695.1,389.9,695.7,389.9z M693.7,386.2
			c0.8,0,1.4,0.6,1.4,1.4s-0.6,1.4-1.4,1.4c-0.8,0-1.4-0.6-1.4-1.4S692.9,386.2,693.7,386.2z M683,390.6L683,390.6L683,390.6
			c0.4-1.3,1.5-2.1,2.8-2.1c1.3,0,2.5,0.9,2.8,2.1c2,0.2,3.6,1.9,3.6,3.9c0,2.1-1.7,3.9-3.8,3.9l-0.6,7.5H686v-7.5h-0.2v7.5h-1.9
			l-0.6-7.5c-2.1-0.1-3.8-1.8-3.8-3.9C679.4,392.5,681,390.8,683,390.6z M678,386.2c0.8,0,1.4,0.6,1.4,1.4s-0.6,1.4-1.4,1.4
			s-1.4-0.6-1.4-1.4S677.2,386.2,678,386.2z M676.1,389.9c0.5,0,1,0.1,1,0.3c0,0.1-0.4,0.3-1,0.3s-1-0.1-1-0.3
			C675.1,390,675.5,389.9,676.1,389.9z"/>
		<ellipse fill="#032F33" cx="676.1" cy="390.1" rx="1" ry="0.3"/>
		<ellipse fill="#032F33" cx="695.7" cy="390.1" rx="1" ry="0.3"/>
		<circle fill="#032F33" cx="678" cy="387.6" r="1.4"/>
		<circle fill="#032F33" cx="693.7" cy="387.6" r="1.4"/>
		<path fill="#FFFFFF" d="M683.2,398.5l0.6,7.5h1.9v-7.5h-2.5C683.3,398.5,683.2,398.5,683.2,398.5z"/>
		<path fill="#FFFFFF" d="M686,398.5v7.5h1.9l0.6-7.5c0,0-0.1,0-0.1,0H686z"/>
		<path fill="#F0D3A5" d="M683.2,398.5c0,0,0.1,0,0.1,0h2.5h0.2h2.5c0,0,0.1,0,0.1,0c2.1-0.1,3.8-1.8,3.8-3.9c0-2.1-1.6-3.8-3.6-3.9
			c0,0,0,0-0.1,0l-2.4,4.2v3.6h-0.7v-3.6l-2.5-4.3c-2,0.2-3.6,1.9-3.6,3.9C679.4,396.7,681.1,398.4,683.2,398.5z"/>
		<path fill="#032F33" d="M685.5,398.5h0.7v-3.6l2.4-4.2c0,0,0,0,0.1,0c-0.4-1.2-1.5-2.1-2.8-2.1c-1.3,0-2.4,0.9-2.8,2.1H683l0,0.1
			l2.5,4.3V398.5z"/>
		<path fill="#3E2A16" d="M716,474.9L716,474.9l-6.3-4.6h-2.2c-0.9,0.3-1.8,0.5-2.8,0.5l-3-0.1l0,0.1c0,0,0,0,0,0s0,0-0.1,0
			l-2.2,4.9l0,0c0,0.1-0.1,0.3-0.1,0.4c0,1,1.3,1.8,3.4,2.4l0.9-2.5l1.2-3l0.5,3.2l0.5,2.9c0.7,0.1,1.4,0.1,2.2,0.1
			c4.8,0,8.7-1.4,8.7-3C716.7,475.6,716.4,475.2,716,474.9z M712.4,478.6l-0.8-2l-1.3-3.4l3.1,2.7l1.9,1.6
			C714,478.4,712.4,478.6,712.4,478.6z"/>
		<path fill="#0A0A0A" d="M710.4,473.3l1.3,3.4l0.8,2c0,0,1.5-0.3,3-1.1l-1.9-1.6L710.4,473.3z"/>
		<path fill="#0A0A0A" d="M704.8,473l-1.2,3l-0.9,2.5l0,0.1c1.6,0.5,3.1,0.5,3.1,0.5l0,0l-0.5-2.9L704.8,473z"/>
		<path fill="#3E2A16" d="M671.2,471.4c-0.1,0-0.1-0.1-0.2-0.1c0,0,0,0-0.1,0v0c-0.5-0.3-0.8-0.5-0.8-0.5s0,0,0.1-0.1l-2.5,0.1
			c-1,0-2-0.1-2.8-0.5H663l-6.3,4.6l0,0c-0.5,0.4-0.7,0.8-0.7,1.2c0,1.7,3.9,3,8.7,3c0.8,0,1.5,0,2.2-0.1l0.5-2.9l0.5-3.2l1.2,3
			l0.9,2.5c2-0.6,3.4-1.4,3.4-2.4c0-0.1,0-0.3-0.1-0.4l0,0l-1.9-4.3c0,0,0,0,0,0C671.2,471.4,671.2,471.4,671.2,471.4z M660.2,478.6
			c0,0-1.5-0.3-3-1.1l1.9-1.6l3.1-2.7l-1.3,3.4L660.2,478.6z"/>
		<path fill="#0A0A0A" d="M659.1,475.9l-1.9,1.6c1.5,0.8,3,1.1,3,1.1l0.8-2l1.3-3.4L659.1,475.9z"/>
		<path fill="#0A0A0A" d="M667.8,473l-0.5,3.2l-0.5,2.9l0,0c0,0,1.6,0,3.1-0.5l0-0.1L669,476L667.8,473z"/>
		<path fill="#F26A35" d="M670.2,470.6c0.1,0,0.1-0.1,0.3-0.2h0c0,0,0,0,0,0c0,0,0.1-0.1,0.1-0.1c0,0,0.1,0,0.1-0.1
			c0,0,0.1-0.1,0.1-0.1c0,0,0,0,0,0v0c0.3-0.2,0.6-0.4,1-0.6c1-0.5,2.3-1.2,3.9-1.9c-0.1,0-0.2,0-0.2-0.1c2.1-0.6,3.7-3.7,3.7-7.5
			c0-0.3,0-0.6,0-0.9h1.4c0,0.3,0,0.6,0,0.9c0,0.6,0,1.1-0.1,1.7c-0.4,3.4-2.2,5.9-4.3,5.9c-0.1,0-0.2,0-0.3,0v2
			c0.9,0,1.8-0.2,2.6-0.7c1-0.5,1.7-1.4,2.2-2.4v3c2.1,0,3.9-1.2,4.8-3v3c0.2,0,0.5,0,0.7-0.1c1.8-0.2,3.3-1.4,4.1-3v3
			c1.4,0,2.7-0.6,3.6-1.5c0.2-0.2,0.4-0.4,0.5-0.6c-2.1-0.6-3.7-3.7-3.7-7.5c0-0.3,0-0.6,0-0.9h1.4c0,0.3,0,0.6,0,0.9
			c0,3.8,1.6,6.9,3.7,7.5c0,0-0.1,0-0.1,0c0.2,0.1,0.5,0.2,0.7,0.3c0,0,0,0,0.1,0c0.2,0.1,0.3,0.1,0.5,0.2c0,0,0.1,0,0.1,0.1
			c0.1,0.1,0.3,0.1,0.4,0.2c0.1,0,0.1,0,0.2,0.1c0.1,0.1,0.2,0.1,0.4,0.2c0.1,0,0.1,0.1,0.2,0.1c0.1,0.1,0.2,0.1,0.3,0.2
			c0.1,0,0.1,0.1,0.2,0.1c0.1,0,0.2,0.1,0.3,0.1c0.1,0,0.1,0.1,0.2,0.1c0.1,0,0.2,0.1,0.2,0.1c0.1,0,0.1,0.1,0.2,0.1
			c0.1,0,0.1,0.1,0.2,0.1c0.1,0,0.1,0.1,0.2,0.1c0.1,0,0.1,0.1,0.2,0.1c0,0,0.1,0.1,0.1,0.1c0,0,0,0,0.1,0c0,0,0.1,0,0.1,0.1
			c0,0,0.1,0,0.1,0.1c0.1,0,0.1,0.1,0.2,0.1c0,0,0.1,0,0.1,0.1c0,0,0.1,0.1,0.1,0.1c0,0,0.1,0,0.1,0.1c0,0,0.1,0.1,0.1,0.1
			c0,0,0,0,0,0h0c0.1,0.1,0.2,0.1,0.2,0.2l0.1,0l3,0.1c1,0,2-0.1,2.8-0.5c3.3-1.2,5.5-4.8,4.7-8.5l-3.9-18.5l-4.6,7.4l-3.6-5.7
			l-1.7,2.8l-1.8,2.9l-3.6-5.7l-3.6,5.7l0,0l-3.5-5.6l-3.6,5.7l-3.6-5.7l-3.6,5.7l-1.2-1.9l-2.4-3.8l-3.6,5.7l-3.7-5.8l0.6-3
			l3.1,4.9l2.3-3.7l0.8-1.2h0.9l3.1,5l2.3-3.7l0.8-1.2h0.9l3.1,5l2.3-3.7l0.8-1.2h0.3h0.6l3.1,5l2.3-3.7l0.8-1.2h0.9l3.1,5l2.3-3.7
			l0.8-1.2h0.9l3.1,5l3.1-5h1.2l-0.3-1.4l0.1-0.2l-0.4-2.2h-0.3l-3-14.2l0.2,1.3l-1.8,2.9l0.2,2c0.1,0.2,0.2,0.3,0.3,0.5
			c0.6,1.3,0.2,2.8-0.7,3.5c0-0.3-0.1-0.6-0.2-0.9c-0.1-0.2-0.2-0.3-0.2-0.5c-0.2,0.4-0.5,0.9-0.8,1.2c-0.2,0.2-0.4,0.4-0.6,0.5
			c-1,0.6-2.1,0.6-2.9,0.2c0.3-0.1,0.5-0.3,0.7-0.5c0.2-0.2,0.4-0.5,0.6-0.7c0.4-0.7,0.6-1.5,0.4-2.2c-0.2,0-0.5,0.1-0.7,0.2
			c-0.2,0.1-0.4,0.2-0.5,0.3c-0.1-0.7,0-1.3,0.3-1.8c0,0-0.1-0.1-0.1-0.1c0.1,0,0.1-0.1,0.2-0.1c0.1-0.1,0.2-0.3,0.3-0.4l-2-3.2
			l-0.4,0.6l-3.2,5.1l-1.3-2.1l-2.2-3.6l-0.3,0.5l0.7,4.6c0,0.2,0.1,0.4,0.1,0.6c0,0.3,0,0.5-0.1,0.8l-2.6,5.5l-1.2,2.6
			c0,0-0.1,0-0.1,0s-0.1,0-0.1,0l-1.2-2.6l-2.5-5.3c-0.1-0.3-0.1-0.6-0.1-0.9c0-0.3,0-0.6,0.1-0.9l0.6-4.5l-0.2-0.4l-2.3,3.7l-1.3,2
			L676,427l-0.8-1.2l-2.1,3.3c0.1,0.1,0.1,0.2,0.2,0.3c0.1,0,0.1,0.1,0.2,0.1c0,0-0.1,0-0.1,0.1c0.3,0.5,0.4,1.2,0.3,1.8
			c-0.2-0.1-0.3-0.2-0.5-0.3c-0.2-0.1-0.4-0.1-0.7-0.2c-0.1,0.7,0,1.5,0.4,2.2c0.2,0.2,0.3,0.5,0.6,0.7c0.2,0.2,0.5,0.4,0.7,0.5
			c-0.8,0.5-1.9,0.4-2.9-0.2c-0.2-0.1-0.4-0.3-0.6-0.5c-0.4-0.4-0.7-0.8-0.8-1.2c-0.1,0.1-0.2,0.3-0.2,0.5c-0.1,0.3-0.2,0.6-0.2,0.9
			c-0.9-0.7-1.2-2.2-0.7-3.5c0.1-0.2,0.2-0.4,0.3-0.5l0.2-2.2l-1.4-2.2l-0.5,2.1l-1.6,7.7l-0.2,1l-0.1,0.6c-2.9,1.3-5.3,3.4-7.1,6
			c-0.2,0.2-0.3,0.5-0.5,0.8c-0.6,1.1-1.1,2.2-1.5,3.4c-0.5,1.7-0.8,3.4-0.8,5.2c0,3.3,1,6.4,2.6,9c0.3-1.5,1.4-2.7,2.8-3.1
			l-0.7,3.5c-0.8,3.8,1.4,7.3,4.7,8.5c0.9,0.3,1.8,0.5,2.8,0.5L670.2,470.6z"/>
		<polygon fill="#F0D3A5" points="703.6,446.7 700.5,441.7 699.6,441.7 698.8,443 696.5,446.7 693.4,441.7 692.5,441.7 691.7,443 
			689.4,446.7 686.3,441.7 685.7,441.7 685.4,441.7 684.6,443 682.3,446.7 679.2,441.7 678.3,441.7 677.5,443 675.2,446.7 
			672.1,441.7 671.2,441.7 670.4,443 668,446.7 665,441.8 664.4,444.7 668,450.6 671.6,444.9 674,448.7 675.2,450.6 678.7,444.9 
			682.3,450.6 685.8,444.9 689.4,450.6 689.4,450.6 693,444.9 696.5,450.6 698.3,447.7 700.1,444.9 703.6,450.6 708.3,443.2 
			708.4,443 708.1,441.7 707.9,441.7 706.7,441.7 		"/>
		<path d="M701.7,470.7C701.7,470.7,701.6,470.7,701.7,470.7c-0.2-0.1-0.2-0.2-0.3-0.2H694v3.9C698.3,473,701.2,471.1,701.7,470.7
			C701.7,470.7,701.7,470.7,701.7,470.7C701.7,470.7,701.7,470.7,701.7,470.7z"/>
		<path d="M671.3,471.4c0,0,0.1,0.1,0.1,0.1C671.4,471.5,671.3,471.5,671.3,471.4C671.3,471.4,671.3,471.4,671.3,471.4z"/>
		<path d="M690.4,469.8v-3c-0.7,1.6-2.3,2.7-4.1,3v0.8h7.7v-2.2C693.1,469.2,691.8,469.8,690.4,469.8z"/>
		<path d="M696.6,468c-0.2-0.1-0.5-0.2-0.7-0.3l0,0C696.1,467.8,696.4,467.9,696.6,468z"/>
		<path d="M700.5,469.9C700.4,469.9,700.4,469.9,700.5,469.9c0,0,0,0,0.1,0.1C700.5,470,700.5,470,700.5,469.9z"/>
		<path d="M678.6,470.5v4.1c2.2,0.6,4.7,1.1,7.3,1.1c0.1,0,0.3,0,0.4,0v-5.2H678.6z"/>
		<path d="M676.1,469.8v-2c-0.1,0-0.1,0-0.2,0c-1.6,0.6-2.9,1.3-3.9,1.9c-0.4,0.2-0.7,0.4-1,0.6v0.3h7.7v-1.4
			C677.9,469.5,677,469.8,676.1,469.8z"/>
		<path d="M670.2,470.6c-0.1,0-0.1,0.1-0.1,0.1s0.3,0.2,0.8,0.5v-0.8h-0.4C670.4,470.5,670.3,470.6,670.2,470.6z"/>
		<path fill="#0A0A0A" d="M701.3,470.4c0,0-0.1-0.1-0.1-0.1c0,0-0.1,0-0.1-0.1c0,0-0.1-0.1-0.1-0.1c0,0-0.1,0-0.1-0.1
			c-0.1,0-0.1-0.1-0.2-0.1c0,0-0.1,0-0.1-0.1c-0.1,0-0.1-0.1-0.2-0.1c0,0-0.1-0.1-0.1-0.1c-0.1,0-0.1-0.1-0.2-0.1
			c-0.1,0-0.1-0.1-0.2-0.1c-0.1,0-0.1-0.1-0.2-0.1c-0.1,0-0.1-0.1-0.2-0.1c-0.1,0-0.2-0.1-0.2-0.1c-0.1,0-0.1-0.1-0.2-0.1
			c-0.1,0-0.2-0.1-0.3-0.1c-0.1,0-0.1-0.1-0.2-0.1c-0.1,0-0.2-0.1-0.3-0.2c-0.1,0-0.1-0.1-0.2-0.1c-0.1-0.1-0.2-0.1-0.4-0.2
			c-0.1,0-0.1,0-0.2-0.1c-0.1-0.1-0.3-0.1-0.4-0.2c0,0-0.1,0-0.1-0.1c-0.2-0.1-0.3-0.1-0.5-0.2c0,0,0,0-0.1,0
			c-0.2-0.1-0.5-0.2-0.7-0.3c-0.2,0-0.4,0.1-0.6,0.1c-0.2,0-0.5,0-0.7-0.1c-0.2,0.2-0.3,0.4-0.5,0.6v2.2L701.3,470.4L701.3,470.4
			C701.3,470.5,701.3,470.5,701.3,470.4z"/>
		<path fill="#0A0A0A" d="M686.3,470.5v5.2v0c0.1,0,0.1,0,0.2,0c0.2,0,0.5,0,0.7,0c0.1,0,0.2,0,0.2,0c0.3,0,0.6,0,0.9-0.1
			c0,0,0.1,0,0.1,0c0.3,0,0.5-0.1,0.8-0.1c0.1,0,0.2,0,0.3,0c0.2,0,0.4-0.1,0.7-0.1c0.1,0,0.2,0,0.2,0c0.6-0.1,1.2-0.2,1.7-0.4
			c0.1,0,0.1,0,0.2-0.1c0.2-0.1,0.4-0.1,0.6-0.2c0.1,0,0.1,0,0.2-0.1c0.2-0.1,0.5-0.1,0.7-0.2c0,0,0.1,0,0.1,0v0v-3.9H686.3z"/>
		<path fill="#0A0A0A" d="M670.9,470.2C670.9,470.2,670.9,470.2,670.9,470.2c-0.1,0.1-0.1,0.1-0.2,0.1c0,0-0.1,0-0.1,0.1
			c0,0-0.1,0.1-0.1,0.1c0,0,0,0,0,0h0h0.4V470.2L670.9,470.2z"/>
		<path fill="#0A0A0A" d="M685.6,469.8v-3c-0.8,1.8-2.7,3-4.8,3v-3c-0.5,1-1.3,1.8-2.2,2.4v1.4h7.7v-0.8
			C686.1,469.7,685.9,469.8,685.6,469.8z"/>
		<path fill="#0A0A0A" d="M670.9,470.5v0.8v0c0,0,0,0,0.1,0c0,0,0.1,0.1,0.2,0.1c0,0,0.1,0,0.1,0.1c0.1,0,0.1,0.1,0.2,0.1
			c0,0,0.1,0.1,0.1,0.1c0.1,0,0.1,0.1,0.2,0.1c0,0,0.1,0.1,0.2,0.1c0.1,0,0.1,0.1,0.2,0.1c0.1,0,0.1,0.1,0.2,0.1
			c0.1,0,0.2,0.1,0.2,0.1c0.1,0,0.1,0.1,0.2,0.1c0.1,0,0.2,0.1,0.2,0.1c0.1,0,0.1,0.1,0.2,0.1c0.1,0,0.2,0.1,0.3,0.1
			c0.1,0,0.1,0.1,0.2,0.1c0.1,0,0.2,0.1,0.3,0.1c0.1,0,0.1,0.1,0.2,0.1c0.1,0,0.2,0.1,0.3,0.1c0.1,0,0.1,0.1,0.2,0.1
			c0.1,0,0.2,0.1,0.3,0.1c0.1,0,0.1,0.1,0.2,0.1c0.1,0,0.2,0.1,0.4,0.1c0.1,0,0.1,0.1,0.2,0.1c0.1,0,0.2,0.1,0.4,0.1
			c0.1,0,0.1,0.1,0.2,0.1c0.1,0,0.3,0.1,0.4,0.1c0.1,0,0.1,0.1,0.2,0.1c0.1,0,0.3,0.1,0.4,0.1c0.1,0,0.2,0.1,0.2,0.1
			c0.1,0,0.3,0.1,0.4,0.1c0.1,0,0.2,0.1,0.2,0.1c0.1,0,0.3,0.1,0.4,0.1c0,0,0.1,0,0.1,0v0v-4.1H670.9z"/>
		<polygon fill="#F0D3A5" points="668.6,422.6 668.5,422.6 668.1,422.6 667.7,425.1 667.9,425.4 669.3,427.6 669.6,424.1 		"/>
		<path fill="#F0D3A5" d="M682.9,422.6H682l-0.8,1.2l-2.3,3.7l-3.1-5h-0.9l-0.7,1.1l0,0.2l-1.2,4.9c0.1,0.1,0.2,0.2,0.3,0.3l2.1-3.3
			l0.8,1.2l2.8,4.5l1.3-2l2.3-3.7l0.2,0.4l0.5-3.2L682.9,422.6z"/>
		<polygon fill="#F0D3A5" points="702.2,424.4 702.5,427.8 704.3,424.9 704.1,423.6 703.9,422.6 703.9,422.6 703.3,422.6 		"/>
		<path fill="#F0D3A5" d="M697.5,423.3l-0.4-0.6h-0.3h-0.6l-0.8,1.2l-2.3,3.7l-3.1-5h-0.9l-0.3,0.5l0.3,1.9l0.2,1.3l0.3-0.5l2.2,3.6
			l1.3,2.1l3.2-5.1l0.4-0.6l2,3.2c0.1-0.1,0.1-0.1,0.2-0.2L697.5,423.3z"/>
		<path fill="#3E2A16" d="M676.4,467.8c2.1,0,3.9-2.5,4.3-5.9c0.1-0.5,0.1-1.1,0.1-1.7c0-0.3,0-0.6,0-0.9h-1.4c0,0.3,0,0.6,0,0.9
			c0,3.8-1.6,6.9-3.7,7.5c0.1,0,0.2,0,0.2,0.1c0.1,0,0.1,0,0.2,0C676.2,467.8,676.3,467.8,676.4,467.8z"/>
		<path fill="#3E2A16" d="M695.9,467.7L695.9,467.7C695.9,467.7,696,467.7,695.9,467.7c-2-0.6-3.6-3.7-3.6-7.5c0-0.3,0-0.6,0-0.9
			h-1.4c0,0.3,0,0.6,0,0.9c0,3.8,1.6,6.9,3.7,7.5c0.2,0.1,0.5,0.1,0.7,0.1C695.5,467.8,695.7,467.8,695.9,467.7z"/>
		<path fill="#3E2A16" d="M674.1,423.9l0-0.2l0.6-2.6l0.6-2.4l0.9-3.5l0.5-2.2l0,0c0.1-0.4,0.2-0.7,0.2-1.1c0-1.7-1.4-3.2-3.2-3.2
			c-1.6,0-2.9,1.2-3.1,2.7l-0.1,0l-0.6,7.4l-0.5,5.4l-0.3,3.4l-0.2,2.2c-0.1,0.2-0.2,0.3-0.3,0.5c-0.6,1.3-0.2,2.8,0.7,3.5
			c0-0.3,0.1-0.6,0.2-0.9c0.1-0.2,0.2-0.3,0.2-0.5c0.2,0.4,0.5,0.9,0.8,1.2c0.2,0.2,0.4,0.4,0.6,0.5c1,0.6,2.1,0.6,2.9,0.2
			c-0.3-0.1-0.5-0.3-0.7-0.5c-0.2-0.2-0.4-0.5-0.6-0.7c-0.4-0.7-0.6-1.5-0.4-2.2c0.2,0,0.5,0.1,0.7,0.2c0.2,0.1,0.4,0.2,0.5,0.3
			c0.1-0.7,0-1.3-0.3-1.8c0,0,0.1-0.1,0.1-0.1c-0.1,0-0.1-0.1-0.2-0.1c-0.1-0.1-0.1-0.2-0.2-0.3c-0.1-0.1-0.2-0.2-0.3-0.3
			L674.1,423.9z"/>
		<path fill="#3E2A16" d="M701.7,418.7l-0.6-7.4l-0.1,0c-0.2-1.5-1.5-2.7-3.1-2.7c-1.7,0-3.2,1.4-3.2,3.2c0,0.4,0.1,0.8,0.2,1.1l0,0
			l0.5,2.2l0.9,3.5l1.1,4.5l1.3,5.6c-0.1,0.1-0.1,0.1-0.2,0.2c-0.1,0.1-0.2,0.2-0.3,0.4c-0.1,0-0.1,0.1-0.2,0.1c0,0,0.1,0,0.1,0.1
			c-0.3,0.5-0.4,1.2-0.3,1.8c0.2-0.1,0.3-0.2,0.5-0.3c0.2-0.1,0.4-0.1,0.7-0.2c0.1,0.7,0,1.5-0.4,2.2c-0.2,0.2-0.3,0.5-0.6,0.7
			c-0.2,0.2-0.5,0.4-0.7,0.5c0.8,0.5,1.9,0.4,2.9-0.2c0.2-0.1,0.4-0.3,0.6-0.5c0.4-0.4,0.7-0.8,0.8-1.2c0.1,0.1,0.2,0.3,0.2,0.5
			c0.1,0.3,0.2,0.6,0.2,0.9c0.9-0.7,1.2-2.2,0.7-3.5c-0.1-0.2-0.2-0.4-0.3-0.5l-0.2-2l-0.3-3.4L701.7,418.7z"/>
		<polygon fill="#2B3C90" points="686,408.9 685.9,408.9 685.9,408.9 		"/>
		<path fill="#2B3C90" d="M688.8,423.1l-0.5-3.2l-0.2-1.2l-0.5-3.5l-0.1-0.7l1.3-1.9l-2.9-3.7l-2.9,3.7l1.3,1.9l-0.1,0.8l-0.5,3.5
			l-0.6,4.3l-0.5,3.2l-0.6,4.5c-0.1,0.3-0.1,0.6-0.1,0.9c0,0.3,0,0.6,0.1,0.9l2.5,5.3l1.2,2.6c0,0,0.1,0,0.1,0s0.1,0,0.1,0l1.2-2.6
			l2.6-5.5c0.1-0.2,0.1-0.5,0.1-0.8c0-0.2,0-0.4-0.1-0.6l-0.7-4.6L689,425L688.8,423.1z"/>
		<polygon fill="#F2F2F2" points="685.9,408.9 674.3,402 672.9,404.9 682.7,413.1 683.1,412.5 685.9,408.9 		"/>
		<polygon fill="#F2F2F2" points="686,408.9 685.9,408.9 688.8,412.5 689.2,413.1 698.8,404.6 697.7,402.2 697.6,401.9 697.5,401.7 
					"/>
	</g>
	<g>
		<g>
			<polygon fill-rule="evenodd" clip-rule="evenodd" fill="#D2BF99" points="139.6,525.5 156.3,488.8 139.6,500.3 136.6,459.4 
				123.3,497.6 124.9,449 114,469.5 111.1,440 96,464.6 76.9,431 79.6,478.5 41.1,441.7 41.1,477.6 18.1,466 22.2,498.9 7.7,488.8 
				21.4,530.2 			"/>
			<polygon fill-rule="evenodd" clip-rule="evenodd" fill="#D2BF99" points="127.1,523.4 146.7,474.4 127.1,498.2 124.4,457.3 
				112.6,495.4 114.1,446.9 104.4,467.4 101.9,437.9 88.5,462.5 71.7,428.9 71,462.2 52.8,439.8 39.9,475.5 31.5,457.7 23.2,496.8 
				10.5,486.7 22.5,528 			"/>
		</g>
		<g>
			<g>
				<rect x="0" y="506.2" fill-rule="evenodd" clip-rule="evenodd" fill="#A6976B" width="163.1" height="13.4"/>
				<rect x="0" y="533" fill-rule="evenodd" clip-rule="evenodd" fill="#A6976B" width="163.1" height="13.4"/>
				<rect x="0" y="533" fill-rule="evenodd" clip-rule="evenodd" fill="#C4B690" width="163.1" height="4.1"/>
				<rect x="0" y="519.6" fill-rule="evenodd" clip-rule="evenodd" fill="#A6976B" width="185.1" height="13.4"/>
				<rect x="0" y="519.6" fill-rule="evenodd" clip-rule="evenodd" fill="#C4B690" width="185.1" height="4.1"/>
				<g>
					<path fill="#4F4335" stroke="#4F4335" stroke-width="1.8197" stroke-miterlimit="22.9256" d="M36.3,516.3
						c8.3,0,15.8,3.4,21.2,8.8c5.4,5.4,8.8,12.9,8.8,21.2c0,8.3-3.4,15.8-8.8,21.2c-5.4,5.4-12.9,8.8-21.2,8.8
						c-8.3,0-15.8-3.4-21.2-8.8c-5.4-5.4-8.8-12.9-8.8-21.2c0-8.3,3.4-15.8,8.8-21.2C20.5,519.7,28,516.3,36.3,516.3L36.3,516.3z
						 M9.3,547.8c0.3,6.3,2.9,12.1,6.8,16.5l16.5-16.5L9.3,547.8L9.3,547.8z M39.9,547.8l16.5,16.5c4-4.4,6.5-10.2,6.9-16.5
						L39.9,547.8L39.9,547.8z M63.3,544.8c-0.3-6.3-2.9-12.1-6.8-16.5l-16.5,16.5L63.3,544.8L63.3,544.8z M32.7,544.8l-16.5-16.5
						c-4,4.4-6.5,10.2-6.9,16.5L32.7,544.8L32.7,544.8z M34.8,519.3c-6.3,0.3-12.1,2.9-16.5,6.8l16.5,16.5L34.8,519.3L34.8,519.3z
						 M18.3,566.4c4.4,4,10.2,6.5,16.5,6.9l0-23.4L18.3,566.4L18.3,566.4z M37.8,573.3c6.3-0.3,12.1-2.9,16.5-6.8l-16.5-16.5
						L37.8,573.3L37.8,573.3z M37.8,519.3l0,23.4l16.5-16.5C49.9,522.2,44.1,519.7,37.8,519.3z"/>
					<path fill-rule="evenodd" clip-rule="evenodd" fill="#FFFFFF" d="M36.3,550.7c-2.4,0-4.4-2-4.4-4.4c0-2.4,2-4.4,4.4-4.4
						c2.4,0,4.4,2,4.4,4.4C40.7,548.7,38.7,550.7,36.3,550.7z"/>
				</g>
				<g>
					<path fill="#4F4335" stroke="#4F4335" stroke-width="1.8197" stroke-miterlimit="22.9256" d="M120.2,516.3
						c8.3,0,15.8,3.4,21.2,8.8c5.4,5.4,8.8,12.9,8.8,21.2c0,8.3-3.4,15.8-8.8,21.2c-5.4,5.4-12.9,8.8-21.2,8.8
						c-8.3,0-15.8-3.4-21.2-8.8c-5.4-5.4-8.8-12.9-8.8-21.2c0-8.3,3.4-15.8,8.8-21.2C104.4,519.7,111.9,516.3,120.2,516.3
						L120.2,516.3z M93.2,547.8c0.3,6.3,2.9,12.1,6.8,16.5l16.5-16.5L93.2,547.8L93.2,547.8z M123.8,547.8l16.5,16.5
						c4-4.4,6.5-10.2,6.9-16.5L123.8,547.8L123.8,547.8z M147.2,544.8c-0.3-6.3-2.9-12.1-6.8-16.5l-16.5,16.5L147.2,544.8
						L147.2,544.8z M116.6,544.8L100,528.3c-4,4.4-6.5,10.2-6.9,16.5L116.6,544.8L116.6,544.8z M118.7,519.3
						c-6.3,0.3-12.1,2.9-16.5,6.8l16.5,16.5L118.7,519.3L118.7,519.3z M102.2,566.5c4.4,4,10.2,6.5,16.5,6.9l0-23.4L102.2,566.5
						L102.2,566.5z M121.7,573.3c6.3-0.3,12.1-2.9,16.5-6.8l-16.5-16.5L121.7,573.3L121.7,573.3z M121.7,519.3l0,23.4l16.5-16.5
						C133.8,522.2,128,519.7,121.7,519.3z"/>
					<path fill-rule="evenodd" clip-rule="evenodd" fill="#FFFFFF" d="M120.2,550.7c-2.4,0-4.4-2-4.4-4.4c0-2.4,2-4.4,4.4-4.4
						c2.4,0,4.4,2,4.4,4.4C124.6,548.7,122.6,550.7,120.2,550.7z"/>
				</g>
				<rect x="0" y="506.2" fill-rule="evenodd" clip-rule="evenodd" fill="#C4B690" width="163.1" height="4.1"/>
			</g>
			<polygon fill-rule="evenodd" clip-rule="evenodd" fill="#70441B" points="232,576.3 224.7,576.3 219.3,517.6 237.5,517.6 
				229.6,550.1 			"/>
			<polygon fill-rule="evenodd" clip-rule="evenodd" fill="#70441B" points="271.1,576.3 263.8,576.3 270.7,517.6 278,517.6 			"/>
			<path fill-rule="evenodd" clip-rule="evenodd" fill="#2C1B11" d="M213.3,499.7c-16.7,0-12.4,14.3-12.4,35.3l11.2,0L213.3,499.7z"
				/>
			<path fill-rule="evenodd" clip-rule="evenodd" fill="#8F5624" d="M274,493.8l-53.6,0c-7.1,0-12.9,5.8-12.9,12.9l0,16.3l0,7.9
				l0,45.4l7.3,0l0-25.5l4.6-19.9l56.4,0c1.1,0.1,2.1,0.1,3.2,0h0v0c8.7-0.9,16.4-9.3,18.1-18.9l5.7-31.2l13.5-0.6l6.3,2.3
				c8.3,3,17.2-9.1,5.6-15.4l-24-12.9c-11.4-6.1-17,3-19.9,11.9L274,493.8z"/>
			<path fill-rule="evenodd" clip-rule="evenodd" fill="#3D2314" d="M302.4,461.2c8.3-0.5,11.8-10.9,5.4-16.3L302.4,461.2z"/>
			<path fill-rule="evenodd" clip-rule="evenodd" fill="#8F5624" d="M302.7,480.9l13.5-0.6l6.3,2.3c8.3,3,17.2-9.1,5.6-15.4
				l-24-12.9c-1.8-1-3.6-1.5-5.4-1.6c-1,2.5-1.8,5.4-2.2,8.5C296.7,461.3,289.2,481.5,302.7,480.9z"/>
			<path fill-rule="evenodd" clip-rule="evenodd" fill="#2C1B11" d="M300.9,452.6l13,2.3c-7.8,3.8-20.7,3.1-23.5,11.3l-12.2,35.3
				l-4.2-7.7l10.4-27.8C287.5,457.6,290.8,450.8,300.9,452.6z"/>
			<path fill-rule="evenodd" clip-rule="evenodd" fill="#8F5624" d="M297.7,460.4c8.3-0.5,11.8-10.9,5.4-16.3L297.7,460.4z"/>
			<path fill-rule="evenodd" clip-rule="evenodd" fill="#70441B" d="M321.7,482.3l0.8,0.3c8.3,3,17.2-9.1,5.6-15.4l-1.7-0.9
				L321.7,482.3z"/>
			<ellipse fill-rule="evenodd" clip-rule="evenodd" fill="#2C1B11" cx="330.6" cy="475.7" rx="1" ry="1.8"/>
			<circle fill-rule="evenodd" clip-rule="evenodd" fill="#2C1B11" cx="308" cy="466.3" r="2.4"/>
			<polygon fill-rule="evenodd" clip-rule="evenodd" fill="#8F5624" points="288.6,576.3 281.3,576.3 278.3,517.6 285.6,517.6 			
				"/>
			<polygon fill-rule="evenodd" clip-rule="evenodd" fill="#2C1B11" points="235.8,576.3 224.7,576.3 224.3,571.5 231.6,571.5 			
				"/>
			<polygon fill-rule="evenodd" clip-rule="evenodd" fill="#452B18" points="218.5,576.3 207.5,576.3 207.5,571.5 214.8,571.5 			
				"/>
			<polygon fill-rule="evenodd" clip-rule="evenodd" fill="#2C1B11" points="274.8,576.3 263.8,576.3 264.4,571.5 271.7,571.5 			
				"/>
			<polygon fill-rule="evenodd" clip-rule="evenodd" fill="#452B18" points="292.3,576.3 281.3,576.3 281,571.5 288.3,571.5 			"/>
			<path fill-rule="evenodd" clip-rule="evenodd" fill="none" stroke="#A6976B" stroke-width="2.2745" stroke-miterlimit="10" d="
				M282.4,509.2c-16.4,14.7-74.9,19.7-97.2,17.9"/>
			
				<line fill-rule="evenodd" clip-rule="evenodd" fill="none" stroke="#A6976B" stroke-width="2.2745" stroke-miterlimit="10" x1="274" y1="493.8" x2="290.8" y2="524.6"/>
			<path fill-rule="evenodd" clip-rule="evenodd" fill="#C4B690" d="M282.2,513.5c-2.3,0-4.1-1.9-4.1-4.1c0-2.3,1.9-4.1,4.1-4.1
				c2.3,0,4.1,1.9,4.1,4.1C286.4,511.6,284.5,513.5,282.2,513.5z"/>
		</g>
	</g>
</g>
</svg>
