<svg id="bg" xmlns="http://www.w3.org/2000/svg" viewBox="0 0 85 85"><defs><style>.cls-1{fill:#dd3728;}.cls-2{fill:#9ba094;}.cls-3{fill:#fff;}.cls-4{fill:#d4cdcb;}.cls-5{fill:#12110f;}</style></defs><title>types of engineering</title><rect class="cls-1" x="46.02" y="11.99" width="2.01" height="20.27"/><rect class="cls-1" x="48.91" y="11.99" width="0.98" height="20.27"/><rect class="cls-2" x="32.35" y="30.88" width="24.31" height="37.73"/><rect class="cls-3" x="32.35" y="52.52" width="13.52" height="20.43"/><rect class="cls-3" x="37.84" y="61.27" width="18.83" height="11.68"/><rect class="cls-1" x="22.54" y="20.65" width="39.91" height="1.84"/><rect class="cls-4" x="56.09" y="22.67" width="6.02" height="6.2"/><rect class="cls-1" x="34.71" y="61.34" width="2.6" height="2.6"/><rect class="cls-1" x="38.98" y="61.34" width="2.6" height="2.6"/><rect class="cls-1" x="43.25" y="61.34" width="2.6" height="2.6"/><rect class="cls-1" x="34.71" y="56.95" width="2.6" height="2.6"/><rect class="cls-1" x="38.98" y="56.95" width="2.6" height="2.6"/><rect class="cls-1" x="43.25" y="56.95" width="2.6" height="2.6"/><rect class="cls-1" x="34.71" y="52.56" width="2.6" height="2.6"/><rect class="cls-1" x="38.98" y="52.56" width="2.6" height="2.6"/><rect class="cls-1" x="43.25" y="52.56" width="2.6" height="2.6"/><rect class="cls-1" x="47.52" y="61.34" width="2.6" height="2.6"/><rect class="cls-1" x="51.79" y="61.34" width="2.6" height="2.6"/><rect class="cls-5" x="34.71" y="48.17" width="2.6" height="2.6"/><rect class="cls-5" x="38.98" y="48.17" width="2.6" height="2.6"/><rect class="cls-5" x="43.25" y="48.17" width="2.6" height="2.6"/><rect class="cls-5" x="47.52" y="56.95" width="2.6" height="2.6"/><rect class="cls-5" x="51.79" y="56.95" width="2.6" height="2.6"/><rect class="cls-5" x="34.71" y="43.78" width="2.6" height="2.6"/><rect class="cls-5" x="38.98" y="43.78" width="2.6" height="2.6"/><rect class="cls-5" x="43.25" y="43.78" width="2.6" height="2.6"/><rect class="cls-5" x="47.52" y="52.56" width="2.6" height="2.6"/><rect class="cls-5" x="51.79" y="52.56" width="2.6" height="2.6"/><rect class="cls-5" x="34.71" y="39.39" width="2.6" height="2.6"/><rect class="cls-5" x="38.98" y="39.39" width="2.6" height="2.6"/><rect class="cls-5" x="43.25" y="39.39" width="2.6" height="2.6"/><rect class="cls-5" x="47.52" y="48.17" width="2.6" height="2.6"/><rect class="cls-5" x="51.79" y="48.17" width="2.6" height="2.6"/><rect class="cls-5" x="34.71" y="35" width="2.6" height="2.6"/><rect class="cls-5" x="38.98" y="35" width="2.6" height="2.6"/><rect class="cls-5" x="43.25" y="35" width="2.6" height="2.6"/><rect class="cls-5" x="47.52" y="43.78" width="2.6" height="2.6"/><rect class="cls-5" x="51.79" y="43.78" width="2.6" height="2.6"/><polygon class="cls-5" points="46 26.11 42.67 26.11 41.44 22.29 46 22.29 46 26.11"/><polygon class="cls-5" points="61.24 73.01 56.49 73.01 56.49 30.81 61.24 33.62 61.24 73.01"/></svg>