<svg id="bg" xmlns="http://www.w3.org/2000/svg" viewBox="0 0 85 85"><defs><style>.cls-1{fill:#dd3728;}.cls-2{fill:#9ba094;}.cls-3{fill:#d4cdcb;}.cls-4{fill:#fff;}.cls-5{fill:#12110f;}</style></defs><title>types of engineering</title><path class="cls-1" d="M14.52,29.16c-.24,0-.48,0-.72,0a13.34,13.34,0,0,0-.36,26.67v0h71.1V29.16Z"/><polygon class="cls-2" points="9.41 43.08 42.61 54.51 42.61 31.65 9.41 43.08"/><path class="cls-3" d="M18.5,47.91l-.26,0a1.22,1.22,0,0,1-.94-1.45l1.7-8a1.22,1.22,0,1,1,2.39.51l-1.7,8A1.22,1.22,0,0,1,18.5,47.91Z"/><path class="cls-3" d="M23.81,49.63l-.26,0a1.21,1.21,0,0,1-.93-1.45l2.49-11.69A1.22,1.22,0,1,1,27.5,37L25,48.66A1.22,1.22,0,0,1,23.81,49.63Z"/><path class="cls-3" d="M29,52.06a1.14,1.14,0,0,1-.26,0,1.22,1.22,0,0,1-.94-1.45l3.61-17a1.22,1.22,0,1,1,2.39.51l-3.61,17A1.22,1.22,0,0,1,29,52.06Z"/><path class="cls-3" d="M34.3,53.83a1.15,1.15,0,0,1-.26,0,1.21,1.21,0,0,1-.94-1.44l4.32-20.3a1.21,1.21,0,0,1,1.44-.94,1.23,1.23,0,0,1,1,1.45L35.49,52.86A1.22,1.22,0,0,1,34.3,53.83Z"/><rect class="cls-4" x="40.3" y="42.97" width="40.98" height="8.07"/><path class="cls-5" d="M76.74,56H45a4.56,4.56,0,0,1-4.54-4.55h0A4.55,4.55,0,0,1,45,46.93H76.74a4.56,4.56,0,0,1,4.55,4.54h0A4.57,4.57,0,0,1,76.74,56Z"/><rect class="cls-4" x="40.32" y="30.48" width="11.44" height="14.34"/><polygon class="cls-5" points="71.24 42.93 51.71 42.93 51.71 32.8 65.29 32.8 71.24 42.93"/><path class="cls-2" d="M46.9,51.41a2,2,0,1,1-2-2A2,2,0,0,1,46.9,51.41Z"/><path class="cls-2" d="M78.8,51.41a2,2,0,1,1-2-2A2,2,0,0,1,78.8,51.41Z"/></svg>