<svg id="bg" xmlns="http://www.w3.org/2000/svg" viewBox="0 0 85 85"><defs><style>.cls-1{fill:#dd3728;}.cls-2{fill:#12110f;}.cls-3{fill:none;stroke:#d4cdcb;stroke-miterlimit:10;stroke-width:1.19px;}.cls-4{fill:#d4cdcb;}</style></defs><title>types of engineering</title><circle class="cls-1" cx="38.99" cy="49.18" r="12.85"/><circle class="cls-2" cx="36.12" cy="49.2" r="12.86"/><rect class="cls-1" x="19.21" y="47.42" width="1.91" height="10.17" transform="translate(5.08 -1.68) rotate(5.45)"/><path class="cls-2" d="M20.23,59.88a1.68,1.68,0,1,1,1-2.15A1.68,1.68,0,0,1,20.23,59.88Z"/><polygon class="cls-2" points="18.22 65.15 18.43 58.74 20.84 58.93 20.04 65.29 18.22 65.15"/><path class="cls-1" d="M62.36,39.3c0-.22,0-.45,0-.69a7.28,7.28,0,0,0-14.56,0,6.9,6.9,0,0,0,.08,1V62.69H62.4V39.3Z"/><rect class="cls-2" x="51.8" y="27" width="6.34" height="5.06"/><polygon class="cls-2" points="53.56 29.02 46.74 31.39 46.74 23.09 53.56 25.46 53.56 29.02"/><rect class="cls-2" x="32.22" y="36.33" width="3.87" height="25.72"/><circle class="cls-1" cx="32.42" cy="49.18" r="12.85"/><circle class="cls-3" cx="32.42" cy="49.18" r="8.99"/><path class="cls-4" d="M61.25,28.63h-8V20.25h0a8,8,0,0,1,8,8Z"/><rect class="cls-2" x="51.6" y="26.94" width="15.42" height="2.37"/></svg>