<svg id="bg" xmlns="http://www.w3.org/2000/svg" xmlns:xlink="http://www.w3.org/1999/xlink" viewBox="0 0 85 85"><defs><style>.cls-1,.cls-7{fill:none;}.cls-2{clip-path:url(#clip-path);}.cls-3{fill:#dd3728;}.cls-4{fill:#fff;}.cls-5{fill:#12110f;}.cls-6{fill:#9ba094;}.cls-7{stroke:#12110f;stroke-miterlimit:10;stroke-width:0.28px;}.cls-8{fill:#d4cdcb;}</style><clipPath id="clip-path"><rect class="cls-1" x="2.46" y="27.4" width="62.21" height="39.16"/></clipPath></defs><title>types of engineering</title><g class="cls-2"><polygon class="cls-3" points="27.09 23.74 21.51 25.34 5.27 61.52 46.41 61.52 27.09 23.74"/></g><polygon class="cls-3" points="44.42 61.55 40.09 35.38 35.26 35.38 20.15 61.55 44.42 61.55"/><polygon class="cls-3" points="46.41 61.53 42.32 39.21 37.49 39.21 22.13 61.53 46.41 61.53"/><polygon class="cls-4" points="29.94 42.9 23.13 42.9 33.26 35.38 40.08 35.38 29.94 42.9"/><polygon class="cls-4" points="30.7 48.51 23.89 48.51 35.37 39.21 42.19 39.21 30.7 48.51"/><polygon class="cls-4" points="36.84 42.91 25.87 42.91 29.68 39.2 39.38 39.2 36.84 42.91"/><polygon class="cls-4" points="38.49 44.23 30.09 44.23 27.78 48.48 38.49 48.48 38.49 44.23"/><rect class="cls-5" x="48.87" y="58.02" width="19.74" height="3.23"/><polygon class="cls-5" points="55.26 61.11 52.71 61.11 52.71 23.75 54.92 23.75 55.26 24.81 55.26 61.11"/><rect class="cls-5" x="54.49" y="49.71" width="8.48" height="9.7"/><path class="cls-5" d="M62.15,23.75a4,4,0,0,1-7.23,0h-.43v4.89h8.66V23.75Z"/><rect class="cls-6" x="42.73" y="43.82" width="37" height="5.98"/><rect class="cls-5" x="42.73" y="48.72" width="37" height="1.22"/><rect class="cls-5" x="42.73" y="42.69" width="37" height="1.22"/><rect class="cls-4" x="54.74" y="45.98" width="3.26" height="0.67"/><rect class="cls-4" x="62.45" y="45.98" width="3.26" height="0.67"/><rect class="cls-4" x="70.16" y="45.98" width="3.26" height="0.67"/><rect class="cls-4" x="77.88" y="45.98" width="1.85" height="0.67"/><rect class="cls-5" x="62.17" y="23.75" width="2.55" height="37.36"/><polygon class="cls-3" points="56.52 44.39 54.96 44.39 46.45 29.96 48.01 29.96 56.52 44.39"/><rect class="cls-3" x="52.89" y="43.18" width="8.42" height="2.13"/><rect class="cls-3" x="54.51" y="39.86" width="2.49" height="3.53"/><path class="cls-5" d="M60.49,46.75H53.58a.93.93,0,0,1-.93-.93h0a.93.93,0,0,1,.93-.93h6.91a.93.93,0,0,1,.93.93h0A.93.93,0,0,1,60.49,46.75Z"/><rect class="cls-5" x="42.62" y="36.62" width="7.28" height="3.11"/><line class="cls-7" x1="46.72" y1="29.98" x2="46.72" y2="36.76"/><path class="cls-8" d="M47.33,30.17a.71.71,0,0,1-1.42,0,.71.71,0,1,1,1.42,0Z"/></svg>