<?xml version="1.0" encoding="UTF-8"?>
                        <svg version="1.1" id="Layer_1" xmlns="http://www.w3.org/2000/svg" xmlns:xlink="http://www.w3.org/1999/xlink" x="0px" y="0px"
                             preserveAspectRatio="xMidYMid meet"
                            viewBox="0 0 420.9 516.7" enable-background="new 0 0 389.9 516.7" xml:space="preserve">
                            <g>
                                <g>
                                    <g>
                                        <rect x="39.2" y="163.9" width="36.4" height="36.4"/>
                                        <rect x="75.6" y="127.5" width="36.4" height="36.4"/>
                                        <polygon points="75.6,236.6 39.2,236.6 39.2,256.5 49.2,273 75.6,273          "/>
                                        <polygon points="71.1,309.4 75.6,317 75.6,309.4         "/>
                                        <polygon points="92.9,345.8 112,377.4 112,345.8         "/>
                                        <rect x="75.6" y="273" width="36.4" height="36.4"/>
                                        <rect x="75.6" y="200.3" width="36.4" height="36.4"/>
                                        <rect x="148.4" y="273" width="36.4" height="36.4"/>
                                        <rect x="112" y="236.6" width="36.4" height="36.4"/>
                                        <rect x="112" y="309.4" width="36.4" height="36.4"/>
                                        <rect x="184.7" y="382.1" width="36.4" height="36.4"/>
                                        <path d="M75.6,127.5v-28c-12-0.9-24.5,1.2-36,6.9h0c-0.1,0.1-0.2,0.1-0.3,0.2v21H75.6z"/>
                                        <path d="M39.2,236.6v-36.4H6.9c0,0.1,0.1,0.2,0.1,0.3l6.3,13l13.9,23.1H39.2z"/>
                                        <path d="M0.3,163.9c-0.7,8.5,0.1,17.3,2.6,25.8v-25.8H0.3z"/>
                                        <path d="M39.2,163.9v-36.4H14C9,134.3,5.2,141.9,2.9,150v13.9H39.2z"/>
                                        <polygon points="112,200.3 148.4,200.3 148.4,168.8 146,163.9 112,163.9          "/>
                                        <polygon points="148.4,236.6 181.4,236.6 163.7,200.3 148.4,200.3          "/>
                                        <path d="M126.8,127.5c-4.3-5.7-9.3-10.6-14.9-14.6v14.6H126.8z"/>
                                        <polygon points="184.7,345.8 221.1,345.8 221.1,318.1 216.9,309.4 184.7,309.4          "/>
                                        <polygon points="148.4,418.5 148.4,437.9 158.6,454.9 184.7,454.9 184.7,418.5          "/>
                                        <rect x="148.4" y="345.8" width="36.4" height="36.4"/>
                                        <path d="M221.1,382.1H251c-1.1-4-2.6-7.9-4.5-11.8l-12-24.6h-13.5V382.1z"/>
                                        <polygon points="148.4,382.1 114.8,382.1 136.7,418.5 148.4,418.5          "/>
                                        <path d="M221.1,454.9h7.7c11.3-9.6,19-22.4,22.6-36.4h-30.3V454.9z"/>
                                        <path d="M184.7,454.9v16.7c9.9-0.2,19.9-2.5,29.3-7.1h0c2.4-1.2,4.8-2.5,7-3.9v-5.7H184.7z"/>
                                        <polygon points="199.1,273 184.7,243.5 184.7,273        "/>
                                        <path fill="#0A0A0A" d="M112,163.9h34l-12.2-25.1c-2-4.1-4.3-7.8-6.9-11.3H112V163.9z"/>
                                        <polygon fill="#0A0A0A" points="163.7,200.3 148.4,168.8 148.4,200.3          "/>
                                        <rect x="112" y="200.3" fill="#0A0A0A" width="36.4" height="36.4"/>
                                        <polygon fill="#0A0A0A" points="148.4,273 184.7,273 184.7,243.5 181.4,236.6 148.4,236.6        "/>
                                        <polygon fill="#0A0A0A" points="184.7,309.4 148.4,309.4 148.4,273 112,273 112,309.4 75.6,309.4 75.6,273 49.2,273 71.1,309.4
                                            75.6,309.4 75.6,317 92.9,345.8 112,345.8 112,309.4 148.4,309.4 148.4,345.8 184.7,345.8 184.7,309.4 216.9,309.4 199.1,273
                                            184.7,273          "/>
                                        <path fill="#0A0A0A" d="M39.2,106.5c-10.3,5.1-18.8,12.4-25.2,21h25.2V106.5z"/>
                                        <path fill="#0A0A0A" d="M2.9,150c-1.3,4.5-2.2,9.2-2.6,13.9h2.6V150z"/>
                                        <path fill="#0A0A0A" d="M39.2,163.9H2.9v25.8c1.1,3.6,2.4,7.1,4.1,10.6h32.3V163.9z"/>
                                        <polygon fill="#0A0A0A" points="27.3,236.6 39.2,256.5 39.2,236.6          "/>
                                        <path fill="#0A0A0A" d="M112,127.5v-14.6c-10.6-7.7-23.3-12.4-36.4-13.4v28H112z"/>
                                        <rect x="39.2" y="127.5" fill="#0A0A0A" width="36.4" height="36.4"/>
                                        <rect x="75.6" y="163.9" fill="#0A0A0A" width="36.4" height="36.4"/>
                                        <rect x="39.2" y="200.3" fill="#0A0A0A" width="36.4" height="36.4"/>
                                        <rect x="75.6" y="236.6" fill="#0A0A0A" width="36.4" height="36.4"/>
                                        <polygon fill="#0A0A0A" points="148.4,345.8 112,345.8 112,377.4 114.8,382.1 148.4,382.1        "/>
                                        <rect x="148.4" y="382.1" fill="#0A0A0A" width="36.4" height="36.4"/>
                                        <polygon fill="#0A0A0A" points="136.7,418.5 148.4,437.9 148.4,418.5          "/>
                                        <path fill="#0A0A0A" d="M158.6,454.9l9,14.9c5.6,1.3,11.4,1.9,17.2,1.8v-16.7H158.6z"/>
                                        <polygon fill="#0A0A0A" points="221.1,345.8 234.6,345.8 221.1,318.1          "/>
                                        <rect x="184.7" y="345.8" fill="#0A0A0A" width="36.4" height="36.4"/>
                                        <path fill="#0A0A0A" d="M221.1,418.5h30.3c3-11.7,3-24.3-0.4-36.4h-29.9V418.5z"/>
                                        <rect x="184.7" y="418.5" fill="#0A0A0A" width="36.4" height="36.4"/>
                                        <path fill="#0A0A0A" d="M221.1,460.6c2.7-1.7,5.3-3.7,7.7-5.7h-7.7V460.6z"/>
                                    </g>
                                    <g>
                                        <path fill="#3E2C17" d="M188.2,46.2l-7.4-7.4c5.4-5.4,14.2-5.4,19.6,0c1.7,1.7,2.9,3.8,3.5,6h14l-17.6-17.6
                                            c-0.8-0.8-1.6-1.5-2.5-2.1c-6.9-4.8-16.5-4.1-22.6,2.1c-6.9,6.9-6.9,18.2,0,25.1L180,57h7.9L188.2,46.2z"/>
                                        <path fill="#3E2C17" d="M270.3,44.8h14c0.6-2.2,1.8-4.3,3.5-6c5.4-5.4,14.2-5.4,19.6,0l-7.4,7.4l0.4,10.8h7.9l4.8-4.8
                                            c6.9-6.9,6.9-18.2,0-25.1l0,0c-6.1-6.1-15.7-6.8-22.6-2.1c-0.9,0.6-1.7,1.3-2.5,2.1L270.3,44.8z"/>
                                        <path fill="#F16A34" d="M334,98.7h-10.2c-0.1-0.8-0.3-1.6-0.5-2.4c6.5-4.5,10.7-12,10.7-20.5h-21.7c-0.3-0.3-0.6-0.7-1-1
                                            c4.6-4.5,7.5-10.8,7.5-17.8h-10.5h-7.9L300,46.2l7.4-7.4c-5.4-5.4-14.2-5.4-19.6,0c-1.7,1.7-2.9,3.8-3.5,6h-14l17.6-17.6
                                            c0.8-0.8,1.6-1.5,2.5-2.1c-2.1-3.2-4.5-6.3-7.3-9c3.6-4.3,5.8-9.9,5.8-16H248c-1.3-0.1-2.6-0.2-3.9-0.2c-1.3,0-2.6,0.1-3.9,0.2
                                            H239c0,0,0,0.1,0,0.1c-17.2,1.6-32.2,11.1-41.1,24.9c0.9,0.6,1.7,1.3,2.5,2.1l17.6,17.6h-14c-0.6-2.2-1.8-4.3-3.5-6
                                            c-5.4-5.4-14.2-5.4-19.6,0l7.4,7.4L187.8,57H180h-10.5c0,7,2.9,13.3,7.5,17.8c-0.3,0.3-0.6,0.7-1,1h-21.7c0,8.5,4.2,16,10.7,20.5
                                            c-0.2,0.8-0.4,1.6-0.5,2.4h-10.2c0,8.2,4,15.5,10.1,20.1c0.2,0.9,0.3,1.9,0.6,2.8h-10.7c0,13.8,11.2,25,25,25c0.5,0,1,0,1.5,0
                                            c0.2,0.2,0.4,0.3,0.7,0.5c2.5,1.9,5.1,3.5,7.9,4.9c-0.7,1.5-2.3,2.6-4,2.6h-0.3c-0.1,0-0.2,0-0.3,0l0,0
                                            c-11.8,0.1-21.4,9.7-21.4,21.5v59.6h18.6l-6.2,184.4h136.9l-6.2-184.4h19.9V176c0-11.9-9.6-21.5-21.5-21.5h-1.1l0,0
                                            c-0.1,0-0.2,0-0.3,0H303c-1.8-0.1-3.3-1.1-4-2.6c2.8-1.4,5.5-3,7.9-4.9c0.2-0.2,0.4-0.3,0.7-0.5c0.5,0,1,0,1.5,0
                                            c13.8,0,25-11.2,25-25h-10.7c0.2-0.9,0.4-1.9,0.6-2.8C330,114.2,334,106.9,334,98.7z"/>
                                        <ellipse fill="#032F33" cx="197.8" cy="96.3" rx="4.6" ry="1.3"/>
                                        <ellipse fill="#032F33" cx="290.4" cy="96.3" rx="4.6" ry="1.3"/>
                                        <circle fill="#032F33" cx="207" cy="84.3" r="6.6"/>
                                        <circle fill="#032F33" cx="281.2" cy="84.3" r="6.6"/>
                                        <path fill="#FFFFFF" d="M231.6,135.7l3,35.2h9.1v-35.2H232C231.9,135.7,231.7,135.7,231.6,135.7z"/>
                                        <path fill="#FFFFFF" d="M256.2,135.7h-11.6v35.2h9.1l3-35.2C256.5,135.7,256.3,135.7,256.2,135.7z"/>
                                        <path fill="#F0D3A4" d="M256.6,135.7c10-0.3,18.1-8.5,18.1-18.6l0,0c0-9.8-7.6-17.8-17.2-18.6c-0.1,0-0.2,0-0.3,0l-11.5,20v17.2
                                            h-3.5v-17l-11.6-20.1c-9.6,0.7-17.2,8.8-17.2,18.5l0,0c0,10.1,8.1,18.3,18.1,18.6c0.2,0,0.3,0,0.5,0h11.6h0.9h11.6
                                            C256.3,135.7,256.5,135.7,256.6,135.7z"/>
                                        <path fill="#032F33" d="M242.3,118.7v17h3.5v-17.2l11.5-20c0.1,0,0.2,0,0.3,0c-1.7-5.8-7.1-10.1-13.4-10.1
                                            c-6.3,0-11.6,4.1-13.4,9.8h-0.3l0.2,0.3L242.3,118.7z"/>
                                    </g>
                                    <g>
                                        <path fill="#F16A34" d="M181,310c-44.3,0-80.2,35.9-80.2,80.2c0,15.7,4.5,30.3,12.3,42.6c1.5-8.8,9.2-15.5,18.4-15.5
                                            c10.3,0,18.7,8.4,18.7,18.7c0,9.7-7.4,17.7-16.9,18.6c13.3,9.8,29.8,15.7,47.6,15.7c44.3,0,80.2-35.9,80.2-80.2
                                            S225.2,310,181,310z"/>
                                    </g>
                                    <g>
                                        <ellipse fill="#3E2C17" cx="348.9" cy="502.4" rx="40.9" ry="14.3"/>
                                        <polygon fill="#3E2C17" points="367.4,505.1 386.4,496.6 348.9,469.3 319.8,475 308.3,500.6         "/>
                                        <path fill="#312E30" d="M384,509.5L360,489.1l9.5,25.5C369.6,514.6,376.9,513.3,384,509.5z"/>
                                        <path fill="#312E30" d="M323.7,514.2l10-26.3l4.8,28.6C338.6,516.4,331.2,516.6,323.7,514.2z"/>
                                    </g>
                                    <g>
                                        <ellipse fill="#3E2C17" cx="143.6" cy="502.4" rx="40.9" ry="14.3"/>
                                        <polygon fill="#3E2C17" points="125.1,505.1 106.1,496.6 140.4,471.6 172.8,475 184.3,500.6         "/>
                                        <path fill="#312E30" d="M108.6,509.5l23.9-20.4l-9.5,25.5C123,514.6,115.7,513.3,108.6,509.5z"/>
                                        <path fill="#312E30" d="M168.8,514.2l-10-26.3l-4.8,28.6C154,516.4,161.3,516.6,168.8,514.2z"/>
                                    </g>
                                    <ellipse fill="#F16A34" cx="244.3" cy="448.6" rx="91.3" ry="46"/>
                                    <path fill="#F16A34" d="M158.4,261.5l-35.7,173.1c-4.8,22.4,12.7,43.3,35.6,42.6l19.5-0.6l20.4-212.1L158.4,261.5z"/>
                                    <path fill="#F16A34" d="M325.4,231.5l43.3,203c4.8,22.4-12.7,43.3-35.6,42.6l-19.5-0.6L293,264.4L325.4,231.5z"/>
                                    <rect x="211.7" y="218.6" fill="#F16A34" width="83.9" height="42"/>
                                    <path fill="#231F20" d="M319,477.1c0,0-33.4,23.6-74.6,23.6c-41.2,0-74.6-23.6-74.6-23.6s33.4-23.6,74.6-23.6
                                        C285.6,453.5,319,477.1,319,477.1z"/>
                                    <g>
                                        <path fill="#0A0A0A" d="M282.7,459.8v16.1h34.6C312.9,473.1,300.1,465.4,282.7,459.8z"/>
                                        <path fill="#0A0A0A" d="M282.7,494.3v-18.4h-36.4v24.7C259.6,500.4,272,497.7,282.7,494.3z"/>
                                        <path fill="#0A0A0A" d="M171.5,475.9h2.1v-1.3C172.8,475.1,172.1,475.6,171.5,475.9z"/>
                                        <path fill="#0A0A0A" d="M246.3,453.5c-0.6,0-1.3,0-1.9,0c-12.4,0-24.2,2.1-34.5,5.1v17.3h36.4V453.5z"/>
                                        <path fill="#0A0A0A" d="M209.9,495.5v-19.6h-36.4v3.6C179.7,483.2,192.9,490.5,209.9,495.5z"/>
                                    </g>
                                    <g>
                                        <path fill="#F16A34" d="M243,422.7c13.8,0,25,11.2,25,25c0,13.8-11.2,25-25,25V422.7z"/>
                                        <path fill="#F16A34" d="M265.5,422.7c13.8,0,25,11.2,25,25c0,13.8-11.2,25-25,25V422.7z"/>
                                        <path fill="#F16A34" d="M220.4,422.7c13.8,0,25,11.2,25,25c0,13.8-11.2,25-25,25V422.7z"/>
                                        <path fill="#F16A34" d="M197.9,422.7c13.8,0,25,11.2,25,25c0,13.8-11.2,25-25,25V422.7z"/>
                                    </g>
                                    <g>
                                        <defs>
                                            <polygon id="SVGID_1_" points="153,296.2 165.1,218 324,218 341.1,317.6            "/>
                                        </defs>
                                        <clipPath id="SVGID_2_">
                                            <use xlink:href="#SVGID_1_"  overflow="visible"/>
                                        </clipPath>
                                        <g clip-path="url(#SVGID_2_)">
                                            <g>
                                                <polygon fill="#F0D3A4" points="177.3,291.7 203.6,249.8 151.1,249.8              "/>
                                                <polygon fill="#F0D3A4" points="211,291.7 237.2,249.8 184.7,249.8                "/>
                                                <polygon fill="#F0D3A4" points="244.6,291.7 270.8,249.8 218.4,249.8              "/>
                                                <polygon fill="#F0D3A4" points="278.2,291.7 304.5,249.8 252,249.8                "/>
                                                <polygon fill="#F0D3A4" points="311.9,291.7 338.1,249.8 285.6,249.8              "/>
                                            </g>
                                            <g>
                                                <polygon fill="#F16A34" points="177.3,273.3 203.6,231.3 151.1,231.3 160.1,249.8 162.6,249.8              "/>
                                                <polygon fill="#F16A34" points="211,273.3 237.2,231.3 184.7,231.3                "/>
                                                <polygon fill="#F16A34" points="244.6,273.3 270.8,231.3 218.4,231.3              "/>
                                                <polygon fill="#F16A34" points="278.2,273.3 304.5,231.3 252,231.3                "/>
                                                <polygon fill="#F16A34" points="311.9,273.3 338.1,231.3 285.6,231.3              "/>
                                            </g>
                                        </g>
                                    </g>
                                    <g>
                                        <ellipse fill="#3E2C17" cx="199.2" cy="427.6" rx="21" ry="35.7"/>
                                        <ellipse fill="#F16A34" cx="192.4" cy="427.6" rx="21" ry="35.7"/>
                                        <rect x="192.4" y="388.8" fill="#F16A34" width="38.8" height="34.5"/>
                                    </g>
                                    <g>
                                        <ellipse fill="#3E2C17" cx="288.5" cy="427.6" rx="21" ry="35.7"/>
                                        <ellipse fill="#F16A34" cx="295.3" cy="427.6" rx="21" ry="35.7"/>
                                        <rect x="256.5" y="388.8" fill="#F16A34" width="38.8" height="34.5"/>
                                    </g>
                                    <g>
                                        <path fill="#F16A34" d="M298.9,214.8c0,52.7-54.6,95.4-54.6,95.4s-54.6-42.7-54.6-95.4H298.9z"/>
                                        <g>
                                            <defs>
                                                <polygon id="SVGID_3_" points="135,393.9 152.9,301.1 341.6,299.6 363.3,415                "/>
                                            </defs>
                                            <clipPath id="SVGID_4_">
                                                <use xlink:href="#SVGID_3_"  overflow="visible"/>
                                            </clipPath>
                                            <g clip-path="url(#SVGID_4_)">
                                                <g>
                                                    <polygon fill="#F0D3A4" points="159.9,382 186.2,340.1 133.7,340.1                  "/>
                                                    <polygon fill="#F0D3A4" points="193.5,382 219.8,340.1 167.3,340.1                  "/>
                                                    <polygon fill="#F0D3A4" points="227.2,382 253.4,340.1 200.9,340.1                  "/>
                                                    <polygon fill="#F0D3A4" points="260.8,382 287,340.1 234.6,340.1                 "/>
                                                    <polygon fill="#F0D3A4" points="294.4,382 320.7,340.1 268.2,340.1                  "/>
                                                </g>
                                                <g>
                                                    <polygon fill="#F0D3A4" points="328.1,382 354.3,340.1 301.8,340.1                  "/>
                                                    <polygon fill="#F16A34" points="159.9,363.6 186.2,321.6 133.7,321.6                   "/>
                                                    <polygon fill="#F16A34" points="193.5,363.6 219.8,321.6 167.3,321.6                   "/>
                                                    <polygon fill="#F16A34" points="227.2,363.6 253.4,321.6 200.9,321.6                   "/>
                                                    <polygon fill="#F16A34" points="260.8,363.6 287,321.6 234.6,321.6                  "/>
                                                    <polygon fill="#F16A34" points="294.4,363.6 320.7,321.6 268.2,321.6                   "/>
                                                    <polygon fill="#F16A34" points="328.1,363.6 354.3,321.6 301.8,321.6                   "/>
                                                </g>
                                            </g>
                                        </g>
                                    </g>
                                    <g>
                                        <g>
                                            <polygon fill="#3E2C17" points="201.1,204.2 180.4,289.6 164.8,284.5 172.2,196.4            "/>
                                            <g>
                                                <path fill="#3E2C17" d="M163.6,286.2c3.1-7.4,10.5-11.3,16.7-8.8c2.1,0.9,3.8,2.4,5,4.4c0.3,0.2,0.7,0.3,1,0.5
                                                    c-0.2,0.1-0.3,0.2-0.5,0.3c1.3,2.5,1.7,5.5,1.3,8.7c-0.7-0.6-1.5-1.1-2.4-1.4c-1-0.4-2.1-0.7-3.2-0.7c-0.7,3.3,0.1,7,2.1,10.3
                                                    c0.7,1.2,1.6,2.3,2.7,3.3c1.1,1,2.2,1.9,3.5,2.6c-3.9,2.3-9.1,2-13.6-0.7c-1.1-0.6-2.1-1.4-3-2.3c-1.8-1.7-3.2-3.7-4-5.8
                                                    c-0.4,0.7-0.8,1.4-1.1,2.2c-0.6,1.4-0.9,2.8-1.1,4.1C162.5,299.3,161,292.5,163.6,286.2z"/>
                                            </g>
                                        </g>
                                        <circle fill="#3E2C17" cx="187.1" cy="198.7" r="15.1"/>
                                    </g>
                                </g>
                                <g>
                                    <g>
                                        <path fill="#2A3B8F" d="M247.5,217.9l18.4-27.4c1.6-2.4-0.1-5.7-3-5.7h-36.8c-2.9,0-4.6,3.2-3,5.7l18.4,27.4
                                            C242.9,220.1,246.1,220.1,247.5,217.9z"/>
                                        <path fill="#2A3B8F" d="M251.3,206.7l11.8,82.3c0.5,2.1,0.5,4.3-0.1,6.4l-18.1,38.3c-0.1,0.1-0.3,0.2-0.6,0.2l0,0
                                            c-0.3,0-0.5-0.1-0.6-0.2L226,296.4c-0.7-2.8-0.7-5.7-0.1-8.4l11.6-81.3c0.4-1.8,2-3.1,3.9-3.1h6
                                            C249.2,203.6,250.9,204.9,251.3,206.7z"/>
                                    </g>
                                    <g>
                                        <polygon fill="#F2F2F2" points="189.4,152.1 244.5,184.9 228.9,204.7 182.9,166.1          "/>
                                        <polygon fill="#F2F2F2" points="298.9,150.8 244.5,184.9 260.1,204.7 305.5,164.8          "/>
                                    </g>
                                </g>
                                <g class="hand">
                                    <g>
                                        <polygon fill="#3E2C17" points="316.7,200.6 316.9,288.6 300.5,287.3 286.7,200         "/>
                                        <g>
                                            <path fill="#3E2C17" d="M318.2,283.5c-6.2-5-14.7-4.9-18.8,0.3c-1.4,1.8-2.2,3.9-2.3,6.2c0,0.5,0,0.5,0,1c0.1,2.8,1.1,5.7,3,8.2
                                                c0.4-0.8,0.8-1.7,1.4-2.4c0.7-0.9,1.5-1.6,2.5-2.2c2.2,2.6,3.3,6.2,3.1,10c-0.1,1.4-0.3,2.8-0.8,4.2c-0.5,1.4-1.1,2.7-1.8,3.9
                                                c4.5,0.2,9-2.6,11.6-7.1c0.6-1.1,1.1-2.2,1.5-3.5c0.8-2.4,1-4.8,0.7-7c0.7,0.4,1.4,0.9,2.1,1.4c1.2,0.9,2.1,2,3,3.1
                                                C325.5,294.5,323.5,287.8,318.2,283.5z"/>
                                        </g>
                                    </g>
                                    <circle fill="#3E2C17" cx="301.8" cy="198.7" r="15.1"/>
                                </g>
                            </g>
                        </svg>