<svg id="bg" xmlns="http://www.w3.org/2000/svg" viewBox="0 0 85 85"><defs><style>.cls-1{fill:#12110f;}.cls-2{fill:#9ba094;}.cls-3{fill:#fff;}.cls-4{fill:#dd3728;}</style></defs><title>types of engineering</title><rect class="cls-1" x="42.95" y="47.22" width="3.74" height="17.08"/><polygon class="cls-2" points="45.19 24.65 36.02 40.53 54.36 40.53 45.19 24.65"/><polygon class="cls-2" points="45.19 30.41 32.84 51.8 57.54 51.8 45.19 30.41"/><polygon class="cls-2" points="45.19 18.26 38.2 30.37 52.18 30.37 45.19 18.26"/><path class="cls-3" d="M44.83,60.23,34.56,66.74H64.08L53.8,60.23A8.4,8.4,0,0,0,44.83,60.23Z"/><path class="cls-4" d="M42.13,47.74A10.06,10.06,0,1,1,32.08,37.69,10.06,10.06,0,0,1,42.13,47.74Z"/><rect class="cls-1" x="30.2" y="47.22" width="3.74" height="17.08"/><path class="cls-3" d="M31.2,60.23,20.92,66.74H50.44L40.17,60.23A8.4,8.4,0,0,0,31.2,60.23Z"/></svg>