<svg id="bg" xmlns="http://www.w3.org/2000/svg" viewBox="0 0 85 85"><defs><style>.cls-1{fill:#fff;}.cls-2{fill:#12110f;}.cls-3{fill:#d4cdcb;}.cls-4{fill:#9ba094;}.cls-5{fill:#dd3728;}</style></defs><title>types of engineering</title><polygon class="cls-1" points="41.69 66.56 36.63 66.56 37.97 31.67 40.35 31.67 41.69 66.56"/><polygon class="cls-1" points="37.16 33.59 43.44 32.94 41.89 30.33 36.79 30.23 37.16 33.59"/><polygon class="cls-2" points="45.68 60.51 56.1 60.51 50.89 68.47 40.46 68.47 45.68 60.51"/><polygon class="cls-3" points="68.94 61 67.43 57.28 61.59 57.28 63.1 61 68.94 61"/><polygon class="cls-4" points="64.61 64.72 70.45 64.72 68.94 61 63.1 61 64.61 64.72"/><polygon class="cls-4" points="63.1 61 61.59 57.28 55.75 57.28 57.26 61 63.1 61"/><polygon class="cls-3" points="57.26 61 58.78 64.72 64.61 64.72 63.1 61 57.26 61"/><polygon class="cls-3" points="57.26 61 55.75 57.28 49.89 57.28 51.4 61 57.26 61"/><polygon class="cls-4" points="51.4 61 52.91 64.72 58.78 64.72 57.26 61 51.4 61"/><polygon class="cls-2" points="52.91 64.72 54.43 68.45 60.29 68.45 58.78 64.72 52.91 64.72"/><polygon class="cls-4" points="58.78 64.72 60.29 68.45 66.13 68.45 64.61 64.72 58.78 64.72"/><polygon class="cls-4" points="49.89 57.28 44.03 57.28 45.54 61 51.4 61 49.89 57.28"/><polygon class="cls-2" points="70.45 64.72 64.61 64.72 66.13 68.45 71.97 68.45 70.45 64.72"/><polygon class="cls-2" points="51.4 61 45.54 61 47.05 64.72 52.91 64.72 51.4 61"/><polygon class="cls-4" points="47.05 64.72 48.57 68.45 54.43 68.45 52.91 64.72 47.05 64.72"/><polygon class="cls-3" points="48.16 68.47 48.61 68.47 44.05 57.28 43.6 57.28 48.16 68.47"/><path class="cls-5" d="M46.82,30.44a2.09,2.09,0,1,1-2.09-2.08A2.08,2.08,0,0,1,46.82,30.44Z"/><circle class="cls-1" cx="43.29" cy="30.44" r="2.51"/><polygon class="cls-1" points="37.16 27.29 43.44 27.93 41.89 30.55 36.79 30.64 37.16 27.29"/><path class="cls-3" d="M34.29,22.72a8.53,8.53,0,0,0,2.92,6.43V16.29A8.53,8.53,0,0,0,34.29,22.72Z"/><path class="cls-3" d="M44.46,33.09a8.55,8.55,0,0,0-6.61-2.49L47,39.7A8.53,8.53,0,0,0,44.46,33.09Z"/><path class="cls-3" d="M32.92,36.73a8.52,8.52,0,0,0,2.48-6.61l-9.09,9.1A8.58,8.58,0,0,0,32.92,36.73Z"/><path class="cls-1" d="M40.08,30.44a3.16,3.16,0,1,1-3.16-3.16A3.17,3.17,0,0,1,40.08,30.44Z"/><path class="cls-4" d="M38,30.59a1.19,1.19,0,1,1-1.19-1.18A1.19,1.19,0,0,1,38,30.59Z"/><polygon class="cls-2" points="18.17 60.51 28.59 60.51 23.38 68.47 12.96 68.47 18.17 60.51"/><polygon class="cls-3" points="41.43 61 39.92 57.28 34.08 57.28 35.59 61 41.43 61"/><polygon class="cls-4" points="37.11 64.72 42.94 64.72 41.43 61 35.59 61 37.11 64.72"/><polygon class="cls-4" points="35.59 61 34.08 57.28 28.25 57.28 29.76 61 35.59 61"/><polygon class="cls-3" points="29.76 61 31.27 64.72 37.11 64.72 35.59 61 29.76 61"/><polygon class="cls-3" points="29.76 61 28.25 57.28 22.38 57.28 23.89 61 29.76 61"/><polygon class="cls-4" points="23.89 61 25.41 64.72 31.27 64.72 29.76 61 23.89 61"/><polygon class="cls-2" points="25.41 64.72 26.93 68.45 32.78 68.45 31.27 64.72 25.41 64.72"/><polygon class="cls-4" points="31.27 64.72 32.78 68.45 38.62 68.45 37.11 64.72 31.27 64.72"/><polygon class="cls-4" points="22.38 57.28 16.52 57.28 18.04 61 23.89 61 22.38 57.28"/><polygon class="cls-2" points="42.94 64.72 37.11 64.72 38.62 68.45 44.46 68.45 42.94 64.72"/><polygon class="cls-2" points="23.89 61 18.04 61 19.55 64.72 25.41 64.72 23.89 61"/><polygon class="cls-4" points="19.55 64.72 21.06 68.45 26.93 68.45 25.41 64.72 19.55 64.72"/><polygon class="cls-3" points="20.65 68.47 21.1 68.47 16.55 57.28 16.1 57.28 20.65 68.47"/></svg>