<svg id="bg" xmlns="http://www.w3.org/2000/svg" viewBox="0 0 85 85"><defs><style>.cls-1{fill:#9ba094;}.cls-2{fill:#12110f;}.cls-3{fill:#dd3728;}.cls-4{fill:#fff;}</style></defs><title>types of engineering</title><circle class="cls-1" cx="42.57" cy="46.72" r="18.97"/><path class="cls-2" d="M42.57,63.33a.89.89,0,0,1-.89-.89V31a.89.89,0,1,1,1.78,0V62.44A.89.89,0,0,1,42.57,63.33Z"/><path class="cls-2" d="M50.43,61.22a.89.89,0,0,1-.77-.44L33.94,33.56a.89.89,0,0,1,1.54-.89L51.2,59.89a.89.89,0,0,1-.77,1.33Z"/><path class="cls-2" d="M56.18,55.47a.92.92,0,0,1-.45-.12L28.52,39.64a.89.89,0,1,1,.89-1.54L56.62,53.81A.9.9,0,0,1,57,55,.91.91,0,0,1,56.18,55.47Z"/><path class="cls-2" d="M58.28,47.61H26.86a.89.89,0,0,1,0-1.78H58.28a.89.89,0,0,1,0,1.78Z"/><path class="cls-2" d="M29,55.47a.91.91,0,0,1-.77-.44.9.9,0,0,1,.33-1.22L55.73,38.1a.89.89,0,1,1,.89,1.54L29.41,55.35A.92.92,0,0,1,29,55.47Z"/><path class="cls-2" d="M34.71,61.22a.89.89,0,0,1-.77-1.33L49.66,32.67a.89.89,0,0,1,1.54.89L35.48,60.78A.89.89,0,0,1,34.71,61.22Z"/><circle class="cls-1" cx="42.57" cy="46.72" r="12.11" transform="translate(-10.37 81.26) rotate(-80.78)"/><path class="cls-3" d="M55,40.87C55,29.39,42.6,20.08,42.6,20.08s-11,8.27-12.24,18.84A13,13,0,0,0,30.19,41a12.37,12.37,0,0,0,24.74,0,.57.57,0,0,0,0-.13Z"/><path class="cls-4" d="M35.38,47.36c0-6.7,7.21-12.12,7.21-12.12s7.2,5.42,7.2,12.12Z"/><path class="cls-4" d="M49.78,47.43a7.22,7.22,0,1,1-7.22-7.21A7.22,7.22,0,0,1,49.78,47.43Z"/></svg>