<svg id="bg" xmlns="http://www.w3.org/2000/svg" xmlns:xlink="http://www.w3.org/1999/xlink" viewBox="0 0 85 85"><defs><style>.cls-1,.cls-7{fill:none;}.cls-2{fill:#fff;}.cls-3{clip-path:url(#clip-path);}.cls-4{fill:#131211;}.cls-5{fill:#e33828;}.cls-6{fill:#e33a28;stroke-width:0.4px;}.cls-6,.cls-7{stroke:#131211;stroke-miterlimit:10;}.cls-7{stroke-linecap:round;stroke-width:1.51px;}.cls-8{fill:#a2a89b;}</style><clipPath id="clip-path"><rect class="cls-1" x="27.04" y="52.75" width="25.43" height="11.16"/></clipPath></defs><title>types of engineering</title><rect class="cls-2" x="27.01" y="17.7" width="8.4" height="48.48"/><path class="cls-2" d="M35.4,40a5.76,5.76,0,0,1,5.71-5.22h3.3a8.7,8.7,0,1,0-9,9Z"/><polygon class="cls-2" points="48.91 34.78 35.15 34.78 35.15 26.11 46.89 26.11 48.91 34.78"/><g class="cls-3"><circle class="cls-2" cx="34.47" cy="67.64" r="13.58" transform="translate(-37.73 44.19) rotate(-45)"/></g><rect class="cls-4" x="24.36" y="45.99" width="13.82" height="4.73"/><rect class="cls-4" x="35.43" y="43.72" width="3.41" height="10.03"/><rect class="cls-5" x="45.65" y="50.44" width="7.19" height="1.51"/><polygon class="cls-4" points="59.8 31.11 52.84 36.17 50.41 32.76 57.38 27.69 59.8 31.11"/><rect class="cls-4" x="38.49" y="51.76" width="17.67" height="1.99"/><circle class="cls-6" cx="58.6" cy="29.38" r="1.92"/><rect class="cls-5" x="24.72" y="63.82" width="35.93" height="3.47"/><circle class="cls-4" cx="31.55" cy="33.21" r="3.28"/><rect class="cls-4" x="54.59" y="28.33" width="2.39" height="6.15" transform="translate(-7.91 37.82) rotate(-35.13)"/><polygon class="cls-4" points="55.54 25.43 48.58 30.5 46.15 27.08 53.12 22.01 55.54 25.43"/><circle class="cls-6" cx="54.34" cy="23.7" r="1.92"/><rect class="cls-4" x="50.33" y="22.65" width="2.39" height="6.15" transform="translate(-5.42 34.34) rotate(-35.13)"/><line class="cls-7" x1="45.78" y1="41.38" x2="44.2" y2="43.21"/><path class="cls-8" d="M50,40a2.56,2.56,0,1,1-2.56-2.56A2.56,2.56,0,0,1,50,40Z"/><rect class="cls-4" x="44.12" y="34.78" width="6.05" height="5.78"/><rect class="cls-4" x="44.12" y="34.78" width="6.05" height="5.78"/><line class="cls-7" x1="49.31" y1="41.38" x2="50.89" y2="43.21"/><line class="cls-7" x1="47.42" y1="41.48" x2="47.48" y2="45.07"/><circle class="cls-8" cx="47.45" cy="45.07" r="0.44"/><polygon class="cls-2" points="55.46 36.55 50.17 40.55 39.78 26.25 45.08 22.24 55.46 36.55"/></svg>