<svg id="bg" xmlns="http://www.w3.org/2000/svg" viewBox="0 0 85 85"><defs><style>.cls-1{fill:#fff;}.cls-2{fill:#dbd4d2;}.cls-3{fill:#e33828;}.cls-4{fill:#68b545;}.cls-5{fill:#131211;}</style></defs><title>types of engineering</title><path class="cls-1" d="M37.73,43.24c0-.44,0-.87-.07-1.3l3.68-1-.92-3.41-3.68,1a11.58,11.58,0,0,0-2-3.05l2.45-2.93-2.7-2.27-2.45,2.93a11.72,11.72,0,0,0-4.35-1.58V27.81H24.21v3.82a11.54,11.54,0,0,0-3.46,1.08l-2.19-3.12-2.89,2,2.19,3.13a11.7,11.7,0,0,0-2.21,2.87L12.07,36.3l-1.21,3.32,3.58,1.3a11.85,11.85,0,0,0-.23,2.32,11.38,11.38,0,0,0,.08,1.31l-3.68,1,.91,3.41,3.68-1A11.89,11.89,0,0,0,17.15,51L14.7,53.93l2.7,2.27,2.46-2.93a11.61,11.61,0,0,0,4.35,1.59v3.82h3.53V54.86a11.88,11.88,0,0,0,3.45-1.09l2.19,3.13,2.89-2-2.19-3.12a11.64,11.64,0,0,0,2.21-2.87l3.58,1.3,1.21-3.32-3.58-1.3A11.78,11.78,0,0,0,37.73,43.24ZM26,46.59a3.35,3.35,0,1,1,3.35-3.35A3.35,3.35,0,0,1,26,46.59Z"/><path class="cls-2" d="M26,36.68a6.56,6.56,0,1,0,6.56,6.56A6.56,6.56,0,0,0,26,36.68Zm0,9.91a3.35,3.35,0,1,1,3.35-3.35A3.35,3.35,0,0,1,26,46.59Z"/><path class="cls-3" d="M26,50.87a7.63,7.63,0,1,1,7.63-7.63A7.64,7.64,0,0,1,26,50.87Zm0-13.11a5.49,5.49,0,1,0,5.49,5.48A5.5,5.5,0,0,0,26,37.76Z"/><circle class="cls-2" cx="54.52" cy="43.17" r="11.76" transform="translate(-1.68 2.21) rotate(-2.29)"/><rect class="cls-2" x="52.76" y="27.74" width="3.53" height="30.87" transform="translate(10.39 -10.57) rotate(12.24)"/><rect class="cls-2" x="52.76" y="27.74" width="3.53" height="30.87" transform="translate(-12.46 24.46) rotate(-22.76)"/><rect class="cls-2" x="52.76" y="27.74" width="3.53" height="30.87" transform="translate(-11.08 66.26) rotate(-57.76)"/><rect class="cls-2" x="52.76" y="27.74" width="3.53" height="30.87" transform="translate(14.03 99.71) rotate(-92.76)"/><rect class="cls-2" x="52.76" y="27.74" width="3.53" height="30.87" transform="translate(53.78 112.71) rotate(-127.76)"/><path class="cls-3" d="M60.93,44.56a6.56,6.56,0,1,1-5-7.8A6.56,6.56,0,0,1,60.93,44.56Z"/><path class="cls-4" d="M57.8,43.88a3.35,3.35,0,1,1-2.57-4A3.36,3.36,0,0,1,57.8,43.88Z"/><path class="cls-3" d="M60,44.34a5.6,5.6,0,1,1-4.29-6.66A5.61,5.61,0,0,1,60,44.34Z"/><rect class="cls-3" x="53.67" y="34.97" width="1.52" height="16.37"/><rect class="cls-3" x="53.67" y="34.97" width="1.52" height="16.37" transform="translate(-14.28 32.99) rotate(-30)"/><rect class="cls-3" x="53.67" y="34.97" width="1.52" height="16.37" transform="translate(-10.15 68.72) rotate(-60)"/><rect class="cls-3" x="53.67" y="34.97" width="1.52" height="16.37" transform="translate(11.28 97.59) rotate(-90)"/><rect class="cls-3" x="53.67" y="34.97" width="1.52" height="16.37" transform="translate(44.28 111.87) rotate(-120)"/><rect class="cls-3" x="53.67" y="34.97" width="1.52" height="16.37" transform="translate(80 107.74) rotate(-150)"/><path class="cls-5" d="M71.75,35.42a5.59,5.59,0,1,1-4.28-6.66A5.59,5.59,0,0,1,71.75,35.42Z"/><rect class="cls-5" x="65.45" y="26.05" width="1.52" height="16.37"/><rect class="cls-5" x="65.45" y="26.05" width="1.52" height="16.37" transform="translate(-8.24 37.69) rotate(-30)"/><rect class="cls-5" x="65.45" y="26.05" width="1.52" height="16.37" transform="translate(3.46 74.46) rotate(-60)"/><rect class="cls-5" x="65.45" y="26.05" width="1.52" height="16.37" transform="translate(31.98 100.44) rotate(-90)"/><rect class="cls-5" x="65.45" y="26.05" width="1.52" height="16.37" transform="translate(69.67 108.68) rotate(-120)"/><rect class="cls-5" x="65.45" y="26.05" width="1.52" height="16.37" transform="translate(106.44 96.98) rotate(-150)"/></svg>