<svg xmlns="http://www.w3.org/2000/svg" xmlns:xlink="http://www.w3.org/1999/xlink" viewBox="0 0 85 85"><defs><style>.cls-1{fill:none;}.cls-2{isolation:isolate;}.cls-3{fill:#dd3728;}.cls-4{fill:#fff;}.cls-5{fill:#12110f;}.cls-6{fill:#9ba094;}.cls-7{clip-path:url(#clip-path);}.cls-8{mix-blend-mode:multiply;}.cls-9{clip-path:url(#clip-path-2);}.cls-10{clip-path:url(#clip-path-3);}</style><clipPath id="clip-path"><path class="cls-1" d="M27.25,26.8V53.89h0a.37.37,0,0,0,0,.11,3.81,3.81,0,0,0,7.61,0s0-.08,0-.11h0V26.8Z"/></clipPath><clipPath id="clip-path-2"><path class="cls-1" d="M38.73,26.8V53.89h0V54a3.8,3.8,0,1,0,7.6,0v-.11h0V26.8Z"/></clipPath><clipPath id="clip-path-3"><path class="cls-1" d="M50.21,26.8V53.89h0V54a3.8,3.8,0,0,0,7.6,0v-.11h0V26.8Z"/></clipPath></defs><title>types of engineering</title><g class="cls-2"><g id="bg"><path class="cls-3" d="M34.86,54a3.81,3.81,0,1,1-3.81-3.81A3.81,3.81,0,0,1,34.86,54Z"/><path class="cls-4" d="M35.33,26.83H26.85A.85.85,0,0,1,26,26h0a.84.84,0,0,1,.84-.83h8.48a.84.84,0,0,1,.84.83h0A.85.85,0,0,1,35.33,26.83Z"/><rect class="cls-4" x="27.25" y="25.52" width="7.61" height="10.95"/><rect class="cls-3" x="27.25" y="36.47" width="7.61" height="17.42"/><path class="cls-3" d="M46.26,54a3.8,3.8,0,1,1-3.8-3.81A3.8,3.8,0,0,1,46.26,54Z"/><path class="cls-4" d="M46.74,26.83H38.26a.85.85,0,0,1-.84-.84h0a.84.84,0,0,1,.84-.83h8.48a.84.84,0,0,1,.84.83h0A.85.85,0,0,1,46.74,26.83Z"/><rect class="cls-4" x="38.66" y="25.52" width="7.61" height="10.95"/><rect class="cls-3" x="38.66" y="36.47" width="7.61" height="17.42"/><path class="cls-3" d="M57.67,54a3.8,3.8,0,1,1-3.8-3.81A3.8,3.8,0,0,1,57.67,54Z"/><path class="cls-4" d="M58.15,26.83H49.67a.85.85,0,0,1-.84-.84h0a.84.84,0,0,1,.84-.83h8.48A.84.84,0,0,1,59,26h0A.85.85,0,0,1,58.15,26.83Z"/><rect class="cls-4" x="50.07" y="25.52" width="7.61" height="10.95"/><rect class="cls-3" x="50.07" y="36.47" width="7.61" height="17.42"/><rect class="cls-5" x="23.18" y="44.33" width="38.63" height="2.13"/><rect class="cls-5" x="23.18" y="57.71" width="38.63" height="2.13"/><path class="cls-6" d="M34.81,36.09a3.9,3.9,0,1,1-3.9-3.9A3.9,3.9,0,0,1,34.81,36.09Z"/><path class="cls-6" d="M46.45,36.09a3.9,3.9,0,1,1-3.9-3.9A3.91,3.91,0,0,1,46.45,36.09Z"/><path class="cls-6" d="M57.85,36.09a3.9,3.9,0,1,1-3.9-3.9A3.9,3.9,0,0,1,57.85,36.09Z"/></g></g></svg>