<svg id="bg" xmlns="http://www.w3.org/2000/svg" viewBox="0 0 85 85"><defs><style>.cls-1{fill:#9ba094;}.cls-2{fill:#12110f;}.cls-3{fill:#dd3728;}.cls-4{fill:#d4cdcb;}.cls-5{fill:#ffebed;}</style></defs><title>types of engineering</title><path class="cls-1" d="M73.78,51h0a4.32,4.32,0,0,0-3.69-6.58H21.56a4.35,4.35,0,0,0-3.69,2.08h0l-6.51,10,7.26,1,48.59,3.55,6.46-9.89,0-.07Z"/><polygon class="cls-2" points="48.25 45.33 42.9 45.49 42.9 35.85 43.95 32.91 48.25 45.33"/><rect class="cls-3" x="31.41" y="35.85" width="11.49" height="11.49"/><path class="cls-2" d="M63.63,63H15.11a4.34,4.34,0,0,1-4.33-4.33h0a4.34,4.34,0,0,1,4.33-4.33H63.63A4.34,4.34,0,0,1,68,58.68h0A4.34,4.34,0,0,1,63.63,63Z"/><path class="cls-1" d="M17,58.68a1.92,1.92,0,1,1-1.92-1.92A1.92,1.92,0,0,1,17,58.68Z"/><polygon class="cls-1" points="60.84 59.42 18.07 59.42 16.53 61.61 59.3 61.61 60.84 59.42"/><path class="cls-1" d="M33.89,32.91a4.88,4.88,0,0,1-1.53,1.29l-.44.21-.51,1.44H42.9L44,32.91Z"/><path class="cls-1" d="M48.65,37.44a2.51,2.51,0,1,1-2.5-2.51A2.5,2.5,0,0,1,48.65,37.44Z"/><rect class="cls-4" x="45.39" y="23.85" width="1.5" height="12"/><rect class="cls-4" x="39.29" y="21.87" width="1.5" height="12" transform="translate(43.34 -20.81) rotate(59.04)"/><path class="cls-2" d="M48.65,24.49a2.51,2.51,0,1,1-2.5-2.5A2.5,2.5,0,0,1,48.65,24.49Z"/><path class="cls-4" d="M33.67,28.52a2.93,2.93,0,0,0-2.93,2.93c0,.09,0,.18,0,.28l.17-.11c1.42-.78,2.88-.84,3.27-.13s-.39,1.85-1.73,2.63a2.83,2.83,0,0,0,1.19.26,2.93,2.93,0,1,0,0-5.86Z"/><polygon class="cls-5" points="28.4 44.46 19.05 44.46 22.3 39.28 31.65 39.28 28.4 44.46"/><rect class="cls-3" x="19.05" y="44.46" width="9.32" height="8.31"/><polygon class="cls-2" points="28.37 44.46 31.65 39.26 31.65 47.58 28.37 52.77 28.37 44.46"/><polygon class="cls-5" points="43.65 44.46 34.3 44.46 37.55 39.28 46.9 39.28 43.65 44.46"/><rect class="cls-3" x="34.3" y="44.46" width="9.32" height="8.31"/><polygon class="cls-2" points="43.62 44.46 46.9 39.26 46.9 47.58 43.62 52.77 43.62 44.46"/><polygon class="cls-5" points="58.9 44.46 49.55 44.46 52.79 39.28 62.15 39.28 58.9 44.46"/><rect class="cls-3" x="49.55" y="44.46" width="9.32" height="8.31"/><polygon class="cls-2" points="58.87 44.46 62.15 39.26 62.15 47.58 58.87 52.77 58.87 44.46"/></svg>