<svg id="bg" xmlns="http://www.w3.org/2000/svg" viewBox="0 0 85 85"><defs><style>.cls-1{fill:#131211;}.cls-2{fill:#dbd4d2;}.cls-3{fill:#fff;}.cls-4{fill:#e33828;}</style></defs><title>types of engineering</title><circle class="cls-1" cx="42.5" cy="64.07" r="5.36"/><path class="cls-2" d="M48.72,51.15a2,2,0,0,1-2-2V21.28a1.61,1.61,0,0,0-3.22,0V38.42a2.05,2.05,0,0,1-4.1,0V21.28a5.71,5.71,0,0,1,11.42,0V49.1A2,2,0,0,1,48.72,51.15Z"/><path class="cls-3" d="M36.28,51.15a2,2,0,0,1-2.05-2V21.28a5.71,5.71,0,0,1,11.42,0V38.42a2,2,0,1,1-4.1,0V21.28a1.61,1.61,0,0,0-3.22,0V49.1A2,2,0,0,1,36.28,51.15Z"/><rect class="cls-4" x="36.53" y="44.96" width="11.93" height="19.22"/><path class="cls-3" d="M35.71,57.86a.72.72,0,0,1-.2-1.41l13.57-4a.72.72,0,0,1,.41,1.38l-13.57,4A.76.76,0,0,1,35.71,57.86Z"/><path class="cls-3" d="M35.71,60.36a.72.72,0,0,1-.2-1.4l13.57-4a.72.72,0,0,1,.41,1.38l-13.57,4A.76.76,0,0,1,35.71,60.36Z"/><path class="cls-3" d="M35.71,62.86a.7.7,0,0,1-.68-.51.71.71,0,0,1,.48-.89l13.57-4a.72.72,0,0,1,.41,1.37l-13.57,4A.76.76,0,0,1,35.71,62.86Z"/><path class="cls-3" d="M35.71,65.36a.7.7,0,0,1-.68-.51.71.71,0,0,1,.48-.89l13.57-4a.72.72,0,0,1,.41,1.38l-13.57,4A.75.75,0,0,1,35.71,65.36Z"/><rect class="cls-4" x="32.54" y="44.96" width="19.92" height="9.21"/></svg>