<svg id="bg" xmlns="http://www.w3.org/2000/svg" viewBox="0 0 85 85"><defs><style>.cls-1{fill:#131211;}.cls-2{fill:#fff;}.cls-3{fill:#e33828;}</style></defs><title>types of engineering</title><rect class="cls-1" x="37.06" y="48.58" width="7.56" height="7.71"/><rect class="cls-2" x="19.8" y="18.75" width="42.07" height="32.8"/><rect class="cls-1" x="22.08" y="21.6" width="37.51" height="24.61"/><rect class="cls-3" x="19.75" y="54.57" width="37.88" height="11.68"/><rect class="cls-2" x="21.29" y="55.62" width="1.81" height="1.56"/><rect class="cls-2" x="21.29" y="59.87" width="2.22" height="1.56"/><rect class="cls-2" x="21.29" y="57.8" width="1.29" height="1.56"/><rect class="cls-2" x="22.79" y="57.8" width="1.29" height="1.56"/><rect class="cls-2" x="24.29" y="57.8" width="1.29" height="1.56"/><rect class="cls-2" x="25.79" y="57.8" width="1.29" height="1.56"/><rect class="cls-2" x="27.29" y="57.8" width="1.29" height="1.56"/><rect class="cls-2" x="28.79" y="57.8" width="1.29" height="1.56"/><rect class="cls-2" x="30.3" y="57.8" width="1.29" height="1.56"/><rect class="cls-2" x="31.8" y="57.8" width="1.29" height="1.56"/><rect class="cls-2" x="33.3" y="57.8" width="1.29" height="1.56"/><rect class="cls-2" x="34.8" y="57.8" width="1.29" height="1.56"/><rect class="cls-2" x="36.3" y="57.8" width="1.29" height="1.56"/><rect class="cls-2" x="37.8" y="57.8" width="1.29" height="1.56"/><rect class="cls-2" x="39.3" y="57.8" width="1.29" height="1.56"/><rect class="cls-2" x="40.8" y="57.8" width="1.29" height="1.56"/><rect class="cls-2" x="42.3" y="57.8" width="1.29" height="1.56"/><rect class="cls-2" x="23.72" y="59.86" width="1.29" height="1.56"/><rect class="cls-2" x="25.22" y="59.86" width="1.29" height="1.56"/><rect class="cls-2" x="26.72" y="59.86" width="1.29" height="1.56"/><rect class="cls-2" x="52.21" y="59.86" width="1.29" height="1.56"/><rect class="cls-2" x="53.72" y="59.86" width="1.29" height="1.56"/><rect class="cls-2" x="55.22" y="59.86" width="1.29" height="1.56"/><rect class="cls-2" x="52.21" y="61.84" width="1.29" height="1.56"/><rect class="cls-2" x="53.72" y="61.84" width="1.29" height="1.56"/><rect class="cls-2" x="55.22" y="61.84" width="1.29" height="1.56"/><rect class="cls-2" x="52.21" y="57.8" width="1.29" height="1.56"/><rect class="cls-2" x="53.72" y="57.8" width="1.29" height="1.56"/><rect class="cls-2" x="55.22" y="57.8" width="1.29" height="1.56"/><rect class="cls-2" x="28.22" y="59.86" width="1.29" height="1.56"/><rect class="cls-2" x="29.72" y="59.86" width="1.29" height="1.56"/><rect class="cls-2" x="31.22" y="59.86" width="1.29" height="1.56"/><rect class="cls-2" x="32.72" y="59.86" width="1.29" height="1.56"/><rect class="cls-2" x="34.22" y="59.86" width="1.29" height="1.56"/><rect class="cls-2" x="35.72" y="59.86" width="1.29" height="1.56"/><rect class="cls-2" x="37.22" y="59.86" width="1.29" height="1.56"/><rect class="cls-2" x="38.73" y="59.86" width="1.29" height="1.56"/><rect class="cls-2" x="40.23" y="59.86" width="1.29" height="1.56"/><rect class="cls-2" x="41.73" y="59.86" width="1.29" height="1.56"/><rect class="cls-2" x="43.23" y="59.86" width="1.29" height="1.56"/><rect class="cls-2" x="43.8" y="57.8" width="2.17" height="1.56"/><rect class="cls-2" x="21.29" y="61.84" width="1.29" height="1.56"/><rect class="cls-2" x="22.79" y="61.84" width="1.29" height="1.56"/><rect class="cls-2" x="24.29" y="61.84" width="1.29" height="1.56"/><rect class="cls-2" x="25.79" y="61.84" width="1.29" height="1.56"/><rect class="cls-2" x="27.29" y="61.84" width="1.29" height="1.56"/><rect class="cls-2" x="28.79" y="61.84" width="1.29" height="1.56"/><rect class="cls-2" x="30.3" y="61.84" width="1.29" height="1.56"/><rect class="cls-2" x="31.8" y="61.84" width="1.29" height="1.56"/><rect class="cls-2" x="33.3" y="61.84" width="1.29" height="1.56"/><rect class="cls-2" x="34.8" y="61.84" width="1.29" height="1.56"/><rect class="cls-2" x="36.3" y="61.84" width="1.29" height="1.56"/><rect class="cls-2" x="37.8" y="61.84" width="1.29" height="1.56"/><rect class="cls-2" x="39.3" y="61.84" width="1.29" height="1.56"/><rect class="cls-2" x="40.8" y="61.84" width="1.29" height="1.56"/><rect class="cls-2" x="42.3" y="61.84" width="1.29" height="1.56"/><rect class="cls-2" x="43.8" y="61.84" width="2.17" height="1.56"/><rect class="cls-2" x="43.61" y="59.87" width="2.36" height="1.56"/><rect class="cls-2" x="24.03" y="55.62" width="6.05" height="1.58"/><rect class="cls-2" x="24.03" y="63.71" width="17.98" height="1.58"/><rect class="cls-2" x="31.97" y="55.62" width="6.05" height="1.58"/><rect class="cls-2" x="39.92" y="55.62" width="6.05" height="1.58"/><rect class="cls-2" x="46.41" y="63.74" width="1.29" height="1.56"/><rect class="cls-2" x="47.91" y="63.74" width="1.29" height="1.56"/><rect class="cls-2" x="47.91" y="61.84" width="1.29" height="1.56"/><rect class="cls-2" x="49.42" y="63.74" width="1.29" height="1.56"/><path class="cls-2" d="M62.19,66.09h0a3,3,0,0,1-3-3V57.9a3,3,0,0,1,3-3h0a3,3,0,0,1,3,3v5.18A3,3,0,0,1,62.19,66.09Z"/></svg>