<svg id="bg" xmlns="http://www.w3.org/2000/svg" viewBox="0 0 85 85"><defs><style>.cls-1{fill:#dd3728;}.cls-2{fill:#12110f;}.cls-3{fill:#d4cdcb;}.cls-4{fill:#9ba094;}.cls-5{fill:#ffebed;}</style></defs><title>types of engineering</title><polygon class="cls-1" points="73.04 26.44 25.8 26.44 11.96 58.56 59.2 58.56 73.04 26.44"/><polygon class="cls-2" points="53.82 29.56 31.66 29.56 24.01 47.31 46.17 47.31 53.82 29.56"/><rect class="cls-3" x="24.01" y="47.31" width="22.12" height="3.83"/><polygon class="cls-4" points="46.13 51.14 53.82 33.39 53.82 29.56 46.13 47.31 46.13 51.14"/><rect class="cls-5" x="24.74" y="48.47" width="0.82" height="5.33"/><rect class="cls-5" x="26.52" y="48.47" width="0.82" height="5.33"/><rect class="cls-5" x="28.29" y="48.47" width="0.82" height="5.33"/><rect class="cls-5" x="30.06" y="48.47" width="0.82" height="5.33"/><rect class="cls-5" x="31.84" y="48.47" width="0.82" height="5.33"/><rect class="cls-5" x="33.61" y="48.47" width="0.82" height="5.33"/><rect class="cls-5" x="35.39" y="48.47" width="0.82" height="5.33"/><rect class="cls-5" x="37.16" y="48.47" width="0.82" height="5.33"/><rect class="cls-5" x="38.94" y="48.47" width="0.82" height="5.33"/><rect class="cls-5" x="40.71" y="48.47" width="0.82" height="5.33"/><rect class="cls-5" x="42.49" y="48.47" width="0.82" height="5.33"/><rect class="cls-5" x="44.26" y="48.47" width="0.82" height="5.33"/><rect class="cls-5" x="47" y="46.73" width="0.82" height="5.33"/><rect class="cls-5" x="48.43" y="43.35" width="0.82" height="5.33"/><rect class="cls-5" x="49.86" y="39.97" width="0.82" height="5.33"/><rect class="cls-5" x="51.28" y="36.59" width="0.82" height="5.33"/><rect class="cls-5" x="52.71" y="33.21" width="0.82" height="5.33"/><rect class="cls-5" x="48.05" y="7.87" width="0.82" height="40.35" transform="translate(20.42 76.51) rotate(-90)"/><rect class="cls-5" x="60.76" y="33.62" width="0.82" height="8.67" transform="translate(23.22 99.13) rotate(-90)"/><rect class="cls-5" x="61.37" y="36.24" width="0.82" height="7.46" transform="translate(21.81 101.75) rotate(-90)"/><rect class="cls-5" x="54.43" y="26.71" width="0.82" height="31.11" transform="translate(22.32 -18.86) rotate(24.36)"/><rect class="cls-5" x="54.26" y="38.9" width="0.82" height="18.45" transform="translate(24.72 -18.26) rotate(24.36)"/></svg>