<svg id="bg" xmlns="http://www.w3.org/2000/svg" viewBox="0 0 85 85"><defs><style>.cls-1{fill:#dd3728;}.cls-2{fill:#fff;}.cls-3{fill:#9ba094;}.cls-4{fill:#d4cdcb;}.cls-5{fill:#12110f;}</style></defs><title>types of engineering</title><rect class="cls-1" x="7.27" y="28.23" width="70.45" height="28.54"/><circle class="cls-2" cx="25.53" cy="43.32" r="8.3" transform="translate(-22.5 58.21) rotate(-76.72)"/><path class="cls-2" d="M40.88,40.05V48.9a37,37,0,0,1,28.56,0V40.05a45.29,45.29,0,0,0-28.56,0Z"/><path class="cls-3" d="M55.16,34.1c-1.51,0-3,.08-4.47.22v8.34a38.74,38.74,0,0,1,4.47-.27,36.92,36.92,0,0,1,14.28,2.87V36.41A45.26,45.26,0,0,0,55.16,34.1Z"/><path class="cls-4" d="M40.88,36.41v8.85a37,37,0,0,1,9.81-2.6V34.32A45.53,45.53,0,0,0,40.88,36.41Z"/><path class="cls-5" d="M26.31,43.94a1,1,0,0,1-1.39.19,1,1,0,1,1,1.19-1.57A1,1,0,0,1,26.31,43.94Z"/><path class="cls-5" d="M29.24,39.16a.46.46,0,0,1-.65.09.46.46,0,0,1-.1-.65.47.47,0,0,1,.65-.09A.46.46,0,0,1,29.24,39.16Z"/><polygon class="cls-5" points="28.7 39.1 28.49 38.6 24.73 42.75 26.31 43.94 29.24 39.16 28.7 39.1"/><path class="cls-5" d="M48,44.86a1,1,0,1,1-1-1A1,1,0,0,1,48,44.86Z"/><path class="cls-5" d="M47.51,39.28a.47.47,0,1,1-.46-.46A.47.47,0,0,1,47.51,39.28Z"/><polygon class="cls-5" points="47.05 39.55 46.59 39.28 46.06 44.86 48.03 44.86 47.51 39.28 47.05 39.55"/></svg>