<svg id="bg" xmlns="http://www.w3.org/2000/svg" viewBox="0 0 85 85"><defs><style>.cls-1{fill:#d4cdcb;}.cls-2{fill:#9ba094;}.cls-3{fill:#dd3728;}.cls-4{fill:#12110f;}.cls-5{fill:#ffebed;}.cls-6{fill:none;stroke:#dd3728;stroke-miterlimit:10;stroke-width:1.64px;}</style></defs><title>types of engineering</title><rect class="cls-1" x="39.89" y="39.36" width="24.72" height="21.49"/><polygon class="cls-1" points="52.25 24.72 39.89 39.37 64.61 39.37 52.25 24.72"/><rect class="cls-1" x="32.59" y="24.72" width="19.72" height="18.93"/><polygon class="cls-2" points="32.49 24.72 20.13 39.37 20.13 60.85 44.85 60.85 44.85 39.37 44.85 39.37 32.49 24.72"/><rect class="cls-3" x="30.74" y="40.52" width="15.31" height="20.33"/><rect class="cls-4" x="46.05" y="40.52" width="15.31" height="20.33"/><polygon class="cls-5" points="61.36 40.57 37.44 40.57 41.57 35.91 57.23 35.91 61.36 40.57"/><polygon class="cls-3" points="46.05 40.57 30.74 40.57 34.87 35.91 41.91 35.91 46.05 40.57"/><path class="cls-6" d="M48.63,60.85V43.4a1.48,1.48,0,0,1,1.48-1.48h0a1.49,1.49,0,0,1,1.48,1.48v15a1.48,1.48,0,0,0,1.48,1.48h0a1.48,1.48,0,0,0,1.48-1.48v-15A1.48,1.48,0,0,1,56,41.92h0a1.48,1.48,0,0,1,1.48,1.48V60.85"/><path class="cls-3" d="M59.27,29.64H53.78a5.49,5.49,0,0,1,5.49-5.49Z"/><rect class="cls-3" x="50.99" y="32.3" width="11.05" height="5.48" transform="translate(91.56 -21.48) rotate(90)"/><rect class="cls-4" x="59.22" y="24.15" width="5.65" height="5.65"/><rect class="cls-3" x="59.74" y="25.04" width="4.76" height="0.44"/><rect class="cls-3" x="59.74" y="25.93" width="4.76" height="0.44"/><rect class="cls-3" x="59.74" y="26.82" width="4.76" height="0.44"/><rect class="cls-3" x="59.74" y="27.7" width="4.76" height="0.44"/><rect class="cls-3" x="59.74" y="28.59" width="4.76" height="0.44"/></svg>